%TF.GenerationSoftware,KiCad,Pcbnew,10.0.6*%
%TF.CreationDate,2026-09-19T17:07:55-07:00*%
%TF.ProjectId,jaladarangam-control-board,6a616c61-6461-4726-916e-67616d2d636f,rev?*%
%TF.SameCoordinates,Original*%
%TF.FileFunction,Copper,L1,Top*%
%TF.FilePolarity,Positive*%
%FSLAX46Y46*%
G04 Gerber Fmt 4.6, Leading zero omitted, Abs format (unit mm)*
G04 Created by KiCad (PCBNEW 10.0.6) date 2026-09-19 17:07:55*
%MOMM*%
%LPD*%
G01*
G04 APERTURE LIST*
G04 Aperture macros list*
%AMRoundRect*
0 Rectangle with rounded corners*
0 $1 Rounding radius*
0 $2 $3 $4 $5 $6 $7 $8 $9 X,Y pos of 4 corners*
0 Add a 4 corners polygon primitive as box body*
4,1,4,$2,$3,$4,$5,$6,$7,$8,$9,$2,$3,0*
0 Add four circle primitives for the rounded corners*
1,1,$1+$1,$2,$3*
1,1,$1+$1,$4,$5*
1,1,$1+$1,$6,$7*
1,1,$1+$1,$8,$9*
0 Add four rect primitives between the rounded corners*
20,1,$1+$1,$2,$3,$4,$5,0*
20,1,$1+$1,$4,$5,$6,$7,0*
20,1,$1+$1,$6,$7,$8,$9,0*
20,1,$1+$1,$8,$9,$2,$3,0*%
G04 Aperture macros list end*
%TA.AperFunction,ComponentPad*%
%ADD10R,1.700000X1.700000*%
%TD*%
%TA.AperFunction,ComponentPad*%
%ADD11C,1.700000*%
%TD*%
%TA.AperFunction,ComponentPad*%
%ADD12RoundRect,0.250000X-0.550000X-0.550000X0.550000X-0.550000X0.550000X0.550000X-0.550000X0.550000X0*%
%TD*%
%TA.AperFunction,ComponentPad*%
%ADD13C,1.600000*%
%TD*%
%TA.AperFunction,ComponentPad*%
%ADD14RoundRect,0.250000X0.550000X-0.550000X0.550000X0.550000X-0.550000X0.550000X-0.550000X-0.550000X0*%
%TD*%
%TA.AperFunction,ComponentPad*%
%ADD15RoundRect,0.250001X1.149999X1.149999X-1.149999X1.149999X-1.149999X-1.149999X1.149999X-1.149999X0*%
%TD*%
%TA.AperFunction,ComponentPad*%
%ADD16C,2.800000*%
%TD*%
%TA.AperFunction,ViaPad*%
%ADD17C,1.000000*%
%TD*%
%TA.AperFunction,ViaPad*%
%ADD18C,0.800000*%
%TD*%
%TA.AperFunction,Conductor*%
%ADD19C,0.800000*%
%TD*%
%TA.AperFunction,Conductor*%
%ADD20C,0.400000*%
%TD*%
G04 APERTURE END LIST*
D10*
%TO.P,J16,1*%
%TO.N,MOTOR_V+*%
X139000000Y-67730000D03*
D11*
%TO.P,J16,2*%
%TO.N,MOTOR6*%
X139000000Y-70270000D03*
%TD*%
D12*
%TO.P,C2,1*%
%TO.N,+3V3*%
X67750000Y-47000000D03*
D13*
%TO.P,C2,2*%
%TO.N,GND*%
X70250000Y-47000000D03*
%TD*%
D10*
%TO.P,J7,1*%
%TO.N,+3V3*%
X60500000Y-5730000D03*
D11*
%TO.P,J7,2*%
%TO.N,FSR5*%
X60500000Y-8270000D03*
%TD*%
D10*
%TO.P,J4,1*%
%TO.N,+3V3*%
X41000000Y-5730000D03*
D11*
%TO.P,J4,2*%
%TO.N,FSR2*%
X41000000Y-8270000D03*
%TD*%
D13*
%TO.P,C5,1*%
%TO.N,MOTOR_V+*%
X93500000Y-92000000D03*
%TO.P,C5,2*%
%TO.N,GND*%
X98500000Y-92000000D03*
%TD*%
D12*
%TO.P,C8,1*%
%TO.N,MOTOR_V+*%
X105250000Y-92000000D03*
D13*
%TO.P,C8,2*%
%TO.N,GND*%
X108750000Y-92000000D03*
%TD*%
%TO.P,R13,1*%
%TO.N,AUX4*%
X54000000Y-79080000D03*
%TO.P,R13,2*%
%TO.N,GND*%
X54000000Y-68920000D03*
%TD*%
D14*
%TO.P,U3,1*%
%TO.N,MTRDRV0*%
X95840000Y-53810000D03*
D13*
%TO.P,U3,2*%
%TO.N,MTRDRV1*%
X98380000Y-53810000D03*
%TO.P,U3,3*%
%TO.N,MTRDRV2*%
X100920000Y-53810000D03*
%TO.P,U3,4*%
%TO.N,MTRDRV3*%
X103460000Y-53810000D03*
%TO.P,U3,5*%
%TO.N,MTRDRV4*%
X106000000Y-53810000D03*
%TO.P,U3,6*%
%TO.N,MTRDRV5*%
X108540000Y-53810000D03*
%TO.P,U3,7*%
%TO.N,MTRDRV6*%
X111080000Y-53810000D03*
%TO.P,U3,8*%
%TO.N,MTRDRV7*%
X113620000Y-53810000D03*
%TO.P,U3,9*%
%TO.N,GND*%
X116160000Y-53810000D03*
%TO.P,U3,10*%
%TO.N,MOTOR_V+*%
X116160000Y-46190000D03*
%TO.P,U3,11*%
%TO.N,MOTOR7*%
X113620000Y-46190000D03*
%TO.P,U3,12*%
%TO.N,MOTOR6*%
X111080000Y-46190000D03*
%TO.P,U3,13*%
%TO.N,MOTOR5*%
X108540000Y-46190000D03*
%TO.P,U3,14*%
%TO.N,MOTOR4*%
X106000000Y-46190000D03*
%TO.P,U3,15*%
%TO.N,MOTOR3*%
X103460000Y-46190000D03*
%TO.P,U3,16*%
%TO.N,MOTOR2*%
X100920000Y-46190000D03*
%TO.P,U3,17*%
%TO.N,MOTOR1*%
X98380000Y-46190000D03*
%TO.P,U3,18*%
%TO.N,MOTOR0*%
X95840000Y-46190000D03*
%TD*%
D10*
%TO.P,J10,1*%
%TO.N,MOTOR_V+*%
X139000000Y-16730000D03*
D11*
%TO.P,J10,2*%
%TO.N,MOTOR0*%
X139000000Y-19270000D03*
%TD*%
D10*
%TO.P,J14,1*%
%TO.N,MOTOR_V+*%
X139000000Y-50730000D03*
D11*
%TO.P,J14,2*%
%TO.N,MOTOR4*%
X139000000Y-53270000D03*
%TD*%
D13*
%TO.P,R15,1*%
%TO.N,AUX6*%
X67000000Y-79080000D03*
%TO.P,R15,2*%
%TO.N,GND*%
X67000000Y-68920000D03*
%TD*%
%TO.P,R8,1*%
%TO.N,FSR7*%
X73500000Y-27080000D03*
%TO.P,R8,2*%
%TO.N,GND*%
X73500000Y-16920000D03*
%TD*%
D10*
%TO.P,J19,1*%
%TO.N,GND*%
X24570000Y-103000000D03*
D11*
%TO.P,J19,2*%
%TO.N,AUX0*%
X27110000Y-103000000D03*
%TO.P,J19,3*%
%TO.N,AUX1*%
X29650000Y-103000000D03*
%TO.P,J19,4*%
%TO.N,AUX2*%
X32190000Y-103000000D03*
%TO.P,J19,5*%
%TO.N,AUX3*%
X34730000Y-103000000D03*
%TO.P,J19,6*%
%TO.N,AUX4*%
X37270000Y-103000000D03*
%TO.P,J19,7*%
%TO.N,AUX5*%
X39810000Y-103000000D03*
%TO.P,J19,8*%
%TO.N,AUX6*%
X42350000Y-103000000D03*
%TO.P,J19,9*%
%TO.N,AUX7*%
X44890000Y-103000000D03*
%TO.P,J19,10*%
%TO.N,GND*%
X47430000Y-103000000D03*
%TD*%
D10*
%TO.P,J3,1*%
%TO.N,+3V3*%
X34500000Y-5730000D03*
D11*
%TO.P,J3,2*%
%TO.N,FSR1*%
X34500000Y-8270000D03*
%TD*%
D13*
%TO.P,R12,1*%
%TO.N,AUX3*%
X47500000Y-79080000D03*
%TO.P,R12,2*%
%TO.N,GND*%
X47500000Y-68920000D03*
%TD*%
D10*
%TO.P,J13,1*%
%TO.N,MOTOR_V+*%
X139000000Y-42230000D03*
D11*
%TO.P,J13,2*%
%TO.N,MOTOR3*%
X139000000Y-44770000D03*
%TD*%
D13*
%TO.P,R4,1*%
%TO.N,FSR3*%
X47500000Y-27080000D03*
%TO.P,R4,2*%
%TO.N,GND*%
X47500000Y-16920000D03*
%TD*%
%TO.P,R5,1*%
%TO.N,FSR4*%
X54000000Y-27080000D03*
%TO.P,R5,2*%
%TO.N,GND*%
X54000000Y-16920000D03*
%TD*%
%TO.P,C3,1*%
%TO.N,+3V3*%
X121500000Y-34000000D03*
%TO.P,C3,2*%
%TO.N,GND*%
X126500000Y-34000000D03*
%TD*%
%TO.P,R2,1*%
%TO.N,FSR1*%
X34500000Y-27080000D03*
%TO.P,R2,2*%
%TO.N,GND*%
X34500000Y-16920000D03*
%TD*%
%TO.P,R1,1*%
%TO.N,FSR0*%
X28000000Y-27080000D03*
%TO.P,R1,2*%
%TO.N,GND*%
X28000000Y-16920000D03*
%TD*%
D10*
%TO.P,J12,1*%
%TO.N,MOTOR_V+*%
X139000000Y-33730000D03*
D11*
%TO.P,J12,2*%
%TO.N,MOTOR2*%
X139000000Y-36270000D03*
%TD*%
D13*
%TO.P,R3,1*%
%TO.N,FSR2*%
X41000000Y-27080000D03*
%TO.P,R3,2*%
%TO.N,GND*%
X41000000Y-16920000D03*
%TD*%
%TO.P,R7,1*%
%TO.N,FSR6*%
X67000000Y-27080000D03*
%TO.P,R7,2*%
%TO.N,GND*%
X67000000Y-16920000D03*
%TD*%
%TO.P,C6,1*%
%TO.N,+3V3*%
X13500000Y-30000000D03*
%TO.P,C6,2*%
%TO.N,GND*%
X18500000Y-30000000D03*
%TD*%
D10*
%TO.P,J15,1*%
%TO.N,MOTOR_V+*%
X139000000Y-59230000D03*
D11*
%TO.P,J15,2*%
%TO.N,MOTOR5*%
X139000000Y-61770000D03*
%TD*%
D13*
%TO.P,R10,1*%
%TO.N,AUX1*%
X34500000Y-79080000D03*
%TO.P,R10,2*%
%TO.N,GND*%
X34500000Y-68920000D03*
%TD*%
D10*
%TO.P,J8,1*%
%TO.N,+3V3*%
X67000000Y-5730000D03*
D11*
%TO.P,J8,2*%
%TO.N,FSR6*%
X67000000Y-8270000D03*
%TD*%
D13*
%TO.P,R9,1*%
%TO.N,AUX0*%
X28000000Y-79080000D03*
%TO.P,R9,2*%
%TO.N,GND*%
X28000000Y-68920000D03*
%TD*%
D10*
%TO.P,J11,1*%
%TO.N,MOTOR_V+*%
X139000000Y-25230000D03*
D11*
%TO.P,J11,2*%
%TO.N,MOTOR1*%
X139000000Y-27770000D03*
%TD*%
D10*
%TO.P,J9,1*%
%TO.N,+3V3*%
X73500000Y-5730000D03*
D11*
%TO.P,J9,2*%
%TO.N,FSR7*%
X73500000Y-8270000D03*
%TD*%
D15*
%TO.P,J18,1*%
%TO.N,MOTOR_V+*%
X124500000Y-92000000D03*
D16*
%TO.P,J18,2*%
%TO.N,GND*%
X119500000Y-92000000D03*
%TD*%
D13*
%TO.P,R11,1*%
%TO.N,AUX2*%
X41000000Y-79080000D03*
%TO.P,R11,2*%
%TO.N,GND*%
X41000000Y-68920000D03*
%TD*%
D10*
%TO.P,J17,1*%
%TO.N,MOTOR_V+*%
X139000000Y-76230000D03*
D11*
%TO.P,J17,2*%
%TO.N,MOTOR7*%
X139000000Y-78770000D03*
%TD*%
D10*
%TO.P,J2,1*%
%TO.N,+3V3*%
X28000000Y-5730000D03*
D11*
%TO.P,J2,2*%
%TO.N,FSR0*%
X28000000Y-8270000D03*
%TD*%
D13*
%TO.P,R14,1*%
%TO.N,AUX5*%
X60500000Y-79080000D03*
%TO.P,R14,2*%
%TO.N,GND*%
X60500000Y-68920000D03*
%TD*%
%TO.P,C4,1*%
%TO.N,+3V3*%
X66500000Y-90000000D03*
%TO.P,C4,2*%
%TO.N,GND*%
X71500000Y-90000000D03*
%TD*%
%TO.P,C1,1*%
%TO.N,+3V3*%
X66500000Y-36000000D03*
%TO.P,C1,2*%
%TO.N,GND*%
X71500000Y-36000000D03*
%TD*%
D14*
%TO.P,U4,1*%
%TO.N,IN_SHLD*%
X41110000Y-93810000D03*
D13*
%TO.P,U4,2*%
%TO.N,IN_CLK*%
X43650000Y-93810000D03*
%TO.P,U4,3*%
%TO.N,AUX4*%
X46190000Y-93810000D03*
%TO.P,U4,4*%
%TO.N,AUX5*%
X48730000Y-93810000D03*
%TO.P,U4,5*%
%TO.N,AUX6*%
X51270000Y-93810000D03*
%TO.P,U4,6*%
%TO.N,AUX7*%
X53810000Y-93810000D03*
%TO.P,U4,7*%
%TO.N,N/C*%
X56350000Y-93810000D03*
%TO.P,U4,8*%
%TO.N,GND*%
X58890000Y-93810000D03*
%TO.P,U4,9*%
%TO.N,IN_QH*%
X58890000Y-86190000D03*
%TO.P,U4,10*%
%TO.N,GND*%
X56350000Y-86190000D03*
%TO.P,U4,11*%
%TO.N,AUX0*%
X53810000Y-86190000D03*
%TO.P,U4,12*%
%TO.N,AUX1*%
X51270000Y-86190000D03*
%TO.P,U4,13*%
%TO.N,AUX2*%
X48730000Y-86190000D03*
%TO.P,U4,14*%
%TO.N,AUX3*%
X46190000Y-86190000D03*
%TO.P,U4,15*%
%TO.N,GND*%
X43650000Y-86190000D03*
%TO.P,U4,16*%
%TO.N,+3V3*%
X41110000Y-86190000D03*
%TD*%
D10*
%TO.P,J1,1*%
%TO.N,+3V3*%
X6730000Y-30870000D03*
D11*
%TO.P,J1,2*%
%TO.N,N/C*%
X9270000Y-30870000D03*
%TO.P,J1,3*%
X6730000Y-33410000D03*
%TO.P,J1,4*%
X9270000Y-33410000D03*
%TO.P,J1,5*%
X6730000Y-35950000D03*
%TO.P,J1,6*%
%TO.N,GND*%
X9270000Y-35950000D03*
%TO.P,J1,7*%
%TO.N,N/C*%
X6730000Y-38490000D03*
%TO.P,J1,8*%
X9270000Y-38490000D03*
%TO.P,J1,9*%
%TO.N,GND*%
X6730000Y-41030000D03*
%TO.P,J1,10*%
%TO.N,N/C*%
X9270000Y-41030000D03*
%TO.P,J1,11*%
%TO.N,SR_SER*%
X6730000Y-43570000D03*
%TO.P,J1,12*%
%TO.N,N/C*%
X9270000Y-43570000D03*
%TO.P,J1,13*%
%TO.N,SR_RCLK*%
X6730000Y-46110000D03*
%TO.P,J1,14*%
%TO.N,GND*%
X9270000Y-46110000D03*
%TO.P,J1,15*%
%TO.N,SR_SRCLK*%
X6730000Y-48650000D03*
%TO.P,J1,16*%
%TO.N,IN_SHLD*%
X9270000Y-48650000D03*
%TO.P,J1,17*%
%TO.N,+3V3*%
X6730000Y-51190000D03*
%TO.P,J1,18*%
%TO.N,IN_CLK*%
X9270000Y-51190000D03*
%TO.P,J1,19*%
%TO.N,SPI_MOSI*%
X6730000Y-53730000D03*
%TO.P,J1,20*%
%TO.N,GND*%
X9270000Y-53730000D03*
%TO.P,J1,21*%
%TO.N,SPI_MISO*%
X6730000Y-56270000D03*
%TO.P,J1,22*%
%TO.N,IN_QH*%
X9270000Y-56270000D03*
%TO.P,J1,23*%
%TO.N,SPI_SCLK*%
X6730000Y-58810000D03*
%TO.P,J1,24*%
%TO.N,SPI_CE0*%
X9270000Y-58810000D03*
%TO.P,J1,25*%
%TO.N,GND*%
X6730000Y-61350000D03*
%TO.P,J1,26*%
%TO.N,N/C*%
X9270000Y-61350000D03*
%TO.P,J1,27*%
X6730000Y-63890000D03*
%TO.P,J1,28*%
X9270000Y-63890000D03*
%TO.P,J1,29*%
X6730000Y-66430000D03*
%TO.P,J1,30*%
%TO.N,GND*%
X9270000Y-66430000D03*
%TO.P,J1,31*%
%TO.N,N/C*%
X6730000Y-68970000D03*
%TO.P,J1,32*%
X9270000Y-68970000D03*
%TO.P,J1,33*%
X6730000Y-71510000D03*
%TO.P,J1,34*%
%TO.N,GND*%
X9270000Y-71510000D03*
%TO.P,J1,35*%
%TO.N,N/C*%
X6730000Y-74050000D03*
%TO.P,J1,36*%
X9270000Y-74050000D03*
%TO.P,J1,37*%
X6730000Y-76590000D03*
%TO.P,J1,38*%
X9270000Y-76590000D03*
%TO.P,J1,39*%
%TO.N,GND*%
X6730000Y-79130000D03*
%TO.P,J1,40*%
%TO.N,N/C*%
X9270000Y-79130000D03*
%TD*%
D13*
%TO.P,R16,1*%
%TO.N,AUX7*%
X73500000Y-79080000D03*
%TO.P,R16,2*%
%TO.N,GND*%
X73500000Y-68920000D03*
%TD*%
D12*
%TO.P,C7,1*%
%TO.N,+3V3*%
X14750000Y-41000000D03*
D13*
%TO.P,C7,2*%
%TO.N,GND*%
X17250000Y-41000000D03*
%TD*%
D14*
%TO.P,U2,1*%
%TO.N,MTRDRV1*%
X97110000Y-27810000D03*
D13*
%TO.P,U2,2*%
%TO.N,MTRDRV2*%
X99650000Y-27810000D03*
%TO.P,U2,3*%
%TO.N,MTRDRV3*%
X102190000Y-27810000D03*
%TO.P,U2,4*%
%TO.N,MTRDRV4*%
X104730000Y-27810000D03*
%TO.P,U2,5*%
%TO.N,MTRDRV5*%
X107270000Y-27810000D03*
%TO.P,U2,6*%
%TO.N,MTRDRV6*%
X109810000Y-27810000D03*
%TO.P,U2,7*%
%TO.N,MTRDRV7*%
X112350000Y-27810000D03*
%TO.P,U2,8*%
%TO.N,GND*%
X114890000Y-27810000D03*
%TO.P,U2,9*%
%TO.N,N/C*%
X114890000Y-20190000D03*
%TO.P,U2,10*%
%TO.N,+3V3*%
X112350000Y-20190000D03*
%TO.P,U2,11*%
%TO.N,SR_SRCLK*%
X109810000Y-20190000D03*
%TO.P,U2,12*%
%TO.N,SR_RCLK*%
X107270000Y-20190000D03*
%TO.P,U2,13*%
%TO.N,GND*%
X104730000Y-20190000D03*
%TO.P,U2,14*%
%TO.N,SR_SER*%
X102190000Y-20190000D03*
%TO.P,U2,15*%
%TO.N,MTRDRV0*%
X99650000Y-20190000D03*
%TO.P,U2,16*%
%TO.N,+3V3*%
X97110000Y-20190000D03*
%TD*%
D14*
%TO.P,U1,1*%
%TO.N,FSR0*%
X41110000Y-45810000D03*
D13*
%TO.P,U1,2*%
%TO.N,FSR1*%
X43650000Y-45810000D03*
%TO.P,U1,3*%
%TO.N,FSR2*%
X46190000Y-45810000D03*
%TO.P,U1,4*%
%TO.N,FSR3*%
X48730000Y-45810000D03*
%TO.P,U1,5*%
%TO.N,FSR4*%
X51270000Y-45810000D03*
%TO.P,U1,6*%
%TO.N,FSR5*%
X53810000Y-45810000D03*
%TO.P,U1,7*%
%TO.N,FSR6*%
X56350000Y-45810000D03*
%TO.P,U1,8*%
%TO.N,FSR7*%
X58890000Y-45810000D03*
%TO.P,U1,9*%
%TO.N,GND*%
X58890000Y-38190000D03*
%TO.P,U1,10*%
%TO.N,SPI_CE0*%
X56350000Y-38190000D03*
%TO.P,U1,11*%
%TO.N,SPI_MOSI*%
X53810000Y-38190000D03*
%TO.P,U1,12*%
%TO.N,SPI_MISO*%
X51270000Y-38190000D03*
%TO.P,U1,13*%
%TO.N,SPI_SCLK*%
X48730000Y-38190000D03*
%TO.P,U1,14*%
%TO.N,GND*%
X46190000Y-38190000D03*
%TO.P,U1,15*%
%TO.N,+3V3*%
X43650000Y-38190000D03*
%TO.P,U1,16*%
X41110000Y-38190000D03*
%TD*%
%TO.P,R6,1*%
%TO.N,FSR5*%
X60500000Y-27080000D03*
%TO.P,R6,2*%
%TO.N,GND*%
X60500000Y-16920000D03*
%TD*%
D10*
%TO.P,J6,1*%
%TO.N,+3V3*%
X54000000Y-5730000D03*
D11*
%TO.P,J6,2*%
%TO.N,FSR4*%
X54000000Y-8270000D03*
%TD*%
D10*
%TO.P,J5,1*%
%TO.N,+3V3*%
X47500000Y-5730000D03*
D11*
%TO.P,J5,2*%
%TO.N,FSR3*%
X47500000Y-8270000D03*
%TD*%
D17*
%TO.N,+3V3*%
X3075000Y-30870000D03*
%TO.N,MOTOR5*%
X123643400Y-48087800D03*
D18*
%TO.N,IN_SHLD*%
X32021500Y-51789300D03*
%TO.N,IN_CLK*%
X14761300Y-77771600D03*
X14761300Y-53286300D03*
%TO.N,IN_QH*%
X13054800Y-56741900D03*
X13054800Y-76491500D03*
%TO.N,SR_SER*%
X10846500Y-33129700D03*
%TO.N,SR_RCLK*%
X97255300Y-18477400D03*
X9608600Y-24652500D03*
%TO.N,SR_SRCLK*%
X4053700Y-19126500D03*
%TO.N,SPI_MOSI*%
X11760100Y-45733100D03*
%TO.N,SPI_MISO*%
X14301800Y-38978800D03*
%TD*%
%TO.N,MOTOR_V+*%
D19*
X124500000Y-90730000D02*
X139000000Y-76230000D01*
X105250000Y-93513300D02*
X95013300Y-93513300D01*
X95013300Y-93513300D02*
X93500000Y-92000000D01*
X116160000Y-46190000D02*
X132958300Y-46190000D01*
X105842200Y-94105500D02*
X105250000Y-93513300D01*
X139000000Y-50730000D02*
X137498300Y-50730000D01*
X124500000Y-92000000D02*
X122394500Y-94105500D01*
X132958300Y-46190000D02*
X137498300Y-50730000D01*
X124500000Y-92000000D02*
X124500000Y-90730000D01*
X122394500Y-94105500D02*
X105842200Y-94105500D01*
X105250000Y-93513300D02*
X105250000Y-92000000D01*
%TO.N,+3V3*%
X110869100Y-18709100D02*
X112350000Y-20190000D01*
X41110000Y-86190000D02*
X44920000Y-90000000D01*
X73500000Y-5730000D02*
X67000000Y-5730000D01*
X36831900Y-42468100D02*
X16218100Y-42468100D01*
X47500000Y-5730000D02*
X54000000Y-5730000D01*
X46181500Y-35658500D02*
X66158500Y-35658500D01*
X43650000Y-38190000D02*
X46181500Y-35658500D01*
X66158500Y-35658500D02*
X66500000Y-36000000D01*
X8290900Y-29309100D02*
X12809100Y-29309100D01*
X97110000Y-20190000D02*
X98590900Y-18709100D01*
X28000000Y-5730000D02*
X34500000Y-5730000D01*
X44920000Y-90000000D02*
X66500000Y-90000000D01*
X41110000Y-38190000D02*
X36831900Y-42468100D01*
X34500000Y-5730000D02*
X41000000Y-5730000D01*
X6730000Y-30870000D02*
X3075000Y-30870000D01*
X12809100Y-29309100D02*
X13500000Y-30000000D01*
X41110000Y-38190000D02*
X43650000Y-38190000D01*
X6730000Y-30870000D02*
X8290900Y-29309100D01*
X67000000Y-5730000D02*
X60500000Y-5730000D01*
X47500000Y-5730000D02*
X41000000Y-5730000D01*
X54000000Y-5730000D02*
X60500000Y-5730000D01*
X16218100Y-42468100D02*
X14750000Y-41000000D01*
X98590900Y-18709100D02*
X110869100Y-18709100D01*
%TO.N,GND*%
X41000000Y-68920000D02*
X34500000Y-68920000D01*
X96500000Y-90000000D02*
X71500000Y-90000000D01*
X114890000Y-27810000D02*
X120310000Y-27810000D01*
X58890000Y-93810000D02*
X67690000Y-93810000D01*
X67690000Y-93810000D02*
X71500000Y-90000000D01*
X12760400Y-35950000D02*
X9270000Y-35950000D01*
X54895400Y-87644600D02*
X56350000Y-86190000D01*
X98500000Y-92000000D02*
X96500000Y-90000000D01*
X69310000Y-38190000D02*
X71500000Y-36000000D01*
X41000000Y-68920000D02*
X47500000Y-68920000D01*
X24570000Y-103000000D02*
X26113500Y-104543500D01*
X17250000Y-40439600D02*
X12760400Y-35950000D01*
X6730000Y-41030000D02*
X5207000Y-42553000D01*
X45886500Y-104543500D02*
X47430000Y-103000000D01*
X73500000Y-68920000D02*
X67000000Y-68920000D01*
X102339300Y-22580700D02*
X84919300Y-22580700D01*
X54000000Y-16920000D02*
X47500000Y-16920000D01*
X67000000Y-68920000D02*
X60500000Y-68920000D01*
X60500000Y-68920000D02*
X54000000Y-68920000D01*
X34500000Y-16920000D02*
X41000000Y-16920000D01*
X60500000Y-16920000D02*
X54000000Y-16920000D01*
X41000000Y-16920000D02*
X47500000Y-16920000D01*
X47500000Y-68920000D02*
X54000000Y-68920000D01*
X26113500Y-104543500D02*
X45886500Y-104543500D01*
X5207000Y-59827000D02*
X6730000Y-61350000D01*
X17250000Y-41000000D02*
X17250000Y-40439600D01*
X28000000Y-68920000D02*
X34500000Y-68920000D01*
X104730000Y-20190000D02*
X102339300Y-22580700D01*
X43650000Y-86190000D02*
X45104600Y-87644600D01*
X108750000Y-92000000D02*
X107281100Y-90531100D01*
X67000000Y-16920000D02*
X73500000Y-16920000D01*
X5207000Y-42553000D02*
X5207000Y-59827000D01*
X84919300Y-22580700D02*
X71500000Y-36000000D01*
X45104600Y-87644600D02*
X54895400Y-87644600D01*
X119500000Y-92000000D02*
X108750000Y-92000000D01*
X28000000Y-16920000D02*
X34500000Y-16920000D01*
X120310000Y-27810000D02*
X126500000Y-34000000D01*
X57436100Y-36736100D02*
X58890000Y-38190000D01*
X58890000Y-38190000D02*
X69310000Y-38190000D01*
X60500000Y-16920000D02*
X67000000Y-16920000D01*
X99968900Y-90531100D02*
X98500000Y-92000000D01*
X47643900Y-36736100D02*
X57436100Y-36736100D01*
X46190000Y-38190000D02*
X47643900Y-36736100D01*
X107281100Y-90531100D02*
X99968900Y-90531100D01*
%TO.N,MTRDRV6*%
D20*
X100371100Y-47441700D02*
X104711700Y-47441700D01*
X109810000Y-27810000D02*
X99651500Y-37968500D01*
X99651500Y-46722100D02*
X100371100Y-47441700D01*
X99651500Y-37968500D02*
X99651500Y-46722100D01*
X104711700Y-47441700D02*
X111080000Y-53810000D01*
%TO.N,MOTOR5*%
D19*
X123643400Y-48087800D02*
X110437800Y-48087800D01*
X110437800Y-48087800D02*
X108540000Y-46190000D01*
%TO.N,MOTOR4*%
X117610200Y-52230200D02*
X118650000Y-53270000D01*
X106000000Y-46190000D02*
X112040200Y-52230200D01*
X112040200Y-52230200D02*
X117610200Y-52230200D01*
X118650000Y-53270000D02*
X139000000Y-53270000D01*
%TO.N,MOTOR3*%
X104949800Y-44700200D02*
X103460000Y-46190000D01*
X139000000Y-44770000D02*
X138930200Y-44700200D01*
X138930200Y-44700200D02*
X104949800Y-44700200D01*
%TO.N,MOTOR2*%
X139000000Y-36270000D02*
X110840000Y-36270000D01*
X110840000Y-36270000D02*
X100920000Y-46190000D01*
%TO.N,MOTOR1*%
X138918400Y-27770000D02*
X139000000Y-27770000D01*
X95639400Y-26847300D02*
X96181400Y-26305300D01*
X96181400Y-26305300D02*
X137453700Y-26305300D01*
X95639400Y-43449400D02*
X95639400Y-26847300D01*
X137453700Y-26305300D02*
X138918400Y-27770000D01*
X98380000Y-46190000D02*
X95639400Y-43449400D01*
%TO.N,MOTOR0*%
X134119900Y-24150100D02*
X96849200Y-24150100D01*
X94587700Y-44937700D02*
X95840000Y-46190000D01*
X139000000Y-19270000D02*
X134119900Y-24150100D01*
X94587700Y-26411600D02*
X94587700Y-44937700D01*
X96849200Y-24150100D02*
X94587700Y-26411600D01*
%TO.N,AUX0*%
D20*
X46826100Y-81171900D02*
X48791900Y-81171900D01*
X48791900Y-81171900D02*
X53810000Y-86190000D01*
X28000000Y-79080000D02*
X29936800Y-77143200D01*
X42797400Y-77143200D02*
X46826100Y-81171900D01*
X29936800Y-77143200D02*
X42797400Y-77143200D01*
%TO.N,AUX1*%
X35773300Y-77806700D02*
X42539300Y-77806700D01*
X50922600Y-86190000D02*
X51270000Y-86190000D01*
X42539300Y-77806700D02*
X50922600Y-86190000D01*
X34500000Y-79080000D02*
X35773300Y-77806700D01*
%TO.N,AUX2*%
X41620000Y-79080000D02*
X41000000Y-79080000D01*
X48730000Y-86190000D02*
X41620000Y-79080000D01*
%TO.N,IN_SHLD*%
X12409300Y-51789300D02*
X9270000Y-48650000D01*
X32021500Y-51789300D02*
X12409300Y-51789300D01*
%TO.N,IN_CLK*%
X43650000Y-93810000D02*
X32933800Y-83093800D01*
X32933800Y-83093800D02*
X20083500Y-83093800D01*
X11366300Y-53286300D02*
X14761300Y-53286300D01*
X20083500Y-83093800D02*
X14761300Y-77771600D01*
X9270000Y-51190000D02*
X11366300Y-53286300D01*
%TO.N,IN_QH*%
X49191500Y-76491500D02*
X13054800Y-76491500D01*
X58890000Y-86190000D02*
X49191500Y-76491500D01*
X9270000Y-56270000D02*
X9741900Y-56741900D01*
X9741900Y-56741900D02*
X13054800Y-56741900D01*
%TO.N,SR_SER*%
X23615200Y-21655000D02*
X12140500Y-33129700D01*
X102190000Y-20190000D02*
X100725000Y-21655000D01*
X12140500Y-33129700D02*
X10846500Y-33129700D01*
X100725000Y-21655000D02*
X23615200Y-21655000D01*
%TO.N,SR_RCLK*%
X15195800Y-19065300D02*
X96372400Y-19065300D01*
X96372400Y-19065300D02*
X96960300Y-18477400D01*
X96960300Y-18477400D02*
X97255300Y-18477400D01*
X9608600Y-24652500D02*
X15195800Y-19065300D01*
%TO.N,SR_SRCLK*%
X74564500Y-17625700D02*
X73981000Y-18209200D01*
X111640000Y-17625700D02*
X74564500Y-17625700D01*
X109810000Y-20190000D02*
X111125600Y-21505600D01*
X113620000Y-20716300D02*
X113620000Y-19605700D01*
X112830700Y-21505600D02*
X113620000Y-20716300D01*
X73981000Y-18209200D02*
X4971000Y-18209200D01*
X113620000Y-19605700D02*
X111640000Y-17625700D01*
X4971000Y-18209200D02*
X4053700Y-19126500D01*
X111125600Y-21505600D02*
X112830700Y-21505600D01*
%TO.N,SPI_MOSI*%
X37178300Y-45733100D02*
X42279700Y-40631700D01*
X42279700Y-40631700D02*
X51368300Y-40631700D01*
X51368300Y-40631700D02*
X53810000Y-38190000D01*
X11760100Y-45733100D02*
X37178300Y-45733100D01*
%TO.N,SPI_MISO*%
X51270000Y-38190000D02*
X49480000Y-39980000D01*
X13497300Y-41924500D02*
X13497300Y-39783300D01*
X14892600Y-43319800D02*
X13497300Y-41924500D01*
X41875200Y-39980000D02*
X38535400Y-43319800D01*
X13497300Y-39783300D02*
X14301800Y-38978800D01*
X38535400Y-43319800D02*
X14892600Y-43319800D01*
X49480000Y-39980000D02*
X41875200Y-39980000D01*
%TO.N,SPI_CE0*%
X43471200Y-41283400D02*
X53256600Y-41283400D01*
X32873200Y-52142100D02*
X32873200Y-51881400D01*
X53256600Y-41283400D02*
X56350000Y-38190000D01*
X32873200Y-51881400D02*
X43471200Y-41283400D01*
X9270000Y-58810000D02*
X26205300Y-58810000D01*
X26205300Y-58810000D02*
X32873200Y-52142100D01*
%TD*%
M02*
