%TF.GenerationSoftware,KiCad,Pcbnew,10.0.6*%
%TF.CreationDate,2026-09-19T16:40:09-07:00*%
%TF.ProjectId,jaladarangam-control-board,6a616c61-6461-4726-916e-67616d2d636f,rev?*%
%TF.SameCoordinates,Original*%
%TF.FileFunction,Copper,L1,Top*%
%TF.FilePolarity,Positive*%
%FSLAX46Y46*%
G04 Gerber Fmt 4.6, Leading zero omitted, Abs format (unit mm)*
G04 Created by KiCad (PCBNEW 10.0.6) date 2026-09-19 16:40:09*
%MOMM*%
%LPD*%
G01*
G04 APERTURE LIST*
G04 Aperture macros list*
%AMRoundRect*
0 Rectangle with rounded corners*
0 $1 Rounding radius*
0 $2 $3 $4 $5 $6 $7 $8 $9 X,Y pos of 4 corners*
0 Add a 4 corners polygon primitive as box body*
4,1,4,$2,$3,$4,$5,$6,$7,$8,$9,$2,$3,0*
0 Add four circle primitives for the rounded corners*
1,1,$1+$1,$2,$3*
1,1,$1+$1,$4,$5*
1,1,$1+$1,$6,$7*
1,1,$1+$1,$8,$9*
0 Add four rect primitives between the rounded corners*
20,1,$1+$1,$2,$3,$4,$5,0*
20,1,$1+$1,$4,$5,$6,$7,0*
20,1,$1+$1,$6,$7,$8,$9,0*
20,1,$1+$1,$8,$9,$2,$3,0*%
G04 Aperture macros list end*
%TA.AperFunction,ComponentPad*%
%ADD10C,1.600000*%
%TD*%
%TA.AperFunction,ComponentPad*%
%ADD11R,1.700000X1.700000*%
%TD*%
%TA.AperFunction,ComponentPad*%
%ADD12C,1.700000*%
%TD*%
%TA.AperFunction,ComponentPad*%
%ADD13RoundRect,0.250000X0.550000X-0.550000X0.550000X0.550000X-0.550000X0.550000X-0.550000X-0.550000X0*%
%TD*%
%TA.AperFunction,ComponentPad*%
%ADD14RoundRect,0.250000X-0.550000X-0.550000X0.550000X-0.550000X0.550000X0.550000X-0.550000X0.550000X0*%
%TD*%
%TA.AperFunction,ComponentPad*%
%ADD15RoundRect,0.250001X1.149999X1.149999X-1.149999X1.149999X-1.149999X-1.149999X1.149999X-1.149999X0*%
%TD*%
%TA.AperFunction,ComponentPad*%
%ADD16C,2.800000*%
%TD*%
%TA.AperFunction,ViaPad*%
%ADD17C,1.000000*%
%TD*%
%TA.AperFunction,ViaPad*%
%ADD18C,0.800000*%
%TD*%
%TA.AperFunction,Conductor*%
%ADD19C,0.800000*%
%TD*%
%TA.AperFunction,Conductor*%
%ADD20C,0.400000*%
%TD*%
G04 APERTURE END LIST*
D10*
%TO.P,R11,1*%
%TO.N,AUX2*%
X41000000Y-79080000D03*
%TO.P,R11,2*%
%TO.N,GND*%
X41000000Y-68920000D03*
%TD*%
D11*
%TO.P,J5,1*%
%TO.N,+3V3*%
X47500000Y-5730000D03*
D12*
%TO.P,J5,2*%
%TO.N,FSR3*%
X47500000Y-8270000D03*
%TD*%
D13*
%TO.P,U1,1*%
%TO.N,FSR0*%
X41110000Y-45810000D03*
D10*
%TO.P,U1,2*%
%TO.N,FSR1*%
X43650000Y-45810000D03*
%TO.P,U1,3*%
%TO.N,FSR2*%
X46190000Y-45810000D03*
%TO.P,U1,4*%
%TO.N,FSR3*%
X48730000Y-45810000D03*
%TO.P,U1,5*%
%TO.N,FSR4*%
X51270000Y-45810000D03*
%TO.P,U1,6*%
%TO.N,FSR5*%
X53810000Y-45810000D03*
%TO.P,U1,7*%
%TO.N,FSR6*%
X56350000Y-45810000D03*
%TO.P,U1,8*%
%TO.N,FSR7*%
X58890000Y-45810000D03*
%TO.P,U1,9*%
%TO.N,GND*%
X58890000Y-38190000D03*
%TO.P,U1,10*%
%TO.N,SPI_CE0*%
X56350000Y-38190000D03*
%TO.P,U1,11*%
%TO.N,SPI_MOSI*%
X53810000Y-38190000D03*
%TO.P,U1,12*%
%TO.N,SPI_MISO*%
X51270000Y-38190000D03*
%TO.P,U1,13*%
%TO.N,SPI_SCLK*%
X48730000Y-38190000D03*
%TO.P,U1,14*%
%TO.N,GND*%
X46190000Y-38190000D03*
%TO.P,U1,15*%
%TO.N,+3V3*%
X43650000Y-38190000D03*
%TO.P,U1,16*%
X41110000Y-38190000D03*
%TD*%
%TO.P,R8,1*%
%TO.N,FSR7*%
X73500000Y-27080000D03*
%TO.P,R8,2*%
%TO.N,GND*%
X73500000Y-16920000D03*
%TD*%
D11*
%TO.P,J14,1*%
%TO.N,MOTOR_V+*%
X139000000Y-50730000D03*
D12*
%TO.P,J14,2*%
%TO.N,MOTOR4*%
X139000000Y-53270000D03*
%TD*%
D11*
%TO.P,J2,1*%
%TO.N,+3V3*%
X28000000Y-5730000D03*
D12*
%TO.P,J2,2*%
%TO.N,FSR0*%
X28000000Y-8270000D03*
%TD*%
D11*
%TO.P,J13,1*%
%TO.N,MOTOR_V+*%
X139000000Y-42230000D03*
D12*
%TO.P,J13,2*%
%TO.N,MOTOR3*%
X139000000Y-44770000D03*
%TD*%
D11*
%TO.P,J15,1*%
%TO.N,MOTOR_V+*%
X139000000Y-59230000D03*
D12*
%TO.P,J15,2*%
%TO.N,MOTOR5*%
X139000000Y-61770000D03*
%TD*%
D10*
%TO.P,R7,1*%
%TO.N,FSR6*%
X67000000Y-27080000D03*
%TO.P,R7,2*%
%TO.N,GND*%
X67000000Y-16920000D03*
%TD*%
D11*
%TO.P,J6,1*%
%TO.N,+3V3*%
X54000000Y-5730000D03*
D12*
%TO.P,J6,2*%
%TO.N,FSR4*%
X54000000Y-8270000D03*
%TD*%
D11*
%TO.P,J3,1*%
%TO.N,+3V3*%
X34500000Y-5730000D03*
D12*
%TO.P,J3,2*%
%TO.N,FSR1*%
X34500000Y-8270000D03*
%TD*%
D11*
%TO.P,J10,1*%
%TO.N,MOTOR_V+*%
X139000000Y-16730000D03*
D12*
%TO.P,J10,2*%
%TO.N,MOTOR0*%
X139000000Y-19270000D03*
%TD*%
D10*
%TO.P,R3,1*%
%TO.N,FSR2*%
X41000000Y-27080000D03*
%TO.P,R3,2*%
%TO.N,GND*%
X41000000Y-16920000D03*
%TD*%
%TO.P,C3,1*%
%TO.N,+3V3*%
X121500000Y-34000000D03*
%TO.P,C3,2*%
%TO.N,GND*%
X126500000Y-34000000D03*
%TD*%
D11*
%TO.P,J1,1*%
%TO.N,+3V3*%
X6730000Y-30870000D03*
D12*
%TO.P,J1,2*%
%TO.N,N/C*%
X9270000Y-30870000D03*
%TO.P,J1,3*%
X6730000Y-33410000D03*
%TO.P,J1,4*%
X9270000Y-33410000D03*
%TO.P,J1,5*%
X6730000Y-35950000D03*
%TO.P,J1,6*%
%TO.N,GND*%
X9270000Y-35950000D03*
%TO.P,J1,7*%
%TO.N,N/C*%
X6730000Y-38490000D03*
%TO.P,J1,8*%
X9270000Y-38490000D03*
%TO.P,J1,9*%
%TO.N,GND*%
X6730000Y-41030000D03*
%TO.P,J1,10*%
%TO.N,N/C*%
X9270000Y-41030000D03*
%TO.P,J1,11*%
%TO.N,SR_SER*%
X6730000Y-43570000D03*
%TO.P,J1,12*%
%TO.N,N/C*%
X9270000Y-43570000D03*
%TO.P,J1,13*%
%TO.N,SR_RCLK*%
X6730000Y-46110000D03*
%TO.P,J1,14*%
%TO.N,GND*%
X9270000Y-46110000D03*
%TO.P,J1,15*%
%TO.N,SR_SRCLK*%
X6730000Y-48650000D03*
%TO.P,J1,16*%
%TO.N,IN_SHLD*%
X9270000Y-48650000D03*
%TO.P,J1,17*%
%TO.N,+3V3*%
X6730000Y-51190000D03*
%TO.P,J1,18*%
%TO.N,IN_CLK*%
X9270000Y-51190000D03*
%TO.P,J1,19*%
%TO.N,SPI_MOSI*%
X6730000Y-53730000D03*
%TO.P,J1,20*%
%TO.N,GND*%
X9270000Y-53730000D03*
%TO.P,J1,21*%
%TO.N,SPI_MISO*%
X6730000Y-56270000D03*
%TO.P,J1,22*%
%TO.N,IN_QH*%
X9270000Y-56270000D03*
%TO.P,J1,23*%
%TO.N,SPI_SCLK*%
X6730000Y-58810000D03*
%TO.P,J1,24*%
%TO.N,SPI_CE0*%
X9270000Y-58810000D03*
%TO.P,J1,25*%
%TO.N,GND*%
X6730000Y-61350000D03*
%TO.P,J1,26*%
%TO.N,N/C*%
X9270000Y-61350000D03*
%TO.P,J1,27*%
X6730000Y-63890000D03*
%TO.P,J1,28*%
X9270000Y-63890000D03*
%TO.P,J1,29*%
X6730000Y-66430000D03*
%TO.P,J1,30*%
%TO.N,GND*%
X9270000Y-66430000D03*
%TO.P,J1,31*%
%TO.N,N/C*%
X6730000Y-68970000D03*
%TO.P,J1,32*%
X9270000Y-68970000D03*
%TO.P,J1,33*%
X6730000Y-71510000D03*
%TO.P,J1,34*%
%TO.N,GND*%
X9270000Y-71510000D03*
%TO.P,J1,35*%
%TO.N,N/C*%
X6730000Y-74050000D03*
%TO.P,J1,36*%
X9270000Y-74050000D03*
%TO.P,J1,37*%
X6730000Y-76590000D03*
%TO.P,J1,38*%
X9270000Y-76590000D03*
%TO.P,J1,39*%
%TO.N,GND*%
X6730000Y-79130000D03*
%TO.P,J1,40*%
%TO.N,N/C*%
X9270000Y-79130000D03*
%TD*%
D10*
%TO.P,R1,1*%
%TO.N,FSR0*%
X28000000Y-27080000D03*
%TO.P,R1,2*%
%TO.N,GND*%
X28000000Y-16920000D03*
%TD*%
D14*
%TO.P,C7,1*%
%TO.N,+3V3*%
X14750000Y-41000000D03*
D10*
%TO.P,C7,2*%
%TO.N,GND*%
X17250000Y-41000000D03*
%TD*%
D11*
%TO.P,J4,1*%
%TO.N,+3V3*%
X41000000Y-5730000D03*
D12*
%TO.P,J4,2*%
%TO.N,FSR2*%
X41000000Y-8270000D03*
%TD*%
D10*
%TO.P,C5,1*%
%TO.N,MOTOR_V+*%
X93500000Y-92000000D03*
%TO.P,C5,2*%
%TO.N,GND*%
X98500000Y-92000000D03*
%TD*%
D11*
%TO.P,J8,1*%
%TO.N,+3V3*%
X67000000Y-5730000D03*
D12*
%TO.P,J8,2*%
%TO.N,FSR6*%
X67000000Y-8270000D03*
%TD*%
D11*
%TO.P,J11,1*%
%TO.N,MOTOR_V+*%
X139000000Y-25230000D03*
D12*
%TO.P,J11,2*%
%TO.N,MOTOR1*%
X139000000Y-27770000D03*
%TD*%
D10*
%TO.P,R16,1*%
%TO.N,AUX7*%
X73500000Y-79080000D03*
%TO.P,R16,2*%
%TO.N,GND*%
X73500000Y-68920000D03*
%TD*%
%TO.P,R2,1*%
%TO.N,FSR1*%
X34500000Y-27080000D03*
%TO.P,R2,2*%
%TO.N,GND*%
X34500000Y-16920000D03*
%TD*%
D11*
%TO.P,J7,1*%
%TO.N,+3V3*%
X60500000Y-5730000D03*
D12*
%TO.P,J7,2*%
%TO.N,FSR5*%
X60500000Y-8270000D03*
%TD*%
D10*
%TO.P,R4,1*%
%TO.N,FSR3*%
X47500000Y-27080000D03*
%TO.P,R4,2*%
%TO.N,GND*%
X47500000Y-16920000D03*
%TD*%
D14*
%TO.P,C2,1*%
%TO.N,+3V3*%
X67750000Y-47000000D03*
D10*
%TO.P,C2,2*%
%TO.N,GND*%
X70250000Y-47000000D03*
%TD*%
%TO.P,R9,1*%
%TO.N,AUX0*%
X28000000Y-79080000D03*
%TO.P,R9,2*%
%TO.N,GND*%
X28000000Y-68920000D03*
%TD*%
%TO.P,C4,1*%
%TO.N,+3V3*%
X66500000Y-90000000D03*
%TO.P,C4,2*%
%TO.N,GND*%
X71500000Y-90000000D03*
%TD*%
%TO.P,R14,1*%
%TO.N,AUX5*%
X60500000Y-79080000D03*
%TO.P,R14,2*%
%TO.N,GND*%
X60500000Y-68920000D03*
%TD*%
D14*
%TO.P,C8,1*%
%TO.N,MOTOR_V+*%
X105250000Y-92000000D03*
D10*
%TO.P,C8,2*%
%TO.N,GND*%
X108750000Y-92000000D03*
%TD*%
D11*
%TO.P,J19,1*%
%TO.N,GND*%
X24570000Y-103000000D03*
D12*
%TO.P,J19,2*%
%TO.N,AUX0*%
X27110000Y-103000000D03*
%TO.P,J19,3*%
%TO.N,AUX1*%
X29650000Y-103000000D03*
%TO.P,J19,4*%
%TO.N,AUX2*%
X32190000Y-103000000D03*
%TO.P,J19,5*%
%TO.N,AUX3*%
X34730000Y-103000000D03*
%TO.P,J19,6*%
%TO.N,AUX4*%
X37270000Y-103000000D03*
%TO.P,J19,7*%
%TO.N,AUX5*%
X39810000Y-103000000D03*
%TO.P,J19,8*%
%TO.N,AUX6*%
X42350000Y-103000000D03*
%TO.P,J19,9*%
%TO.N,AUX7*%
X44890000Y-103000000D03*
%TO.P,J19,10*%
%TO.N,GND*%
X47430000Y-103000000D03*
%TD*%
D15*
%TO.P,J18,1*%
%TO.N,MOTOR_V+*%
X124500000Y-92000000D03*
D16*
%TO.P,J18,2*%
%TO.N,GND*%
X119500000Y-92000000D03*
%TD*%
D10*
%TO.P,R6,1*%
%TO.N,FSR5*%
X60500000Y-27080000D03*
%TO.P,R6,2*%
%TO.N,GND*%
X60500000Y-16920000D03*
%TD*%
D13*
%TO.P,U2,1*%
%TO.N,MTRDRV1*%
X97110000Y-27810000D03*
D10*
%TO.P,U2,2*%
%TO.N,MTRDRV2*%
X99650000Y-27810000D03*
%TO.P,U2,3*%
%TO.N,MTRDRV3*%
X102190000Y-27810000D03*
%TO.P,U2,4*%
%TO.N,MTRDRV4*%
X104730000Y-27810000D03*
%TO.P,U2,5*%
%TO.N,MTRDRV5*%
X107270000Y-27810000D03*
%TO.P,U2,6*%
%TO.N,MTRDRV6*%
X109810000Y-27810000D03*
%TO.P,U2,7*%
%TO.N,MTRDRV7*%
X112350000Y-27810000D03*
%TO.P,U2,8*%
%TO.N,GND*%
X114890000Y-27810000D03*
%TO.P,U2,9*%
%TO.N,N/C*%
X114890000Y-20190000D03*
%TO.P,U2,10*%
%TO.N,+3V3*%
X112350000Y-20190000D03*
%TO.P,U2,11*%
%TO.N,SR_SRCLK*%
X109810000Y-20190000D03*
%TO.P,U2,12*%
%TO.N,SR_RCLK*%
X107270000Y-20190000D03*
%TO.P,U2,13*%
%TO.N,GND*%
X104730000Y-20190000D03*
%TO.P,U2,14*%
%TO.N,SR_SER*%
X102190000Y-20190000D03*
%TO.P,U2,15*%
%TO.N,MTRDRV0*%
X99650000Y-20190000D03*
%TO.P,U2,16*%
%TO.N,+3V3*%
X97110000Y-20190000D03*
%TD*%
D11*
%TO.P,J16,1*%
%TO.N,MOTOR_V+*%
X139000000Y-67730000D03*
D12*
%TO.P,J16,2*%
%TO.N,MOTOR6*%
X139000000Y-70270000D03*
%TD*%
D10*
%TO.P,R13,1*%
%TO.N,AUX4*%
X54000000Y-79080000D03*
%TO.P,R13,2*%
%TO.N,GND*%
X54000000Y-68920000D03*
%TD*%
%TO.P,R12,1*%
%TO.N,AUX3*%
X47500000Y-79080000D03*
%TO.P,R12,2*%
%TO.N,GND*%
X47500000Y-68920000D03*
%TD*%
%TO.P,R5,1*%
%TO.N,FSR4*%
X54000000Y-27080000D03*
%TO.P,R5,2*%
%TO.N,GND*%
X54000000Y-16920000D03*
%TD*%
%TO.P,R10,1*%
%TO.N,AUX1*%
X34500000Y-79080000D03*
%TO.P,R10,2*%
%TO.N,GND*%
X34500000Y-68920000D03*
%TD*%
D11*
%TO.P,J9,1*%
%TO.N,+3V3*%
X73500000Y-5730000D03*
D12*
%TO.P,J9,2*%
%TO.N,FSR7*%
X73500000Y-8270000D03*
%TD*%
D10*
%TO.P,C1,1*%
%TO.N,+3V3*%
X66500000Y-36000000D03*
%TO.P,C1,2*%
%TO.N,GND*%
X71500000Y-36000000D03*
%TD*%
%TO.P,R15,1*%
%TO.N,AUX6*%
X67000000Y-79080000D03*
%TO.P,R15,2*%
%TO.N,GND*%
X67000000Y-68920000D03*
%TD*%
D11*
%TO.P,J12,1*%
%TO.N,MOTOR_V+*%
X139000000Y-33730000D03*
D12*
%TO.P,J12,2*%
%TO.N,MOTOR2*%
X139000000Y-36270000D03*
%TD*%
D13*
%TO.P,U3,1*%
%TO.N,MTRDRV0*%
X95840000Y-53810000D03*
D10*
%TO.P,U3,2*%
%TO.N,MTRDRV1*%
X98380000Y-53810000D03*
%TO.P,U3,3*%
%TO.N,MTRDRV2*%
X100920000Y-53810000D03*
%TO.P,U3,4*%
%TO.N,MTRDRV3*%
X103460000Y-53810000D03*
%TO.P,U3,5*%
%TO.N,MTRDRV4*%
X106000000Y-53810000D03*
%TO.P,U3,6*%
%TO.N,MTRDRV5*%
X108540000Y-53810000D03*
%TO.P,U3,7*%
%TO.N,MTRDRV6*%
X111080000Y-53810000D03*
%TO.P,U3,8*%
%TO.N,MTRDRV7*%
X113620000Y-53810000D03*
%TO.P,U3,9*%
%TO.N,GND*%
X116160000Y-53810000D03*
%TO.P,U3,10*%
%TO.N,MOTOR_V+*%
X116160000Y-46190000D03*
%TO.P,U3,11*%
%TO.N,MOTOR7*%
X113620000Y-46190000D03*
%TO.P,U3,12*%
%TO.N,MOTOR6*%
X111080000Y-46190000D03*
%TO.P,U3,13*%
%TO.N,MOTOR5*%
X108540000Y-46190000D03*
%TO.P,U3,14*%
%TO.N,MOTOR4*%
X106000000Y-46190000D03*
%TO.P,U3,15*%
%TO.N,MOTOR3*%
X103460000Y-46190000D03*
%TO.P,U3,16*%
%TO.N,MOTOR2*%
X100920000Y-46190000D03*
%TO.P,U3,17*%
%TO.N,MOTOR1*%
X98380000Y-46190000D03*
%TO.P,U3,18*%
%TO.N,MOTOR0*%
X95840000Y-46190000D03*
%TD*%
D13*
%TO.P,U4,1*%
%TO.N,IN_SHLD*%
X41110000Y-93810000D03*
D10*
%TO.P,U4,2*%
%TO.N,IN_CLK*%
X43650000Y-93810000D03*
%TO.P,U4,3*%
%TO.N,AUX4*%
X46190000Y-93810000D03*
%TO.P,U4,4*%
%TO.N,AUX5*%
X48730000Y-93810000D03*
%TO.P,U4,5*%
%TO.N,AUX6*%
X51270000Y-93810000D03*
%TO.P,U4,6*%
%TO.N,AUX7*%
X53810000Y-93810000D03*
%TO.P,U4,7*%
%TO.N,N/C*%
X56350000Y-93810000D03*
%TO.P,U4,8*%
%TO.N,GND*%
X58890000Y-93810000D03*
%TO.P,U4,9*%
%TO.N,IN_QH*%
X58890000Y-86190000D03*
%TO.P,U4,10*%
%TO.N,GND*%
X56350000Y-86190000D03*
%TO.P,U4,11*%
%TO.N,AUX0*%
X53810000Y-86190000D03*
%TO.P,U4,12*%
%TO.N,AUX1*%
X51270000Y-86190000D03*
%TO.P,U4,13*%
%TO.N,AUX2*%
X48730000Y-86190000D03*
%TO.P,U4,14*%
%TO.N,AUX3*%
X46190000Y-86190000D03*
%TO.P,U4,15*%
%TO.N,GND*%
X43650000Y-86190000D03*
%TO.P,U4,16*%
%TO.N,+3V3*%
X41110000Y-86190000D03*
%TD*%
%TO.P,C6,1*%
%TO.N,+3V3*%
X13500000Y-30000000D03*
%TO.P,C6,2*%
%TO.N,GND*%
X18500000Y-30000000D03*
%TD*%
D11*
%TO.P,J17,1*%
%TO.N,MOTOR_V+*%
X139000000Y-76230000D03*
D12*
%TO.P,J17,2*%
%TO.N,MOTOR7*%
X139000000Y-78770000D03*
%TD*%
D17*
%TO.N,+3V3*%
X119244600Y-28972200D03*
D18*
%TO.N,FSR3*%
X52538900Y-41496800D03*
%TO.N,FSR6*%
X67764700Y-39305800D03*
%TO.N,FSR7*%
X73500000Y-40637800D03*
%TO.N,SPI_CE0*%
X25896300Y-58810000D03*
%TO.N,SPI_MOSI*%
X53810000Y-34511800D03*
X15615700Y-34518500D03*
%TO.N,SPI_MISO*%
X17385000Y-35151400D03*
X51270000Y-35151400D03*
D17*
%TO.N,MOTOR5*%
X132246000Y-49781400D03*
D18*
%TO.N,SR_SER*%
X10819500Y-31643000D03*
%TO.N,SR_RCLK*%
X4728900Y-37287700D03*
X107270000Y-16897400D03*
%TO.N,SR_SRCLK*%
X12324100Y-33643900D03*
%TO.N,IN_SHLD*%
X15625200Y-93810000D03*
X15625200Y-48650000D03*
%TO.N,IN_CLK*%
X29856000Y-53918200D03*
X29856000Y-83216800D03*
%TO.N,AUX5*%
X55080000Y-80614300D03*
%TO.N,AUX3*%
X43653900Y-81963900D03*
%TO.N,MTRDRV7*%
X124389900Y-54299600D03*
%TD*%
%TO.N,GND*%
D19*
X99984900Y-90515100D02*
X98500000Y-92000000D01*
X54895400Y-87644600D02*
X56350000Y-86190000D01*
X28000000Y-16920000D02*
X34500000Y-16920000D01*
X26113500Y-104543500D02*
X45886500Y-104543500D01*
X107265100Y-90515100D02*
X99984900Y-90515100D01*
X47500000Y-68920000D02*
X41000000Y-68920000D01*
X96500000Y-90000000D02*
X71500000Y-90000000D01*
X73500000Y-68920000D02*
X67000000Y-68920000D01*
X45886500Y-104543500D02*
X47430000Y-103000000D01*
X98500000Y-92000000D02*
X96500000Y-90000000D01*
X54000000Y-68920000D02*
X60500000Y-68920000D01*
X12200000Y-35950000D02*
X17250000Y-41000000D01*
X67690000Y-93810000D02*
X58890000Y-93810000D01*
X67000000Y-68920000D02*
X60500000Y-68920000D01*
X25510000Y-66430000D02*
X28000000Y-68920000D01*
X46190000Y-38190000D02*
X47720200Y-39720200D01*
X71500000Y-36000000D02*
X94492500Y-36000000D01*
X9270000Y-35950000D02*
X12200000Y-35950000D01*
X71500000Y-36000000D02*
X69310000Y-38190000D01*
X57359800Y-39720200D02*
X58890000Y-38190000D01*
X24570000Y-103000000D02*
X26113500Y-104543500D01*
X69310000Y-38190000D02*
X58890000Y-38190000D01*
X5207000Y-59827000D02*
X6730000Y-61350000D01*
X100739800Y-29752700D02*
X112947300Y-29752700D01*
X94492500Y-36000000D02*
X100739800Y-29752700D01*
X47500000Y-68920000D02*
X54000000Y-68920000D01*
X119500000Y-92000000D02*
X108750000Y-92000000D01*
X6730000Y-41030000D02*
X5207000Y-42553000D01*
X45104600Y-87644600D02*
X54895400Y-87644600D01*
X112947300Y-29752700D02*
X114890000Y-27810000D01*
X108750000Y-92000000D02*
X107265100Y-90515100D01*
X34500000Y-16920000D02*
X41000000Y-16920000D01*
X47720200Y-39720200D02*
X57359800Y-39720200D01*
X67000000Y-16920000D02*
X73500000Y-16920000D01*
X9270000Y-66430000D02*
X25510000Y-66430000D01*
X60500000Y-16920000D02*
X67000000Y-16920000D01*
X43650000Y-86190000D02*
X45104600Y-87644600D01*
X5207000Y-42553000D02*
X5207000Y-59827000D01*
X47500000Y-16920000D02*
X41000000Y-16920000D01*
X34500000Y-68920000D02*
X28000000Y-68920000D01*
X54000000Y-16920000D02*
X60500000Y-16920000D01*
X71500000Y-90000000D02*
X67690000Y-93810000D01*
X54000000Y-16920000D02*
X47500000Y-16920000D01*
%TO.N,+3V3*%
X8258700Y-29341300D02*
X12841300Y-29341300D01*
X54000000Y-5730000D02*
X47500000Y-5730000D01*
X16251100Y-42501100D02*
X36798900Y-42501100D01*
X110839100Y-18679100D02*
X112350000Y-20190000D01*
X34500000Y-5730000D02*
X28000000Y-5730000D01*
X112350000Y-22077600D02*
X112350000Y-20190000D01*
X67000000Y-5730000D02*
X60500000Y-5730000D01*
X98620900Y-18679100D02*
X110839100Y-18679100D01*
X66050800Y-36449200D02*
X66500000Y-36000000D01*
X41110000Y-38190000D02*
X43650000Y-38190000D01*
X45390800Y-36449200D02*
X66050800Y-36449200D01*
X44920000Y-90000000D02*
X66500000Y-90000000D01*
X73500000Y-5730000D02*
X67000000Y-5730000D01*
X34500000Y-5730000D02*
X41000000Y-5730000D01*
X12841300Y-29341300D02*
X13500000Y-30000000D01*
X41110000Y-86190000D02*
X44920000Y-90000000D01*
X14750000Y-41000000D02*
X16251100Y-42501100D01*
X6730000Y-30870000D02*
X8258700Y-29341300D01*
X60500000Y-5730000D02*
X54000000Y-5730000D01*
X43650000Y-38190000D02*
X45390800Y-36449200D01*
X41000000Y-5730000D02*
X47500000Y-5730000D01*
X97110000Y-20190000D02*
X98620900Y-18679100D01*
X36798900Y-42501100D02*
X41110000Y-38190000D01*
X119244600Y-28972200D02*
X112350000Y-22077600D01*
%TO.N,FSR3*%
D20*
X52538900Y-42001100D02*
X52538900Y-41496800D01*
X48730000Y-45810000D02*
X52538900Y-42001100D01*
%TO.N,FSR6*%
X56350000Y-45810000D02*
X62854200Y-39305800D01*
X62854200Y-39305800D02*
X67764700Y-39305800D01*
%TO.N,FSR7*%
X64062200Y-40637800D02*
X73500000Y-40637800D01*
X58890000Y-45810000D02*
X64062200Y-40637800D01*
%TO.N,SPI_CE0*%
X9270000Y-58810000D02*
X25896300Y-58810000D01*
%TO.N,SPI_MOSI*%
X53810000Y-34511800D02*
X53595000Y-34296800D01*
X53595000Y-34296800D02*
X15837400Y-34296800D01*
X15837400Y-34296800D02*
X15615700Y-34518500D01*
%TO.N,SPI_MISO*%
X51270000Y-35151400D02*
X17385000Y-35151400D01*
%TO.N,MOTOR_V+*%
D19*
X132958300Y-46190000D02*
X116160000Y-46190000D01*
X139000000Y-57728300D02*
X140532400Y-56195900D01*
X139000000Y-59230000D02*
X139000000Y-57728300D01*
X105250000Y-93513300D02*
X95013300Y-93513300D01*
X140532400Y-73195900D02*
X140532400Y-69262400D01*
X140532400Y-56195900D02*
X140532400Y-52262400D01*
X139000000Y-74728300D02*
X140532400Y-73195900D01*
X95013300Y-93513300D02*
X93500000Y-92000000D01*
X140532400Y-52262400D02*
X139000000Y-50730000D01*
X122394500Y-94105500D02*
X105842200Y-94105500D01*
X139000000Y-50730000D02*
X137498300Y-50730000D01*
X124500000Y-92000000D02*
X122394500Y-94105500D01*
X105842200Y-94105500D02*
X105250000Y-93513300D01*
X139000000Y-76230000D02*
X139000000Y-74728300D01*
X105250000Y-93513300D02*
X105250000Y-92000000D01*
X140532400Y-69262400D02*
X139000000Y-67730000D01*
X137498300Y-50730000D02*
X132958300Y-46190000D01*
%TO.N,MOTOR4*%
X117610200Y-52230200D02*
X112040200Y-52230200D01*
X139000000Y-53270000D02*
X138924800Y-53194800D01*
X112040200Y-52230200D02*
X106000000Y-46190000D01*
X118574800Y-53194800D02*
X117610200Y-52230200D01*
X138924800Y-53194800D02*
X118574800Y-53194800D01*
%TO.N,MOTOR3*%
X104945000Y-44705000D02*
X138935000Y-44705000D01*
X103460000Y-46190000D02*
X104945000Y-44705000D01*
X138935000Y-44705000D02*
X139000000Y-44770000D01*
%TO.N,MOTOR5*%
X112131400Y-49781400D02*
X132246000Y-49781400D01*
X108540000Y-46190000D02*
X112131400Y-49781400D01*
%TO.N,MOTOR0*%
X95840000Y-46190000D02*
X110854400Y-31175600D01*
X110854400Y-31175600D02*
X127094400Y-31175600D01*
X127094400Y-31175600D02*
X139000000Y-19270000D01*
%TO.N,SR_SER*%
D20*
X90737000Y-31643000D02*
X10819500Y-31643000D01*
X102190000Y-20190000D02*
X90737000Y-31643000D01*
%TO.N,SR_RCLK*%
X97132600Y-16897400D02*
X95806100Y-18223900D01*
X16984400Y-18223900D02*
X4728900Y-30479400D01*
X4728900Y-30479400D02*
X4728900Y-37287700D01*
X107270000Y-16897400D02*
X97132600Y-16897400D01*
X95806100Y-18223900D02*
X16984400Y-18223900D01*
%TO.N,SR_SRCLK*%
X100901700Y-27269800D02*
X100901700Y-28386300D01*
X103817500Y-26182500D02*
X101989000Y-26182500D01*
X109810000Y-20190000D02*
X103817500Y-26182500D01*
X100901700Y-28386300D02*
X95644100Y-33643900D01*
X101989000Y-26182500D02*
X100901700Y-27269800D01*
X95644100Y-33643900D02*
X12324100Y-33643900D01*
%TO.N,IN_SHLD*%
X9270000Y-48650000D02*
X15625200Y-48650000D01*
X41110000Y-93810000D02*
X15625200Y-93810000D01*
%TO.N,IN_CLK*%
X9270000Y-51190000D02*
X11998200Y-53918200D01*
X42254000Y-92414000D02*
X39053200Y-92414000D01*
X39053200Y-92414000D02*
X29856000Y-83216800D01*
X43650000Y-93810000D02*
X42254000Y-92414000D01*
X11998200Y-53918200D02*
X29856000Y-53918200D01*
%TO.N,IN_QH*%
X43102000Y-70402000D02*
X40707500Y-70402000D01*
X58890000Y-86190000D02*
X43102000Y-70402000D01*
X26575500Y-56270000D02*
X9270000Y-56270000D01*
X40707500Y-70402000D02*
X26575500Y-56270000D01*
%TO.N,MOTOR1*%
D19*
X112340200Y-32229800D02*
X134540200Y-32229800D01*
X98380000Y-46190000D02*
X112340200Y-32229800D01*
X134540200Y-32229800D02*
X139000000Y-27770000D01*
%TO.N,AUX7*%
D20*
X53810000Y-93810000D02*
X55520300Y-92099700D01*
X55520300Y-92099700D02*
X67162500Y-92099700D01*
X67162500Y-92099700D02*
X73500000Y-85762200D01*
X73500000Y-85762200D02*
X73500000Y-79080000D01*
%TO.N,AUX0*%
X53810000Y-86190000D02*
X52068900Y-84448900D01*
X33368900Y-84448900D02*
X28000000Y-79080000D01*
X52068900Y-84448900D02*
X33368900Y-84448900D01*
%TO.N,AUX5*%
X58965700Y-80614300D02*
X55080000Y-80614300D01*
X60500000Y-79080000D02*
X58965700Y-80614300D01*
%TO.N,AUX3*%
X44616100Y-81963900D02*
X43653900Y-81963900D01*
X47500000Y-79080000D02*
X44616100Y-81963900D01*
%TO.N,AUX6*%
X67781900Y-90558700D02*
X67781900Y-79861900D01*
X53804400Y-91275600D02*
X67065000Y-91275600D01*
X67781900Y-79861900D02*
X67000000Y-79080000D01*
X51270000Y-93810000D02*
X53804400Y-91275600D01*
X67065000Y-91275600D02*
X67781900Y-90558700D01*
%TO.N,MTRDRV7*%
X123605900Y-55083600D02*
X124389900Y-54299600D01*
X114893600Y-55083600D02*
X123605900Y-55083600D01*
X113620000Y-53810000D02*
X114893600Y-55083600D01*
%TO.N,MOTOR2*%
D19*
X110840000Y-36270000D02*
X100920000Y-46190000D01*
X139000000Y-36270000D02*
X110840000Y-36270000D01*
%TD*%
M02*
