%TF.GenerationSoftware,KiCad,Pcbnew,10.0.6*%
%TF.CreationDate,2026-09-19T17:15:40-07:00*%
%TF.ProjectId,jaladarangam-control-board,6a616c61-6461-4726-916e-67616d2d636f,rev?*%
%TF.SameCoordinates,Original*%
%TF.FileFunction,Copper,L2,Bot*%
%TF.FilePolarity,Positive*%
%FSLAX46Y46*%
G04 Gerber Fmt 4.6, Leading zero omitted, Abs format (unit mm)*
G04 Created by KiCad (PCBNEW 10.0.6) date 2026-09-19 17:15:40*
%MOMM*%
%LPD*%
G01*
G04 APERTURE LIST*
G04 Aperture macros list*
%AMRoundRect*
0 Rectangle with rounded corners*
0 $1 Rounding radius*
0 $2 $3 $4 $5 $6 $7 $8 $9 X,Y pos of 4 corners*
0 Add a 4 corners polygon primitive as box body*
4,1,4,$2,$3,$4,$5,$6,$7,$8,$9,$2,$3,0*
0 Add four circle primitives for the rounded corners*
1,1,$1+$1,$2,$3*
1,1,$1+$1,$4,$5*
1,1,$1+$1,$6,$7*
1,1,$1+$1,$8,$9*
0 Add four rect primitives between the rounded corners*
20,1,$1+$1,$2,$3,$4,$5,0*
20,1,$1+$1,$4,$5,$6,$7,0*
20,1,$1+$1,$6,$7,$8,$9,0*
20,1,$1+$1,$8,$9,$2,$3,0*%
G04 Aperture macros list end*
%TA.AperFunction,ComponentPad*%
%ADD10R,1.700000X1.700000*%
%TD*%
%TA.AperFunction,ComponentPad*%
%ADD11C,1.700000*%
%TD*%
%TA.AperFunction,ComponentPad*%
%ADD12C,1.600000*%
%TD*%
%TA.AperFunction,ComponentPad*%
%ADD13RoundRect,0.250000X-0.550000X-0.550000X0.550000X-0.550000X0.550000X0.550000X-0.550000X0.550000X0*%
%TD*%
%TA.AperFunction,ComponentPad*%
%ADD14RoundRect,0.250001X1.149999X1.149999X-1.149999X1.149999X-1.149999X-1.149999X1.149999X-1.149999X0*%
%TD*%
%TA.AperFunction,ComponentPad*%
%ADD15C,2.800000*%
%TD*%
%TA.AperFunction,ComponentPad*%
%ADD16RoundRect,0.250000X0.550000X-0.550000X0.550000X0.550000X-0.550000X0.550000X-0.550000X-0.550000X0*%
%TD*%
%TA.AperFunction,ViaPad*%
%ADD17C,1.000000*%
%TD*%
%TA.AperFunction,ViaPad*%
%ADD18C,0.800000*%
%TD*%
%TA.AperFunction,Conductor*%
%ADD19C,0.800000*%
%TD*%
%TA.AperFunction,Conductor*%
%ADD20C,0.400000*%
%TD*%
G04 APERTURE END LIST*
D10*
%TO.P,J14,1*%
%TO.N,MOTOR_V+*%
X139000000Y-50730000D03*
D11*
%TO.P,J14,2*%
%TO.N,MOTOR4*%
X139000000Y-53270000D03*
%TD*%
D12*
%TO.P,R13,1*%
%TO.N,AUX4*%
X54000000Y-79080000D03*
%TO.P,R13,2*%
%TO.N,GND*%
X54000000Y-68920000D03*
%TD*%
D10*
%TO.P,J17,1*%
%TO.N,MOTOR_V+*%
X139000000Y-76230000D03*
D11*
%TO.P,J17,2*%
%TO.N,MOTOR7*%
X139000000Y-78770000D03*
%TD*%
D12*
%TO.P,C6,1*%
%TO.N,+3V3*%
X13500000Y-30000000D03*
%TO.P,C6,2*%
%TO.N,GND*%
X18500000Y-30000000D03*
%TD*%
D10*
%TO.P,J13,1*%
%TO.N,MOTOR_V+*%
X139000000Y-42230000D03*
D11*
%TO.P,J13,2*%
%TO.N,MOTOR3*%
X139000000Y-44770000D03*
%TD*%
D10*
%TO.P,J12,1*%
%TO.N,MOTOR_V+*%
X139000000Y-33730000D03*
D11*
%TO.P,J12,2*%
%TO.N,MOTOR2*%
X139000000Y-36270000D03*
%TD*%
D12*
%TO.P,R11,1*%
%TO.N,AUX2*%
X41000000Y-79080000D03*
%TO.P,R11,2*%
%TO.N,GND*%
X41000000Y-68920000D03*
%TD*%
D10*
%TO.P,J7,1*%
%TO.N,+3V3*%
X60500000Y-5730000D03*
D11*
%TO.P,J7,2*%
%TO.N,FSR5*%
X60500000Y-8270000D03*
%TD*%
D10*
%TO.P,J4,1*%
%TO.N,+3V3*%
X41000000Y-5730000D03*
D11*
%TO.P,J4,2*%
%TO.N,FSR2*%
X41000000Y-8270000D03*
%TD*%
D12*
%TO.P,R6,1*%
%TO.N,FSR5*%
X60500000Y-27080000D03*
%TO.P,R6,2*%
%TO.N,GND*%
X60500000Y-16920000D03*
%TD*%
%TO.P,R8,1*%
%TO.N,FSR7*%
X73500000Y-27080000D03*
%TO.P,R8,2*%
%TO.N,GND*%
X73500000Y-16920000D03*
%TD*%
D13*
%TO.P,C2,1*%
%TO.N,+3V3*%
X67750000Y-47000000D03*
D12*
%TO.P,C2,2*%
%TO.N,GND*%
X70250000Y-47000000D03*
%TD*%
D10*
%TO.P,J6,1*%
%TO.N,+3V3*%
X54000000Y-5730000D03*
D11*
%TO.P,J6,2*%
%TO.N,FSR4*%
X54000000Y-8270000D03*
%TD*%
D12*
%TO.P,C5,1*%
%TO.N,MOTOR_V+*%
X93500000Y-92000000D03*
%TO.P,C5,2*%
%TO.N,GND*%
X98500000Y-92000000D03*
%TD*%
%TO.P,R3,1*%
%TO.N,FSR2*%
X41000000Y-27080000D03*
%TO.P,R3,2*%
%TO.N,GND*%
X41000000Y-16920000D03*
%TD*%
%TO.P,R4,1*%
%TO.N,FSR3*%
X47500000Y-27080000D03*
%TO.P,R4,2*%
%TO.N,GND*%
X47500000Y-16920000D03*
%TD*%
%TO.P,C4,1*%
%TO.N,+3V3*%
X66500000Y-90000000D03*
%TO.P,C4,2*%
%TO.N,GND*%
X71500000Y-90000000D03*
%TD*%
D14*
%TO.P,J18,1*%
%TO.N,MOTOR_V+*%
X124500000Y-92000000D03*
D15*
%TO.P,J18,2*%
%TO.N,GND*%
X119500000Y-92000000D03*
%TD*%
D10*
%TO.P,J3,1*%
%TO.N,+3V3*%
X34500000Y-5730000D03*
D11*
%TO.P,J3,2*%
%TO.N,FSR1*%
X34500000Y-8270000D03*
%TD*%
D10*
%TO.P,J10,1*%
%TO.N,MOTOR_V+*%
X139000000Y-16730000D03*
D11*
%TO.P,J10,2*%
%TO.N,MOTOR0*%
X139000000Y-19270000D03*
%TD*%
D10*
%TO.P,J8,1*%
%TO.N,+3V3*%
X67000000Y-5730000D03*
D11*
%TO.P,J8,2*%
%TO.N,FSR6*%
X67000000Y-8270000D03*
%TD*%
D13*
%TO.P,C7,1*%
%TO.N,+3V3*%
X14750000Y-41000000D03*
D12*
%TO.P,C7,2*%
%TO.N,GND*%
X17250000Y-41000000D03*
%TD*%
D16*
%TO.P,U2,1*%
%TO.N,MTRDRV1*%
X97110000Y-27810000D03*
D12*
%TO.P,U2,2*%
%TO.N,MTRDRV2*%
X99650000Y-27810000D03*
%TO.P,U2,3*%
%TO.N,MTRDRV3*%
X102190000Y-27810000D03*
%TO.P,U2,4*%
%TO.N,MTRDRV4*%
X104730000Y-27810000D03*
%TO.P,U2,5*%
%TO.N,MTRDRV5*%
X107270000Y-27810000D03*
%TO.P,U2,6*%
%TO.N,MTRDRV6*%
X109810000Y-27810000D03*
%TO.P,U2,7*%
%TO.N,MTRDRV7*%
X112350000Y-27810000D03*
%TO.P,U2,8*%
%TO.N,GND*%
X114890000Y-27810000D03*
%TO.P,U2,9*%
%TO.N,N/C*%
X114890000Y-20190000D03*
%TO.P,U2,10*%
%TO.N,+3V3*%
X112350000Y-20190000D03*
%TO.P,U2,11*%
%TO.N,SR_SRCLK*%
X109810000Y-20190000D03*
%TO.P,U2,12*%
%TO.N,SR_RCLK*%
X107270000Y-20190000D03*
%TO.P,U2,13*%
%TO.N,GND*%
X104730000Y-20190000D03*
%TO.P,U2,14*%
%TO.N,SR_SER*%
X102190000Y-20190000D03*
%TO.P,U2,15*%
%TO.N,MTRDRV0*%
X99650000Y-20190000D03*
%TO.P,U2,16*%
%TO.N,+3V3*%
X97110000Y-20190000D03*
%TD*%
%TO.P,R5,1*%
%TO.N,FSR4*%
X54000000Y-27080000D03*
%TO.P,R5,2*%
%TO.N,GND*%
X54000000Y-16920000D03*
%TD*%
%TO.P,R16,1*%
%TO.N,AUX7*%
X73500000Y-79080000D03*
%TO.P,R16,2*%
%TO.N,GND*%
X73500000Y-68920000D03*
%TD*%
D10*
%TO.P,J19,1*%
%TO.N,GND*%
X24570000Y-103000000D03*
D11*
%TO.P,J19,2*%
%TO.N,AUX0*%
X27110000Y-103000000D03*
%TO.P,J19,3*%
%TO.N,AUX1*%
X29650000Y-103000000D03*
%TO.P,J19,4*%
%TO.N,AUX2*%
X32190000Y-103000000D03*
%TO.P,J19,5*%
%TO.N,AUX3*%
X34730000Y-103000000D03*
%TO.P,J19,6*%
%TO.N,AUX4*%
X37270000Y-103000000D03*
%TO.P,J19,7*%
%TO.N,AUX5*%
X39810000Y-103000000D03*
%TO.P,J19,8*%
%TO.N,AUX6*%
X42350000Y-103000000D03*
%TO.P,J19,9*%
%TO.N,AUX7*%
X44890000Y-103000000D03*
%TO.P,J19,10*%
%TO.N,GND*%
X47430000Y-103000000D03*
%TD*%
D13*
%TO.P,C8,1*%
%TO.N,MOTOR_V+*%
X105250000Y-92000000D03*
D12*
%TO.P,C8,2*%
%TO.N,GND*%
X108750000Y-92000000D03*
%TD*%
D10*
%TO.P,J16,1*%
%TO.N,MOTOR_V+*%
X139000000Y-67730000D03*
D11*
%TO.P,J16,2*%
%TO.N,MOTOR6*%
X139000000Y-70270000D03*
%TD*%
D16*
%TO.P,U1,1*%
%TO.N,FSR0*%
X41110000Y-45810000D03*
D12*
%TO.P,U1,2*%
%TO.N,FSR1*%
X43650000Y-45810000D03*
%TO.P,U1,3*%
%TO.N,FSR2*%
X46190000Y-45810000D03*
%TO.P,U1,4*%
%TO.N,FSR3*%
X48730000Y-45810000D03*
%TO.P,U1,5*%
%TO.N,FSR4*%
X51270000Y-45810000D03*
%TO.P,U1,6*%
%TO.N,FSR5*%
X53810000Y-45810000D03*
%TO.P,U1,7*%
%TO.N,FSR6*%
X56350000Y-45810000D03*
%TO.P,U1,8*%
%TO.N,FSR7*%
X58890000Y-45810000D03*
%TO.P,U1,9*%
%TO.N,GND*%
X58890000Y-38190000D03*
%TO.P,U1,10*%
%TO.N,SPI_CE0*%
X56350000Y-38190000D03*
%TO.P,U1,11*%
%TO.N,SPI_MOSI*%
X53810000Y-38190000D03*
%TO.P,U1,12*%
%TO.N,SPI_MISO*%
X51270000Y-38190000D03*
%TO.P,U1,13*%
%TO.N,SPI_SCLK*%
X48730000Y-38190000D03*
%TO.P,U1,14*%
%TO.N,GND*%
X46190000Y-38190000D03*
%TO.P,U1,15*%
%TO.N,+3V3*%
X43650000Y-38190000D03*
%TO.P,U1,16*%
X41110000Y-38190000D03*
%TD*%
D16*
%TO.P,U3,1*%
%TO.N,MTRDRV0*%
X95840000Y-53810000D03*
D12*
%TO.P,U3,2*%
%TO.N,MTRDRV1*%
X98380000Y-53810000D03*
%TO.P,U3,3*%
%TO.N,MTRDRV2*%
X100920000Y-53810000D03*
%TO.P,U3,4*%
%TO.N,MTRDRV3*%
X103460000Y-53810000D03*
%TO.P,U3,5*%
%TO.N,MTRDRV4*%
X106000000Y-53810000D03*
%TO.P,U3,6*%
%TO.N,MTRDRV5*%
X108540000Y-53810000D03*
%TO.P,U3,7*%
%TO.N,MTRDRV6*%
X111080000Y-53810000D03*
%TO.P,U3,8*%
%TO.N,MTRDRV7*%
X113620000Y-53810000D03*
%TO.P,U3,9*%
%TO.N,GND*%
X116160000Y-53810000D03*
%TO.P,U3,10*%
%TO.N,MOTOR_V+*%
X116160000Y-46190000D03*
%TO.P,U3,11*%
%TO.N,MOTOR7*%
X113620000Y-46190000D03*
%TO.P,U3,12*%
%TO.N,MOTOR6*%
X111080000Y-46190000D03*
%TO.P,U3,13*%
%TO.N,MOTOR5*%
X108540000Y-46190000D03*
%TO.P,U3,14*%
%TO.N,MOTOR4*%
X106000000Y-46190000D03*
%TO.P,U3,15*%
%TO.N,MOTOR3*%
X103460000Y-46190000D03*
%TO.P,U3,16*%
%TO.N,MOTOR2*%
X100920000Y-46190000D03*
%TO.P,U3,17*%
%TO.N,MOTOR1*%
X98380000Y-46190000D03*
%TO.P,U3,18*%
%TO.N,MOTOR0*%
X95840000Y-46190000D03*
%TD*%
%TO.P,R7,1*%
%TO.N,FSR6*%
X67000000Y-27080000D03*
%TO.P,R7,2*%
%TO.N,GND*%
X67000000Y-16920000D03*
%TD*%
D10*
%TO.P,J5,1*%
%TO.N,+3V3*%
X47500000Y-5730000D03*
D11*
%TO.P,J5,2*%
%TO.N,FSR3*%
X47500000Y-8270000D03*
%TD*%
D12*
%TO.P,R10,1*%
%TO.N,AUX1*%
X34500000Y-79080000D03*
%TO.P,R10,2*%
%TO.N,GND*%
X34500000Y-68920000D03*
%TD*%
%TO.P,R2,1*%
%TO.N,FSR1*%
X34500000Y-27080000D03*
%TO.P,R2,2*%
%TO.N,GND*%
X34500000Y-16920000D03*
%TD*%
%TO.P,R9,1*%
%TO.N,AUX0*%
X28000000Y-79080000D03*
%TO.P,R9,2*%
%TO.N,GND*%
X28000000Y-68920000D03*
%TD*%
D10*
%TO.P,J2,1*%
%TO.N,+3V3*%
X28000000Y-5730000D03*
D11*
%TO.P,J2,2*%
%TO.N,FSR0*%
X28000000Y-8270000D03*
%TD*%
D10*
%TO.P,J15,1*%
%TO.N,MOTOR_V+*%
X139000000Y-59230000D03*
D11*
%TO.P,J15,2*%
%TO.N,MOTOR5*%
X139000000Y-61770000D03*
%TD*%
D12*
%TO.P,C1,1*%
%TO.N,+3V3*%
X66500000Y-36000000D03*
%TO.P,C1,2*%
%TO.N,GND*%
X71500000Y-36000000D03*
%TD*%
%TO.P,R15,1*%
%TO.N,AUX6*%
X67000000Y-79080000D03*
%TO.P,R15,2*%
%TO.N,GND*%
X67000000Y-68920000D03*
%TD*%
D16*
%TO.P,U4,1*%
%TO.N,IN_SHLD*%
X41110000Y-93810000D03*
D12*
%TO.P,U4,2*%
%TO.N,IN_CLK*%
X43650000Y-93810000D03*
%TO.P,U4,3*%
%TO.N,AUX4*%
X46190000Y-93810000D03*
%TO.P,U4,4*%
%TO.N,AUX5*%
X48730000Y-93810000D03*
%TO.P,U4,5*%
%TO.N,AUX6*%
X51270000Y-93810000D03*
%TO.P,U4,6*%
%TO.N,AUX7*%
X53810000Y-93810000D03*
%TO.P,U4,7*%
%TO.N,N/C*%
X56350000Y-93810000D03*
%TO.P,U4,8*%
%TO.N,GND*%
X58890000Y-93810000D03*
%TO.P,U4,9*%
%TO.N,IN_QH*%
X58890000Y-86190000D03*
%TO.P,U4,10*%
%TO.N,GND*%
X56350000Y-86190000D03*
%TO.P,U4,11*%
%TO.N,AUX0*%
X53810000Y-86190000D03*
%TO.P,U4,12*%
%TO.N,AUX1*%
X51270000Y-86190000D03*
%TO.P,U4,13*%
%TO.N,AUX2*%
X48730000Y-86190000D03*
%TO.P,U4,14*%
%TO.N,AUX3*%
X46190000Y-86190000D03*
%TO.P,U4,15*%
%TO.N,GND*%
X43650000Y-86190000D03*
%TO.P,U4,16*%
%TO.N,+3V3*%
X41110000Y-86190000D03*
%TD*%
D10*
%TO.P,J1,1*%
%TO.N,+3V3*%
X6730000Y-30870000D03*
D11*
%TO.P,J1,2*%
%TO.N,N/C*%
X9270000Y-30870000D03*
%TO.P,J1,3*%
X6730000Y-33410000D03*
%TO.P,J1,4*%
X9270000Y-33410000D03*
%TO.P,J1,5*%
X6730000Y-35950000D03*
%TO.P,J1,6*%
%TO.N,GND*%
X9270000Y-35950000D03*
%TO.P,J1,7*%
%TO.N,N/C*%
X6730000Y-38490000D03*
%TO.P,J1,8*%
X9270000Y-38490000D03*
%TO.P,J1,9*%
%TO.N,GND*%
X6730000Y-41030000D03*
%TO.P,J1,10*%
%TO.N,N/C*%
X9270000Y-41030000D03*
%TO.P,J1,11*%
%TO.N,SR_SER*%
X6730000Y-43570000D03*
%TO.P,J1,12*%
%TO.N,N/C*%
X9270000Y-43570000D03*
%TO.P,J1,13*%
%TO.N,SR_RCLK*%
X6730000Y-46110000D03*
%TO.P,J1,14*%
%TO.N,GND*%
X9270000Y-46110000D03*
%TO.P,J1,15*%
%TO.N,SR_SRCLK*%
X6730000Y-48650000D03*
%TO.P,J1,16*%
%TO.N,IN_SHLD*%
X9270000Y-48650000D03*
%TO.P,J1,17*%
%TO.N,+3V3*%
X6730000Y-51190000D03*
%TO.P,J1,18*%
%TO.N,IN_CLK*%
X9270000Y-51190000D03*
%TO.P,J1,19*%
%TO.N,SPI_MOSI*%
X6730000Y-53730000D03*
%TO.P,J1,20*%
%TO.N,GND*%
X9270000Y-53730000D03*
%TO.P,J1,21*%
%TO.N,SPI_MISO*%
X6730000Y-56270000D03*
%TO.P,J1,22*%
%TO.N,IN_QH*%
X9270000Y-56270000D03*
%TO.P,J1,23*%
%TO.N,SPI_SCLK*%
X6730000Y-58810000D03*
%TO.P,J1,24*%
%TO.N,SPI_CE0*%
X9270000Y-58810000D03*
%TO.P,J1,25*%
%TO.N,GND*%
X6730000Y-61350000D03*
%TO.P,J1,26*%
%TO.N,N/C*%
X9270000Y-61350000D03*
%TO.P,J1,27*%
X6730000Y-63890000D03*
%TO.P,J1,28*%
X9270000Y-63890000D03*
%TO.P,J1,29*%
X6730000Y-66430000D03*
%TO.P,J1,30*%
%TO.N,GND*%
X9270000Y-66430000D03*
%TO.P,J1,31*%
%TO.N,N/C*%
X6730000Y-68970000D03*
%TO.P,J1,32*%
X9270000Y-68970000D03*
%TO.P,J1,33*%
X6730000Y-71510000D03*
%TO.P,J1,34*%
%TO.N,GND*%
X9270000Y-71510000D03*
%TO.P,J1,35*%
%TO.N,N/C*%
X6730000Y-74050000D03*
%TO.P,J1,36*%
X9270000Y-74050000D03*
%TO.P,J1,37*%
X6730000Y-76590000D03*
%TO.P,J1,38*%
X9270000Y-76590000D03*
%TO.P,J1,39*%
%TO.N,GND*%
X6730000Y-79130000D03*
%TO.P,J1,40*%
%TO.N,N/C*%
X9270000Y-79130000D03*
%TD*%
D12*
%TO.P,R1,1*%
%TO.N,FSR0*%
X28000000Y-27080000D03*
%TO.P,R1,2*%
%TO.N,GND*%
X28000000Y-16920000D03*
%TD*%
D10*
%TO.P,J9,1*%
%TO.N,+3V3*%
X73500000Y-5730000D03*
D11*
%TO.P,J9,2*%
%TO.N,FSR7*%
X73500000Y-8270000D03*
%TD*%
D10*
%TO.P,J11,1*%
%TO.N,MOTOR_V+*%
X139000000Y-25230000D03*
D11*
%TO.P,J11,2*%
%TO.N,MOTOR1*%
X139000000Y-27770000D03*
%TD*%
D12*
%TO.P,C3,1*%
%TO.N,+3V3*%
X121500000Y-34000000D03*
%TO.P,C3,2*%
%TO.N,GND*%
X126500000Y-34000000D03*
%TD*%
%TO.P,R12,1*%
%TO.N,AUX3*%
X47500000Y-79080000D03*
%TO.P,R12,2*%
%TO.N,GND*%
X47500000Y-68920000D03*
%TD*%
%TO.P,R14,1*%
%TO.N,AUX5*%
X60500000Y-79080000D03*
%TO.P,R14,2*%
%TO.N,GND*%
X60500000Y-68920000D03*
%TD*%
D17*
%TO.N,MOTOR7*%
X141594700Y-78770000D03*
%TO.N,+3V3*%
X2423400Y-29417700D03*
D18*
%TO.N,FSR7*%
X63665400Y-41034600D03*
%TO.N,SR_SRCLK*%
X3480300Y-18625400D03*
%TO.N,SR_RCLK*%
X4363900Y-17986700D03*
%TO.N,SR_SER*%
X5428300Y-18884600D03*
D17*
%TO.N,MOTOR6*%
X114416500Y-50013500D03*
D18*
%TO.N,SPI_MOSI*%
X53810000Y-28562900D03*
X1459200Y-28331700D03*
%TO.N,SPI_MISO*%
X51270000Y-42713000D03*
X16521100Y-65882700D03*
%TO.N,SPI_SCLK*%
X46693000Y-40480100D03*
X12121500Y-52866500D03*
%TO.N,IN_SHLD*%
X13011100Y-47923600D03*
%TO.N,IN_CLK*%
X14024200Y-49095100D03*
%TO.N,IN_QH*%
X11869100Y-55407700D03*
X11869100Y-70255600D03*
%TD*%
%TO.N,MOTOR_V+*%
D19*
X139000000Y-41479100D02*
X137498300Y-42980800D01*
X140501700Y-18231700D02*
X140501700Y-22226600D01*
X139000000Y-32979100D02*
X140501700Y-34480800D01*
X139000000Y-66979100D02*
X139000000Y-66228300D01*
X139000000Y-66979100D02*
X140501700Y-68480800D01*
X139000000Y-76230000D02*
X139000000Y-74728300D01*
X140501700Y-68480800D02*
X140501700Y-73226600D01*
X139000000Y-16730000D02*
X140501700Y-18231700D01*
X140501700Y-73226600D02*
X139000000Y-74728300D01*
X137498300Y-42980800D02*
X137498300Y-47726600D01*
X139000000Y-42230000D02*
X139000000Y-41479100D01*
X140501700Y-39226600D02*
X139000000Y-40728300D01*
X140501700Y-60731700D02*
X140501700Y-64726600D01*
X124500000Y-90730000D02*
X139000000Y-76230000D01*
X139000000Y-59230000D02*
X140501700Y-60731700D01*
X137498300Y-47726600D02*
X139000000Y-49228300D01*
X124500000Y-92000000D02*
X124500000Y-90730000D01*
X139000000Y-67730000D02*
X139000000Y-66979100D01*
X137498300Y-26731700D02*
X137498300Y-30726600D01*
X140501700Y-22226600D02*
X139000000Y-23728300D01*
X140501700Y-64726600D02*
X139000000Y-66228300D01*
X137498300Y-30726600D02*
X139000000Y-32228300D01*
X139000000Y-32979100D02*
X139000000Y-32228300D01*
X139000000Y-50730000D02*
X139000000Y-49228300D01*
X139000000Y-41479100D02*
X139000000Y-40728300D01*
X139000000Y-25230000D02*
X137498300Y-26731700D01*
X140501700Y-34480800D02*
X140501700Y-39226600D01*
X139000000Y-33730000D02*
X139000000Y-32979100D01*
X139000000Y-25230000D02*
X139000000Y-23728300D01*
%TO.N,AUX4*%
D20*
X50000000Y-90000000D02*
X46190000Y-93810000D01*
X50000000Y-83080000D02*
X50000000Y-90000000D01*
X54000000Y-79080000D02*
X50000000Y-83080000D01*
X37270000Y-103000000D02*
X46190000Y-94080000D01*
X46190000Y-94080000D02*
X46190000Y-93810000D01*
%TO.N,GND*%
D19*
X46190000Y-29620000D02*
X46190000Y-38190000D01*
X9270000Y-53730000D02*
X10773500Y-55233500D01*
X114890000Y-29531600D02*
X120823400Y-35465000D01*
X10773500Y-55233500D02*
X10773500Y-64926500D01*
X10771700Y-37451700D02*
X10771700Y-44608300D01*
X120823400Y-35465000D02*
X125035000Y-35465000D01*
X28000000Y-16920000D02*
X18500000Y-26420000D01*
X10771700Y-67931700D02*
X9270000Y-66430000D01*
X9270000Y-35950000D02*
X10771700Y-37451700D01*
X71500000Y-36000000D02*
X65375000Y-42125000D01*
X10783800Y-47623800D02*
X9270000Y-46110000D01*
X17250000Y-31250000D02*
X18500000Y-30000000D01*
X9270000Y-53730000D02*
X10783800Y-52216200D01*
X56350000Y-91270000D02*
X58890000Y-93810000D01*
X65375000Y-42125000D02*
X70250000Y-47000000D01*
X116160000Y-53810000D02*
X119500000Y-57150000D01*
X114890000Y-27810000D02*
X114890000Y-29531600D01*
X125035000Y-35465000D02*
X126500000Y-34000000D01*
X112169800Y-25089800D02*
X114890000Y-27810000D01*
X6730000Y-79130000D02*
X8231700Y-80631700D01*
X58890000Y-38190000D02*
X62825000Y-42125000D01*
X8231700Y-80631700D02*
X9980900Y-80631700D01*
X5192200Y-77592200D02*
X5192200Y-62887800D01*
X56350000Y-86190000D02*
X56350000Y-91270000D01*
X18500000Y-26420000D02*
X18500000Y-30000000D01*
X47430000Y-103000000D02*
X49700000Y-103000000D01*
X10783800Y-52216200D02*
X10783800Y-47623800D01*
X41000000Y-16920000D02*
X41000000Y-24430000D01*
X10771700Y-44608300D02*
X9270000Y-46110000D01*
X10773500Y-64926500D02*
X9270000Y-66430000D01*
X6730000Y-79130000D02*
X5192200Y-77592200D01*
X5192200Y-62887800D02*
X6730000Y-61350000D01*
X119500000Y-57150000D02*
X119500000Y-92000000D01*
X109629800Y-25089800D02*
X112169800Y-25089800D01*
X10771700Y-79840900D02*
X10771700Y-71510000D01*
X43650000Y-86190000D02*
X43650000Y-71570000D01*
X9980900Y-80631700D02*
X10771700Y-79840900D01*
X62825000Y-42125000D02*
X65375000Y-42125000D01*
X43650000Y-71570000D02*
X41000000Y-68920000D01*
X49700000Y-103000000D02*
X58890000Y-93810000D01*
X41000000Y-24430000D02*
X46190000Y-29620000D01*
X10771700Y-71510000D02*
X10771700Y-67931700D01*
X67000000Y-68920000D02*
X60500000Y-68920000D01*
X104730000Y-20190000D02*
X109629800Y-25089800D01*
X17250000Y-41000000D02*
X17250000Y-31250000D01*
X9270000Y-71510000D02*
X10771700Y-71510000D01*
%TO.N,MOTOR7*%
X115071700Y-47641700D02*
X130050700Y-47641700D01*
X130050700Y-47641700D02*
X141594700Y-59185700D01*
X141594700Y-59185700D02*
X141594700Y-78770000D01*
X113620000Y-46190000D02*
X115071700Y-47641700D01*
%TO.N,+3V3*%
X41110000Y-86190000D02*
X41110000Y-82060200D01*
X29451700Y-55701700D02*
X14750000Y-41000000D01*
X75001700Y-27659300D02*
X75001700Y-7231700D01*
X41110000Y-82060200D02*
X29451700Y-70401900D01*
X112350000Y-20190000D02*
X121500000Y-29340000D01*
X82650000Y-5730000D02*
X73500000Y-5730000D01*
X29451700Y-70401900D02*
X29451700Y-55701700D01*
X14750000Y-31250000D02*
X13500000Y-30000000D01*
X97110000Y-20190000D02*
X82650000Y-5730000D01*
X66500000Y-36000000D02*
X66661000Y-36000000D01*
X6730000Y-51190000D02*
X2423400Y-46883400D01*
X121500000Y-29340000D02*
X121500000Y-34000000D01*
X75001700Y-7231700D02*
X73500000Y-5730000D01*
X14750000Y-41000000D02*
X14750000Y-31250000D01*
X2423400Y-46883400D02*
X2423400Y-29417700D01*
X66661000Y-36000000D02*
X75001700Y-27659300D01*
%TO.N,FSR5*%
D20*
X55080000Y-31224600D02*
X55080000Y-44540000D01*
X59224600Y-27080000D02*
X59224600Y-9545400D01*
X59224600Y-9545400D02*
X60500000Y-8270000D01*
X55080000Y-44540000D02*
X53810000Y-45810000D01*
X60500000Y-27080000D02*
X59224600Y-27080000D01*
X59224600Y-27080000D02*
X55080000Y-31224600D01*
%TO.N,FSR2*%
X39791500Y-28288500D02*
X41000000Y-27080000D01*
X39728600Y-9541400D02*
X41000000Y-8270000D01*
X39728600Y-25808600D02*
X39728600Y-9541400D01*
X46190000Y-45810000D02*
X39791500Y-39411500D01*
X39791500Y-39411500D02*
X39791500Y-28288500D01*
X41000000Y-27080000D02*
X39728600Y-25808600D01*
%TO.N,FSR7*%
X72179300Y-27080000D02*
X72179300Y-9590700D01*
X72179300Y-27080000D02*
X73500000Y-27080000D01*
X72179300Y-27080000D02*
X63665400Y-35593900D01*
X72179300Y-9590700D02*
X73500000Y-8270000D01*
X63665400Y-35593900D02*
X63665400Y-41034600D01*
%TO.N,FSR4*%
X55269600Y-9539600D02*
X54000000Y-8270000D01*
X55269600Y-25810400D02*
X55269600Y-9539600D01*
X54000000Y-27080000D02*
X55269600Y-25810400D01*
X52540000Y-28540000D02*
X52540000Y-44540000D01*
X54000000Y-27080000D02*
X52540000Y-28540000D01*
X52540000Y-44540000D02*
X51270000Y-45810000D01*
%TO.N,FSR3*%
X48784400Y-27080000D02*
X47500000Y-27080000D01*
X50000000Y-28295600D02*
X50000000Y-44540000D01*
X50000000Y-44540000D02*
X48730000Y-45810000D01*
X48784400Y-9554400D02*
X47500000Y-8270000D01*
X48784400Y-27080000D02*
X48784400Y-9554400D01*
X48784400Y-27080000D02*
X50000000Y-28295600D01*
%TO.N,FSR1*%
X43650000Y-45810000D02*
X34500000Y-36660000D01*
X33177900Y-9592100D02*
X34500000Y-8270000D01*
X33177900Y-25757900D02*
X33177900Y-9592100D01*
X34500000Y-27080000D02*
X33177900Y-25757900D01*
X34500000Y-36660000D02*
X34500000Y-27080000D01*
%TO.N,FSR6*%
X67000000Y-8270000D02*
X65730500Y-9539500D01*
X65730500Y-9539500D02*
X65730500Y-25810500D01*
X65730500Y-25810500D02*
X67000000Y-27080000D01*
X57620000Y-44540000D02*
X57620000Y-36460000D01*
X56350000Y-45810000D02*
X57620000Y-44540000D01*
X57620000Y-36460000D02*
X67000000Y-27080000D01*
%TO.N,MTRDRV1*%
X93881500Y-49311500D02*
X93881500Y-31038500D01*
X93881500Y-31038500D02*
X97110000Y-27810000D01*
X98380000Y-53810000D02*
X93881500Y-49311500D01*
%TO.N,MTRDRV2*%
X94549300Y-32910700D02*
X99650000Y-27810000D01*
X100920000Y-53810000D02*
X94549300Y-47439300D01*
X94549300Y-47439300D02*
X94549300Y-32910700D01*
%TO.N,MTRDRV3*%
X97110000Y-47460000D02*
X97110000Y-32890000D01*
X103460000Y-53810000D02*
X97110000Y-47460000D01*
X97110000Y-32890000D02*
X102190000Y-27810000D01*
%TO.N,MTRDRV4*%
X106000000Y-53810000D02*
X99650000Y-47460000D01*
X99650000Y-47460000D02*
X99650000Y-32890000D01*
X99650000Y-32890000D02*
X104730000Y-27810000D01*
%TO.N,MTRDRV5*%
X102190000Y-47460000D02*
X102190000Y-32890000D01*
X102190000Y-32890000D02*
X107270000Y-27810000D01*
X108540000Y-53810000D02*
X102190000Y-47460000D01*
%TO.N,MTRDRV6*%
X111080000Y-53810000D02*
X104730000Y-47460000D01*
X104730000Y-32890000D02*
X109810000Y-27810000D01*
X104730000Y-47460000D02*
X104730000Y-32890000D01*
%TO.N,MTRDRV7*%
X107270000Y-47460000D02*
X107270000Y-32890000D01*
X113620000Y-53810000D02*
X107270000Y-47460000D01*
X107270000Y-32890000D02*
X112350000Y-27810000D01*
%TO.N,SR_SRCLK*%
X3480300Y-45400300D02*
X3480300Y-18625400D01*
X6730000Y-48650000D02*
X3480300Y-45400300D01*
%TO.N,SR_RCLK*%
X6730000Y-46110000D02*
X4363900Y-43743900D01*
X4363900Y-43743900D02*
X4363900Y-17986700D01*
%TO.N,SR_SER*%
X6730000Y-43570000D02*
X5428300Y-42268300D01*
X5428300Y-42268300D02*
X5428300Y-18884600D01*
%TO.N,MTRDRV0*%
X93185900Y-26654100D02*
X99650000Y-20190000D01*
X95840000Y-53810000D02*
X93185900Y-51155900D01*
X93185900Y-51155900D02*
X93185900Y-26654100D01*
%TO.N,AUX7*%
X53810000Y-94080000D02*
X53810000Y-93810000D01*
X55080000Y-92540000D02*
X55080000Y-85682800D01*
X67790000Y-84790000D02*
X73500000Y-79080000D01*
X55972800Y-84790000D02*
X67790000Y-84790000D01*
X53810000Y-93810000D02*
X55080000Y-92540000D01*
X44890000Y-103000000D02*
X53810000Y-94080000D01*
X55080000Y-85682800D02*
X55972800Y-84790000D01*
%TO.N,AUX0*%
X27110000Y-79970000D02*
X28000000Y-79080000D01*
X27110000Y-103000000D02*
X27110000Y-79970000D01*
%TO.N,AUX3*%
X46190000Y-86190000D02*
X47500000Y-84880000D01*
X37729600Y-101559700D02*
X44920000Y-94369300D01*
X36170300Y-101559700D02*
X37729600Y-101559700D01*
X44920000Y-94369300D02*
X44920000Y-87460000D01*
X47500000Y-84880000D02*
X47500000Y-79080000D01*
X44920000Y-87460000D02*
X46190000Y-86190000D01*
X34730000Y-103000000D02*
X36170300Y-101559700D01*
%TO.N,AUX5*%
X39810000Y-103000000D02*
X48730000Y-94080000D01*
X48730000Y-94080000D02*
X48730000Y-93810000D01*
X59124600Y-79080000D02*
X52540000Y-85664600D01*
X52540000Y-85664600D02*
X52540000Y-90000000D01*
X52540000Y-90000000D02*
X48730000Y-93810000D01*
X60500000Y-79080000D02*
X59124600Y-79080000D01*
%TO.N,AUX6*%
X42350000Y-103000000D02*
X51270000Y-94080000D01*
X51270000Y-94080000D02*
X51270000Y-93810000D01*
%TO.N,MOTOR6*%
D19*
X139000000Y-70270000D02*
X134673000Y-70270000D01*
X134673000Y-70270000D02*
X114416500Y-50013500D01*
%TO.N,FSR0*%
D20*
X41110000Y-45810000D02*
X28000000Y-32700000D01*
X29269600Y-25810400D02*
X29269600Y-9539600D01*
X29269600Y-9539600D02*
X28000000Y-8270000D01*
X28000000Y-32700000D02*
X28000000Y-27080000D01*
X28000000Y-27080000D02*
X29269600Y-25810400D01*
%TO.N,SPI_MOSI*%
X53810000Y-38190000D02*
X53810000Y-28562900D01*
X6730000Y-53730000D02*
X1459200Y-48459200D01*
X1459200Y-48459200D02*
X1459200Y-28331700D01*
%TO.N,SPI_MISO*%
X3639200Y-59360800D02*
X6730000Y-56270000D01*
X3639200Y-78984000D02*
X3639200Y-59360800D01*
X51270000Y-38190000D02*
X51270000Y-42713000D01*
X6873600Y-82218400D02*
X3639200Y-78984000D01*
X16521100Y-76317700D02*
X10620400Y-82218400D01*
X10620400Y-82218400D02*
X6873600Y-82218400D01*
X16521100Y-65882700D02*
X16521100Y-76317700D01*
%TO.N,SPI_SCLK*%
X12121500Y-54390800D02*
X12720800Y-54990100D01*
X10339900Y-81536400D02*
X7216200Y-81536400D01*
X4290900Y-61249100D02*
X6730000Y-58810000D01*
X4290900Y-78611100D02*
X4290900Y-61249100D01*
X48730000Y-38190000D02*
X46693000Y-40227000D01*
X12720800Y-79155500D02*
X10339900Y-81536400D01*
X46693000Y-40227000D02*
X46693000Y-40480100D01*
X7216200Y-81536400D02*
X4290900Y-78611100D01*
X12720800Y-54990100D02*
X12720800Y-79155500D01*
X12121500Y-52866500D02*
X12121500Y-54390800D01*
%TO.N,MOTOR5*%
D19*
X108540000Y-46190000D02*
X111169800Y-48819800D01*
X111169800Y-48819800D02*
X120463800Y-48819800D01*
X133414000Y-61770000D02*
X139000000Y-61770000D01*
X120463800Y-48819800D02*
X133414000Y-61770000D01*
%TO.N,IN_SHLD*%
D20*
X13372500Y-54019500D02*
X13011100Y-53658100D01*
X41110000Y-89267200D02*
X13372500Y-61529700D01*
X41110000Y-93810000D02*
X41110000Y-89267200D01*
X13011100Y-53658100D02*
X13011100Y-47923600D01*
X13372500Y-61529700D02*
X13372500Y-54019500D01*
%TO.N,IN_CLK*%
X43650000Y-90641700D02*
X14024200Y-61015900D01*
X14024200Y-61015900D02*
X14024200Y-49095100D01*
X43650000Y-93810000D02*
X43650000Y-90641700D01*
%TO.N,IN_QH*%
X11869100Y-55407700D02*
X11869100Y-70255600D01*
%TD*%
M02*
