M48
; DRILL file KiCad 10.0.6 date 2026-09-19T17:15:47
; FORMAT={-:-/ absolute / metric / decimal}
; #@! TF.CreationDate,2026-09-19T17:15:47-07:00
; #@! TF.GenerationSoftware,Kicad,Pcbnew,10.0.6
; #@! TF.FileFunction,MixedPlating,1,2
FMAT,2
METRIC
; #@! TA.AperFunction,Plated,PTH,ViaDrill
T1C0.400
; #@! TA.AperFunction,Plated,PTH,ViaDrill
T2C0.500
; #@! TA.AperFunction,Plated,PTH,ComponentDrill
T3C0.800
; #@! TA.AperFunction,Plated,PTH,ComponentDrill
T4C1.000
; #@! TA.AperFunction,Plated,PTH,ComponentDrill
T5C1.300
%
G90
G05
T1
X1.459Y-28.332
X3.48Y-18.625
X4.364Y-17.987
X5.428Y-18.885
X11.869Y-55.408
X11.869Y-70.256
X12.121Y-52.866
X13.011Y-47.924
X14.024Y-49.095
X16.521Y-65.883
X46.693Y-40.48
X51.27Y-42.713
X53.81Y-28.563
X63.665Y-41.035
T2
X2.423Y-29.418
X114.416Y-50.014
X141.595Y-78.77
T3
X13.5Y-30.0
X14.75Y-41.0
X17.25Y-41.0
X18.5Y-30.0
X28.0Y-16.92
X28.0Y-27.08
X28.0Y-68.92
X28.0Y-79.08
X34.5Y-16.92
X34.5Y-27.08
X34.5Y-68.92
X34.5Y-79.08
X41.0Y-16.92
X41.0Y-27.08
X41.0Y-68.92
X41.0Y-79.08
X41.11Y-38.19
X41.11Y-45.81
X41.11Y-86.19
X41.11Y-93.81
X43.65Y-38.19
X43.65Y-45.81
X43.65Y-86.19
X43.65Y-93.81
X46.19Y-38.19
X46.19Y-45.81
X46.19Y-86.19
X46.19Y-93.81
X47.5Y-16.92
X47.5Y-27.08
X47.5Y-68.92
X47.5Y-79.08
X48.73Y-38.19
X48.73Y-45.81
X48.73Y-86.19
X48.73Y-93.81
X51.27Y-38.19
X51.27Y-45.81
X51.27Y-86.19
X51.27Y-93.81
X53.81Y-38.19
X53.81Y-45.81
X53.81Y-86.19
X53.81Y-93.81
X54.0Y-16.92
X54.0Y-27.08
X54.0Y-68.92
X54.0Y-79.08
X56.35Y-38.19
X56.35Y-45.81
X56.35Y-86.19
X56.35Y-93.81
X58.89Y-38.19
X58.89Y-45.81
X58.89Y-86.19
X58.89Y-93.81
X60.5Y-16.92
X60.5Y-27.08
X60.5Y-68.92
X60.5Y-79.08
X66.5Y-36.0
X66.5Y-90.0
X67.0Y-16.92
X67.0Y-27.08
X67.0Y-68.92
X67.0Y-79.08
X67.75Y-47.0
X70.25Y-47.0
X71.5Y-36.0
X71.5Y-90.0
X73.5Y-16.92
X73.5Y-27.08
X73.5Y-68.92
X73.5Y-79.08
X93.5Y-92.0
X95.84Y-46.19
X95.84Y-53.81
X97.11Y-20.19
X97.11Y-27.81
X98.38Y-46.19
X98.38Y-53.81
X98.5Y-92.0
X99.65Y-20.19
X99.65Y-27.81
X100.92Y-46.19
X100.92Y-53.81
X102.19Y-20.19
X102.19Y-27.81
X103.46Y-46.19
X103.46Y-53.81
X104.73Y-20.19
X104.73Y-27.81
X105.25Y-92.0
X106.0Y-46.19
X106.0Y-53.81
X107.27Y-20.19
X107.27Y-27.81
X108.54Y-46.19
X108.54Y-53.81
X108.75Y-92.0
X109.81Y-20.19
X109.81Y-27.81
X111.08Y-46.19
X111.08Y-53.81
X112.35Y-20.19
X112.35Y-27.81
X113.62Y-46.19
X113.62Y-53.81
X114.89Y-20.19
X114.89Y-27.81
X116.16Y-46.19
X116.16Y-53.81
X121.5Y-34.0
X126.5Y-34.0
T4
X6.73Y-30.87
X6.73Y-33.41
X6.73Y-35.95
X6.73Y-38.49
X6.73Y-41.03
X6.73Y-43.57
X6.73Y-46.11
X6.73Y-48.65
X6.73Y-51.19
X6.73Y-53.73
X6.73Y-56.27
X6.73Y-58.81
X6.73Y-61.35
X6.73Y-63.89
X6.73Y-66.43
X6.73Y-68.97
X6.73Y-71.51
X6.73Y-74.05
X6.73Y-76.59
X6.73Y-79.13
X9.27Y-30.87
X9.27Y-33.41
X9.27Y-35.95
X9.27Y-38.49
X9.27Y-41.03
X9.27Y-43.57
X9.27Y-46.11
X9.27Y-48.65
X9.27Y-51.19
X9.27Y-53.73
X9.27Y-56.27
X9.27Y-58.81
X9.27Y-61.35
X9.27Y-63.89
X9.27Y-66.43
X9.27Y-68.97
X9.27Y-71.51
X9.27Y-74.05
X9.27Y-76.59
X9.27Y-79.13
X24.57Y-103.0
X27.11Y-103.0
X28.0Y-5.73
X28.0Y-8.27
X29.65Y-103.0
X32.19Y-103.0
X34.5Y-5.73
X34.5Y-8.27
X34.73Y-103.0
X37.27Y-103.0
X39.81Y-103.0
X41.0Y-5.73
X41.0Y-8.27
X42.35Y-103.0
X44.89Y-103.0
X47.43Y-103.0
X47.5Y-5.73
X47.5Y-8.27
X54.0Y-5.73
X54.0Y-8.27
X60.5Y-5.73
X60.5Y-8.27
X67.0Y-5.73
X67.0Y-8.27
X73.5Y-5.73
X73.5Y-8.27
X139.0Y-16.73
X139.0Y-19.27
X139.0Y-25.23
X139.0Y-27.77
X139.0Y-33.73
X139.0Y-36.27
X139.0Y-42.23
X139.0Y-44.77
X139.0Y-50.73
X139.0Y-53.27
X139.0Y-59.23
X139.0Y-61.77
X139.0Y-67.73
X139.0Y-70.27
X139.0Y-76.23
X139.0Y-78.77
T5
X119.5Y-92.0
X124.5Y-92.0
M30
