%TF.GenerationSoftware,KiCad,Pcbnew,10.0.6*%
%TF.CreationDate,2026-09-19T16:40:09-07:00*%
%TF.ProjectId,jaladarangam-control-board,6a616c61-6461-4726-916e-67616d2d636f,rev?*%
%TF.SameCoordinates,Original*%
%TF.FileFunction,Copper,L2,Bot*%
%TF.FilePolarity,Positive*%
%FSLAX46Y46*%
G04 Gerber Fmt 4.6, Leading zero omitted, Abs format (unit mm)*
G04 Created by KiCad (PCBNEW 10.0.6) date 2026-09-19 16:40:09*
%MOMM*%
%LPD*%
G01*
G04 APERTURE LIST*
G04 Aperture macros list*
%AMRoundRect*
0 Rectangle with rounded corners*
0 $1 Rounding radius*
0 $2 $3 $4 $5 $6 $7 $8 $9 X,Y pos of 4 corners*
0 Add a 4 corners polygon primitive as box body*
4,1,4,$2,$3,$4,$5,$6,$7,$8,$9,$2,$3,0*
0 Add four circle primitives for the rounded corners*
1,1,$1+$1,$2,$3*
1,1,$1+$1,$4,$5*
1,1,$1+$1,$6,$7*
1,1,$1+$1,$8,$9*
0 Add four rect primitives between the rounded corners*
20,1,$1+$1,$2,$3,$4,$5,0*
20,1,$1+$1,$4,$5,$6,$7,0*
20,1,$1+$1,$6,$7,$8,$9,0*
20,1,$1+$1,$8,$9,$2,$3,0*%
G04 Aperture macros list end*
%TA.AperFunction,ComponentPad*%
%ADD10C,1.600000*%
%TD*%
%TA.AperFunction,ComponentPad*%
%ADD11R,1.700000X1.700000*%
%TD*%
%TA.AperFunction,ComponentPad*%
%ADD12C,1.700000*%
%TD*%
%TA.AperFunction,ComponentPad*%
%ADD13RoundRect,0.250000X0.550000X-0.550000X0.550000X0.550000X-0.550000X0.550000X-0.550000X-0.550000X0*%
%TD*%
%TA.AperFunction,ComponentPad*%
%ADD14RoundRect,0.250000X-0.550000X-0.550000X0.550000X-0.550000X0.550000X0.550000X-0.550000X0.550000X0*%
%TD*%
%TA.AperFunction,ComponentPad*%
%ADD15RoundRect,0.250001X1.149999X1.149999X-1.149999X1.149999X-1.149999X-1.149999X1.149999X-1.149999X0*%
%TD*%
%TA.AperFunction,ComponentPad*%
%ADD16C,2.800000*%
%TD*%
%TA.AperFunction,ViaPad*%
%ADD17C,1.000000*%
%TD*%
%TA.AperFunction,ViaPad*%
%ADD18C,0.800000*%
%TD*%
%TA.AperFunction,Conductor*%
%ADD19C,0.400000*%
%TD*%
%TA.AperFunction,Conductor*%
%ADD20C,0.800000*%
%TD*%
G04 APERTURE END LIST*
D10*
%TO.P,R11,1*%
%TO.N,AUX2*%
X41000000Y-79080000D03*
%TO.P,R11,2*%
%TO.N,GND*%
X41000000Y-68920000D03*
%TD*%
D11*
%TO.P,J5,1*%
%TO.N,+3V3*%
X47500000Y-5730000D03*
D12*
%TO.P,J5,2*%
%TO.N,FSR3*%
X47500000Y-8270000D03*
%TD*%
D13*
%TO.P,U1,1*%
%TO.N,FSR0*%
X41110000Y-45810000D03*
D10*
%TO.P,U1,2*%
%TO.N,FSR1*%
X43650000Y-45810000D03*
%TO.P,U1,3*%
%TO.N,FSR2*%
X46190000Y-45810000D03*
%TO.P,U1,4*%
%TO.N,FSR3*%
X48730000Y-45810000D03*
%TO.P,U1,5*%
%TO.N,FSR4*%
X51270000Y-45810000D03*
%TO.P,U1,6*%
%TO.N,FSR5*%
X53810000Y-45810000D03*
%TO.P,U1,7*%
%TO.N,FSR6*%
X56350000Y-45810000D03*
%TO.P,U1,8*%
%TO.N,FSR7*%
X58890000Y-45810000D03*
%TO.P,U1,9*%
%TO.N,GND*%
X58890000Y-38190000D03*
%TO.P,U1,10*%
%TO.N,SPI_CE0*%
X56350000Y-38190000D03*
%TO.P,U1,11*%
%TO.N,SPI_MOSI*%
X53810000Y-38190000D03*
%TO.P,U1,12*%
%TO.N,SPI_MISO*%
X51270000Y-38190000D03*
%TO.P,U1,13*%
%TO.N,SPI_SCLK*%
X48730000Y-38190000D03*
%TO.P,U1,14*%
%TO.N,GND*%
X46190000Y-38190000D03*
%TO.P,U1,15*%
%TO.N,+3V3*%
X43650000Y-38190000D03*
%TO.P,U1,16*%
X41110000Y-38190000D03*
%TD*%
%TO.P,R8,1*%
%TO.N,FSR7*%
X73500000Y-27080000D03*
%TO.P,R8,2*%
%TO.N,GND*%
X73500000Y-16920000D03*
%TD*%
D11*
%TO.P,J14,1*%
%TO.N,MOTOR_V+*%
X139000000Y-50730000D03*
D12*
%TO.P,J14,2*%
%TO.N,MOTOR4*%
X139000000Y-53270000D03*
%TD*%
D11*
%TO.P,J2,1*%
%TO.N,+3V3*%
X28000000Y-5730000D03*
D12*
%TO.P,J2,2*%
%TO.N,FSR0*%
X28000000Y-8270000D03*
%TD*%
D11*
%TO.P,J13,1*%
%TO.N,MOTOR_V+*%
X139000000Y-42230000D03*
D12*
%TO.P,J13,2*%
%TO.N,MOTOR3*%
X139000000Y-44770000D03*
%TD*%
D11*
%TO.P,J15,1*%
%TO.N,MOTOR_V+*%
X139000000Y-59230000D03*
D12*
%TO.P,J15,2*%
%TO.N,MOTOR5*%
X139000000Y-61770000D03*
%TD*%
D10*
%TO.P,R7,1*%
%TO.N,FSR6*%
X67000000Y-27080000D03*
%TO.P,R7,2*%
%TO.N,GND*%
X67000000Y-16920000D03*
%TD*%
D11*
%TO.P,J6,1*%
%TO.N,+3V3*%
X54000000Y-5730000D03*
D12*
%TO.P,J6,2*%
%TO.N,FSR4*%
X54000000Y-8270000D03*
%TD*%
D11*
%TO.P,J3,1*%
%TO.N,+3V3*%
X34500000Y-5730000D03*
D12*
%TO.P,J3,2*%
%TO.N,FSR1*%
X34500000Y-8270000D03*
%TD*%
D11*
%TO.P,J10,1*%
%TO.N,MOTOR_V+*%
X139000000Y-16730000D03*
D12*
%TO.P,J10,2*%
%TO.N,MOTOR0*%
X139000000Y-19270000D03*
%TD*%
D10*
%TO.P,R3,1*%
%TO.N,FSR2*%
X41000000Y-27080000D03*
%TO.P,R3,2*%
%TO.N,GND*%
X41000000Y-16920000D03*
%TD*%
%TO.P,C3,1*%
%TO.N,+3V3*%
X121500000Y-34000000D03*
%TO.P,C3,2*%
%TO.N,GND*%
X126500000Y-34000000D03*
%TD*%
D11*
%TO.P,J1,1*%
%TO.N,+3V3*%
X6730000Y-30870000D03*
D12*
%TO.P,J1,2*%
%TO.N,N/C*%
X9270000Y-30870000D03*
%TO.P,J1,3*%
X6730000Y-33410000D03*
%TO.P,J1,4*%
X9270000Y-33410000D03*
%TO.P,J1,5*%
X6730000Y-35950000D03*
%TO.P,J1,6*%
%TO.N,GND*%
X9270000Y-35950000D03*
%TO.P,J1,7*%
%TO.N,N/C*%
X6730000Y-38490000D03*
%TO.P,J1,8*%
X9270000Y-38490000D03*
%TO.P,J1,9*%
%TO.N,GND*%
X6730000Y-41030000D03*
%TO.P,J1,10*%
%TO.N,N/C*%
X9270000Y-41030000D03*
%TO.P,J1,11*%
%TO.N,SR_SER*%
X6730000Y-43570000D03*
%TO.P,J1,12*%
%TO.N,N/C*%
X9270000Y-43570000D03*
%TO.P,J1,13*%
%TO.N,SR_RCLK*%
X6730000Y-46110000D03*
%TO.P,J1,14*%
%TO.N,GND*%
X9270000Y-46110000D03*
%TO.P,J1,15*%
%TO.N,SR_SRCLK*%
X6730000Y-48650000D03*
%TO.P,J1,16*%
%TO.N,IN_SHLD*%
X9270000Y-48650000D03*
%TO.P,J1,17*%
%TO.N,+3V3*%
X6730000Y-51190000D03*
%TO.P,J1,18*%
%TO.N,IN_CLK*%
X9270000Y-51190000D03*
%TO.P,J1,19*%
%TO.N,SPI_MOSI*%
X6730000Y-53730000D03*
%TO.P,J1,20*%
%TO.N,GND*%
X9270000Y-53730000D03*
%TO.P,J1,21*%
%TO.N,SPI_MISO*%
X6730000Y-56270000D03*
%TO.P,J1,22*%
%TO.N,IN_QH*%
X9270000Y-56270000D03*
%TO.P,J1,23*%
%TO.N,SPI_SCLK*%
X6730000Y-58810000D03*
%TO.P,J1,24*%
%TO.N,SPI_CE0*%
X9270000Y-58810000D03*
%TO.P,J1,25*%
%TO.N,GND*%
X6730000Y-61350000D03*
%TO.P,J1,26*%
%TO.N,N/C*%
X9270000Y-61350000D03*
%TO.P,J1,27*%
X6730000Y-63890000D03*
%TO.P,J1,28*%
X9270000Y-63890000D03*
%TO.P,J1,29*%
X6730000Y-66430000D03*
%TO.P,J1,30*%
%TO.N,GND*%
X9270000Y-66430000D03*
%TO.P,J1,31*%
%TO.N,N/C*%
X6730000Y-68970000D03*
%TO.P,J1,32*%
X9270000Y-68970000D03*
%TO.P,J1,33*%
X6730000Y-71510000D03*
%TO.P,J1,34*%
%TO.N,GND*%
X9270000Y-71510000D03*
%TO.P,J1,35*%
%TO.N,N/C*%
X6730000Y-74050000D03*
%TO.P,J1,36*%
X9270000Y-74050000D03*
%TO.P,J1,37*%
X6730000Y-76590000D03*
%TO.P,J1,38*%
X9270000Y-76590000D03*
%TO.P,J1,39*%
%TO.N,GND*%
X6730000Y-79130000D03*
%TO.P,J1,40*%
%TO.N,N/C*%
X9270000Y-79130000D03*
%TD*%
D10*
%TO.P,R1,1*%
%TO.N,FSR0*%
X28000000Y-27080000D03*
%TO.P,R1,2*%
%TO.N,GND*%
X28000000Y-16920000D03*
%TD*%
D14*
%TO.P,C7,1*%
%TO.N,+3V3*%
X14750000Y-41000000D03*
D10*
%TO.P,C7,2*%
%TO.N,GND*%
X17250000Y-41000000D03*
%TD*%
D11*
%TO.P,J4,1*%
%TO.N,+3V3*%
X41000000Y-5730000D03*
D12*
%TO.P,J4,2*%
%TO.N,FSR2*%
X41000000Y-8270000D03*
%TD*%
D10*
%TO.P,C5,1*%
%TO.N,MOTOR_V+*%
X93500000Y-92000000D03*
%TO.P,C5,2*%
%TO.N,GND*%
X98500000Y-92000000D03*
%TD*%
D11*
%TO.P,J8,1*%
%TO.N,+3V3*%
X67000000Y-5730000D03*
D12*
%TO.P,J8,2*%
%TO.N,FSR6*%
X67000000Y-8270000D03*
%TD*%
D11*
%TO.P,J11,1*%
%TO.N,MOTOR_V+*%
X139000000Y-25230000D03*
D12*
%TO.P,J11,2*%
%TO.N,MOTOR1*%
X139000000Y-27770000D03*
%TD*%
D10*
%TO.P,R16,1*%
%TO.N,AUX7*%
X73500000Y-79080000D03*
%TO.P,R16,2*%
%TO.N,GND*%
X73500000Y-68920000D03*
%TD*%
%TO.P,R2,1*%
%TO.N,FSR1*%
X34500000Y-27080000D03*
%TO.P,R2,2*%
%TO.N,GND*%
X34500000Y-16920000D03*
%TD*%
D11*
%TO.P,J7,1*%
%TO.N,+3V3*%
X60500000Y-5730000D03*
D12*
%TO.P,J7,2*%
%TO.N,FSR5*%
X60500000Y-8270000D03*
%TD*%
D10*
%TO.P,R4,1*%
%TO.N,FSR3*%
X47500000Y-27080000D03*
%TO.P,R4,2*%
%TO.N,GND*%
X47500000Y-16920000D03*
%TD*%
D14*
%TO.P,C2,1*%
%TO.N,+3V3*%
X67750000Y-47000000D03*
D10*
%TO.P,C2,2*%
%TO.N,GND*%
X70250000Y-47000000D03*
%TD*%
%TO.P,R9,1*%
%TO.N,AUX0*%
X28000000Y-79080000D03*
%TO.P,R9,2*%
%TO.N,GND*%
X28000000Y-68920000D03*
%TD*%
%TO.P,C4,1*%
%TO.N,+3V3*%
X66500000Y-90000000D03*
%TO.P,C4,2*%
%TO.N,GND*%
X71500000Y-90000000D03*
%TD*%
%TO.P,R14,1*%
%TO.N,AUX5*%
X60500000Y-79080000D03*
%TO.P,R14,2*%
%TO.N,GND*%
X60500000Y-68920000D03*
%TD*%
D14*
%TO.P,C8,1*%
%TO.N,MOTOR_V+*%
X105250000Y-92000000D03*
D10*
%TO.P,C8,2*%
%TO.N,GND*%
X108750000Y-92000000D03*
%TD*%
D11*
%TO.P,J19,1*%
%TO.N,GND*%
X24570000Y-103000000D03*
D12*
%TO.P,J19,2*%
%TO.N,AUX0*%
X27110000Y-103000000D03*
%TO.P,J19,3*%
%TO.N,AUX1*%
X29650000Y-103000000D03*
%TO.P,J19,4*%
%TO.N,AUX2*%
X32190000Y-103000000D03*
%TO.P,J19,5*%
%TO.N,AUX3*%
X34730000Y-103000000D03*
%TO.P,J19,6*%
%TO.N,AUX4*%
X37270000Y-103000000D03*
%TO.P,J19,7*%
%TO.N,AUX5*%
X39810000Y-103000000D03*
%TO.P,J19,8*%
%TO.N,AUX6*%
X42350000Y-103000000D03*
%TO.P,J19,9*%
%TO.N,AUX7*%
X44890000Y-103000000D03*
%TO.P,J19,10*%
%TO.N,GND*%
X47430000Y-103000000D03*
%TD*%
D15*
%TO.P,J18,1*%
%TO.N,MOTOR_V+*%
X124500000Y-92000000D03*
D16*
%TO.P,J18,2*%
%TO.N,GND*%
X119500000Y-92000000D03*
%TD*%
D10*
%TO.P,R6,1*%
%TO.N,FSR5*%
X60500000Y-27080000D03*
%TO.P,R6,2*%
%TO.N,GND*%
X60500000Y-16920000D03*
%TD*%
D13*
%TO.P,U2,1*%
%TO.N,MTRDRV1*%
X97110000Y-27810000D03*
D10*
%TO.P,U2,2*%
%TO.N,MTRDRV2*%
X99650000Y-27810000D03*
%TO.P,U2,3*%
%TO.N,MTRDRV3*%
X102190000Y-27810000D03*
%TO.P,U2,4*%
%TO.N,MTRDRV4*%
X104730000Y-27810000D03*
%TO.P,U2,5*%
%TO.N,MTRDRV5*%
X107270000Y-27810000D03*
%TO.P,U2,6*%
%TO.N,MTRDRV6*%
X109810000Y-27810000D03*
%TO.P,U2,7*%
%TO.N,MTRDRV7*%
X112350000Y-27810000D03*
%TO.P,U2,8*%
%TO.N,GND*%
X114890000Y-27810000D03*
%TO.P,U2,9*%
%TO.N,N/C*%
X114890000Y-20190000D03*
%TO.P,U2,10*%
%TO.N,+3V3*%
X112350000Y-20190000D03*
%TO.P,U2,11*%
%TO.N,SR_SRCLK*%
X109810000Y-20190000D03*
%TO.P,U2,12*%
%TO.N,SR_RCLK*%
X107270000Y-20190000D03*
%TO.P,U2,13*%
%TO.N,GND*%
X104730000Y-20190000D03*
%TO.P,U2,14*%
%TO.N,SR_SER*%
X102190000Y-20190000D03*
%TO.P,U2,15*%
%TO.N,MTRDRV0*%
X99650000Y-20190000D03*
%TO.P,U2,16*%
%TO.N,+3V3*%
X97110000Y-20190000D03*
%TD*%
D11*
%TO.P,J16,1*%
%TO.N,MOTOR_V+*%
X139000000Y-67730000D03*
D12*
%TO.P,J16,2*%
%TO.N,MOTOR6*%
X139000000Y-70270000D03*
%TD*%
D10*
%TO.P,R13,1*%
%TO.N,AUX4*%
X54000000Y-79080000D03*
%TO.P,R13,2*%
%TO.N,GND*%
X54000000Y-68920000D03*
%TD*%
%TO.P,R12,1*%
%TO.N,AUX3*%
X47500000Y-79080000D03*
%TO.P,R12,2*%
%TO.N,GND*%
X47500000Y-68920000D03*
%TD*%
%TO.P,R5,1*%
%TO.N,FSR4*%
X54000000Y-27080000D03*
%TO.P,R5,2*%
%TO.N,GND*%
X54000000Y-16920000D03*
%TD*%
%TO.P,R10,1*%
%TO.N,AUX1*%
X34500000Y-79080000D03*
%TO.P,R10,2*%
%TO.N,GND*%
X34500000Y-68920000D03*
%TD*%
D11*
%TO.P,J9,1*%
%TO.N,+3V3*%
X73500000Y-5730000D03*
D12*
%TO.P,J9,2*%
%TO.N,FSR7*%
X73500000Y-8270000D03*
%TD*%
D10*
%TO.P,C1,1*%
%TO.N,+3V3*%
X66500000Y-36000000D03*
%TO.P,C1,2*%
%TO.N,GND*%
X71500000Y-36000000D03*
%TD*%
%TO.P,R15,1*%
%TO.N,AUX6*%
X67000000Y-79080000D03*
%TO.P,R15,2*%
%TO.N,GND*%
X67000000Y-68920000D03*
%TD*%
D11*
%TO.P,J12,1*%
%TO.N,MOTOR_V+*%
X139000000Y-33730000D03*
D12*
%TO.P,J12,2*%
%TO.N,MOTOR2*%
X139000000Y-36270000D03*
%TD*%
D13*
%TO.P,U3,1*%
%TO.N,MTRDRV0*%
X95840000Y-53810000D03*
D10*
%TO.P,U3,2*%
%TO.N,MTRDRV1*%
X98380000Y-53810000D03*
%TO.P,U3,3*%
%TO.N,MTRDRV2*%
X100920000Y-53810000D03*
%TO.P,U3,4*%
%TO.N,MTRDRV3*%
X103460000Y-53810000D03*
%TO.P,U3,5*%
%TO.N,MTRDRV4*%
X106000000Y-53810000D03*
%TO.P,U3,6*%
%TO.N,MTRDRV5*%
X108540000Y-53810000D03*
%TO.P,U3,7*%
%TO.N,MTRDRV6*%
X111080000Y-53810000D03*
%TO.P,U3,8*%
%TO.N,MTRDRV7*%
X113620000Y-53810000D03*
%TO.P,U3,9*%
%TO.N,GND*%
X116160000Y-53810000D03*
%TO.P,U3,10*%
%TO.N,MOTOR_V+*%
X116160000Y-46190000D03*
%TO.P,U3,11*%
%TO.N,MOTOR7*%
X113620000Y-46190000D03*
%TO.P,U3,12*%
%TO.N,MOTOR6*%
X111080000Y-46190000D03*
%TO.P,U3,13*%
%TO.N,MOTOR5*%
X108540000Y-46190000D03*
%TO.P,U3,14*%
%TO.N,MOTOR4*%
X106000000Y-46190000D03*
%TO.P,U3,15*%
%TO.N,MOTOR3*%
X103460000Y-46190000D03*
%TO.P,U3,16*%
%TO.N,MOTOR2*%
X100920000Y-46190000D03*
%TO.P,U3,17*%
%TO.N,MOTOR1*%
X98380000Y-46190000D03*
%TO.P,U3,18*%
%TO.N,MOTOR0*%
X95840000Y-46190000D03*
%TD*%
D13*
%TO.P,U4,1*%
%TO.N,IN_SHLD*%
X41110000Y-93810000D03*
D10*
%TO.P,U4,2*%
%TO.N,IN_CLK*%
X43650000Y-93810000D03*
%TO.P,U4,3*%
%TO.N,AUX4*%
X46190000Y-93810000D03*
%TO.P,U4,4*%
%TO.N,AUX5*%
X48730000Y-93810000D03*
%TO.P,U4,5*%
%TO.N,AUX6*%
X51270000Y-93810000D03*
%TO.P,U4,6*%
%TO.N,AUX7*%
X53810000Y-93810000D03*
%TO.P,U4,7*%
%TO.N,N/C*%
X56350000Y-93810000D03*
%TO.P,U4,8*%
%TO.N,GND*%
X58890000Y-93810000D03*
%TO.P,U4,9*%
%TO.N,IN_QH*%
X58890000Y-86190000D03*
%TO.P,U4,10*%
%TO.N,GND*%
X56350000Y-86190000D03*
%TO.P,U4,11*%
%TO.N,AUX0*%
X53810000Y-86190000D03*
%TO.P,U4,12*%
%TO.N,AUX1*%
X51270000Y-86190000D03*
%TO.P,U4,13*%
%TO.N,AUX2*%
X48730000Y-86190000D03*
%TO.P,U4,14*%
%TO.N,AUX3*%
X46190000Y-86190000D03*
%TO.P,U4,15*%
%TO.N,GND*%
X43650000Y-86190000D03*
%TO.P,U4,16*%
%TO.N,+3V3*%
X41110000Y-86190000D03*
%TD*%
%TO.P,C6,1*%
%TO.N,+3V3*%
X13500000Y-30000000D03*
%TO.P,C6,2*%
%TO.N,GND*%
X18500000Y-30000000D03*
%TD*%
D11*
%TO.P,J17,1*%
%TO.N,MOTOR_V+*%
X139000000Y-76230000D03*
D12*
%TO.P,J17,2*%
%TO.N,MOTOR7*%
X139000000Y-78770000D03*
%TD*%
D17*
%TO.N,+3V3*%
X119244600Y-28972200D03*
D18*
%TO.N,FSR3*%
X52538900Y-41496800D03*
%TO.N,FSR6*%
X67764700Y-39305800D03*
%TO.N,FSR7*%
X73500000Y-40637800D03*
%TO.N,SPI_CE0*%
X25896300Y-58810000D03*
%TO.N,SPI_MOSI*%
X53810000Y-34511800D03*
X15615700Y-34518500D03*
%TO.N,SPI_MISO*%
X17385000Y-35151400D03*
X51270000Y-35151400D03*
D17*
%TO.N,MOTOR5*%
X132246000Y-49781400D03*
D18*
%TO.N,SR_SER*%
X10819500Y-31643000D03*
%TO.N,SR_RCLK*%
X4728900Y-37287700D03*
X107270000Y-16897400D03*
%TO.N,SR_SRCLK*%
X12324100Y-33643900D03*
%TO.N,IN_SHLD*%
X15625200Y-93810000D03*
X15625200Y-48650000D03*
%TO.N,IN_CLK*%
X29856000Y-53918200D03*
X29856000Y-83216800D03*
%TO.N,AUX5*%
X55080000Y-80614300D03*
%TO.N,AUX3*%
X43653900Y-81963900D03*
%TO.N,MTRDRV7*%
X124389900Y-54299600D03*
%TD*%
%TO.N,AUX2*%
D19*
X32190000Y-87890000D02*
X41000000Y-79080000D01*
X32190000Y-103000000D02*
X32190000Y-87890000D01*
X48730000Y-85835500D02*
X41974500Y-79080000D01*
X41974500Y-79080000D02*
X41000000Y-79080000D01*
X48730000Y-86190000D02*
X48730000Y-85835500D01*
%TO.N,GND*%
D20*
X112942500Y-25862500D02*
X114890000Y-27810000D01*
X56350000Y-73070000D02*
X60500000Y-68920000D01*
X56350000Y-86190000D02*
X56350000Y-73070000D01*
X116160000Y-88660000D02*
X119500000Y-92000000D01*
X18500000Y-26420000D02*
X18500000Y-30000000D01*
X34500000Y-68920000D02*
X41000000Y-68920000D01*
X126500000Y-34000000D02*
X120310000Y-27810000D01*
X17250000Y-41000000D02*
X18500000Y-39750000D01*
X71500000Y-36000000D02*
X71500000Y-21420000D01*
X71500000Y-21420000D02*
X67000000Y-16920000D01*
X10827300Y-52172700D02*
X10827300Y-47667300D01*
X10827300Y-47667300D02*
X10705000Y-47545000D01*
X10827300Y-71510000D02*
X10827300Y-66430000D01*
X10705000Y-47545000D02*
X17250000Y-41000000D01*
X10827300Y-55287300D02*
X9270000Y-53730000D01*
X6730000Y-79130000D02*
X5180500Y-77580500D01*
X56350000Y-91270000D02*
X58890000Y-93810000D01*
X8275500Y-80675500D02*
X9905100Y-80675500D01*
X70250000Y-37250000D02*
X71500000Y-36000000D01*
X9905100Y-80675500D02*
X10827300Y-79753300D01*
X116160000Y-53810000D02*
X116160000Y-88660000D01*
X56350000Y-86190000D02*
X56350000Y-91270000D01*
X6730000Y-79130000D02*
X8275500Y-80675500D01*
X120310000Y-27810000D02*
X114890000Y-27810000D01*
X70250000Y-47000000D02*
X70250000Y-37250000D01*
X18500000Y-39750000D02*
X18500000Y-30000000D01*
X5180500Y-62899500D02*
X6730000Y-61350000D01*
X5180500Y-77580500D02*
X5180500Y-62899500D01*
X10827300Y-66430000D02*
X9270000Y-66430000D01*
X10705000Y-47545000D02*
X9270000Y-46110000D01*
X9270000Y-53730000D02*
X10827300Y-52172700D01*
X104730000Y-20190000D02*
X110402500Y-25862500D01*
X28000000Y-16920000D02*
X18500000Y-26420000D01*
X47430000Y-103000000D02*
X49700000Y-103000000D01*
X10827300Y-71510000D02*
X9270000Y-71510000D01*
X110402500Y-25862500D02*
X112942500Y-25862500D01*
X10827300Y-79753300D02*
X10827300Y-71510000D01*
X10827300Y-66430000D02*
X10827300Y-55287300D01*
X49700000Y-103000000D02*
X58890000Y-93810000D01*
%TO.N,+3V3*%
X97110000Y-20190000D02*
X82650000Y-5730000D01*
X63750100Y-8980100D02*
X60500000Y-5730000D01*
X65533200Y-89033200D02*
X65533200Y-49216800D01*
X82650000Y-5730000D02*
X73500000Y-5730000D01*
X5140200Y-27955800D02*
X11455800Y-27955800D01*
X67750000Y-47000000D02*
X66500000Y-45750000D01*
X66500000Y-45750000D02*
X66500000Y-36000000D01*
X6730000Y-51190000D02*
X3009100Y-47469100D01*
X11455800Y-27955800D02*
X13500000Y-30000000D01*
X3009100Y-47469100D02*
X3009100Y-30086900D01*
X119244600Y-31744600D02*
X119244600Y-28972200D01*
X66500000Y-36000000D02*
X63750100Y-33250100D01*
X65533200Y-49216800D02*
X67750000Y-47000000D01*
X14750000Y-41000000D02*
X13500000Y-39750000D01*
X63750100Y-33250100D02*
X63750100Y-8980100D01*
X121500000Y-34000000D02*
X119244600Y-31744600D01*
X66500000Y-90000000D02*
X65533200Y-89033200D01*
X3009100Y-30086900D02*
X5140200Y-27955800D01*
X13500000Y-39750000D02*
X13500000Y-30000000D01*
%TO.N,FSR3*%
D19*
X47500000Y-8270000D02*
X46225500Y-9544500D01*
X46225500Y-25805500D02*
X47500000Y-27080000D01*
X52538900Y-32118900D02*
X52538900Y-41496800D01*
X46225500Y-9544500D02*
X46225500Y-25805500D01*
X47500000Y-27080000D02*
X52538900Y-32118900D01*
%TO.N,FSR0*%
X29269500Y-25810500D02*
X28000000Y-27080000D01*
X28000000Y-8270000D02*
X29269500Y-9539500D01*
X29269500Y-9539500D02*
X29269500Y-25810500D01*
X28000000Y-32700000D02*
X28000000Y-27080000D01*
X41110000Y-45810000D02*
X28000000Y-32700000D01*
%TO.N,FSR1*%
X35820100Y-25759900D02*
X34500000Y-27080000D01*
X34500000Y-8270000D02*
X35820100Y-9590100D01*
X43650000Y-45810000D02*
X34500000Y-36660000D01*
X34500000Y-36660000D02*
X34500000Y-27080000D01*
X35820100Y-9590100D02*
X35820100Y-25759900D01*
%TO.N,FSR2*%
X39733900Y-25813900D02*
X41000000Y-27080000D01*
X46190000Y-45810000D02*
X50000000Y-42000000D01*
X41000000Y-8270000D02*
X39733900Y-9536100D01*
X39733900Y-9536100D02*
X39733900Y-25813900D01*
X50000000Y-36080000D02*
X41000000Y-27080000D01*
X50000000Y-42000000D02*
X50000000Y-36080000D01*
%TO.N,FSR4*%
X55310600Y-9580600D02*
X55310600Y-25769400D01*
X55310600Y-25769400D02*
X54000000Y-27080000D01*
X51270000Y-45810000D02*
X57620000Y-39460000D01*
X54000000Y-8270000D02*
X55310600Y-9580600D01*
X57620000Y-39460000D02*
X57620000Y-30700000D01*
X57620000Y-30700000D02*
X54000000Y-27080000D01*
%TO.N,FSR5*%
X59202800Y-25782800D02*
X60500000Y-27080000D01*
X53810000Y-45810000D02*
X60500000Y-39120000D01*
X59202800Y-9567200D02*
X59202800Y-25782800D01*
X60500000Y-8270000D02*
X59202800Y-9567200D01*
X60500000Y-39120000D02*
X60500000Y-27080000D01*
%TO.N,FSR6*%
X65715700Y-9554300D02*
X65715700Y-25795700D01*
X67764700Y-27844700D02*
X67764700Y-39305800D01*
X65715700Y-25795700D02*
X67000000Y-27080000D01*
X67000000Y-27080000D02*
X67764700Y-27844700D01*
X67000000Y-8270000D02*
X65715700Y-9554300D01*
%TO.N,FSR7*%
X72236000Y-9534000D02*
X72236000Y-18463600D01*
X73500000Y-8270000D02*
X72236000Y-9534000D01*
X73500000Y-27080000D02*
X73500000Y-40637800D01*
X72236000Y-18463600D02*
X73500000Y-19727600D01*
X73500000Y-19727600D02*
X73500000Y-27080000D01*
%TO.N,SPI_CE0*%
X25896300Y-56652400D02*
X25896300Y-58810000D01*
X50000000Y-46313000D02*
X46708400Y-49604600D01*
X50000000Y-45301700D02*
X50000000Y-46313000D01*
X56350000Y-38951700D02*
X50000000Y-45301700D01*
X46708400Y-49604600D02*
X32944100Y-49604600D01*
X56350000Y-38190000D02*
X56350000Y-38951700D01*
X32944100Y-49604600D02*
X25896300Y-56652400D01*
%TO.N,SPI_MOSI*%
X15615700Y-30322800D02*
X15615700Y-34518500D01*
X2110400Y-29712400D02*
X4721200Y-27101600D01*
X4721200Y-27101600D02*
X12394500Y-27101600D01*
X53810000Y-38190000D02*
X53810000Y-34511800D01*
X6730000Y-53730000D02*
X2110400Y-49110400D01*
X12394500Y-27101600D02*
X15615700Y-30322800D01*
X2110400Y-49110400D02*
X2110400Y-29712400D01*
%TO.N,SPI_MISO*%
X12664400Y-26449900D02*
X17385000Y-31170500D01*
X6730000Y-56270000D02*
X1458700Y-50998700D01*
X4451300Y-26449900D02*
X12664400Y-26449900D01*
X17385000Y-31170500D02*
X17385000Y-35151400D01*
X1458700Y-29442500D02*
X4451300Y-26449900D01*
X1458700Y-50998700D02*
X1458700Y-29442500D01*
X51270000Y-38190000D02*
X51270000Y-35151400D01*
%TO.N,SPI_SCLK*%
X7290300Y-81552500D02*
X10308200Y-81552500D01*
X10308200Y-81552500D02*
X14598900Y-77261800D01*
X4318700Y-78580900D02*
X7290300Y-81552500D01*
X14598900Y-48425100D02*
X15698900Y-47325100D01*
X4318700Y-61221300D02*
X4318700Y-78580900D01*
X15698900Y-47325100D02*
X43918200Y-47325100D01*
X44920000Y-46323300D02*
X44920000Y-42000000D01*
X43918200Y-47325100D02*
X44920000Y-46323300D01*
X44920000Y-42000000D02*
X48730000Y-38190000D01*
X6730000Y-58810000D02*
X4318700Y-61221300D01*
X14598900Y-77261800D02*
X14598900Y-48425100D01*
%TO.N,MOTOR_V+*%
D20*
X139000000Y-25230000D02*
X139000000Y-23728300D01*
X140501700Y-35231700D02*
X140501700Y-39226600D01*
X140501700Y-30726600D02*
X139000000Y-32228300D01*
X140501700Y-39226600D02*
X139000000Y-40728300D01*
X140501700Y-42980800D02*
X140501700Y-47726600D01*
X140501700Y-47726600D02*
X139000000Y-49228300D01*
X139000000Y-67730000D02*
X139000000Y-66228300D01*
X139000000Y-41479100D02*
X139000000Y-40728300D01*
X137491300Y-60738700D02*
X139000000Y-59230000D01*
X139000000Y-33730000D02*
X139000000Y-32228300D01*
X139000000Y-42230000D02*
X139000000Y-41479100D01*
X139000000Y-33730000D02*
X140501700Y-35231700D01*
X140501700Y-26731700D02*
X140501700Y-30726600D01*
X140501700Y-18231700D02*
X140501700Y-22226600D01*
X139000000Y-16730000D02*
X140501700Y-18231700D01*
X139000000Y-50730000D02*
X139000000Y-49228300D01*
X139000000Y-25230000D02*
X140501700Y-26731700D01*
X137491300Y-64719600D02*
X137491300Y-60738700D01*
X124500000Y-90730000D02*
X139000000Y-76230000D01*
X124500000Y-92000000D02*
X124500000Y-90730000D01*
X139000000Y-66228300D02*
X137491300Y-64719600D01*
X140501700Y-22226600D02*
X139000000Y-23728300D01*
X139000000Y-41479100D02*
X140501700Y-42980800D01*
%TO.N,MOTOR5*%
X139081600Y-61770000D02*
X140545100Y-60306500D01*
X140545100Y-58080500D02*
X132246000Y-49781400D01*
X139000000Y-61770000D02*
X139081600Y-61770000D01*
X140545100Y-60306500D02*
X140545100Y-58080500D01*
%TO.N,SR_SER*%
D19*
X10819500Y-30523500D02*
X10819500Y-31643000D01*
X5380600Y-36733300D02*
X5380600Y-29877000D01*
X5737400Y-29520200D02*
X9816200Y-29520200D01*
X5582200Y-37640500D02*
X5582200Y-36934900D01*
X5380600Y-29877000D02*
X5737400Y-29520200D01*
X5582200Y-36934900D02*
X5380600Y-36733300D01*
X6730000Y-43570000D02*
X5380600Y-42220600D01*
X9816200Y-29520200D02*
X10819500Y-30523500D01*
X5380600Y-37842100D02*
X5582200Y-37640500D01*
X5380600Y-42220600D02*
X5380600Y-37842100D01*
%TO.N,SR_RCLK*%
X107270000Y-20190000D02*
X107270000Y-16897400D01*
X4728900Y-44108900D02*
X4728900Y-37287700D01*
X6730000Y-46110000D02*
X4728900Y-44108900D01*
%TO.N,SR_SRCLK*%
X12324100Y-31088900D02*
X12324100Y-33643900D01*
X10088900Y-28853700D02*
X12324100Y-31088900D01*
X6730000Y-48650000D02*
X3877200Y-45797200D01*
X5463000Y-28853700D02*
X10088900Y-28853700D01*
X3877200Y-45797200D02*
X3877200Y-30439500D01*
X3877200Y-30439500D02*
X5463000Y-28853700D01*
%TO.N,IN_SHLD*%
X15625200Y-93810000D02*
X15625200Y-48650000D01*
%TO.N,IN_CLK*%
X29856000Y-83216800D02*
X29856000Y-53918200D01*
%TO.N,AUX7*%
X44890000Y-103000000D02*
X53810000Y-94080000D01*
X53810000Y-94080000D02*
X53810000Y-93810000D01*
%TO.N,AUX0*%
X27110000Y-79970000D02*
X28000000Y-79080000D01*
X27110000Y-103000000D02*
X27110000Y-79970000D01*
%TO.N,AUX5*%
X39810000Y-103000000D02*
X48730000Y-94080000D01*
X48730000Y-93810000D02*
X55080000Y-87460000D01*
X48730000Y-94080000D02*
X48730000Y-93810000D01*
X55080000Y-87460000D02*
X55080000Y-80614300D01*
%TO.N,AUX1*%
X29650000Y-84627300D02*
X34500000Y-79777300D01*
X29650000Y-103000000D02*
X29650000Y-84627300D01*
X42886700Y-77806700D02*
X35773300Y-77806700D01*
X51270000Y-86190000D02*
X42886700Y-77806700D01*
X35773300Y-77806700D02*
X34500000Y-79080000D01*
X34500000Y-79777300D02*
X34500000Y-79080000D01*
%TO.N,AUX3*%
X43653900Y-83653900D02*
X46190000Y-86190000D01*
X43653900Y-81963900D02*
X43653900Y-83653900D01*
X34730000Y-103000000D02*
X34730000Y-97650000D01*
X34730000Y-97650000D02*
X46190000Y-86190000D01*
%TO.N,AUX4*%
X52540000Y-80540000D02*
X54000000Y-79080000D01*
X46190000Y-93810000D02*
X52540000Y-87460000D01*
X52540000Y-87460000D02*
X52540000Y-80540000D01*
X46190000Y-94080000D02*
X46190000Y-93810000D01*
X37270000Y-103000000D02*
X46190000Y-94080000D01*
%TO.N,AUX6*%
X51270000Y-94080000D02*
X51270000Y-93810000D01*
X42350000Y-103000000D02*
X51270000Y-94080000D01*
%TO.N,MTRDRV1*%
X97110000Y-52540000D02*
X97110000Y-27810000D01*
X98380000Y-53810000D02*
X97110000Y-52540000D01*
%TO.N,MTRDRV2*%
X99650000Y-52540000D02*
X99650000Y-27810000D01*
X100920000Y-53810000D02*
X99650000Y-52540000D01*
%TO.N,MTRDRV3*%
X103460000Y-53810000D02*
X102190000Y-52540000D01*
X102190000Y-52540000D02*
X102190000Y-27810000D01*
%TO.N,MTRDRV4*%
X106000000Y-53810000D02*
X104730000Y-52540000D01*
X104730000Y-52540000D02*
X104730000Y-27810000D01*
%TO.N,MTRDRV5*%
X108540000Y-53810000D02*
X107270000Y-52540000D01*
X107270000Y-52540000D02*
X107270000Y-27810000D01*
%TO.N,MTRDRV6*%
X109810000Y-52540000D02*
X109810000Y-27810000D01*
X111080000Y-53810000D02*
X109810000Y-52540000D01*
%TO.N,MTRDRV7*%
X112350000Y-27810000D02*
X124389900Y-39849900D01*
X124389900Y-39849900D02*
X124389900Y-54299600D01*
%TO.N,MTRDRV0*%
X95840000Y-53810000D02*
X94569100Y-52539100D01*
X94569100Y-52539100D02*
X94569100Y-25270900D01*
X94569100Y-25270900D02*
X99650000Y-20190000D01*
%TO.N,MOTOR6*%
D20*
X118194400Y-49627500D02*
X138836900Y-70270000D01*
X111080000Y-46190000D02*
X112576200Y-44693800D01*
X118194400Y-46148100D02*
X118194400Y-49627500D01*
X116740100Y-44693800D02*
X118194400Y-46148100D01*
X138836900Y-70270000D02*
X139000000Y-70270000D01*
X112576200Y-44693800D02*
X116740100Y-44693800D01*
%TO.N,MOTOR7*%
X139081600Y-78770000D02*
X140545100Y-77306500D01*
X140545100Y-77306500D02*
X140545100Y-75080600D01*
X139000000Y-78770000D02*
X139081600Y-78770000D01*
X113620000Y-48155500D02*
X113620000Y-46190000D01*
X140545100Y-75080600D02*
X113620000Y-48155500D01*
%TD*%
M02*
