%TF.GenerationSoftware,KiCad,Pcbnew,10.0.6*%
%TF.CreationDate,2026-09-19T17:15:40-07:00*%
%TF.ProjectId,jaladarangam-control-board,6a616c61-6461-4726-916e-67616d2d636f,rev?*%
%TF.SameCoordinates,Original*%
%TF.FileFunction,Legend,Top*%
%TF.FilePolarity,Positive*%
%FSLAX46Y46*%
G04 Gerber Fmt 4.6, Leading zero omitted, Abs format (unit mm)*
G04 Created by KiCad (PCBNEW 10.0.6) date 2026-09-19 17:15:40*
%MOMM*%
%LPD*%
G01*
G04 APERTURE LIST*
%ADD10C,0.150000*%
%ADD11C,0.120000*%
G04 APERTURE END LIST*
D10*
X6788207Y-82234819D02*
X6454874Y-81758628D01*
X6216779Y-82234819D02*
X6216779Y-81234819D01*
X6216779Y-81234819D02*
X6597731Y-81234819D01*
X6597731Y-81234819D02*
X6692969Y-81282438D01*
X6692969Y-81282438D02*
X6740588Y-81330057D01*
X6740588Y-81330057D02*
X6788207Y-81425295D01*
X6788207Y-81425295D02*
X6788207Y-81568152D01*
X6788207Y-81568152D02*
X6740588Y-81663390D01*
X6740588Y-81663390D02*
X6692969Y-81711009D01*
X6692969Y-81711009D02*
X6597731Y-81758628D01*
X6597731Y-81758628D02*
X6216779Y-81758628D01*
X7216779Y-82234819D02*
X7216779Y-81234819D01*
X7216779Y-81234819D02*
X7597731Y-81234819D01*
X7597731Y-81234819D02*
X7692969Y-81282438D01*
X7692969Y-81282438D02*
X7740588Y-81330057D01*
X7740588Y-81330057D02*
X7788207Y-81425295D01*
X7788207Y-81425295D02*
X7788207Y-81568152D01*
X7788207Y-81568152D02*
X7740588Y-81663390D01*
X7740588Y-81663390D02*
X7692969Y-81711009D01*
X7692969Y-81711009D02*
X7597731Y-81758628D01*
X7597731Y-81758628D02*
X7216779Y-81758628D01*
X8216779Y-82234819D02*
X8216779Y-81568152D01*
X8216779Y-81234819D02*
X8169160Y-81282438D01*
X8169160Y-81282438D02*
X8216779Y-81330057D01*
X8216779Y-81330057D02*
X8264398Y-81282438D01*
X8264398Y-81282438D02*
X8216779Y-81234819D01*
X8216779Y-81234819D02*
X8216779Y-81330057D01*
X9978683Y-81282438D02*
X9883445Y-81234819D01*
X9883445Y-81234819D02*
X9740588Y-81234819D01*
X9740588Y-81234819D02*
X9597731Y-81282438D01*
X9597731Y-81282438D02*
X9502493Y-81377676D01*
X9502493Y-81377676D02*
X9454874Y-81472914D01*
X9454874Y-81472914D02*
X9407255Y-81663390D01*
X9407255Y-81663390D02*
X9407255Y-81806247D01*
X9407255Y-81806247D02*
X9454874Y-81996723D01*
X9454874Y-81996723D02*
X9502493Y-82091961D01*
X9502493Y-82091961D02*
X9597731Y-82187200D01*
X9597731Y-82187200D02*
X9740588Y-82234819D01*
X9740588Y-82234819D02*
X9835826Y-82234819D01*
X9835826Y-82234819D02*
X9978683Y-82187200D01*
X9978683Y-82187200D02*
X10026302Y-82139580D01*
X10026302Y-82139580D02*
X10026302Y-81806247D01*
X10026302Y-81806247D02*
X9835826Y-81806247D01*
X10454874Y-82234819D02*
X10454874Y-81234819D01*
X10454874Y-81234819D02*
X10835826Y-81234819D01*
X10835826Y-81234819D02*
X10931064Y-81282438D01*
X10931064Y-81282438D02*
X10978683Y-81330057D01*
X10978683Y-81330057D02*
X11026302Y-81425295D01*
X11026302Y-81425295D02*
X11026302Y-81568152D01*
X11026302Y-81568152D02*
X10978683Y-81663390D01*
X10978683Y-81663390D02*
X10931064Y-81711009D01*
X10931064Y-81711009D02*
X10835826Y-81758628D01*
X10835826Y-81758628D02*
X10454874Y-81758628D01*
X11454874Y-82234819D02*
X11454874Y-81234819D01*
X12121540Y-81234819D02*
X12312016Y-81234819D01*
X12312016Y-81234819D02*
X12407254Y-81282438D01*
X12407254Y-81282438D02*
X12502492Y-81377676D01*
X12502492Y-81377676D02*
X12550111Y-81568152D01*
X12550111Y-81568152D02*
X12550111Y-81901485D01*
X12550111Y-81901485D02*
X12502492Y-82091961D01*
X12502492Y-82091961D02*
X12407254Y-82187200D01*
X12407254Y-82187200D02*
X12312016Y-82234819D01*
X12312016Y-82234819D02*
X12121540Y-82234819D01*
X12121540Y-82234819D02*
X12026302Y-82187200D01*
X12026302Y-82187200D02*
X11931064Y-82091961D01*
X11931064Y-82091961D02*
X11883445Y-81901485D01*
X11883445Y-81901485D02*
X11883445Y-81568152D01*
X11883445Y-81568152D02*
X11931064Y-81377676D01*
X11931064Y-81377676D02*
X12026302Y-81282438D01*
X12026302Y-81282438D02*
X12121540Y-81234819D01*
X24580588Y-99852438D02*
X24485350Y-99804819D01*
X24485350Y-99804819D02*
X24342493Y-99804819D01*
X24342493Y-99804819D02*
X24199636Y-99852438D01*
X24199636Y-99852438D02*
X24104398Y-99947676D01*
X24104398Y-99947676D02*
X24056779Y-100042914D01*
X24056779Y-100042914D02*
X24009160Y-100233390D01*
X24009160Y-100233390D02*
X24009160Y-100376247D01*
X24009160Y-100376247D02*
X24056779Y-100566723D01*
X24056779Y-100566723D02*
X24104398Y-100661961D01*
X24104398Y-100661961D02*
X24199636Y-100757200D01*
X24199636Y-100757200D02*
X24342493Y-100804819D01*
X24342493Y-100804819D02*
X24437731Y-100804819D01*
X24437731Y-100804819D02*
X24580588Y-100757200D01*
X24580588Y-100757200D02*
X24628207Y-100709580D01*
X24628207Y-100709580D02*
X24628207Y-100376247D01*
X24628207Y-100376247D02*
X24437731Y-100376247D01*
X25056779Y-100804819D02*
X25056779Y-99804819D01*
X25056779Y-99804819D02*
X25628207Y-100804819D01*
X25628207Y-100804819D02*
X25628207Y-99804819D01*
X26104398Y-100804819D02*
X26104398Y-99804819D01*
X26104398Y-99804819D02*
X26342493Y-99804819D01*
X26342493Y-99804819D02*
X26485350Y-99852438D01*
X26485350Y-99852438D02*
X26580588Y-99947676D01*
X26580588Y-99947676D02*
X26628207Y-100042914D01*
X26628207Y-100042914D02*
X26675826Y-100233390D01*
X26675826Y-100233390D02*
X26675826Y-100376247D01*
X26675826Y-100376247D02*
X26628207Y-100566723D01*
X26628207Y-100566723D02*
X26580588Y-100661961D01*
X26580588Y-100661961D02*
X26485350Y-100757200D01*
X26485350Y-100757200D02*
X26342493Y-100804819D01*
X26342493Y-100804819D02*
X26104398Y-100804819D01*
X27818684Y-100519104D02*
X28294874Y-100519104D01*
X27723446Y-100804819D02*
X28056779Y-99804819D01*
X28056779Y-99804819D02*
X28390112Y-100804819D01*
X28723446Y-99804819D02*
X28723446Y-100614342D01*
X28723446Y-100614342D02*
X28771065Y-100709580D01*
X28771065Y-100709580D02*
X28818684Y-100757200D01*
X28818684Y-100757200D02*
X28913922Y-100804819D01*
X28913922Y-100804819D02*
X29104398Y-100804819D01*
X29104398Y-100804819D02*
X29199636Y-100757200D01*
X29199636Y-100757200D02*
X29247255Y-100709580D01*
X29247255Y-100709580D02*
X29294874Y-100614342D01*
X29294874Y-100614342D02*
X29294874Y-99804819D01*
X29675827Y-99804819D02*
X30342493Y-100804819D01*
X30342493Y-99804819D02*
X29675827Y-100804819D01*
X31485351Y-100804819D02*
X31485351Y-99804819D01*
X31485351Y-99804819D02*
X31723446Y-99804819D01*
X31723446Y-99804819D02*
X31866303Y-99852438D01*
X31866303Y-99852438D02*
X31961541Y-99947676D01*
X31961541Y-99947676D02*
X32009160Y-100042914D01*
X32009160Y-100042914D02*
X32056779Y-100233390D01*
X32056779Y-100233390D02*
X32056779Y-100376247D01*
X32056779Y-100376247D02*
X32009160Y-100566723D01*
X32009160Y-100566723D02*
X31961541Y-100661961D01*
X31961541Y-100661961D02*
X31866303Y-100757200D01*
X31866303Y-100757200D02*
X31723446Y-100804819D01*
X31723446Y-100804819D02*
X31485351Y-100804819D01*
X32675827Y-99804819D02*
X32771065Y-99804819D01*
X32771065Y-99804819D02*
X32866303Y-99852438D01*
X32866303Y-99852438D02*
X32913922Y-99900057D01*
X32913922Y-99900057D02*
X32961541Y-99995295D01*
X32961541Y-99995295D02*
X33009160Y-100185771D01*
X33009160Y-100185771D02*
X33009160Y-100423866D01*
X33009160Y-100423866D02*
X32961541Y-100614342D01*
X32961541Y-100614342D02*
X32913922Y-100709580D01*
X32913922Y-100709580D02*
X32866303Y-100757200D01*
X32866303Y-100757200D02*
X32771065Y-100804819D01*
X32771065Y-100804819D02*
X32675827Y-100804819D01*
X32675827Y-100804819D02*
X32580589Y-100757200D01*
X32580589Y-100757200D02*
X32532970Y-100709580D01*
X32532970Y-100709580D02*
X32485351Y-100614342D01*
X32485351Y-100614342D02*
X32437732Y-100423866D01*
X32437732Y-100423866D02*
X32437732Y-100185771D01*
X32437732Y-100185771D02*
X32485351Y-99995295D01*
X32485351Y-99995295D02*
X32532970Y-99900057D01*
X32532970Y-99900057D02*
X32580589Y-99852438D01*
X32580589Y-99852438D02*
X32675827Y-99804819D01*
X33437732Y-100423866D02*
X34199637Y-100423866D01*
X34675827Y-100804819D02*
X34675827Y-99804819D01*
X34675827Y-99804819D02*
X34913922Y-99804819D01*
X34913922Y-99804819D02*
X35056779Y-99852438D01*
X35056779Y-99852438D02*
X35152017Y-99947676D01*
X35152017Y-99947676D02*
X35199636Y-100042914D01*
X35199636Y-100042914D02*
X35247255Y-100233390D01*
X35247255Y-100233390D02*
X35247255Y-100376247D01*
X35247255Y-100376247D02*
X35199636Y-100566723D01*
X35199636Y-100566723D02*
X35152017Y-100661961D01*
X35152017Y-100661961D02*
X35056779Y-100757200D01*
X35056779Y-100757200D02*
X34913922Y-100804819D01*
X34913922Y-100804819D02*
X34675827Y-100804819D01*
X35580589Y-99804819D02*
X36247255Y-99804819D01*
X36247255Y-99804819D02*
X35818684Y-100804819D01*
X37913922Y-99852438D02*
X37818684Y-99804819D01*
X37818684Y-99804819D02*
X37675827Y-99804819D01*
X37675827Y-99804819D02*
X37532970Y-99852438D01*
X37532970Y-99852438D02*
X37437732Y-99947676D01*
X37437732Y-99947676D02*
X37390113Y-100042914D01*
X37390113Y-100042914D02*
X37342494Y-100233390D01*
X37342494Y-100233390D02*
X37342494Y-100376247D01*
X37342494Y-100376247D02*
X37390113Y-100566723D01*
X37390113Y-100566723D02*
X37437732Y-100661961D01*
X37437732Y-100661961D02*
X37532970Y-100757200D01*
X37532970Y-100757200D02*
X37675827Y-100804819D01*
X37675827Y-100804819D02*
X37771065Y-100804819D01*
X37771065Y-100804819D02*
X37913922Y-100757200D01*
X37913922Y-100757200D02*
X37961541Y-100709580D01*
X37961541Y-100709580D02*
X37961541Y-100376247D01*
X37961541Y-100376247D02*
X37771065Y-100376247D01*
X38390113Y-100804819D02*
X38390113Y-99804819D01*
X38390113Y-99804819D02*
X38961541Y-100804819D01*
X38961541Y-100804819D02*
X38961541Y-99804819D01*
X39437732Y-100804819D02*
X39437732Y-99804819D01*
X39437732Y-99804819D02*
X39675827Y-99804819D01*
X39675827Y-99804819D02*
X39818684Y-99852438D01*
X39818684Y-99852438D02*
X39913922Y-99947676D01*
X39913922Y-99947676D02*
X39961541Y-100042914D01*
X39961541Y-100042914D02*
X40009160Y-100233390D01*
X40009160Y-100233390D02*
X40009160Y-100376247D01*
X40009160Y-100376247D02*
X39961541Y-100566723D01*
X39961541Y-100566723D02*
X39913922Y-100661961D01*
X39913922Y-100661961D02*
X39818684Y-100757200D01*
X39818684Y-100757200D02*
X39675827Y-100804819D01*
X39675827Y-100804819D02*
X39437732Y-100804819D01*
X27820112Y-10851009D02*
X27486779Y-10851009D01*
X27486779Y-11374819D02*
X27486779Y-10374819D01*
X27486779Y-10374819D02*
X27962969Y-10374819D01*
X28296303Y-11327200D02*
X28439160Y-11374819D01*
X28439160Y-11374819D02*
X28677255Y-11374819D01*
X28677255Y-11374819D02*
X28772493Y-11327200D01*
X28772493Y-11327200D02*
X28820112Y-11279580D01*
X28820112Y-11279580D02*
X28867731Y-11184342D01*
X28867731Y-11184342D02*
X28867731Y-11089104D01*
X28867731Y-11089104D02*
X28820112Y-10993866D01*
X28820112Y-10993866D02*
X28772493Y-10946247D01*
X28772493Y-10946247D02*
X28677255Y-10898628D01*
X28677255Y-10898628D02*
X28486779Y-10851009D01*
X28486779Y-10851009D02*
X28391541Y-10803390D01*
X28391541Y-10803390D02*
X28343922Y-10755771D01*
X28343922Y-10755771D02*
X28296303Y-10660533D01*
X28296303Y-10660533D02*
X28296303Y-10565295D01*
X28296303Y-10565295D02*
X28343922Y-10470057D01*
X28343922Y-10470057D02*
X28391541Y-10422438D01*
X28391541Y-10422438D02*
X28486779Y-10374819D01*
X28486779Y-10374819D02*
X28724874Y-10374819D01*
X28724874Y-10374819D02*
X28867731Y-10422438D01*
X29867731Y-11374819D02*
X29534398Y-10898628D01*
X29296303Y-11374819D02*
X29296303Y-10374819D01*
X29296303Y-10374819D02*
X29677255Y-10374819D01*
X29677255Y-10374819D02*
X29772493Y-10422438D01*
X29772493Y-10422438D02*
X29820112Y-10470057D01*
X29820112Y-10470057D02*
X29867731Y-10565295D01*
X29867731Y-10565295D02*
X29867731Y-10708152D01*
X29867731Y-10708152D02*
X29820112Y-10803390D01*
X29820112Y-10803390D02*
X29772493Y-10851009D01*
X29772493Y-10851009D02*
X29677255Y-10898628D01*
X29677255Y-10898628D02*
X29296303Y-10898628D01*
X30486779Y-10374819D02*
X30582017Y-10374819D01*
X30582017Y-10374819D02*
X30677255Y-10422438D01*
X30677255Y-10422438D02*
X30724874Y-10470057D01*
X30724874Y-10470057D02*
X30772493Y-10565295D01*
X30772493Y-10565295D02*
X30820112Y-10755771D01*
X30820112Y-10755771D02*
X30820112Y-10993866D01*
X30820112Y-10993866D02*
X30772493Y-11184342D01*
X30772493Y-11184342D02*
X30724874Y-11279580D01*
X30724874Y-11279580D02*
X30677255Y-11327200D01*
X30677255Y-11327200D02*
X30582017Y-11374819D01*
X30582017Y-11374819D02*
X30486779Y-11374819D01*
X30486779Y-11374819D02*
X30391541Y-11327200D01*
X30391541Y-11327200D02*
X30343922Y-11279580D01*
X30343922Y-11279580D02*
X30296303Y-11184342D01*
X30296303Y-11184342D02*
X30248684Y-10993866D01*
X30248684Y-10993866D02*
X30248684Y-10755771D01*
X30248684Y-10755771D02*
X30296303Y-10565295D01*
X30296303Y-10565295D02*
X30343922Y-10470057D01*
X30343922Y-10470057D02*
X30391541Y-10422438D01*
X30391541Y-10422438D02*
X30486779Y-10374819D01*
X34320112Y-10851009D02*
X33986779Y-10851009D01*
X33986779Y-11374819D02*
X33986779Y-10374819D01*
X33986779Y-10374819D02*
X34462969Y-10374819D01*
X34796303Y-11327200D02*
X34939160Y-11374819D01*
X34939160Y-11374819D02*
X35177255Y-11374819D01*
X35177255Y-11374819D02*
X35272493Y-11327200D01*
X35272493Y-11327200D02*
X35320112Y-11279580D01*
X35320112Y-11279580D02*
X35367731Y-11184342D01*
X35367731Y-11184342D02*
X35367731Y-11089104D01*
X35367731Y-11089104D02*
X35320112Y-10993866D01*
X35320112Y-10993866D02*
X35272493Y-10946247D01*
X35272493Y-10946247D02*
X35177255Y-10898628D01*
X35177255Y-10898628D02*
X34986779Y-10851009D01*
X34986779Y-10851009D02*
X34891541Y-10803390D01*
X34891541Y-10803390D02*
X34843922Y-10755771D01*
X34843922Y-10755771D02*
X34796303Y-10660533D01*
X34796303Y-10660533D02*
X34796303Y-10565295D01*
X34796303Y-10565295D02*
X34843922Y-10470057D01*
X34843922Y-10470057D02*
X34891541Y-10422438D01*
X34891541Y-10422438D02*
X34986779Y-10374819D01*
X34986779Y-10374819D02*
X35224874Y-10374819D01*
X35224874Y-10374819D02*
X35367731Y-10422438D01*
X36367731Y-11374819D02*
X36034398Y-10898628D01*
X35796303Y-11374819D02*
X35796303Y-10374819D01*
X35796303Y-10374819D02*
X36177255Y-10374819D01*
X36177255Y-10374819D02*
X36272493Y-10422438D01*
X36272493Y-10422438D02*
X36320112Y-10470057D01*
X36320112Y-10470057D02*
X36367731Y-10565295D01*
X36367731Y-10565295D02*
X36367731Y-10708152D01*
X36367731Y-10708152D02*
X36320112Y-10803390D01*
X36320112Y-10803390D02*
X36272493Y-10851009D01*
X36272493Y-10851009D02*
X36177255Y-10898628D01*
X36177255Y-10898628D02*
X35796303Y-10898628D01*
X37320112Y-11374819D02*
X36748684Y-11374819D01*
X37034398Y-11374819D02*
X37034398Y-10374819D01*
X37034398Y-10374819D02*
X36939160Y-10517676D01*
X36939160Y-10517676D02*
X36843922Y-10612914D01*
X36843922Y-10612914D02*
X36748684Y-10660533D01*
X40820112Y-10851009D02*
X40486779Y-10851009D01*
X40486779Y-11374819D02*
X40486779Y-10374819D01*
X40486779Y-10374819D02*
X40962969Y-10374819D01*
X41296303Y-11327200D02*
X41439160Y-11374819D01*
X41439160Y-11374819D02*
X41677255Y-11374819D01*
X41677255Y-11374819D02*
X41772493Y-11327200D01*
X41772493Y-11327200D02*
X41820112Y-11279580D01*
X41820112Y-11279580D02*
X41867731Y-11184342D01*
X41867731Y-11184342D02*
X41867731Y-11089104D01*
X41867731Y-11089104D02*
X41820112Y-10993866D01*
X41820112Y-10993866D02*
X41772493Y-10946247D01*
X41772493Y-10946247D02*
X41677255Y-10898628D01*
X41677255Y-10898628D02*
X41486779Y-10851009D01*
X41486779Y-10851009D02*
X41391541Y-10803390D01*
X41391541Y-10803390D02*
X41343922Y-10755771D01*
X41343922Y-10755771D02*
X41296303Y-10660533D01*
X41296303Y-10660533D02*
X41296303Y-10565295D01*
X41296303Y-10565295D02*
X41343922Y-10470057D01*
X41343922Y-10470057D02*
X41391541Y-10422438D01*
X41391541Y-10422438D02*
X41486779Y-10374819D01*
X41486779Y-10374819D02*
X41724874Y-10374819D01*
X41724874Y-10374819D02*
X41867731Y-10422438D01*
X42867731Y-11374819D02*
X42534398Y-10898628D01*
X42296303Y-11374819D02*
X42296303Y-10374819D01*
X42296303Y-10374819D02*
X42677255Y-10374819D01*
X42677255Y-10374819D02*
X42772493Y-10422438D01*
X42772493Y-10422438D02*
X42820112Y-10470057D01*
X42820112Y-10470057D02*
X42867731Y-10565295D01*
X42867731Y-10565295D02*
X42867731Y-10708152D01*
X42867731Y-10708152D02*
X42820112Y-10803390D01*
X42820112Y-10803390D02*
X42772493Y-10851009D01*
X42772493Y-10851009D02*
X42677255Y-10898628D01*
X42677255Y-10898628D02*
X42296303Y-10898628D01*
X43248684Y-10470057D02*
X43296303Y-10422438D01*
X43296303Y-10422438D02*
X43391541Y-10374819D01*
X43391541Y-10374819D02*
X43629636Y-10374819D01*
X43629636Y-10374819D02*
X43724874Y-10422438D01*
X43724874Y-10422438D02*
X43772493Y-10470057D01*
X43772493Y-10470057D02*
X43820112Y-10565295D01*
X43820112Y-10565295D02*
X43820112Y-10660533D01*
X43820112Y-10660533D02*
X43772493Y-10803390D01*
X43772493Y-10803390D02*
X43201065Y-11374819D01*
X43201065Y-11374819D02*
X43820112Y-11374819D01*
X47320112Y-10851009D02*
X46986779Y-10851009D01*
X46986779Y-11374819D02*
X46986779Y-10374819D01*
X46986779Y-10374819D02*
X47462969Y-10374819D01*
X47796303Y-11327200D02*
X47939160Y-11374819D01*
X47939160Y-11374819D02*
X48177255Y-11374819D01*
X48177255Y-11374819D02*
X48272493Y-11327200D01*
X48272493Y-11327200D02*
X48320112Y-11279580D01*
X48320112Y-11279580D02*
X48367731Y-11184342D01*
X48367731Y-11184342D02*
X48367731Y-11089104D01*
X48367731Y-11089104D02*
X48320112Y-10993866D01*
X48320112Y-10993866D02*
X48272493Y-10946247D01*
X48272493Y-10946247D02*
X48177255Y-10898628D01*
X48177255Y-10898628D02*
X47986779Y-10851009D01*
X47986779Y-10851009D02*
X47891541Y-10803390D01*
X47891541Y-10803390D02*
X47843922Y-10755771D01*
X47843922Y-10755771D02*
X47796303Y-10660533D01*
X47796303Y-10660533D02*
X47796303Y-10565295D01*
X47796303Y-10565295D02*
X47843922Y-10470057D01*
X47843922Y-10470057D02*
X47891541Y-10422438D01*
X47891541Y-10422438D02*
X47986779Y-10374819D01*
X47986779Y-10374819D02*
X48224874Y-10374819D01*
X48224874Y-10374819D02*
X48367731Y-10422438D01*
X49367731Y-11374819D02*
X49034398Y-10898628D01*
X48796303Y-11374819D02*
X48796303Y-10374819D01*
X48796303Y-10374819D02*
X49177255Y-10374819D01*
X49177255Y-10374819D02*
X49272493Y-10422438D01*
X49272493Y-10422438D02*
X49320112Y-10470057D01*
X49320112Y-10470057D02*
X49367731Y-10565295D01*
X49367731Y-10565295D02*
X49367731Y-10708152D01*
X49367731Y-10708152D02*
X49320112Y-10803390D01*
X49320112Y-10803390D02*
X49272493Y-10851009D01*
X49272493Y-10851009D02*
X49177255Y-10898628D01*
X49177255Y-10898628D02*
X48796303Y-10898628D01*
X49701065Y-10374819D02*
X50320112Y-10374819D01*
X50320112Y-10374819D02*
X49986779Y-10755771D01*
X49986779Y-10755771D02*
X50129636Y-10755771D01*
X50129636Y-10755771D02*
X50224874Y-10803390D01*
X50224874Y-10803390D02*
X50272493Y-10851009D01*
X50272493Y-10851009D02*
X50320112Y-10946247D01*
X50320112Y-10946247D02*
X50320112Y-11184342D01*
X50320112Y-11184342D02*
X50272493Y-11279580D01*
X50272493Y-11279580D02*
X50224874Y-11327200D01*
X50224874Y-11327200D02*
X50129636Y-11374819D01*
X50129636Y-11374819D02*
X49843922Y-11374819D01*
X49843922Y-11374819D02*
X49748684Y-11327200D01*
X49748684Y-11327200D02*
X49701065Y-11279580D01*
X53820112Y-10851009D02*
X53486779Y-10851009D01*
X53486779Y-11374819D02*
X53486779Y-10374819D01*
X53486779Y-10374819D02*
X53962969Y-10374819D01*
X54296303Y-11327200D02*
X54439160Y-11374819D01*
X54439160Y-11374819D02*
X54677255Y-11374819D01*
X54677255Y-11374819D02*
X54772493Y-11327200D01*
X54772493Y-11327200D02*
X54820112Y-11279580D01*
X54820112Y-11279580D02*
X54867731Y-11184342D01*
X54867731Y-11184342D02*
X54867731Y-11089104D01*
X54867731Y-11089104D02*
X54820112Y-10993866D01*
X54820112Y-10993866D02*
X54772493Y-10946247D01*
X54772493Y-10946247D02*
X54677255Y-10898628D01*
X54677255Y-10898628D02*
X54486779Y-10851009D01*
X54486779Y-10851009D02*
X54391541Y-10803390D01*
X54391541Y-10803390D02*
X54343922Y-10755771D01*
X54343922Y-10755771D02*
X54296303Y-10660533D01*
X54296303Y-10660533D02*
X54296303Y-10565295D01*
X54296303Y-10565295D02*
X54343922Y-10470057D01*
X54343922Y-10470057D02*
X54391541Y-10422438D01*
X54391541Y-10422438D02*
X54486779Y-10374819D01*
X54486779Y-10374819D02*
X54724874Y-10374819D01*
X54724874Y-10374819D02*
X54867731Y-10422438D01*
X55867731Y-11374819D02*
X55534398Y-10898628D01*
X55296303Y-11374819D02*
X55296303Y-10374819D01*
X55296303Y-10374819D02*
X55677255Y-10374819D01*
X55677255Y-10374819D02*
X55772493Y-10422438D01*
X55772493Y-10422438D02*
X55820112Y-10470057D01*
X55820112Y-10470057D02*
X55867731Y-10565295D01*
X55867731Y-10565295D02*
X55867731Y-10708152D01*
X55867731Y-10708152D02*
X55820112Y-10803390D01*
X55820112Y-10803390D02*
X55772493Y-10851009D01*
X55772493Y-10851009D02*
X55677255Y-10898628D01*
X55677255Y-10898628D02*
X55296303Y-10898628D01*
X56724874Y-10708152D02*
X56724874Y-11374819D01*
X56486779Y-10327200D02*
X56248684Y-11041485D01*
X56248684Y-11041485D02*
X56867731Y-11041485D01*
X60320112Y-10851009D02*
X59986779Y-10851009D01*
X59986779Y-11374819D02*
X59986779Y-10374819D01*
X59986779Y-10374819D02*
X60462969Y-10374819D01*
X60796303Y-11327200D02*
X60939160Y-11374819D01*
X60939160Y-11374819D02*
X61177255Y-11374819D01*
X61177255Y-11374819D02*
X61272493Y-11327200D01*
X61272493Y-11327200D02*
X61320112Y-11279580D01*
X61320112Y-11279580D02*
X61367731Y-11184342D01*
X61367731Y-11184342D02*
X61367731Y-11089104D01*
X61367731Y-11089104D02*
X61320112Y-10993866D01*
X61320112Y-10993866D02*
X61272493Y-10946247D01*
X61272493Y-10946247D02*
X61177255Y-10898628D01*
X61177255Y-10898628D02*
X60986779Y-10851009D01*
X60986779Y-10851009D02*
X60891541Y-10803390D01*
X60891541Y-10803390D02*
X60843922Y-10755771D01*
X60843922Y-10755771D02*
X60796303Y-10660533D01*
X60796303Y-10660533D02*
X60796303Y-10565295D01*
X60796303Y-10565295D02*
X60843922Y-10470057D01*
X60843922Y-10470057D02*
X60891541Y-10422438D01*
X60891541Y-10422438D02*
X60986779Y-10374819D01*
X60986779Y-10374819D02*
X61224874Y-10374819D01*
X61224874Y-10374819D02*
X61367731Y-10422438D01*
X62367731Y-11374819D02*
X62034398Y-10898628D01*
X61796303Y-11374819D02*
X61796303Y-10374819D01*
X61796303Y-10374819D02*
X62177255Y-10374819D01*
X62177255Y-10374819D02*
X62272493Y-10422438D01*
X62272493Y-10422438D02*
X62320112Y-10470057D01*
X62320112Y-10470057D02*
X62367731Y-10565295D01*
X62367731Y-10565295D02*
X62367731Y-10708152D01*
X62367731Y-10708152D02*
X62320112Y-10803390D01*
X62320112Y-10803390D02*
X62272493Y-10851009D01*
X62272493Y-10851009D02*
X62177255Y-10898628D01*
X62177255Y-10898628D02*
X61796303Y-10898628D01*
X63272493Y-10374819D02*
X62796303Y-10374819D01*
X62796303Y-10374819D02*
X62748684Y-10851009D01*
X62748684Y-10851009D02*
X62796303Y-10803390D01*
X62796303Y-10803390D02*
X62891541Y-10755771D01*
X62891541Y-10755771D02*
X63129636Y-10755771D01*
X63129636Y-10755771D02*
X63224874Y-10803390D01*
X63224874Y-10803390D02*
X63272493Y-10851009D01*
X63272493Y-10851009D02*
X63320112Y-10946247D01*
X63320112Y-10946247D02*
X63320112Y-11184342D01*
X63320112Y-11184342D02*
X63272493Y-11279580D01*
X63272493Y-11279580D02*
X63224874Y-11327200D01*
X63224874Y-11327200D02*
X63129636Y-11374819D01*
X63129636Y-11374819D02*
X62891541Y-11374819D01*
X62891541Y-11374819D02*
X62796303Y-11327200D01*
X62796303Y-11327200D02*
X62748684Y-11279580D01*
X66820112Y-10851009D02*
X66486779Y-10851009D01*
X66486779Y-11374819D02*
X66486779Y-10374819D01*
X66486779Y-10374819D02*
X66962969Y-10374819D01*
X67296303Y-11327200D02*
X67439160Y-11374819D01*
X67439160Y-11374819D02*
X67677255Y-11374819D01*
X67677255Y-11374819D02*
X67772493Y-11327200D01*
X67772493Y-11327200D02*
X67820112Y-11279580D01*
X67820112Y-11279580D02*
X67867731Y-11184342D01*
X67867731Y-11184342D02*
X67867731Y-11089104D01*
X67867731Y-11089104D02*
X67820112Y-10993866D01*
X67820112Y-10993866D02*
X67772493Y-10946247D01*
X67772493Y-10946247D02*
X67677255Y-10898628D01*
X67677255Y-10898628D02*
X67486779Y-10851009D01*
X67486779Y-10851009D02*
X67391541Y-10803390D01*
X67391541Y-10803390D02*
X67343922Y-10755771D01*
X67343922Y-10755771D02*
X67296303Y-10660533D01*
X67296303Y-10660533D02*
X67296303Y-10565295D01*
X67296303Y-10565295D02*
X67343922Y-10470057D01*
X67343922Y-10470057D02*
X67391541Y-10422438D01*
X67391541Y-10422438D02*
X67486779Y-10374819D01*
X67486779Y-10374819D02*
X67724874Y-10374819D01*
X67724874Y-10374819D02*
X67867731Y-10422438D01*
X68867731Y-11374819D02*
X68534398Y-10898628D01*
X68296303Y-11374819D02*
X68296303Y-10374819D01*
X68296303Y-10374819D02*
X68677255Y-10374819D01*
X68677255Y-10374819D02*
X68772493Y-10422438D01*
X68772493Y-10422438D02*
X68820112Y-10470057D01*
X68820112Y-10470057D02*
X68867731Y-10565295D01*
X68867731Y-10565295D02*
X68867731Y-10708152D01*
X68867731Y-10708152D02*
X68820112Y-10803390D01*
X68820112Y-10803390D02*
X68772493Y-10851009D01*
X68772493Y-10851009D02*
X68677255Y-10898628D01*
X68677255Y-10898628D02*
X68296303Y-10898628D01*
X69724874Y-10374819D02*
X69534398Y-10374819D01*
X69534398Y-10374819D02*
X69439160Y-10422438D01*
X69439160Y-10422438D02*
X69391541Y-10470057D01*
X69391541Y-10470057D02*
X69296303Y-10612914D01*
X69296303Y-10612914D02*
X69248684Y-10803390D01*
X69248684Y-10803390D02*
X69248684Y-11184342D01*
X69248684Y-11184342D02*
X69296303Y-11279580D01*
X69296303Y-11279580D02*
X69343922Y-11327200D01*
X69343922Y-11327200D02*
X69439160Y-11374819D01*
X69439160Y-11374819D02*
X69629636Y-11374819D01*
X69629636Y-11374819D02*
X69724874Y-11327200D01*
X69724874Y-11327200D02*
X69772493Y-11279580D01*
X69772493Y-11279580D02*
X69820112Y-11184342D01*
X69820112Y-11184342D02*
X69820112Y-10946247D01*
X69820112Y-10946247D02*
X69772493Y-10851009D01*
X69772493Y-10851009D02*
X69724874Y-10803390D01*
X69724874Y-10803390D02*
X69629636Y-10755771D01*
X69629636Y-10755771D02*
X69439160Y-10755771D01*
X69439160Y-10755771D02*
X69343922Y-10803390D01*
X69343922Y-10803390D02*
X69296303Y-10851009D01*
X69296303Y-10851009D02*
X69248684Y-10946247D01*
X73320112Y-10851009D02*
X72986779Y-10851009D01*
X72986779Y-11374819D02*
X72986779Y-10374819D01*
X72986779Y-10374819D02*
X73462969Y-10374819D01*
X73796303Y-11327200D02*
X73939160Y-11374819D01*
X73939160Y-11374819D02*
X74177255Y-11374819D01*
X74177255Y-11374819D02*
X74272493Y-11327200D01*
X74272493Y-11327200D02*
X74320112Y-11279580D01*
X74320112Y-11279580D02*
X74367731Y-11184342D01*
X74367731Y-11184342D02*
X74367731Y-11089104D01*
X74367731Y-11089104D02*
X74320112Y-10993866D01*
X74320112Y-10993866D02*
X74272493Y-10946247D01*
X74272493Y-10946247D02*
X74177255Y-10898628D01*
X74177255Y-10898628D02*
X73986779Y-10851009D01*
X73986779Y-10851009D02*
X73891541Y-10803390D01*
X73891541Y-10803390D02*
X73843922Y-10755771D01*
X73843922Y-10755771D02*
X73796303Y-10660533D01*
X73796303Y-10660533D02*
X73796303Y-10565295D01*
X73796303Y-10565295D02*
X73843922Y-10470057D01*
X73843922Y-10470057D02*
X73891541Y-10422438D01*
X73891541Y-10422438D02*
X73986779Y-10374819D01*
X73986779Y-10374819D02*
X74224874Y-10374819D01*
X74224874Y-10374819D02*
X74367731Y-10422438D01*
X75367731Y-11374819D02*
X75034398Y-10898628D01*
X74796303Y-11374819D02*
X74796303Y-10374819D01*
X74796303Y-10374819D02*
X75177255Y-10374819D01*
X75177255Y-10374819D02*
X75272493Y-10422438D01*
X75272493Y-10422438D02*
X75320112Y-10470057D01*
X75320112Y-10470057D02*
X75367731Y-10565295D01*
X75367731Y-10565295D02*
X75367731Y-10708152D01*
X75367731Y-10708152D02*
X75320112Y-10803390D01*
X75320112Y-10803390D02*
X75272493Y-10851009D01*
X75272493Y-10851009D02*
X75177255Y-10898628D01*
X75177255Y-10898628D02*
X74796303Y-10898628D01*
X75701065Y-10374819D02*
X76367731Y-10374819D01*
X76367731Y-10374819D02*
X75939160Y-11374819D01*
X95336779Y-101454819D02*
X95336779Y-100454819D01*
X95336779Y-100454819D02*
X95670112Y-101169104D01*
X95670112Y-101169104D02*
X96003445Y-100454819D01*
X96003445Y-100454819D02*
X96003445Y-101454819D01*
X96670112Y-100454819D02*
X96860588Y-100454819D01*
X96860588Y-100454819D02*
X96955826Y-100502438D01*
X96955826Y-100502438D02*
X97051064Y-100597676D01*
X97051064Y-100597676D02*
X97098683Y-100788152D01*
X97098683Y-100788152D02*
X97098683Y-101121485D01*
X97098683Y-101121485D02*
X97051064Y-101311961D01*
X97051064Y-101311961D02*
X96955826Y-101407200D01*
X96955826Y-101407200D02*
X96860588Y-101454819D01*
X96860588Y-101454819D02*
X96670112Y-101454819D01*
X96670112Y-101454819D02*
X96574874Y-101407200D01*
X96574874Y-101407200D02*
X96479636Y-101311961D01*
X96479636Y-101311961D02*
X96432017Y-101121485D01*
X96432017Y-101121485D02*
X96432017Y-100788152D01*
X96432017Y-100788152D02*
X96479636Y-100597676D01*
X96479636Y-100597676D02*
X96574874Y-100502438D01*
X96574874Y-100502438D02*
X96670112Y-100454819D01*
X97384398Y-100454819D02*
X97955826Y-100454819D01*
X97670112Y-101454819D02*
X97670112Y-100454819D01*
X98479636Y-100454819D02*
X98670112Y-100454819D01*
X98670112Y-100454819D02*
X98765350Y-100502438D01*
X98765350Y-100502438D02*
X98860588Y-100597676D01*
X98860588Y-100597676D02*
X98908207Y-100788152D01*
X98908207Y-100788152D02*
X98908207Y-101121485D01*
X98908207Y-101121485D02*
X98860588Y-101311961D01*
X98860588Y-101311961D02*
X98765350Y-101407200D01*
X98765350Y-101407200D02*
X98670112Y-101454819D01*
X98670112Y-101454819D02*
X98479636Y-101454819D01*
X98479636Y-101454819D02*
X98384398Y-101407200D01*
X98384398Y-101407200D02*
X98289160Y-101311961D01*
X98289160Y-101311961D02*
X98241541Y-101121485D01*
X98241541Y-101121485D02*
X98241541Y-100788152D01*
X98241541Y-100788152D02*
X98289160Y-100597676D01*
X98289160Y-100597676D02*
X98384398Y-100502438D01*
X98384398Y-100502438D02*
X98479636Y-100454819D01*
X99908207Y-101454819D02*
X99574874Y-100978628D01*
X99336779Y-101454819D02*
X99336779Y-100454819D01*
X99336779Y-100454819D02*
X99717731Y-100454819D01*
X99717731Y-100454819D02*
X99812969Y-100502438D01*
X99812969Y-100502438D02*
X99860588Y-100550057D01*
X99860588Y-100550057D02*
X99908207Y-100645295D01*
X99908207Y-100645295D02*
X99908207Y-100788152D01*
X99908207Y-100788152D02*
X99860588Y-100883390D01*
X99860588Y-100883390D02*
X99812969Y-100931009D01*
X99812969Y-100931009D02*
X99717731Y-100978628D01*
X99717731Y-100978628D02*
X99336779Y-100978628D01*
X100098684Y-101550057D02*
X100860588Y-101550057D01*
X100955827Y-100454819D02*
X101289160Y-101454819D01*
X101289160Y-101454819D02*
X101622493Y-100454819D01*
X101955827Y-101073866D02*
X102717732Y-101073866D01*
X102336779Y-101454819D02*
X102336779Y-100692914D01*
X103955827Y-101454819D02*
X103955827Y-100454819D01*
X104384398Y-101407200D02*
X104527255Y-101454819D01*
X104527255Y-101454819D02*
X104765350Y-101454819D01*
X104765350Y-101454819D02*
X104860588Y-101407200D01*
X104860588Y-101407200D02*
X104908207Y-101359580D01*
X104908207Y-101359580D02*
X104955826Y-101264342D01*
X104955826Y-101264342D02*
X104955826Y-101169104D01*
X104955826Y-101169104D02*
X104908207Y-101073866D01*
X104908207Y-101073866D02*
X104860588Y-101026247D01*
X104860588Y-101026247D02*
X104765350Y-100978628D01*
X104765350Y-100978628D02*
X104574874Y-100931009D01*
X104574874Y-100931009D02*
X104479636Y-100883390D01*
X104479636Y-100883390D02*
X104432017Y-100835771D01*
X104432017Y-100835771D02*
X104384398Y-100740533D01*
X104384398Y-100740533D02*
X104384398Y-100645295D01*
X104384398Y-100645295D02*
X104432017Y-100550057D01*
X104432017Y-100550057D02*
X104479636Y-100502438D01*
X104479636Y-100502438D02*
X104574874Y-100454819D01*
X104574874Y-100454819D02*
X104812969Y-100454819D01*
X104812969Y-100454819D02*
X104955826Y-100502438D01*
X106098684Y-101169104D02*
X106574874Y-101169104D01*
X106003446Y-101454819D02*
X106336779Y-100454819D01*
X106336779Y-100454819D02*
X106670112Y-101454819D01*
X107717732Y-101407200D02*
X107860589Y-101454819D01*
X107860589Y-101454819D02*
X108098684Y-101454819D01*
X108098684Y-101454819D02*
X108193922Y-101407200D01*
X108193922Y-101407200D02*
X108241541Y-101359580D01*
X108241541Y-101359580D02*
X108289160Y-101264342D01*
X108289160Y-101264342D02*
X108289160Y-101169104D01*
X108289160Y-101169104D02*
X108241541Y-101073866D01*
X108241541Y-101073866D02*
X108193922Y-101026247D01*
X108193922Y-101026247D02*
X108098684Y-100978628D01*
X108098684Y-100978628D02*
X107908208Y-100931009D01*
X107908208Y-100931009D02*
X107812970Y-100883390D01*
X107812970Y-100883390D02*
X107765351Y-100835771D01*
X107765351Y-100835771D02*
X107717732Y-100740533D01*
X107717732Y-100740533D02*
X107717732Y-100645295D01*
X107717732Y-100645295D02*
X107765351Y-100550057D01*
X107765351Y-100550057D02*
X107812970Y-100502438D01*
X107812970Y-100502438D02*
X107908208Y-100454819D01*
X107908208Y-100454819D02*
X108146303Y-100454819D01*
X108146303Y-100454819D02*
X108289160Y-100502438D01*
X108717732Y-100931009D02*
X109051065Y-100931009D01*
X109193922Y-101454819D02*
X108717732Y-101454819D01*
X108717732Y-101454819D02*
X108717732Y-100454819D01*
X108717732Y-100454819D02*
X109193922Y-100454819D01*
X109622494Y-101454819D02*
X109622494Y-100454819D01*
X109622494Y-100454819D02*
X110003446Y-100454819D01*
X110003446Y-100454819D02*
X110098684Y-100502438D01*
X110098684Y-100502438D02*
X110146303Y-100550057D01*
X110146303Y-100550057D02*
X110193922Y-100645295D01*
X110193922Y-100645295D02*
X110193922Y-100788152D01*
X110193922Y-100788152D02*
X110146303Y-100883390D01*
X110146303Y-100883390D02*
X110098684Y-100931009D01*
X110098684Y-100931009D02*
X110003446Y-100978628D01*
X110003446Y-100978628D02*
X109622494Y-100978628D01*
X110574875Y-101169104D02*
X111051065Y-101169104D01*
X110479637Y-101454819D02*
X110812970Y-100454819D01*
X110812970Y-100454819D02*
X111146303Y-101454819D01*
X112051065Y-101454819D02*
X111717732Y-100978628D01*
X111479637Y-101454819D02*
X111479637Y-100454819D01*
X111479637Y-100454819D02*
X111860589Y-100454819D01*
X111860589Y-100454819D02*
X111955827Y-100502438D01*
X111955827Y-100502438D02*
X112003446Y-100550057D01*
X112003446Y-100550057D02*
X112051065Y-100645295D01*
X112051065Y-100645295D02*
X112051065Y-100788152D01*
X112051065Y-100788152D02*
X112003446Y-100883390D01*
X112003446Y-100883390D02*
X111955827Y-100931009D01*
X111955827Y-100931009D02*
X111860589Y-100978628D01*
X111860589Y-100978628D02*
X111479637Y-100978628D01*
X112432018Y-101169104D02*
X112908208Y-101169104D01*
X112336780Y-101454819D02*
X112670113Y-100454819D01*
X112670113Y-100454819D02*
X113003446Y-101454819D01*
X113193923Y-100454819D02*
X113765351Y-100454819D01*
X113479637Y-101454819D02*
X113479637Y-100454819D01*
X114098685Y-100931009D02*
X114432018Y-100931009D01*
X114574875Y-101454819D02*
X114098685Y-101454819D01*
X114098685Y-101454819D02*
X114098685Y-100454819D01*
X114098685Y-100454819D02*
X114574875Y-100454819D01*
X116336780Y-101454819D02*
X116003447Y-100978628D01*
X115765352Y-101454819D02*
X115765352Y-100454819D01*
X115765352Y-100454819D02*
X116146304Y-100454819D01*
X116146304Y-100454819D02*
X116241542Y-100502438D01*
X116241542Y-100502438D02*
X116289161Y-100550057D01*
X116289161Y-100550057D02*
X116336780Y-100645295D01*
X116336780Y-100645295D02*
X116336780Y-100788152D01*
X116336780Y-100788152D02*
X116289161Y-100883390D01*
X116289161Y-100883390D02*
X116241542Y-100931009D01*
X116241542Y-100931009D02*
X116146304Y-100978628D01*
X116146304Y-100978628D02*
X115765352Y-100978628D01*
X116717733Y-101169104D02*
X117193923Y-101169104D01*
X116622495Y-101454819D02*
X116955828Y-100454819D01*
X116955828Y-100454819D02*
X117289161Y-101454819D01*
X117622495Y-101454819D02*
X117622495Y-100454819D01*
X118574875Y-101454819D02*
X118098685Y-101454819D01*
X118098685Y-101454819D02*
X118098685Y-100454819D01*
X119670114Y-101073866D02*
X120432019Y-101073866D01*
X122241542Y-101359580D02*
X122193923Y-101407200D01*
X122193923Y-101407200D02*
X122051066Y-101454819D01*
X122051066Y-101454819D02*
X121955828Y-101454819D01*
X121955828Y-101454819D02*
X121812971Y-101407200D01*
X121812971Y-101407200D02*
X121717733Y-101311961D01*
X121717733Y-101311961D02*
X121670114Y-101216723D01*
X121670114Y-101216723D02*
X121622495Y-101026247D01*
X121622495Y-101026247D02*
X121622495Y-100883390D01*
X121622495Y-100883390D02*
X121670114Y-100692914D01*
X121670114Y-100692914D02*
X121717733Y-100597676D01*
X121717733Y-100597676D02*
X121812971Y-100502438D01*
X121812971Y-100502438D02*
X121955828Y-100454819D01*
X121955828Y-100454819D02*
X122051066Y-100454819D01*
X122051066Y-100454819D02*
X122193923Y-100502438D01*
X122193923Y-100502438D02*
X122241542Y-100550057D01*
X122860590Y-100454819D02*
X123051066Y-100454819D01*
X123051066Y-100454819D02*
X123146304Y-100502438D01*
X123146304Y-100502438D02*
X123241542Y-100597676D01*
X123241542Y-100597676D02*
X123289161Y-100788152D01*
X123289161Y-100788152D02*
X123289161Y-101121485D01*
X123289161Y-101121485D02*
X123241542Y-101311961D01*
X123241542Y-101311961D02*
X123146304Y-101407200D01*
X123146304Y-101407200D02*
X123051066Y-101454819D01*
X123051066Y-101454819D02*
X122860590Y-101454819D01*
X122860590Y-101454819D02*
X122765352Y-101407200D01*
X122765352Y-101407200D02*
X122670114Y-101311961D01*
X122670114Y-101311961D02*
X122622495Y-101121485D01*
X122622495Y-101121485D02*
X122622495Y-100788152D01*
X122622495Y-100788152D02*
X122670114Y-100597676D01*
X122670114Y-100597676D02*
X122765352Y-100502438D01*
X122765352Y-100502438D02*
X122860590Y-100454819D01*
X123717733Y-101454819D02*
X123717733Y-100454819D01*
X123717733Y-100454819D02*
X124051066Y-101169104D01*
X124051066Y-101169104D02*
X124384399Y-100454819D01*
X124384399Y-100454819D02*
X124384399Y-101454819D01*
X124860590Y-101454819D02*
X124860590Y-100454819D01*
X124860590Y-100454819D02*
X125193923Y-101169104D01*
X125193923Y-101169104D02*
X125527256Y-100454819D01*
X125527256Y-100454819D02*
X125527256Y-101454819D01*
X126193923Y-100454819D02*
X126384399Y-100454819D01*
X126384399Y-100454819D02*
X126479637Y-100502438D01*
X126479637Y-100502438D02*
X126574875Y-100597676D01*
X126574875Y-100597676D02*
X126622494Y-100788152D01*
X126622494Y-100788152D02*
X126622494Y-101121485D01*
X126622494Y-101121485D02*
X126574875Y-101311961D01*
X126574875Y-101311961D02*
X126479637Y-101407200D01*
X126479637Y-101407200D02*
X126384399Y-101454819D01*
X126384399Y-101454819D02*
X126193923Y-101454819D01*
X126193923Y-101454819D02*
X126098685Y-101407200D01*
X126098685Y-101407200D02*
X126003447Y-101311961D01*
X126003447Y-101311961D02*
X125955828Y-101121485D01*
X125955828Y-101121485D02*
X125955828Y-100788152D01*
X125955828Y-100788152D02*
X126003447Y-100597676D01*
X126003447Y-100597676D02*
X126098685Y-100502438D01*
X126098685Y-100502438D02*
X126193923Y-100454819D01*
X127051066Y-101454819D02*
X127051066Y-100454819D01*
X127051066Y-100454819D02*
X127622494Y-101454819D01*
X127622494Y-101454819D02*
X127622494Y-100454819D01*
X129384399Y-100502438D02*
X129289161Y-100454819D01*
X129289161Y-100454819D02*
X129146304Y-100454819D01*
X129146304Y-100454819D02*
X129003447Y-100502438D01*
X129003447Y-100502438D02*
X128908209Y-100597676D01*
X128908209Y-100597676D02*
X128860590Y-100692914D01*
X128860590Y-100692914D02*
X128812971Y-100883390D01*
X128812971Y-100883390D02*
X128812971Y-101026247D01*
X128812971Y-101026247D02*
X128860590Y-101216723D01*
X128860590Y-101216723D02*
X128908209Y-101311961D01*
X128908209Y-101311961D02*
X129003447Y-101407200D01*
X129003447Y-101407200D02*
X129146304Y-101454819D01*
X129146304Y-101454819D02*
X129241542Y-101454819D01*
X129241542Y-101454819D02*
X129384399Y-101407200D01*
X129384399Y-101407200D02*
X129432018Y-101359580D01*
X129432018Y-101359580D02*
X129432018Y-101026247D01*
X129432018Y-101026247D02*
X129241542Y-101026247D01*
X129860590Y-101454819D02*
X129860590Y-100454819D01*
X129860590Y-100454819D02*
X130432018Y-101454819D01*
X130432018Y-101454819D02*
X130432018Y-100454819D01*
X130908209Y-101454819D02*
X130908209Y-100454819D01*
X130908209Y-100454819D02*
X131146304Y-100454819D01*
X131146304Y-100454819D02*
X131289161Y-100502438D01*
X131289161Y-100502438D02*
X131384399Y-100597676D01*
X131384399Y-100597676D02*
X131432018Y-100692914D01*
X131432018Y-100692914D02*
X131479637Y-100883390D01*
X131479637Y-100883390D02*
X131479637Y-101026247D01*
X131479637Y-101026247D02*
X131432018Y-101216723D01*
X131432018Y-101216723D02*
X131384399Y-101311961D01*
X131384399Y-101311961D02*
X131289161Y-101407200D01*
X131289161Y-101407200D02*
X131146304Y-101454819D01*
X131146304Y-101454819D02*
X130908209Y-101454819D01*
X132860590Y-100454819D02*
X133051066Y-100454819D01*
X133051066Y-100454819D02*
X133146304Y-100502438D01*
X133146304Y-100502438D02*
X133241542Y-100597676D01*
X133241542Y-100597676D02*
X133289161Y-100788152D01*
X133289161Y-100788152D02*
X133289161Y-101121485D01*
X133289161Y-101121485D02*
X133241542Y-101311961D01*
X133241542Y-101311961D02*
X133146304Y-101407200D01*
X133146304Y-101407200D02*
X133051066Y-101454819D01*
X133051066Y-101454819D02*
X132860590Y-101454819D01*
X132860590Y-101454819D02*
X132765352Y-101407200D01*
X132765352Y-101407200D02*
X132670114Y-101311961D01*
X132670114Y-101311961D02*
X132622495Y-101121485D01*
X132622495Y-101121485D02*
X132622495Y-100788152D01*
X132622495Y-100788152D02*
X132670114Y-100597676D01*
X132670114Y-100597676D02*
X132765352Y-100502438D01*
X132765352Y-100502438D02*
X132860590Y-100454819D01*
X133717733Y-101454819D02*
X133717733Y-100454819D01*
X133717733Y-100454819D02*
X134289161Y-101454819D01*
X134289161Y-101454819D02*
X134289161Y-100454819D01*
X135241542Y-101454819D02*
X134765352Y-101454819D01*
X134765352Y-101454819D02*
X134765352Y-100454819D01*
X135765352Y-100978628D02*
X135765352Y-101454819D01*
X135432019Y-100454819D02*
X135765352Y-100978628D01*
X135765352Y-100978628D02*
X136098685Y-100454819D01*
X95241541Y-104454819D02*
X95860588Y-104454819D01*
X95860588Y-104454819D02*
X95527255Y-104835771D01*
X95527255Y-104835771D02*
X95670112Y-104835771D01*
X95670112Y-104835771D02*
X95765350Y-104883390D01*
X95765350Y-104883390D02*
X95812969Y-104931009D01*
X95812969Y-104931009D02*
X95860588Y-105026247D01*
X95860588Y-105026247D02*
X95860588Y-105264342D01*
X95860588Y-105264342D02*
X95812969Y-105359580D01*
X95812969Y-105359580D02*
X95765350Y-105407200D01*
X95765350Y-105407200D02*
X95670112Y-105454819D01*
X95670112Y-105454819D02*
X95384398Y-105454819D01*
X95384398Y-105454819D02*
X95289160Y-105407200D01*
X95289160Y-105407200D02*
X95241541Y-105359580D01*
X96289160Y-105359580D02*
X96336779Y-105407200D01*
X96336779Y-105407200D02*
X96289160Y-105454819D01*
X96289160Y-105454819D02*
X96241541Y-105407200D01*
X96241541Y-105407200D02*
X96289160Y-105359580D01*
X96289160Y-105359580D02*
X96289160Y-105454819D01*
X96670112Y-104454819D02*
X97289159Y-104454819D01*
X97289159Y-104454819D02*
X96955826Y-104835771D01*
X96955826Y-104835771D02*
X97098683Y-104835771D01*
X97098683Y-104835771D02*
X97193921Y-104883390D01*
X97193921Y-104883390D02*
X97241540Y-104931009D01*
X97241540Y-104931009D02*
X97289159Y-105026247D01*
X97289159Y-105026247D02*
X97289159Y-105264342D01*
X97289159Y-105264342D02*
X97241540Y-105359580D01*
X97241540Y-105359580D02*
X97193921Y-105407200D01*
X97193921Y-105407200D02*
X97098683Y-105454819D01*
X97098683Y-105454819D02*
X96812969Y-105454819D01*
X96812969Y-105454819D02*
X96717731Y-105407200D01*
X96717731Y-105407200D02*
X96670112Y-105359580D01*
X97574874Y-104454819D02*
X97908207Y-105454819D01*
X97908207Y-105454819D02*
X98241540Y-104454819D01*
X99812969Y-105454819D02*
X99336779Y-105454819D01*
X99336779Y-105454819D02*
X99336779Y-104454819D01*
X100336779Y-104454819D02*
X100527255Y-104454819D01*
X100527255Y-104454819D02*
X100622493Y-104502438D01*
X100622493Y-104502438D02*
X100717731Y-104597676D01*
X100717731Y-104597676D02*
X100765350Y-104788152D01*
X100765350Y-104788152D02*
X100765350Y-105121485D01*
X100765350Y-105121485D02*
X100717731Y-105311961D01*
X100717731Y-105311961D02*
X100622493Y-105407200D01*
X100622493Y-105407200D02*
X100527255Y-105454819D01*
X100527255Y-105454819D02*
X100336779Y-105454819D01*
X100336779Y-105454819D02*
X100241541Y-105407200D01*
X100241541Y-105407200D02*
X100146303Y-105311961D01*
X100146303Y-105311961D02*
X100098684Y-105121485D01*
X100098684Y-105121485D02*
X100098684Y-104788152D01*
X100098684Y-104788152D02*
X100146303Y-104597676D01*
X100146303Y-104597676D02*
X100241541Y-104502438D01*
X100241541Y-104502438D02*
X100336779Y-104454819D01*
X101717731Y-104502438D02*
X101622493Y-104454819D01*
X101622493Y-104454819D02*
X101479636Y-104454819D01*
X101479636Y-104454819D02*
X101336779Y-104502438D01*
X101336779Y-104502438D02*
X101241541Y-104597676D01*
X101241541Y-104597676D02*
X101193922Y-104692914D01*
X101193922Y-104692914D02*
X101146303Y-104883390D01*
X101146303Y-104883390D02*
X101146303Y-105026247D01*
X101146303Y-105026247D02*
X101193922Y-105216723D01*
X101193922Y-105216723D02*
X101241541Y-105311961D01*
X101241541Y-105311961D02*
X101336779Y-105407200D01*
X101336779Y-105407200D02*
X101479636Y-105454819D01*
X101479636Y-105454819D02*
X101574874Y-105454819D01*
X101574874Y-105454819D02*
X101717731Y-105407200D01*
X101717731Y-105407200D02*
X101765350Y-105359580D01*
X101765350Y-105359580D02*
X101765350Y-105026247D01*
X101765350Y-105026247D02*
X101574874Y-105026247D01*
X102193922Y-105454819D02*
X102193922Y-104454819D01*
X103241540Y-105359580D02*
X103193921Y-105407200D01*
X103193921Y-105407200D02*
X103051064Y-105454819D01*
X103051064Y-105454819D02*
X102955826Y-105454819D01*
X102955826Y-105454819D02*
X102812969Y-105407200D01*
X102812969Y-105407200D02*
X102717731Y-105311961D01*
X102717731Y-105311961D02*
X102670112Y-105216723D01*
X102670112Y-105216723D02*
X102622493Y-105026247D01*
X102622493Y-105026247D02*
X102622493Y-104883390D01*
X102622493Y-104883390D02*
X102670112Y-104692914D01*
X102670112Y-104692914D02*
X102717731Y-104597676D01*
X102717731Y-104597676D02*
X102812969Y-104502438D01*
X102812969Y-104502438D02*
X102955826Y-104454819D01*
X102955826Y-104454819D02*
X103051064Y-104454819D01*
X103051064Y-104454819D02*
X103193921Y-104502438D01*
X103193921Y-104502438D02*
X103241540Y-104550057D01*
X104432017Y-105073866D02*
X105193922Y-105073866D01*
X106432017Y-105454819D02*
X106432017Y-104454819D01*
X106432017Y-104454819D02*
X106670112Y-104454819D01*
X106670112Y-104454819D02*
X106812969Y-104502438D01*
X106812969Y-104502438D02*
X106908207Y-104597676D01*
X106908207Y-104597676D02*
X106955826Y-104692914D01*
X106955826Y-104692914D02*
X107003445Y-104883390D01*
X107003445Y-104883390D02*
X107003445Y-105026247D01*
X107003445Y-105026247D02*
X106955826Y-105216723D01*
X106955826Y-105216723D02*
X106908207Y-105311961D01*
X106908207Y-105311961D02*
X106812969Y-105407200D01*
X106812969Y-105407200D02*
X106670112Y-105454819D01*
X106670112Y-105454819D02*
X106432017Y-105454819D01*
X107622493Y-104454819D02*
X107812969Y-104454819D01*
X107812969Y-104454819D02*
X107908207Y-104502438D01*
X107908207Y-104502438D02*
X108003445Y-104597676D01*
X108003445Y-104597676D02*
X108051064Y-104788152D01*
X108051064Y-104788152D02*
X108051064Y-105121485D01*
X108051064Y-105121485D02*
X108003445Y-105311961D01*
X108003445Y-105311961D02*
X107908207Y-105407200D01*
X107908207Y-105407200D02*
X107812969Y-105454819D01*
X107812969Y-105454819D02*
X107622493Y-105454819D01*
X107622493Y-105454819D02*
X107527255Y-105407200D01*
X107527255Y-105407200D02*
X107432017Y-105311961D01*
X107432017Y-105311961D02*
X107384398Y-105121485D01*
X107384398Y-105121485D02*
X107384398Y-104788152D01*
X107384398Y-104788152D02*
X107432017Y-104597676D01*
X107432017Y-104597676D02*
X107527255Y-104502438D01*
X107527255Y-104502438D02*
X107622493Y-104454819D01*
X109241541Y-105454819D02*
X109241541Y-104454819D01*
X109241541Y-104454819D02*
X109812969Y-105454819D01*
X109812969Y-105454819D02*
X109812969Y-104454819D01*
X110479636Y-104454819D02*
X110670112Y-104454819D01*
X110670112Y-104454819D02*
X110765350Y-104502438D01*
X110765350Y-104502438D02*
X110860588Y-104597676D01*
X110860588Y-104597676D02*
X110908207Y-104788152D01*
X110908207Y-104788152D02*
X110908207Y-105121485D01*
X110908207Y-105121485D02*
X110860588Y-105311961D01*
X110860588Y-105311961D02*
X110765350Y-105407200D01*
X110765350Y-105407200D02*
X110670112Y-105454819D01*
X110670112Y-105454819D02*
X110479636Y-105454819D01*
X110479636Y-105454819D02*
X110384398Y-105407200D01*
X110384398Y-105407200D02*
X110289160Y-105311961D01*
X110289160Y-105311961D02*
X110241541Y-105121485D01*
X110241541Y-105121485D02*
X110241541Y-104788152D01*
X110241541Y-104788152D02*
X110289160Y-104597676D01*
X110289160Y-104597676D02*
X110384398Y-104502438D01*
X110384398Y-104502438D02*
X110479636Y-104454819D01*
X111193922Y-104454819D02*
X111765350Y-104454819D01*
X111479636Y-105454819D02*
X111479636Y-104454819D01*
X112717732Y-104454819D02*
X113289160Y-104454819D01*
X113003446Y-105454819D02*
X113003446Y-104454819D01*
X113622494Y-105454819D02*
X113622494Y-104454819D01*
X114098684Y-104931009D02*
X114432017Y-104931009D01*
X114574874Y-105454819D02*
X114098684Y-105454819D01*
X114098684Y-105454819D02*
X114098684Y-104454819D01*
X114098684Y-104454819D02*
X114574874Y-104454819D01*
X115765351Y-105454819D02*
X115765351Y-104454819D01*
X115765351Y-104454819D02*
X116098684Y-105169104D01*
X116098684Y-105169104D02*
X116432017Y-104454819D01*
X116432017Y-104454819D02*
X116432017Y-105454819D01*
X117098684Y-104454819D02*
X117289160Y-104454819D01*
X117289160Y-104454819D02*
X117384398Y-104502438D01*
X117384398Y-104502438D02*
X117479636Y-104597676D01*
X117479636Y-104597676D02*
X117527255Y-104788152D01*
X117527255Y-104788152D02*
X117527255Y-105121485D01*
X117527255Y-105121485D02*
X117479636Y-105311961D01*
X117479636Y-105311961D02*
X117384398Y-105407200D01*
X117384398Y-105407200D02*
X117289160Y-105454819D01*
X117289160Y-105454819D02*
X117098684Y-105454819D01*
X117098684Y-105454819D02*
X117003446Y-105407200D01*
X117003446Y-105407200D02*
X116908208Y-105311961D01*
X116908208Y-105311961D02*
X116860589Y-105121485D01*
X116860589Y-105121485D02*
X116860589Y-104788152D01*
X116860589Y-104788152D02*
X116908208Y-104597676D01*
X116908208Y-104597676D02*
X117003446Y-104502438D01*
X117003446Y-104502438D02*
X117098684Y-104454819D01*
X117812970Y-104454819D02*
X118384398Y-104454819D01*
X118098684Y-105454819D02*
X118098684Y-104454819D01*
X118908208Y-104454819D02*
X119098684Y-104454819D01*
X119098684Y-104454819D02*
X119193922Y-104502438D01*
X119193922Y-104502438D02*
X119289160Y-104597676D01*
X119289160Y-104597676D02*
X119336779Y-104788152D01*
X119336779Y-104788152D02*
X119336779Y-105121485D01*
X119336779Y-105121485D02*
X119289160Y-105311961D01*
X119289160Y-105311961D02*
X119193922Y-105407200D01*
X119193922Y-105407200D02*
X119098684Y-105454819D01*
X119098684Y-105454819D02*
X118908208Y-105454819D01*
X118908208Y-105454819D02*
X118812970Y-105407200D01*
X118812970Y-105407200D02*
X118717732Y-105311961D01*
X118717732Y-105311961D02*
X118670113Y-105121485D01*
X118670113Y-105121485D02*
X118670113Y-104788152D01*
X118670113Y-104788152D02*
X118717732Y-104597676D01*
X118717732Y-104597676D02*
X118812970Y-104502438D01*
X118812970Y-104502438D02*
X118908208Y-104454819D01*
X120336779Y-105454819D02*
X120003446Y-104978628D01*
X119765351Y-105454819D02*
X119765351Y-104454819D01*
X119765351Y-104454819D02*
X120146303Y-104454819D01*
X120146303Y-104454819D02*
X120241541Y-104502438D01*
X120241541Y-104502438D02*
X120289160Y-104550057D01*
X120289160Y-104550057D02*
X120336779Y-104645295D01*
X120336779Y-104645295D02*
X120336779Y-104788152D01*
X120336779Y-104788152D02*
X120289160Y-104883390D01*
X120289160Y-104883390D02*
X120241541Y-104931009D01*
X120241541Y-104931009D02*
X120146303Y-104978628D01*
X120146303Y-104978628D02*
X119765351Y-104978628D01*
X120527256Y-105550057D02*
X121289160Y-105550057D01*
X121384399Y-104454819D02*
X121717732Y-105454819D01*
X121717732Y-105454819D02*
X122051065Y-104454819D01*
X122384399Y-105073866D02*
X123146304Y-105073866D01*
X122765351Y-105454819D02*
X122765351Y-104692914D01*
X124241542Y-104454819D02*
X124812970Y-104454819D01*
X124527256Y-105454819D02*
X124527256Y-104454819D01*
X125336780Y-104454819D02*
X125527256Y-104454819D01*
X125527256Y-104454819D02*
X125622494Y-104502438D01*
X125622494Y-104502438D02*
X125717732Y-104597676D01*
X125717732Y-104597676D02*
X125765351Y-104788152D01*
X125765351Y-104788152D02*
X125765351Y-105121485D01*
X125765351Y-105121485D02*
X125717732Y-105311961D01*
X125717732Y-105311961D02*
X125622494Y-105407200D01*
X125622494Y-105407200D02*
X125527256Y-105454819D01*
X125527256Y-105454819D02*
X125336780Y-105454819D01*
X125336780Y-105454819D02*
X125241542Y-105407200D01*
X125241542Y-105407200D02*
X125146304Y-105311961D01*
X125146304Y-105311961D02*
X125098685Y-105121485D01*
X125098685Y-105121485D02*
X125098685Y-104788152D01*
X125098685Y-104788152D02*
X125146304Y-104597676D01*
X125146304Y-104597676D02*
X125241542Y-104502438D01*
X125241542Y-104502438D02*
X125336780Y-104454819D01*
X126955828Y-105073866D02*
X127717733Y-105073866D01*
X127336780Y-105454819D02*
X127336780Y-104692914D01*
X128098685Y-104454819D02*
X128717732Y-104454819D01*
X128717732Y-104454819D02*
X128384399Y-104835771D01*
X128384399Y-104835771D02*
X128527256Y-104835771D01*
X128527256Y-104835771D02*
X128622494Y-104883390D01*
X128622494Y-104883390D02*
X128670113Y-104931009D01*
X128670113Y-104931009D02*
X128717732Y-105026247D01*
X128717732Y-105026247D02*
X128717732Y-105264342D01*
X128717732Y-105264342D02*
X128670113Y-105359580D01*
X128670113Y-105359580D02*
X128622494Y-105407200D01*
X128622494Y-105407200D02*
X128527256Y-105454819D01*
X128527256Y-105454819D02*
X128241542Y-105454819D01*
X128241542Y-105454819D02*
X128146304Y-105407200D01*
X128146304Y-105407200D02*
X128098685Y-105359580D01*
X129003447Y-104454819D02*
X129336780Y-105454819D01*
X129336780Y-105454819D02*
X129670113Y-104454819D01*
X129908209Y-104454819D02*
X130527256Y-104454819D01*
X130527256Y-104454819D02*
X130193923Y-104835771D01*
X130193923Y-104835771D02*
X130336780Y-104835771D01*
X130336780Y-104835771D02*
X130432018Y-104883390D01*
X130432018Y-104883390D02*
X130479637Y-104931009D01*
X130479637Y-104931009D02*
X130527256Y-105026247D01*
X130527256Y-105026247D02*
X130527256Y-105264342D01*
X130527256Y-105264342D02*
X130479637Y-105359580D01*
X130479637Y-105359580D02*
X130432018Y-105407200D01*
X130432018Y-105407200D02*
X130336780Y-105454819D01*
X130336780Y-105454819D02*
X130051066Y-105454819D01*
X130051066Y-105454819D02*
X129955828Y-105407200D01*
X129955828Y-105407200D02*
X129908209Y-105359580D01*
X118436779Y-83054819D02*
X118436779Y-82054819D01*
X118436779Y-82054819D02*
X118770112Y-82769104D01*
X118770112Y-82769104D02*
X119103445Y-82054819D01*
X119103445Y-82054819D02*
X119103445Y-83054819D01*
X119770112Y-82054819D02*
X119960588Y-82054819D01*
X119960588Y-82054819D02*
X120055826Y-82102438D01*
X120055826Y-82102438D02*
X120151064Y-82197676D01*
X120151064Y-82197676D02*
X120198683Y-82388152D01*
X120198683Y-82388152D02*
X120198683Y-82721485D01*
X120198683Y-82721485D02*
X120151064Y-82911961D01*
X120151064Y-82911961D02*
X120055826Y-83007200D01*
X120055826Y-83007200D02*
X119960588Y-83054819D01*
X119960588Y-83054819D02*
X119770112Y-83054819D01*
X119770112Y-83054819D02*
X119674874Y-83007200D01*
X119674874Y-83007200D02*
X119579636Y-82911961D01*
X119579636Y-82911961D02*
X119532017Y-82721485D01*
X119532017Y-82721485D02*
X119532017Y-82388152D01*
X119532017Y-82388152D02*
X119579636Y-82197676D01*
X119579636Y-82197676D02*
X119674874Y-82102438D01*
X119674874Y-82102438D02*
X119770112Y-82054819D01*
X120484398Y-82054819D02*
X121055826Y-82054819D01*
X120770112Y-83054819D02*
X120770112Y-82054819D01*
X121579636Y-82054819D02*
X121770112Y-82054819D01*
X121770112Y-82054819D02*
X121865350Y-82102438D01*
X121865350Y-82102438D02*
X121960588Y-82197676D01*
X121960588Y-82197676D02*
X122008207Y-82388152D01*
X122008207Y-82388152D02*
X122008207Y-82721485D01*
X122008207Y-82721485D02*
X121960588Y-82911961D01*
X121960588Y-82911961D02*
X121865350Y-83007200D01*
X121865350Y-83007200D02*
X121770112Y-83054819D01*
X121770112Y-83054819D02*
X121579636Y-83054819D01*
X121579636Y-83054819D02*
X121484398Y-83007200D01*
X121484398Y-83007200D02*
X121389160Y-82911961D01*
X121389160Y-82911961D02*
X121341541Y-82721485D01*
X121341541Y-82721485D02*
X121341541Y-82388152D01*
X121341541Y-82388152D02*
X121389160Y-82197676D01*
X121389160Y-82197676D02*
X121484398Y-82102438D01*
X121484398Y-82102438D02*
X121579636Y-82054819D01*
X123008207Y-83054819D02*
X122674874Y-82578628D01*
X122436779Y-83054819D02*
X122436779Y-82054819D01*
X122436779Y-82054819D02*
X122817731Y-82054819D01*
X122817731Y-82054819D02*
X122912969Y-82102438D01*
X122912969Y-82102438D02*
X122960588Y-82150057D01*
X122960588Y-82150057D02*
X123008207Y-82245295D01*
X123008207Y-82245295D02*
X123008207Y-82388152D01*
X123008207Y-82388152D02*
X122960588Y-82483390D01*
X122960588Y-82483390D02*
X122912969Y-82531009D01*
X122912969Y-82531009D02*
X122817731Y-82578628D01*
X122817731Y-82578628D02*
X122436779Y-82578628D01*
X124198684Y-83054819D02*
X124198684Y-82054819D01*
X124198684Y-82054819D02*
X124579636Y-82054819D01*
X124579636Y-82054819D02*
X124674874Y-82102438D01*
X124674874Y-82102438D02*
X124722493Y-82150057D01*
X124722493Y-82150057D02*
X124770112Y-82245295D01*
X124770112Y-82245295D02*
X124770112Y-82388152D01*
X124770112Y-82388152D02*
X124722493Y-82483390D01*
X124722493Y-82483390D02*
X124674874Y-82531009D01*
X124674874Y-82531009D02*
X124579636Y-82578628D01*
X124579636Y-82578628D02*
X124198684Y-82578628D01*
X125103446Y-82054819D02*
X125341541Y-83054819D01*
X125341541Y-83054819D02*
X125532017Y-82340533D01*
X125532017Y-82340533D02*
X125722493Y-83054819D01*
X125722493Y-83054819D02*
X125960589Y-82054819D01*
X126912969Y-83054819D02*
X126579636Y-82578628D01*
X126341541Y-83054819D02*
X126341541Y-82054819D01*
X126341541Y-82054819D02*
X126722493Y-82054819D01*
X126722493Y-82054819D02*
X126817731Y-82102438D01*
X126817731Y-82102438D02*
X126865350Y-82150057D01*
X126865350Y-82150057D02*
X126912969Y-82245295D01*
X126912969Y-82245295D02*
X126912969Y-82388152D01*
X126912969Y-82388152D02*
X126865350Y-82483390D01*
X126865350Y-82483390D02*
X126817731Y-82531009D01*
X126817731Y-82531009D02*
X126722493Y-82578628D01*
X126722493Y-82578628D02*
X126341541Y-82578628D01*
X134986779Y-18454819D02*
X134986779Y-17454819D01*
X134986779Y-17454819D02*
X135320112Y-18169104D01*
X135320112Y-18169104D02*
X135653445Y-17454819D01*
X135653445Y-17454819D02*
X135653445Y-18454819D01*
X136320112Y-17454819D02*
X136415350Y-17454819D01*
X136415350Y-17454819D02*
X136510588Y-17502438D01*
X136510588Y-17502438D02*
X136558207Y-17550057D01*
X136558207Y-17550057D02*
X136605826Y-17645295D01*
X136605826Y-17645295D02*
X136653445Y-17835771D01*
X136653445Y-17835771D02*
X136653445Y-18073866D01*
X136653445Y-18073866D02*
X136605826Y-18264342D01*
X136605826Y-18264342D02*
X136558207Y-18359580D01*
X136558207Y-18359580D02*
X136510588Y-18407200D01*
X136510588Y-18407200D02*
X136415350Y-18454819D01*
X136415350Y-18454819D02*
X136320112Y-18454819D01*
X136320112Y-18454819D02*
X136224874Y-18407200D01*
X136224874Y-18407200D02*
X136177255Y-18359580D01*
X136177255Y-18359580D02*
X136129636Y-18264342D01*
X136129636Y-18264342D02*
X136082017Y-18073866D01*
X136082017Y-18073866D02*
X136082017Y-17835771D01*
X136082017Y-17835771D02*
X136129636Y-17645295D01*
X136129636Y-17645295D02*
X136177255Y-17550057D01*
X136177255Y-17550057D02*
X136224874Y-17502438D01*
X136224874Y-17502438D02*
X136320112Y-17454819D01*
X134986779Y-26954819D02*
X134986779Y-25954819D01*
X134986779Y-25954819D02*
X135320112Y-26669104D01*
X135320112Y-26669104D02*
X135653445Y-25954819D01*
X135653445Y-25954819D02*
X135653445Y-26954819D01*
X136653445Y-26954819D02*
X136082017Y-26954819D01*
X136367731Y-26954819D02*
X136367731Y-25954819D01*
X136367731Y-25954819D02*
X136272493Y-26097676D01*
X136272493Y-26097676D02*
X136177255Y-26192914D01*
X136177255Y-26192914D02*
X136082017Y-26240533D01*
X134986779Y-35454819D02*
X134986779Y-34454819D01*
X134986779Y-34454819D02*
X135320112Y-35169104D01*
X135320112Y-35169104D02*
X135653445Y-34454819D01*
X135653445Y-34454819D02*
X135653445Y-35454819D01*
X136082017Y-34550057D02*
X136129636Y-34502438D01*
X136129636Y-34502438D02*
X136224874Y-34454819D01*
X136224874Y-34454819D02*
X136462969Y-34454819D01*
X136462969Y-34454819D02*
X136558207Y-34502438D01*
X136558207Y-34502438D02*
X136605826Y-34550057D01*
X136605826Y-34550057D02*
X136653445Y-34645295D01*
X136653445Y-34645295D02*
X136653445Y-34740533D01*
X136653445Y-34740533D02*
X136605826Y-34883390D01*
X136605826Y-34883390D02*
X136034398Y-35454819D01*
X136034398Y-35454819D02*
X136653445Y-35454819D01*
X134986779Y-43954819D02*
X134986779Y-42954819D01*
X134986779Y-42954819D02*
X135320112Y-43669104D01*
X135320112Y-43669104D02*
X135653445Y-42954819D01*
X135653445Y-42954819D02*
X135653445Y-43954819D01*
X136034398Y-42954819D02*
X136653445Y-42954819D01*
X136653445Y-42954819D02*
X136320112Y-43335771D01*
X136320112Y-43335771D02*
X136462969Y-43335771D01*
X136462969Y-43335771D02*
X136558207Y-43383390D01*
X136558207Y-43383390D02*
X136605826Y-43431009D01*
X136605826Y-43431009D02*
X136653445Y-43526247D01*
X136653445Y-43526247D02*
X136653445Y-43764342D01*
X136653445Y-43764342D02*
X136605826Y-43859580D01*
X136605826Y-43859580D02*
X136558207Y-43907200D01*
X136558207Y-43907200D02*
X136462969Y-43954819D01*
X136462969Y-43954819D02*
X136177255Y-43954819D01*
X136177255Y-43954819D02*
X136082017Y-43907200D01*
X136082017Y-43907200D02*
X136034398Y-43859580D01*
X134986779Y-52454819D02*
X134986779Y-51454819D01*
X134986779Y-51454819D02*
X135320112Y-52169104D01*
X135320112Y-52169104D02*
X135653445Y-51454819D01*
X135653445Y-51454819D02*
X135653445Y-52454819D01*
X136558207Y-51788152D02*
X136558207Y-52454819D01*
X136320112Y-51407200D02*
X136082017Y-52121485D01*
X136082017Y-52121485D02*
X136701064Y-52121485D01*
X134986779Y-60954819D02*
X134986779Y-59954819D01*
X134986779Y-59954819D02*
X135320112Y-60669104D01*
X135320112Y-60669104D02*
X135653445Y-59954819D01*
X135653445Y-59954819D02*
X135653445Y-60954819D01*
X136605826Y-59954819D02*
X136129636Y-59954819D01*
X136129636Y-59954819D02*
X136082017Y-60431009D01*
X136082017Y-60431009D02*
X136129636Y-60383390D01*
X136129636Y-60383390D02*
X136224874Y-60335771D01*
X136224874Y-60335771D02*
X136462969Y-60335771D01*
X136462969Y-60335771D02*
X136558207Y-60383390D01*
X136558207Y-60383390D02*
X136605826Y-60431009D01*
X136605826Y-60431009D02*
X136653445Y-60526247D01*
X136653445Y-60526247D02*
X136653445Y-60764342D01*
X136653445Y-60764342D02*
X136605826Y-60859580D01*
X136605826Y-60859580D02*
X136558207Y-60907200D01*
X136558207Y-60907200D02*
X136462969Y-60954819D01*
X136462969Y-60954819D02*
X136224874Y-60954819D01*
X136224874Y-60954819D02*
X136129636Y-60907200D01*
X136129636Y-60907200D02*
X136082017Y-60859580D01*
X134986779Y-69454819D02*
X134986779Y-68454819D01*
X134986779Y-68454819D02*
X135320112Y-69169104D01*
X135320112Y-69169104D02*
X135653445Y-68454819D01*
X135653445Y-68454819D02*
X135653445Y-69454819D01*
X136558207Y-68454819D02*
X136367731Y-68454819D01*
X136367731Y-68454819D02*
X136272493Y-68502438D01*
X136272493Y-68502438D02*
X136224874Y-68550057D01*
X136224874Y-68550057D02*
X136129636Y-68692914D01*
X136129636Y-68692914D02*
X136082017Y-68883390D01*
X136082017Y-68883390D02*
X136082017Y-69264342D01*
X136082017Y-69264342D02*
X136129636Y-69359580D01*
X136129636Y-69359580D02*
X136177255Y-69407200D01*
X136177255Y-69407200D02*
X136272493Y-69454819D01*
X136272493Y-69454819D02*
X136462969Y-69454819D01*
X136462969Y-69454819D02*
X136558207Y-69407200D01*
X136558207Y-69407200D02*
X136605826Y-69359580D01*
X136605826Y-69359580D02*
X136653445Y-69264342D01*
X136653445Y-69264342D02*
X136653445Y-69026247D01*
X136653445Y-69026247D02*
X136605826Y-68931009D01*
X136605826Y-68931009D02*
X136558207Y-68883390D01*
X136558207Y-68883390D02*
X136462969Y-68835771D01*
X136462969Y-68835771D02*
X136272493Y-68835771D01*
X136272493Y-68835771D02*
X136177255Y-68883390D01*
X136177255Y-68883390D02*
X136129636Y-68931009D01*
X136129636Y-68931009D02*
X136082017Y-69026247D01*
X134986779Y-77954819D02*
X134986779Y-76954819D01*
X134986779Y-76954819D02*
X135320112Y-77669104D01*
X135320112Y-77669104D02*
X135653445Y-76954819D01*
X135653445Y-76954819D02*
X135653445Y-77954819D01*
X136034398Y-76954819D02*
X136701064Y-76954819D01*
X136701064Y-76954819D02*
X136272493Y-77954819D01*
X85169104Y-59710839D02*
X85169104Y-59234649D01*
X85454819Y-59806077D02*
X84454819Y-59472744D01*
X84454819Y-59472744D02*
X85454819Y-59139411D01*
X85454819Y-58806077D02*
X84454819Y-58806077D01*
X84454819Y-58806077D02*
X85454819Y-58234649D01*
X85454819Y-58234649D02*
X84454819Y-58234649D01*
X85169104Y-57806077D02*
X85169104Y-57329887D01*
X85454819Y-57901315D02*
X84454819Y-57567982D01*
X84454819Y-57567982D02*
X85454819Y-57234649D01*
X85454819Y-56425125D02*
X85454819Y-56901315D01*
X85454819Y-56901315D02*
X84454819Y-56901315D01*
X84454819Y-55901315D02*
X84454819Y-55710839D01*
X84454819Y-55710839D02*
X84502438Y-55615601D01*
X84502438Y-55615601D02*
X84597676Y-55520363D01*
X84597676Y-55520363D02*
X84788152Y-55472744D01*
X84788152Y-55472744D02*
X85121485Y-55472744D01*
X85121485Y-55472744D02*
X85311961Y-55520363D01*
X85311961Y-55520363D02*
X85407200Y-55615601D01*
X85407200Y-55615601D02*
X85454819Y-55710839D01*
X85454819Y-55710839D02*
X85454819Y-55901315D01*
X85454819Y-55901315D02*
X85407200Y-55996553D01*
X85407200Y-55996553D02*
X85311961Y-56091791D01*
X85311961Y-56091791D02*
X85121485Y-56139410D01*
X85121485Y-56139410D02*
X84788152Y-56139410D01*
X84788152Y-56139410D02*
X84597676Y-56091791D01*
X84597676Y-56091791D02*
X84502438Y-55996553D01*
X84502438Y-55996553D02*
X84454819Y-55901315D01*
X84502438Y-54520363D02*
X84454819Y-54615601D01*
X84454819Y-54615601D02*
X84454819Y-54758458D01*
X84454819Y-54758458D02*
X84502438Y-54901315D01*
X84502438Y-54901315D02*
X84597676Y-54996553D01*
X84597676Y-54996553D02*
X84692914Y-55044172D01*
X84692914Y-55044172D02*
X84883390Y-55091791D01*
X84883390Y-55091791D02*
X85026247Y-55091791D01*
X85026247Y-55091791D02*
X85216723Y-55044172D01*
X85216723Y-55044172D02*
X85311961Y-54996553D01*
X85311961Y-54996553D02*
X85407200Y-54901315D01*
X85407200Y-54901315D02*
X85454819Y-54758458D01*
X85454819Y-54758458D02*
X85454819Y-54663220D01*
X85454819Y-54663220D02*
X85407200Y-54520363D01*
X85407200Y-54520363D02*
X85359580Y-54472744D01*
X85359580Y-54472744D02*
X85026247Y-54472744D01*
X85026247Y-54472744D02*
X85026247Y-54663220D01*
X84407200Y-52567982D02*
X85692914Y-53425124D01*
X85454819Y-51472743D02*
X84454819Y-51472743D01*
X84454819Y-51472743D02*
X85169104Y-51139410D01*
X85169104Y-51139410D02*
X84454819Y-50806077D01*
X84454819Y-50806077D02*
X85454819Y-50806077D01*
X84454819Y-50139410D02*
X84454819Y-49948934D01*
X84454819Y-49948934D02*
X84502438Y-49853696D01*
X84502438Y-49853696D02*
X84597676Y-49758458D01*
X84597676Y-49758458D02*
X84788152Y-49710839D01*
X84788152Y-49710839D02*
X85121485Y-49710839D01*
X85121485Y-49710839D02*
X85311961Y-49758458D01*
X85311961Y-49758458D02*
X85407200Y-49853696D01*
X85407200Y-49853696D02*
X85454819Y-49948934D01*
X85454819Y-49948934D02*
X85454819Y-50139410D01*
X85454819Y-50139410D02*
X85407200Y-50234648D01*
X85407200Y-50234648D02*
X85311961Y-50329886D01*
X85311961Y-50329886D02*
X85121485Y-50377505D01*
X85121485Y-50377505D02*
X84788152Y-50377505D01*
X84788152Y-50377505D02*
X84597676Y-50329886D01*
X84597676Y-50329886D02*
X84502438Y-50234648D01*
X84502438Y-50234648D02*
X84454819Y-50139410D01*
X84454819Y-49425124D02*
X84454819Y-48853696D01*
X85454819Y-49139410D02*
X84454819Y-49139410D01*
X84454819Y-48329886D02*
X84454819Y-48139410D01*
X84454819Y-48139410D02*
X84502438Y-48044172D01*
X84502438Y-48044172D02*
X84597676Y-47948934D01*
X84597676Y-47948934D02*
X84788152Y-47901315D01*
X84788152Y-47901315D02*
X85121485Y-47901315D01*
X85121485Y-47901315D02*
X85311961Y-47948934D01*
X85311961Y-47948934D02*
X85407200Y-48044172D01*
X85407200Y-48044172D02*
X85454819Y-48139410D01*
X85454819Y-48139410D02*
X85454819Y-48329886D01*
X85454819Y-48329886D02*
X85407200Y-48425124D01*
X85407200Y-48425124D02*
X85311961Y-48520362D01*
X85311961Y-48520362D02*
X85121485Y-48567981D01*
X85121485Y-48567981D02*
X84788152Y-48567981D01*
X84788152Y-48567981D02*
X84597676Y-48520362D01*
X84597676Y-48520362D02*
X84502438Y-48425124D01*
X84502438Y-48425124D02*
X84454819Y-48329886D01*
X85454819Y-46901315D02*
X84978628Y-47234648D01*
X85454819Y-47472743D02*
X84454819Y-47472743D01*
X84454819Y-47472743D02*
X84454819Y-47091791D01*
X84454819Y-47091791D02*
X84502438Y-46996553D01*
X84502438Y-46996553D02*
X84550057Y-46948934D01*
X84550057Y-46948934D02*
X84645295Y-46901315D01*
X84645295Y-46901315D02*
X84788152Y-46901315D01*
X84788152Y-46901315D02*
X84883390Y-46948934D01*
X84883390Y-46948934D02*
X84931009Y-46996553D01*
X84931009Y-46996553D02*
X84978628Y-47091791D01*
X84978628Y-47091791D02*
X84978628Y-47472743D01*
X85454819Y-45710838D02*
X84454819Y-45710838D01*
X85407200Y-45282267D02*
X85454819Y-45139410D01*
X85454819Y-45139410D02*
X85454819Y-44901315D01*
X85454819Y-44901315D02*
X85407200Y-44806077D01*
X85407200Y-44806077D02*
X85359580Y-44758458D01*
X85359580Y-44758458D02*
X85264342Y-44710839D01*
X85264342Y-44710839D02*
X85169104Y-44710839D01*
X85169104Y-44710839D02*
X85073866Y-44758458D01*
X85073866Y-44758458D02*
X85026247Y-44806077D01*
X85026247Y-44806077D02*
X84978628Y-44901315D01*
X84978628Y-44901315D02*
X84931009Y-45091791D01*
X84931009Y-45091791D02*
X84883390Y-45187029D01*
X84883390Y-45187029D02*
X84835771Y-45234648D01*
X84835771Y-45234648D02*
X84740533Y-45282267D01*
X84740533Y-45282267D02*
X84645295Y-45282267D01*
X84645295Y-45282267D02*
X84550057Y-45234648D01*
X84550057Y-45234648D02*
X84502438Y-45187029D01*
X84502438Y-45187029D02*
X84454819Y-45091791D01*
X84454819Y-45091791D02*
X84454819Y-44853696D01*
X84454819Y-44853696D02*
X84502438Y-44710839D01*
X84454819Y-44091791D02*
X84454819Y-43901315D01*
X84454819Y-43901315D02*
X84502438Y-43806077D01*
X84502438Y-43806077D02*
X84597676Y-43710839D01*
X84597676Y-43710839D02*
X84788152Y-43663220D01*
X84788152Y-43663220D02*
X85121485Y-43663220D01*
X85121485Y-43663220D02*
X85311961Y-43710839D01*
X85311961Y-43710839D02*
X85407200Y-43806077D01*
X85407200Y-43806077D02*
X85454819Y-43901315D01*
X85454819Y-43901315D02*
X85454819Y-44091791D01*
X85454819Y-44091791D02*
X85407200Y-44187029D01*
X85407200Y-44187029D02*
X85311961Y-44282267D01*
X85311961Y-44282267D02*
X85121485Y-44329886D01*
X85121485Y-44329886D02*
X84788152Y-44329886D01*
X84788152Y-44329886D02*
X84597676Y-44282267D01*
X84597676Y-44282267D02*
X84502438Y-44187029D01*
X84502438Y-44187029D02*
X84454819Y-44091791D01*
X85454819Y-42758458D02*
X85454819Y-43234648D01*
X85454819Y-43234648D02*
X84454819Y-43234648D01*
X85169104Y-42472743D02*
X85169104Y-41996553D01*
X85454819Y-42567981D02*
X84454819Y-42234648D01*
X84454819Y-42234648D02*
X85454819Y-41901315D01*
X84454819Y-41710838D02*
X84454819Y-41139410D01*
X85454819Y-41425124D02*
X84454819Y-41425124D01*
X85454819Y-40806076D02*
X84454819Y-40806076D01*
X84454819Y-40139410D02*
X84454819Y-39948934D01*
X84454819Y-39948934D02*
X84502438Y-39853696D01*
X84502438Y-39853696D02*
X84597676Y-39758458D01*
X84597676Y-39758458D02*
X84788152Y-39710839D01*
X84788152Y-39710839D02*
X85121485Y-39710839D01*
X85121485Y-39710839D02*
X85311961Y-39758458D01*
X85311961Y-39758458D02*
X85407200Y-39853696D01*
X85407200Y-39853696D02*
X85454819Y-39948934D01*
X85454819Y-39948934D02*
X85454819Y-40139410D01*
X85454819Y-40139410D02*
X85407200Y-40234648D01*
X85407200Y-40234648D02*
X85311961Y-40329886D01*
X85311961Y-40329886D02*
X85121485Y-40377505D01*
X85121485Y-40377505D02*
X84788152Y-40377505D01*
X84788152Y-40377505D02*
X84597676Y-40329886D01*
X84597676Y-40329886D02*
X84502438Y-40234648D01*
X84502438Y-40234648D02*
X84454819Y-40139410D01*
X85454819Y-39282267D02*
X84454819Y-39282267D01*
X84454819Y-39282267D02*
X85454819Y-38710839D01*
X85454819Y-38710839D02*
X84454819Y-38710839D01*
X28327255Y-32204485D02*
X28898684Y-32204485D01*
X28212969Y-32547342D02*
X28612969Y-31347342D01*
X28612969Y-31347342D02*
X29012969Y-32547342D01*
X29412969Y-32547342D02*
X29412969Y-31347342D01*
X29412969Y-31347342D02*
X30098683Y-32547342D01*
X30098683Y-32547342D02*
X30098683Y-31347342D01*
X30612969Y-32204485D02*
X31184398Y-32204485D01*
X30498683Y-32547342D02*
X30898683Y-31347342D01*
X30898683Y-31347342D02*
X31298683Y-32547342D01*
X32270111Y-32547342D02*
X31698683Y-32547342D01*
X31698683Y-32547342D02*
X31698683Y-31347342D01*
X32898683Y-31347342D02*
X33127255Y-31347342D01*
X33127255Y-31347342D02*
X33241540Y-31404485D01*
X33241540Y-31404485D02*
X33355826Y-31518771D01*
X33355826Y-31518771D02*
X33412969Y-31747342D01*
X33412969Y-31747342D02*
X33412969Y-32147342D01*
X33412969Y-32147342D02*
X33355826Y-32375914D01*
X33355826Y-32375914D02*
X33241540Y-32490200D01*
X33241540Y-32490200D02*
X33127255Y-32547342D01*
X33127255Y-32547342D02*
X32898683Y-32547342D01*
X32898683Y-32547342D02*
X32784398Y-32490200D01*
X32784398Y-32490200D02*
X32670112Y-32375914D01*
X32670112Y-32375914D02*
X32612969Y-32147342D01*
X32612969Y-32147342D02*
X32612969Y-31747342D01*
X32612969Y-31747342D02*
X32670112Y-31518771D01*
X32670112Y-31518771D02*
X32784398Y-31404485D01*
X32784398Y-31404485D02*
X32898683Y-31347342D01*
X34555826Y-31404485D02*
X34441541Y-31347342D01*
X34441541Y-31347342D02*
X34270112Y-31347342D01*
X34270112Y-31347342D02*
X34098683Y-31404485D01*
X34098683Y-31404485D02*
X33984398Y-31518771D01*
X33984398Y-31518771D02*
X33927255Y-31633057D01*
X33927255Y-31633057D02*
X33870112Y-31861628D01*
X33870112Y-31861628D02*
X33870112Y-32033057D01*
X33870112Y-32033057D02*
X33927255Y-32261628D01*
X33927255Y-32261628D02*
X33984398Y-32375914D01*
X33984398Y-32375914D02*
X34098683Y-32490200D01*
X34098683Y-32490200D02*
X34270112Y-32547342D01*
X34270112Y-32547342D02*
X34384398Y-32547342D01*
X34384398Y-32547342D02*
X34555826Y-32490200D01*
X34555826Y-32490200D02*
X34612969Y-32433057D01*
X34612969Y-32433057D02*
X34612969Y-32033057D01*
X34612969Y-32033057D02*
X34384398Y-32033057D01*
X36041541Y-32547342D02*
X36041541Y-31347342D01*
X36612970Y-32547342D02*
X36612970Y-31347342D01*
X36612970Y-31347342D02*
X37298684Y-32547342D01*
X37298684Y-32547342D02*
X37298684Y-31347342D01*
X37870113Y-32547342D02*
X37870113Y-31347342D01*
X37870113Y-31347342D02*
X38327256Y-31347342D01*
X38327256Y-31347342D02*
X38441541Y-31404485D01*
X38441541Y-31404485D02*
X38498684Y-31461628D01*
X38498684Y-31461628D02*
X38555827Y-31575914D01*
X38555827Y-31575914D02*
X38555827Y-31747342D01*
X38555827Y-31747342D02*
X38498684Y-31861628D01*
X38498684Y-31861628D02*
X38441541Y-31918771D01*
X38441541Y-31918771D02*
X38327256Y-31975914D01*
X38327256Y-31975914D02*
X37870113Y-31975914D01*
X39070113Y-31347342D02*
X39070113Y-32318771D01*
X39070113Y-32318771D02*
X39127256Y-32433057D01*
X39127256Y-32433057D02*
X39184399Y-32490200D01*
X39184399Y-32490200D02*
X39298684Y-32547342D01*
X39298684Y-32547342D02*
X39527256Y-32547342D01*
X39527256Y-32547342D02*
X39641541Y-32490200D01*
X39641541Y-32490200D02*
X39698684Y-32433057D01*
X39698684Y-32433057D02*
X39755827Y-32318771D01*
X39755827Y-32318771D02*
X39755827Y-31347342D01*
X40155827Y-31347342D02*
X40841542Y-31347342D01*
X40498684Y-32547342D02*
X40498684Y-31347342D01*
X42155828Y-32090200D02*
X43070114Y-32090200D01*
X44955828Y-31918771D02*
X44555828Y-31918771D01*
X44555828Y-32547342D02*
X44555828Y-31347342D01*
X44555828Y-31347342D02*
X45127256Y-31347342D01*
X45527256Y-32490200D02*
X45698685Y-32547342D01*
X45698685Y-32547342D02*
X45984399Y-32547342D01*
X45984399Y-32547342D02*
X46098685Y-32490200D01*
X46098685Y-32490200D02*
X46155827Y-32433057D01*
X46155827Y-32433057D02*
X46212970Y-32318771D01*
X46212970Y-32318771D02*
X46212970Y-32204485D01*
X46212970Y-32204485D02*
X46155827Y-32090200D01*
X46155827Y-32090200D02*
X46098685Y-32033057D01*
X46098685Y-32033057D02*
X45984399Y-31975914D01*
X45984399Y-31975914D02*
X45755827Y-31918771D01*
X45755827Y-31918771D02*
X45641542Y-31861628D01*
X45641542Y-31861628D02*
X45584399Y-31804485D01*
X45584399Y-31804485D02*
X45527256Y-31690200D01*
X45527256Y-31690200D02*
X45527256Y-31575914D01*
X45527256Y-31575914D02*
X45584399Y-31461628D01*
X45584399Y-31461628D02*
X45641542Y-31404485D01*
X45641542Y-31404485D02*
X45755827Y-31347342D01*
X45755827Y-31347342D02*
X46041542Y-31347342D01*
X46041542Y-31347342D02*
X46212970Y-31404485D01*
X47412970Y-32547342D02*
X47012970Y-31975914D01*
X46727256Y-32547342D02*
X46727256Y-31347342D01*
X46727256Y-31347342D02*
X47184399Y-31347342D01*
X47184399Y-31347342D02*
X47298684Y-31404485D01*
X47298684Y-31404485D02*
X47355827Y-31461628D01*
X47355827Y-31461628D02*
X47412970Y-31575914D01*
X47412970Y-31575914D02*
X47412970Y-31747342D01*
X47412970Y-31747342D02*
X47355827Y-31861628D01*
X47355827Y-31861628D02*
X47298684Y-31918771D01*
X47298684Y-31918771D02*
X47184399Y-31975914D01*
X47184399Y-31975914D02*
X46727256Y-31975914D01*
X48841542Y-32547342D02*
X48841542Y-31347342D01*
X48841542Y-31347342D02*
X49527256Y-32547342D01*
X49527256Y-32547342D02*
X49527256Y-31347342D01*
X50327256Y-31347342D02*
X50555828Y-31347342D01*
X50555828Y-31347342D02*
X50670113Y-31404485D01*
X50670113Y-31404485D02*
X50784399Y-31518771D01*
X50784399Y-31518771D02*
X50841542Y-31747342D01*
X50841542Y-31747342D02*
X50841542Y-32147342D01*
X50841542Y-32147342D02*
X50784399Y-32375914D01*
X50784399Y-32375914D02*
X50670113Y-32490200D01*
X50670113Y-32490200D02*
X50555828Y-32547342D01*
X50555828Y-32547342D02*
X50327256Y-32547342D01*
X50327256Y-32547342D02*
X50212971Y-32490200D01*
X50212971Y-32490200D02*
X50098685Y-32375914D01*
X50098685Y-32375914D02*
X50041542Y-32147342D01*
X50041542Y-32147342D02*
X50041542Y-31747342D01*
X50041542Y-31747342D02*
X50098685Y-31518771D01*
X50098685Y-31518771D02*
X50212971Y-31404485D01*
X50212971Y-31404485D02*
X50327256Y-31347342D01*
X51184399Y-31347342D02*
X51870114Y-31347342D01*
X51527256Y-32547342D02*
X51527256Y-31347342D01*
X52270114Y-31918771D02*
X52670114Y-31918771D01*
X52841542Y-32547342D02*
X52270114Y-32547342D01*
X52270114Y-32547342D02*
X52270114Y-31347342D01*
X52270114Y-31347342D02*
X52841542Y-31347342D01*
X54270114Y-32547342D02*
X54270114Y-31347342D01*
X54955828Y-32547342D02*
X54441542Y-31861628D01*
X54955828Y-31347342D02*
X54270114Y-32033057D01*
X55470114Y-31918771D02*
X55870114Y-31918771D01*
X56041542Y-32547342D02*
X55470114Y-32547342D01*
X55470114Y-32547342D02*
X55470114Y-31347342D01*
X55470114Y-31347342D02*
X56041542Y-31347342D01*
X56784399Y-31975914D02*
X56784399Y-32547342D01*
X56384399Y-31347342D02*
X56784399Y-31975914D01*
X56784399Y-31975914D02*
X57184399Y-31347342D01*
X57527256Y-32490200D02*
X57698685Y-32547342D01*
X57698685Y-32547342D02*
X57984399Y-32547342D01*
X57984399Y-32547342D02*
X58098685Y-32490200D01*
X58098685Y-32490200D02*
X58155827Y-32433057D01*
X58155827Y-32433057D02*
X58212970Y-32318771D01*
X58212970Y-32318771D02*
X58212970Y-32204485D01*
X58212970Y-32204485D02*
X58155827Y-32090200D01*
X58155827Y-32090200D02*
X58098685Y-32033057D01*
X58098685Y-32033057D02*
X57984399Y-31975914D01*
X57984399Y-31975914D02*
X57755827Y-31918771D01*
X57755827Y-31918771D02*
X57641542Y-31861628D01*
X57641542Y-31861628D02*
X57584399Y-31804485D01*
X57584399Y-31804485D02*
X57527256Y-31690200D01*
X57527256Y-31690200D02*
X57527256Y-31575914D01*
X57527256Y-31575914D02*
X57584399Y-31461628D01*
X57584399Y-31461628D02*
X57641542Y-31404485D01*
X57641542Y-31404485D02*
X57755827Y-31347342D01*
X57755827Y-31347342D02*
X58041542Y-31347342D01*
X58041542Y-31347342D02*
X58212970Y-31404485D01*
X28384398Y-82547342D02*
X28384398Y-81347342D01*
X28384398Y-81347342D02*
X28670112Y-81347342D01*
X28670112Y-81347342D02*
X28841541Y-81404485D01*
X28841541Y-81404485D02*
X28955826Y-81518771D01*
X28955826Y-81518771D02*
X29012969Y-81633057D01*
X29012969Y-81633057D02*
X29070112Y-81861628D01*
X29070112Y-81861628D02*
X29070112Y-82033057D01*
X29070112Y-82033057D02*
X29012969Y-82261628D01*
X29012969Y-82261628D02*
X28955826Y-82375914D01*
X28955826Y-82375914D02*
X28841541Y-82490200D01*
X28841541Y-82490200D02*
X28670112Y-82547342D01*
X28670112Y-82547342D02*
X28384398Y-82547342D01*
X29584398Y-82547342D02*
X29584398Y-81347342D01*
X30784398Y-81404485D02*
X30670113Y-81347342D01*
X30670113Y-81347342D02*
X30498684Y-81347342D01*
X30498684Y-81347342D02*
X30327255Y-81404485D01*
X30327255Y-81404485D02*
X30212970Y-81518771D01*
X30212970Y-81518771D02*
X30155827Y-81633057D01*
X30155827Y-81633057D02*
X30098684Y-81861628D01*
X30098684Y-81861628D02*
X30098684Y-82033057D01*
X30098684Y-82033057D02*
X30155827Y-82261628D01*
X30155827Y-82261628D02*
X30212970Y-82375914D01*
X30212970Y-82375914D02*
X30327255Y-82490200D01*
X30327255Y-82490200D02*
X30498684Y-82547342D01*
X30498684Y-82547342D02*
X30612970Y-82547342D01*
X30612970Y-82547342D02*
X30784398Y-82490200D01*
X30784398Y-82490200D02*
X30841541Y-82433057D01*
X30841541Y-82433057D02*
X30841541Y-82033057D01*
X30841541Y-82033057D02*
X30612970Y-82033057D01*
X31355827Y-82547342D02*
X31355827Y-81347342D01*
X31755827Y-81347342D02*
X32441542Y-81347342D01*
X32098684Y-82547342D02*
X32098684Y-81347342D01*
X32784399Y-82204485D02*
X33355828Y-82204485D01*
X32670113Y-82547342D02*
X33070113Y-81347342D01*
X33070113Y-81347342D02*
X33470113Y-82547342D01*
X34441541Y-82547342D02*
X33870113Y-82547342D01*
X33870113Y-82547342D02*
X33870113Y-81347342D01*
X35755828Y-82547342D02*
X35755828Y-81347342D01*
X36327257Y-82547342D02*
X36327257Y-81347342D01*
X36327257Y-81347342D02*
X37012971Y-82547342D01*
X37012971Y-82547342D02*
X37012971Y-81347342D01*
X37584400Y-82547342D02*
X37584400Y-81347342D01*
X37584400Y-81347342D02*
X38041543Y-81347342D01*
X38041543Y-81347342D02*
X38155828Y-81404485D01*
X38155828Y-81404485D02*
X38212971Y-81461628D01*
X38212971Y-81461628D02*
X38270114Y-81575914D01*
X38270114Y-81575914D02*
X38270114Y-81747342D01*
X38270114Y-81747342D02*
X38212971Y-81861628D01*
X38212971Y-81861628D02*
X38155828Y-81918771D01*
X38155828Y-81918771D02*
X38041543Y-81975914D01*
X38041543Y-81975914D02*
X37584400Y-81975914D01*
X38784400Y-81347342D02*
X38784400Y-82318771D01*
X38784400Y-82318771D02*
X38841543Y-82433057D01*
X38841543Y-82433057D02*
X38898686Y-82490200D01*
X38898686Y-82490200D02*
X39012971Y-82547342D01*
X39012971Y-82547342D02*
X39241543Y-82547342D01*
X39241543Y-82547342D02*
X39355828Y-82490200D01*
X39355828Y-82490200D02*
X39412971Y-82433057D01*
X39412971Y-82433057D02*
X39470114Y-82318771D01*
X39470114Y-82318771D02*
X39470114Y-81347342D01*
X39870114Y-81347342D02*
X40555829Y-81347342D01*
X40212971Y-82547342D02*
X40212971Y-81347342D01*
X41870115Y-81918771D02*
X42270115Y-81918771D01*
X42441543Y-82547342D02*
X41870115Y-82547342D01*
X41870115Y-82547342D02*
X41870115Y-81347342D01*
X41870115Y-81347342D02*
X42441543Y-81347342D01*
X42841543Y-81347342D02*
X43641543Y-82547342D01*
X43641543Y-81347342D02*
X42841543Y-82547342D01*
X44098686Y-82547342D02*
X44098686Y-81347342D01*
X44098686Y-81347342D02*
X44555829Y-81347342D01*
X44555829Y-81347342D02*
X44670114Y-81404485D01*
X44670114Y-81404485D02*
X44727257Y-81461628D01*
X44727257Y-81461628D02*
X44784400Y-81575914D01*
X44784400Y-81575914D02*
X44784400Y-81747342D01*
X44784400Y-81747342D02*
X44727257Y-81861628D01*
X44727257Y-81861628D02*
X44670114Y-81918771D01*
X44670114Y-81918771D02*
X44555829Y-81975914D01*
X44555829Y-81975914D02*
X44098686Y-81975914D01*
X45241543Y-82204485D02*
X45812972Y-82204485D01*
X45127257Y-82547342D02*
X45527257Y-81347342D01*
X45527257Y-81347342D02*
X45927257Y-82547342D01*
X46327257Y-82547342D02*
X46327257Y-81347342D01*
X46327257Y-81347342D02*
X47012971Y-82547342D01*
X47012971Y-82547342D02*
X47012971Y-81347342D01*
X47527257Y-82490200D02*
X47698686Y-82547342D01*
X47698686Y-82547342D02*
X47984400Y-82547342D01*
X47984400Y-82547342D02*
X48098686Y-82490200D01*
X48098686Y-82490200D02*
X48155828Y-82433057D01*
X48155828Y-82433057D02*
X48212971Y-82318771D01*
X48212971Y-82318771D02*
X48212971Y-82204485D01*
X48212971Y-82204485D02*
X48155828Y-82090200D01*
X48155828Y-82090200D02*
X48098686Y-82033057D01*
X48098686Y-82033057D02*
X47984400Y-81975914D01*
X47984400Y-81975914D02*
X47755828Y-81918771D01*
X47755828Y-81918771D02*
X47641543Y-81861628D01*
X47641543Y-81861628D02*
X47584400Y-81804485D01*
X47584400Y-81804485D02*
X47527257Y-81690200D01*
X47527257Y-81690200D02*
X47527257Y-81575914D01*
X47527257Y-81575914D02*
X47584400Y-81461628D01*
X47584400Y-81461628D02*
X47641543Y-81404485D01*
X47641543Y-81404485D02*
X47755828Y-81347342D01*
X47755828Y-81347342D02*
X48041543Y-81347342D01*
X48041543Y-81347342D02*
X48212971Y-81404485D01*
X48727257Y-82547342D02*
X48727257Y-81347342D01*
X49527257Y-81347342D02*
X49755829Y-81347342D01*
X49755829Y-81347342D02*
X49870114Y-81404485D01*
X49870114Y-81404485D02*
X49984400Y-81518771D01*
X49984400Y-81518771D02*
X50041543Y-81747342D01*
X50041543Y-81747342D02*
X50041543Y-82147342D01*
X50041543Y-82147342D02*
X49984400Y-82375914D01*
X49984400Y-82375914D02*
X49870114Y-82490200D01*
X49870114Y-82490200D02*
X49755829Y-82547342D01*
X49755829Y-82547342D02*
X49527257Y-82547342D01*
X49527257Y-82547342D02*
X49412972Y-82490200D01*
X49412972Y-82490200D02*
X49298686Y-82375914D01*
X49298686Y-82375914D02*
X49241543Y-82147342D01*
X49241543Y-82147342D02*
X49241543Y-81747342D01*
X49241543Y-81747342D02*
X49298686Y-81518771D01*
X49298686Y-81518771D02*
X49412972Y-81404485D01*
X49412972Y-81404485D02*
X49527257Y-81347342D01*
X50555829Y-82547342D02*
X50555829Y-81347342D01*
X50555829Y-81347342D02*
X51241543Y-82547342D01*
X51241543Y-82547342D02*
X51241543Y-81347342D01*
X53070115Y-83004485D02*
X53012972Y-82947342D01*
X53012972Y-82947342D02*
X52898686Y-82775914D01*
X52898686Y-82775914D02*
X52841544Y-82661628D01*
X52841544Y-82661628D02*
X52784401Y-82490200D01*
X52784401Y-82490200D02*
X52727258Y-82204485D01*
X52727258Y-82204485D02*
X52727258Y-81975914D01*
X52727258Y-81975914D02*
X52784401Y-81690200D01*
X52784401Y-81690200D02*
X52841544Y-81518771D01*
X52841544Y-81518771D02*
X52898686Y-81404485D01*
X52898686Y-81404485D02*
X53012972Y-81233057D01*
X53012972Y-81233057D02*
X53070115Y-81175914D01*
X53527258Y-82547342D02*
X53527258Y-81347342D01*
X53527258Y-81347342D02*
X53812972Y-81347342D01*
X53812972Y-81347342D02*
X53984401Y-81404485D01*
X53984401Y-81404485D02*
X54098686Y-81518771D01*
X54098686Y-81518771D02*
X54155829Y-81633057D01*
X54155829Y-81633057D02*
X54212972Y-81861628D01*
X54212972Y-81861628D02*
X54212972Y-82033057D01*
X54212972Y-82033057D02*
X54155829Y-82261628D01*
X54155829Y-82261628D02*
X54098686Y-82375914D01*
X54098686Y-82375914D02*
X53984401Y-82490200D01*
X53984401Y-82490200D02*
X53812972Y-82547342D01*
X53812972Y-82547342D02*
X53527258Y-82547342D01*
X54727258Y-82547342D02*
X54727258Y-81347342D01*
X54727258Y-81347342D02*
X55412972Y-82547342D01*
X55412972Y-82547342D02*
X55412972Y-81347342D01*
X55984401Y-82547342D02*
X55984401Y-81347342D01*
X55984401Y-81347342D02*
X56441544Y-81347342D01*
X56441544Y-81347342D02*
X56555829Y-81404485D01*
X56555829Y-81404485D02*
X56612972Y-81461628D01*
X56612972Y-81461628D02*
X56670115Y-81575914D01*
X56670115Y-81575914D02*
X56670115Y-81747342D01*
X56670115Y-81747342D02*
X56612972Y-81861628D01*
X56612972Y-81861628D02*
X56555829Y-81918771D01*
X56555829Y-81918771D02*
X56441544Y-81975914D01*
X56441544Y-81975914D02*
X55984401Y-81975914D01*
X57070115Y-83004485D02*
X57127258Y-82947342D01*
X57127258Y-82947342D02*
X57241544Y-82775914D01*
X57241544Y-82775914D02*
X57298687Y-82661628D01*
X57298687Y-82661628D02*
X57355829Y-82490200D01*
X57355829Y-82490200D02*
X57412972Y-82204485D01*
X57412972Y-82204485D02*
X57412972Y-81975914D01*
X57412972Y-81975914D02*
X57355829Y-81690200D01*
X57355829Y-81690200D02*
X57298687Y-81518771D01*
X57298687Y-81518771D02*
X57241544Y-81404485D01*
X57241544Y-81404485D02*
X57127258Y-81233057D01*
X57127258Y-81233057D02*
X57070115Y-81175914D01*
X95384398Y-14547342D02*
X95384398Y-13347342D01*
X95384398Y-13347342D02*
X95784398Y-14204485D01*
X95784398Y-14204485D02*
X96184398Y-13347342D01*
X96184398Y-13347342D02*
X96184398Y-14547342D01*
X96984398Y-13347342D02*
X97212970Y-13347342D01*
X97212970Y-13347342D02*
X97327255Y-13404485D01*
X97327255Y-13404485D02*
X97441541Y-13518771D01*
X97441541Y-13518771D02*
X97498684Y-13747342D01*
X97498684Y-13747342D02*
X97498684Y-14147342D01*
X97498684Y-14147342D02*
X97441541Y-14375914D01*
X97441541Y-14375914D02*
X97327255Y-14490200D01*
X97327255Y-14490200D02*
X97212970Y-14547342D01*
X97212970Y-14547342D02*
X96984398Y-14547342D01*
X96984398Y-14547342D02*
X96870113Y-14490200D01*
X96870113Y-14490200D02*
X96755827Y-14375914D01*
X96755827Y-14375914D02*
X96698684Y-14147342D01*
X96698684Y-14147342D02*
X96698684Y-13747342D01*
X96698684Y-13747342D02*
X96755827Y-13518771D01*
X96755827Y-13518771D02*
X96870113Y-13404485D01*
X96870113Y-13404485D02*
X96984398Y-13347342D01*
X97841541Y-13347342D02*
X98527256Y-13347342D01*
X98184398Y-14547342D02*
X98184398Y-13347342D01*
X99155827Y-13347342D02*
X99384399Y-13347342D01*
X99384399Y-13347342D02*
X99498684Y-13404485D01*
X99498684Y-13404485D02*
X99612970Y-13518771D01*
X99612970Y-13518771D02*
X99670113Y-13747342D01*
X99670113Y-13747342D02*
X99670113Y-14147342D01*
X99670113Y-14147342D02*
X99612970Y-14375914D01*
X99612970Y-14375914D02*
X99498684Y-14490200D01*
X99498684Y-14490200D02*
X99384399Y-14547342D01*
X99384399Y-14547342D02*
X99155827Y-14547342D01*
X99155827Y-14547342D02*
X99041542Y-14490200D01*
X99041542Y-14490200D02*
X98927256Y-14375914D01*
X98927256Y-14375914D02*
X98870113Y-14147342D01*
X98870113Y-14147342D02*
X98870113Y-13747342D01*
X98870113Y-13747342D02*
X98927256Y-13518771D01*
X98927256Y-13518771D02*
X99041542Y-13404485D01*
X99041542Y-13404485D02*
X99155827Y-13347342D01*
X100870113Y-14547342D02*
X100470113Y-13975914D01*
X100184399Y-14547342D02*
X100184399Y-13347342D01*
X100184399Y-13347342D02*
X100641542Y-13347342D01*
X100641542Y-13347342D02*
X100755827Y-13404485D01*
X100755827Y-13404485D02*
X100812970Y-13461628D01*
X100812970Y-13461628D02*
X100870113Y-13575914D01*
X100870113Y-13575914D02*
X100870113Y-13747342D01*
X100870113Y-13747342D02*
X100812970Y-13861628D01*
X100812970Y-13861628D02*
X100755827Y-13918771D01*
X100755827Y-13918771D02*
X100641542Y-13975914D01*
X100641542Y-13975914D02*
X100184399Y-13975914D01*
X102298685Y-14547342D02*
X102298685Y-13347342D01*
X102298685Y-13347342D02*
X102584399Y-13347342D01*
X102584399Y-13347342D02*
X102755828Y-13404485D01*
X102755828Y-13404485D02*
X102870113Y-13518771D01*
X102870113Y-13518771D02*
X102927256Y-13633057D01*
X102927256Y-13633057D02*
X102984399Y-13861628D01*
X102984399Y-13861628D02*
X102984399Y-14033057D01*
X102984399Y-14033057D02*
X102927256Y-14261628D01*
X102927256Y-14261628D02*
X102870113Y-14375914D01*
X102870113Y-14375914D02*
X102755828Y-14490200D01*
X102755828Y-14490200D02*
X102584399Y-14547342D01*
X102584399Y-14547342D02*
X102298685Y-14547342D01*
X104184399Y-14547342D02*
X103784399Y-13975914D01*
X103498685Y-14547342D02*
X103498685Y-13347342D01*
X103498685Y-13347342D02*
X103955828Y-13347342D01*
X103955828Y-13347342D02*
X104070113Y-13404485D01*
X104070113Y-13404485D02*
X104127256Y-13461628D01*
X104127256Y-13461628D02*
X104184399Y-13575914D01*
X104184399Y-13575914D02*
X104184399Y-13747342D01*
X104184399Y-13747342D02*
X104127256Y-13861628D01*
X104127256Y-13861628D02*
X104070113Y-13918771D01*
X104070113Y-13918771D02*
X103955828Y-13975914D01*
X103955828Y-13975914D02*
X103498685Y-13975914D01*
X104698685Y-14547342D02*
X104698685Y-13347342D01*
X105098685Y-13347342D02*
X105498685Y-14547342D01*
X105498685Y-14547342D02*
X105898685Y-13347342D01*
X106298685Y-13918771D02*
X106698685Y-13918771D01*
X106870113Y-14547342D02*
X106298685Y-14547342D01*
X106298685Y-14547342D02*
X106298685Y-13347342D01*
X106298685Y-13347342D02*
X106870113Y-13347342D01*
X108070113Y-14547342D02*
X107670113Y-13975914D01*
X107384399Y-14547342D02*
X107384399Y-13347342D01*
X107384399Y-13347342D02*
X107841542Y-13347342D01*
X107841542Y-13347342D02*
X107955827Y-13404485D01*
X107955827Y-13404485D02*
X108012970Y-13461628D01*
X108012970Y-13461628D02*
X108070113Y-13575914D01*
X108070113Y-13575914D02*
X108070113Y-13747342D01*
X108070113Y-13747342D02*
X108012970Y-13861628D01*
X108012970Y-13861628D02*
X107955827Y-13918771D01*
X107955827Y-13918771D02*
X107841542Y-13975914D01*
X107841542Y-13975914D02*
X107384399Y-13975914D01*
X109384399Y-13347342D02*
X110184399Y-13347342D01*
X110184399Y-13347342D02*
X109384399Y-14547342D01*
X109384399Y-14547342D02*
X110184399Y-14547342D01*
X110870113Y-13347342D02*
X111098685Y-13347342D01*
X111098685Y-13347342D02*
X111212970Y-13404485D01*
X111212970Y-13404485D02*
X111327256Y-13518771D01*
X111327256Y-13518771D02*
X111384399Y-13747342D01*
X111384399Y-13747342D02*
X111384399Y-14147342D01*
X111384399Y-14147342D02*
X111327256Y-14375914D01*
X111327256Y-14375914D02*
X111212970Y-14490200D01*
X111212970Y-14490200D02*
X111098685Y-14547342D01*
X111098685Y-14547342D02*
X110870113Y-14547342D01*
X110870113Y-14547342D02*
X110755828Y-14490200D01*
X110755828Y-14490200D02*
X110641542Y-14375914D01*
X110641542Y-14375914D02*
X110584399Y-14147342D01*
X110584399Y-14147342D02*
X110584399Y-13747342D01*
X110584399Y-13747342D02*
X110641542Y-13518771D01*
X110641542Y-13518771D02*
X110755828Y-13404485D01*
X110755828Y-13404485D02*
X110870113Y-13347342D01*
X111898685Y-14547342D02*
X111898685Y-13347342D01*
X111898685Y-13347342D02*
X112584399Y-14547342D01*
X112584399Y-14547342D02*
X112584399Y-13347342D01*
X113155828Y-13918771D02*
X113555828Y-13918771D01*
X113727256Y-14547342D02*
X113155828Y-14547342D01*
X113155828Y-14547342D02*
X113155828Y-13347342D01*
X113155828Y-13347342D02*
X113727256Y-13347342D01*
X118585714Y-84404485D02*
X118471429Y-84347342D01*
X118471429Y-84347342D02*
X118300000Y-84347342D01*
X118300000Y-84347342D02*
X118128571Y-84404485D01*
X118128571Y-84404485D02*
X118014286Y-84518771D01*
X118014286Y-84518771D02*
X117957143Y-84633057D01*
X117957143Y-84633057D02*
X117900000Y-84861628D01*
X117900000Y-84861628D02*
X117900000Y-85033057D01*
X117900000Y-85033057D02*
X117957143Y-85261628D01*
X117957143Y-85261628D02*
X118014286Y-85375914D01*
X118014286Y-85375914D02*
X118128571Y-85490200D01*
X118128571Y-85490200D02*
X118300000Y-85547342D01*
X118300000Y-85547342D02*
X118414286Y-85547342D01*
X118414286Y-85547342D02*
X118585714Y-85490200D01*
X118585714Y-85490200D02*
X118642857Y-85433057D01*
X118642857Y-85433057D02*
X118642857Y-85033057D01*
X118642857Y-85033057D02*
X118414286Y-85033057D01*
X119157143Y-85547342D02*
X119157143Y-84347342D01*
X119157143Y-84347342D02*
X119842857Y-85547342D01*
X119842857Y-85547342D02*
X119842857Y-84347342D01*
X120414286Y-85547342D02*
X120414286Y-84347342D01*
X120414286Y-84347342D02*
X120700000Y-84347342D01*
X120700000Y-84347342D02*
X120871429Y-84404485D01*
X120871429Y-84404485D02*
X120985714Y-84518771D01*
X120985714Y-84518771D02*
X121042857Y-84633057D01*
X121042857Y-84633057D02*
X121100000Y-84861628D01*
X121100000Y-84861628D02*
X121100000Y-85033057D01*
X121100000Y-85033057D02*
X121042857Y-85261628D01*
X121042857Y-85261628D02*
X120985714Y-85375914D01*
X120985714Y-85375914D02*
X120871429Y-85490200D01*
X120871429Y-85490200D02*
X120700000Y-85547342D01*
X120700000Y-85547342D02*
X120414286Y-85547342D01*
X124042857Y-85090200D02*
X124957143Y-85090200D01*
X124500000Y-85547342D02*
X124500000Y-84633057D01*
X142842857Y-16820200D02*
X143757143Y-16820200D01*
X143300000Y-17277342D02*
X143300000Y-16363057D01*
X142842857Y-19360200D02*
X143757143Y-19360200D01*
X142842857Y-25320200D02*
X143757143Y-25320200D01*
X143300000Y-25777342D02*
X143300000Y-24863057D01*
X142842857Y-27860200D02*
X143757143Y-27860200D01*
X142842857Y-33820200D02*
X143757143Y-33820200D01*
X143300000Y-34277342D02*
X143300000Y-33363057D01*
X142842857Y-36360200D02*
X143757143Y-36360200D01*
X142842857Y-42320200D02*
X143757143Y-42320200D01*
X143300000Y-42777342D02*
X143300000Y-41863057D01*
X142842857Y-44860200D02*
X143757143Y-44860200D01*
X142842857Y-50820200D02*
X143757143Y-50820200D01*
X143300000Y-51277342D02*
X143300000Y-50363057D01*
X142842857Y-53360200D02*
X143757143Y-53360200D01*
X142842857Y-59320200D02*
X143757143Y-59320200D01*
X143300000Y-59777342D02*
X143300000Y-58863057D01*
X142842857Y-61860200D02*
X143757143Y-61860200D01*
X142842857Y-67820200D02*
X143757143Y-67820200D01*
X143300000Y-68277342D02*
X143300000Y-67363057D01*
X142842857Y-70360200D02*
X143757143Y-70360200D01*
X142842857Y-76320200D02*
X143757143Y-76320200D01*
X143300000Y-76777342D02*
X143300000Y-75863057D01*
X142842857Y-78860200D02*
X143757143Y-78860200D01*
X80832017Y-4239866D02*
X80832017Y-5239866D01*
X80832017Y-5239866D02*
X80765350Y-5439866D01*
X80765350Y-5439866D02*
X80632017Y-5573200D01*
X80632017Y-5573200D02*
X80432017Y-5639866D01*
X80432017Y-5639866D02*
X80298684Y-5639866D01*
X81432017Y-5239866D02*
X82098684Y-5239866D01*
X81298684Y-5639866D02*
X81765351Y-4239866D01*
X81765351Y-4239866D02*
X82232017Y-5639866D01*
X83365351Y-5639866D02*
X82698684Y-5639866D01*
X82698684Y-5639866D02*
X82698684Y-4239866D01*
X83765350Y-5239866D02*
X84432017Y-5239866D01*
X83632017Y-5639866D02*
X84098684Y-4239866D01*
X84098684Y-4239866D02*
X84565350Y-5639866D01*
X85032017Y-5639866D02*
X85032017Y-4239866D01*
X85032017Y-4239866D02*
X85365350Y-4239866D01*
X85365350Y-4239866D02*
X85565350Y-4306533D01*
X85565350Y-4306533D02*
X85698684Y-4439866D01*
X85698684Y-4439866D02*
X85765350Y-4573200D01*
X85765350Y-4573200D02*
X85832017Y-4839866D01*
X85832017Y-4839866D02*
X85832017Y-5039866D01*
X85832017Y-5039866D02*
X85765350Y-5306533D01*
X85765350Y-5306533D02*
X85698684Y-5439866D01*
X85698684Y-5439866D02*
X85565350Y-5573200D01*
X85565350Y-5573200D02*
X85365350Y-5639866D01*
X85365350Y-5639866D02*
X85032017Y-5639866D01*
X86365350Y-5239866D02*
X87032017Y-5239866D01*
X86232017Y-5639866D02*
X86698684Y-4239866D01*
X86698684Y-4239866D02*
X87165350Y-5639866D01*
X88432017Y-5639866D02*
X87965350Y-4973200D01*
X87632017Y-5639866D02*
X87632017Y-4239866D01*
X87632017Y-4239866D02*
X88165350Y-4239866D01*
X88165350Y-4239866D02*
X88298684Y-4306533D01*
X88298684Y-4306533D02*
X88365350Y-4373200D01*
X88365350Y-4373200D02*
X88432017Y-4506533D01*
X88432017Y-4506533D02*
X88432017Y-4706533D01*
X88432017Y-4706533D02*
X88365350Y-4839866D01*
X88365350Y-4839866D02*
X88298684Y-4906533D01*
X88298684Y-4906533D02*
X88165350Y-4973200D01*
X88165350Y-4973200D02*
X87632017Y-4973200D01*
X88965350Y-5239866D02*
X89632017Y-5239866D01*
X88832017Y-5639866D02*
X89298684Y-4239866D01*
X89298684Y-4239866D02*
X89765350Y-5639866D01*
X90232017Y-5639866D02*
X90232017Y-4239866D01*
X90232017Y-4239866D02*
X91032017Y-5639866D01*
X91032017Y-5639866D02*
X91032017Y-4239866D01*
X92432017Y-4306533D02*
X92298684Y-4239866D01*
X92298684Y-4239866D02*
X92098684Y-4239866D01*
X92098684Y-4239866D02*
X91898684Y-4306533D01*
X91898684Y-4306533D02*
X91765351Y-4439866D01*
X91765351Y-4439866D02*
X91698684Y-4573200D01*
X91698684Y-4573200D02*
X91632017Y-4839866D01*
X91632017Y-4839866D02*
X91632017Y-5039866D01*
X91632017Y-5039866D02*
X91698684Y-5306533D01*
X91698684Y-5306533D02*
X91765351Y-5439866D01*
X91765351Y-5439866D02*
X91898684Y-5573200D01*
X91898684Y-5573200D02*
X92098684Y-5639866D01*
X92098684Y-5639866D02*
X92232017Y-5639866D01*
X92232017Y-5639866D02*
X92432017Y-5573200D01*
X92432017Y-5573200D02*
X92498684Y-5506533D01*
X92498684Y-5506533D02*
X92498684Y-5039866D01*
X92498684Y-5039866D02*
X92232017Y-5039866D01*
X93032017Y-5239866D02*
X93698684Y-5239866D01*
X92898684Y-5639866D02*
X93365351Y-4239866D01*
X93365351Y-4239866D02*
X93832017Y-5639866D01*
X94298684Y-5639866D02*
X94298684Y-4239866D01*
X94298684Y-4239866D02*
X94765351Y-5239866D01*
X94765351Y-5239866D02*
X95232017Y-4239866D01*
X95232017Y-4239866D02*
X95232017Y-5639866D01*
X96965351Y-5639866D02*
X96965351Y-4239866D01*
X97632018Y-5639866D02*
X97632018Y-4239866D01*
X97632018Y-4239866D02*
X98432018Y-5639866D01*
X98432018Y-5639866D02*
X98432018Y-4239866D01*
X99032018Y-5573200D02*
X99232018Y-5639866D01*
X99232018Y-5639866D02*
X99565352Y-5639866D01*
X99565352Y-5639866D02*
X99698685Y-5573200D01*
X99698685Y-5573200D02*
X99765352Y-5506533D01*
X99765352Y-5506533D02*
X99832018Y-5373200D01*
X99832018Y-5373200D02*
X99832018Y-5239866D01*
X99832018Y-5239866D02*
X99765352Y-5106533D01*
X99765352Y-5106533D02*
X99698685Y-5039866D01*
X99698685Y-5039866D02*
X99565352Y-4973200D01*
X99565352Y-4973200D02*
X99298685Y-4906533D01*
X99298685Y-4906533D02*
X99165352Y-4839866D01*
X99165352Y-4839866D02*
X99098685Y-4773200D01*
X99098685Y-4773200D02*
X99032018Y-4639866D01*
X99032018Y-4639866D02*
X99032018Y-4506533D01*
X99032018Y-4506533D02*
X99098685Y-4373200D01*
X99098685Y-4373200D02*
X99165352Y-4306533D01*
X99165352Y-4306533D02*
X99298685Y-4239866D01*
X99298685Y-4239866D02*
X99632018Y-4239866D01*
X99632018Y-4239866D02*
X99832018Y-4306533D01*
X100232018Y-4239866D02*
X101032018Y-4239866D01*
X100632018Y-5639866D02*
X100632018Y-4239866D01*
X102298685Y-5639866D02*
X101832018Y-4973200D01*
X101498685Y-5639866D02*
X101498685Y-4239866D01*
X101498685Y-4239866D02*
X102032018Y-4239866D01*
X102032018Y-4239866D02*
X102165352Y-4306533D01*
X102165352Y-4306533D02*
X102232018Y-4373200D01*
X102232018Y-4373200D02*
X102298685Y-4506533D01*
X102298685Y-4506533D02*
X102298685Y-4706533D01*
X102298685Y-4706533D02*
X102232018Y-4839866D01*
X102232018Y-4839866D02*
X102165352Y-4906533D01*
X102165352Y-4906533D02*
X102032018Y-4973200D01*
X102032018Y-4973200D02*
X101498685Y-4973200D01*
X102898685Y-4239866D02*
X102898685Y-5373200D01*
X102898685Y-5373200D02*
X102965352Y-5506533D01*
X102965352Y-5506533D02*
X103032018Y-5573200D01*
X103032018Y-5573200D02*
X103165352Y-5639866D01*
X103165352Y-5639866D02*
X103432018Y-5639866D01*
X103432018Y-5639866D02*
X103565352Y-5573200D01*
X103565352Y-5573200D02*
X103632018Y-5506533D01*
X103632018Y-5506533D02*
X103698685Y-5373200D01*
X103698685Y-5373200D02*
X103698685Y-4239866D01*
X104365352Y-5639866D02*
X104365352Y-4239866D01*
X104365352Y-4239866D02*
X104832019Y-5239866D01*
X104832019Y-5239866D02*
X105298685Y-4239866D01*
X105298685Y-4239866D02*
X105298685Y-5639866D01*
X105965352Y-4906533D02*
X106432019Y-4906533D01*
X106632019Y-5639866D02*
X105965352Y-5639866D01*
X105965352Y-5639866D02*
X105965352Y-4239866D01*
X105965352Y-4239866D02*
X106632019Y-4239866D01*
X107232019Y-5639866D02*
X107232019Y-4239866D01*
X107232019Y-4239866D02*
X108032019Y-5639866D01*
X108032019Y-5639866D02*
X108032019Y-4239866D01*
X108498686Y-4239866D02*
X109298686Y-4239866D01*
X108898686Y-5639866D02*
X108898686Y-4239866D01*
X111632020Y-5506533D02*
X111565353Y-5573200D01*
X111565353Y-5573200D02*
X111365353Y-5639866D01*
X111365353Y-5639866D02*
X111232020Y-5639866D01*
X111232020Y-5639866D02*
X111032020Y-5573200D01*
X111032020Y-5573200D02*
X110898687Y-5439866D01*
X110898687Y-5439866D02*
X110832020Y-5306533D01*
X110832020Y-5306533D02*
X110765353Y-5039866D01*
X110765353Y-5039866D02*
X110765353Y-4839866D01*
X110765353Y-4839866D02*
X110832020Y-4573200D01*
X110832020Y-4573200D02*
X110898687Y-4439866D01*
X110898687Y-4439866D02*
X111032020Y-4306533D01*
X111032020Y-4306533D02*
X111232020Y-4239866D01*
X111232020Y-4239866D02*
X111365353Y-4239866D01*
X111365353Y-4239866D02*
X111565353Y-4306533D01*
X111565353Y-4306533D02*
X111632020Y-4373200D01*
X112498687Y-4239866D02*
X112765353Y-4239866D01*
X112765353Y-4239866D02*
X112898687Y-4306533D01*
X112898687Y-4306533D02*
X113032020Y-4439866D01*
X113032020Y-4439866D02*
X113098687Y-4706533D01*
X113098687Y-4706533D02*
X113098687Y-5173200D01*
X113098687Y-5173200D02*
X113032020Y-5439866D01*
X113032020Y-5439866D02*
X112898687Y-5573200D01*
X112898687Y-5573200D02*
X112765353Y-5639866D01*
X112765353Y-5639866D02*
X112498687Y-5639866D01*
X112498687Y-5639866D02*
X112365353Y-5573200D01*
X112365353Y-5573200D02*
X112232020Y-5439866D01*
X112232020Y-5439866D02*
X112165353Y-5173200D01*
X112165353Y-5173200D02*
X112165353Y-4706533D01*
X112165353Y-4706533D02*
X112232020Y-4439866D01*
X112232020Y-4439866D02*
X112365353Y-4306533D01*
X112365353Y-4306533D02*
X112498687Y-4239866D01*
X113698687Y-5639866D02*
X113698687Y-4239866D01*
X113698687Y-4239866D02*
X114498687Y-5639866D01*
X114498687Y-5639866D02*
X114498687Y-4239866D01*
X114965354Y-4239866D02*
X115765354Y-4239866D01*
X115365354Y-5639866D02*
X115365354Y-4239866D01*
X117032021Y-5639866D02*
X116565354Y-4973200D01*
X116232021Y-5639866D02*
X116232021Y-4239866D01*
X116232021Y-4239866D02*
X116765354Y-4239866D01*
X116765354Y-4239866D02*
X116898688Y-4306533D01*
X116898688Y-4306533D02*
X116965354Y-4373200D01*
X116965354Y-4373200D02*
X117032021Y-4506533D01*
X117032021Y-4506533D02*
X117032021Y-4706533D01*
X117032021Y-4706533D02*
X116965354Y-4839866D01*
X116965354Y-4839866D02*
X116898688Y-4906533D01*
X116898688Y-4906533D02*
X116765354Y-4973200D01*
X116765354Y-4973200D02*
X116232021Y-4973200D01*
X117898688Y-4239866D02*
X118165354Y-4239866D01*
X118165354Y-4239866D02*
X118298688Y-4306533D01*
X118298688Y-4306533D02*
X118432021Y-4439866D01*
X118432021Y-4439866D02*
X118498688Y-4706533D01*
X118498688Y-4706533D02*
X118498688Y-5173200D01*
X118498688Y-5173200D02*
X118432021Y-5439866D01*
X118432021Y-5439866D02*
X118298688Y-5573200D01*
X118298688Y-5573200D02*
X118165354Y-5639866D01*
X118165354Y-5639866D02*
X117898688Y-5639866D01*
X117898688Y-5639866D02*
X117765354Y-5573200D01*
X117765354Y-5573200D02*
X117632021Y-5439866D01*
X117632021Y-5439866D02*
X117565354Y-5173200D01*
X117565354Y-5173200D02*
X117565354Y-4706533D01*
X117565354Y-4706533D02*
X117632021Y-4439866D01*
X117632021Y-4439866D02*
X117765354Y-4306533D01*
X117765354Y-4306533D02*
X117898688Y-4239866D01*
X119765355Y-5639866D02*
X119098688Y-5639866D01*
X119098688Y-5639866D02*
X119098688Y-4239866D01*
X121765355Y-4906533D02*
X121965355Y-4973200D01*
X121965355Y-4973200D02*
X122032021Y-5039866D01*
X122032021Y-5039866D02*
X122098688Y-5173200D01*
X122098688Y-5173200D02*
X122098688Y-5373200D01*
X122098688Y-5373200D02*
X122032021Y-5506533D01*
X122032021Y-5506533D02*
X121965355Y-5573200D01*
X121965355Y-5573200D02*
X121832021Y-5639866D01*
X121832021Y-5639866D02*
X121298688Y-5639866D01*
X121298688Y-5639866D02*
X121298688Y-4239866D01*
X121298688Y-4239866D02*
X121765355Y-4239866D01*
X121765355Y-4239866D02*
X121898688Y-4306533D01*
X121898688Y-4306533D02*
X121965355Y-4373200D01*
X121965355Y-4373200D02*
X122032021Y-4506533D01*
X122032021Y-4506533D02*
X122032021Y-4639866D01*
X122032021Y-4639866D02*
X121965355Y-4773200D01*
X121965355Y-4773200D02*
X121898688Y-4839866D01*
X121898688Y-4839866D02*
X121765355Y-4906533D01*
X121765355Y-4906533D02*
X121298688Y-4906533D01*
X122965355Y-4239866D02*
X123232021Y-4239866D01*
X123232021Y-4239866D02*
X123365355Y-4306533D01*
X123365355Y-4306533D02*
X123498688Y-4439866D01*
X123498688Y-4439866D02*
X123565355Y-4706533D01*
X123565355Y-4706533D02*
X123565355Y-5173200D01*
X123565355Y-5173200D02*
X123498688Y-5439866D01*
X123498688Y-5439866D02*
X123365355Y-5573200D01*
X123365355Y-5573200D02*
X123232021Y-5639866D01*
X123232021Y-5639866D02*
X122965355Y-5639866D01*
X122965355Y-5639866D02*
X122832021Y-5573200D01*
X122832021Y-5573200D02*
X122698688Y-5439866D01*
X122698688Y-5439866D02*
X122632021Y-5173200D01*
X122632021Y-5173200D02*
X122632021Y-4706533D01*
X122632021Y-4706533D02*
X122698688Y-4439866D01*
X122698688Y-4439866D02*
X122832021Y-4306533D01*
X122832021Y-4306533D02*
X122965355Y-4239866D01*
X124098688Y-5239866D02*
X124765355Y-5239866D01*
X123965355Y-5639866D02*
X124432022Y-4239866D01*
X124432022Y-4239866D02*
X124898688Y-5639866D01*
X126165355Y-5639866D02*
X125698688Y-4973200D01*
X125365355Y-5639866D02*
X125365355Y-4239866D01*
X125365355Y-4239866D02*
X125898688Y-4239866D01*
X125898688Y-4239866D02*
X126032022Y-4306533D01*
X126032022Y-4306533D02*
X126098688Y-4373200D01*
X126098688Y-4373200D02*
X126165355Y-4506533D01*
X126165355Y-4506533D02*
X126165355Y-4706533D01*
X126165355Y-4706533D02*
X126098688Y-4839866D01*
X126098688Y-4839866D02*
X126032022Y-4906533D01*
X126032022Y-4906533D02*
X125898688Y-4973200D01*
X125898688Y-4973200D02*
X125365355Y-4973200D01*
X126765355Y-5639866D02*
X126765355Y-4239866D01*
X126765355Y-4239866D02*
X127098688Y-4239866D01*
X127098688Y-4239866D02*
X127298688Y-4306533D01*
X127298688Y-4306533D02*
X127432022Y-4439866D01*
X127432022Y-4439866D02*
X127498688Y-4573200D01*
X127498688Y-4573200D02*
X127565355Y-4839866D01*
X127565355Y-4839866D02*
X127565355Y-5039866D01*
X127565355Y-5039866D02*
X127498688Y-5306533D01*
X127498688Y-5306533D02*
X127432022Y-5439866D01*
X127432022Y-5439866D02*
X127298688Y-5573200D01*
X127298688Y-5573200D02*
X127098688Y-5639866D01*
X127098688Y-5639866D02*
X126765355Y-5639866D01*
X131098689Y-5639866D02*
X130632022Y-4973200D01*
X130298689Y-5639866D02*
X130298689Y-4239866D01*
X130298689Y-4239866D02*
X130832022Y-4239866D01*
X130832022Y-4239866D02*
X130965356Y-4306533D01*
X130965356Y-4306533D02*
X131032022Y-4373200D01*
X131032022Y-4373200D02*
X131098689Y-4506533D01*
X131098689Y-4506533D02*
X131098689Y-4706533D01*
X131098689Y-4706533D02*
X131032022Y-4839866D01*
X131032022Y-4839866D02*
X130965356Y-4906533D01*
X130965356Y-4906533D02*
X130832022Y-4973200D01*
X130832022Y-4973200D02*
X130298689Y-4973200D01*
X131698689Y-4906533D02*
X132165356Y-4906533D01*
X132365356Y-5639866D02*
X131698689Y-5639866D01*
X131698689Y-5639866D02*
X131698689Y-4239866D01*
X131698689Y-4239866D02*
X132365356Y-4239866D01*
X132765356Y-4239866D02*
X133232023Y-5639866D01*
X133232023Y-5639866D02*
X133698689Y-4239866D01*
X135165356Y-5239866D02*
X135832023Y-5239866D01*
X135032023Y-5639866D02*
X135498690Y-4239866D01*
X135498690Y-4239866D02*
X135965356Y-5639866D01*
X138190476Y-47804819D02*
X138190476Y-48519104D01*
X138190476Y-48519104D02*
X138142857Y-48661961D01*
X138142857Y-48661961D02*
X138047619Y-48757200D01*
X138047619Y-48757200D02*
X137904762Y-48804819D01*
X137904762Y-48804819D02*
X137809524Y-48804819D01*
X139190476Y-48804819D02*
X138619048Y-48804819D01*
X138904762Y-48804819D02*
X138904762Y-47804819D01*
X138904762Y-47804819D02*
X138809524Y-47947676D01*
X138809524Y-47947676D02*
X138714286Y-48042914D01*
X138714286Y-48042914D02*
X138619048Y-48090533D01*
X140047619Y-48138152D02*
X140047619Y-48804819D01*
X139809524Y-47757200D02*
X139571429Y-48471485D01*
X139571429Y-48471485D02*
X140190476Y-48471485D01*
X52084819Y-74642857D02*
X51608628Y-74976190D01*
X52084819Y-75214285D02*
X51084819Y-75214285D01*
X51084819Y-75214285D02*
X51084819Y-74833333D01*
X51084819Y-74833333D02*
X51132438Y-74738095D01*
X51132438Y-74738095D02*
X51180057Y-74690476D01*
X51180057Y-74690476D02*
X51275295Y-74642857D01*
X51275295Y-74642857D02*
X51418152Y-74642857D01*
X51418152Y-74642857D02*
X51513390Y-74690476D01*
X51513390Y-74690476D02*
X51561009Y-74738095D01*
X51561009Y-74738095D02*
X51608628Y-74833333D01*
X51608628Y-74833333D02*
X51608628Y-75214285D01*
X52084819Y-73690476D02*
X52084819Y-74261904D01*
X52084819Y-73976190D02*
X51084819Y-73976190D01*
X51084819Y-73976190D02*
X51227676Y-74071428D01*
X51227676Y-74071428D02*
X51322914Y-74166666D01*
X51322914Y-74166666D02*
X51370533Y-74261904D01*
X51084819Y-73357142D02*
X51084819Y-72738095D01*
X51084819Y-72738095D02*
X51465771Y-73071428D01*
X51465771Y-73071428D02*
X51465771Y-72928571D01*
X51465771Y-72928571D02*
X51513390Y-72833333D01*
X51513390Y-72833333D02*
X51561009Y-72785714D01*
X51561009Y-72785714D02*
X51656247Y-72738095D01*
X51656247Y-72738095D02*
X51894342Y-72738095D01*
X51894342Y-72738095D02*
X51989580Y-72785714D01*
X51989580Y-72785714D02*
X52037200Y-72833333D01*
X52037200Y-72833333D02*
X52084819Y-72928571D01*
X52084819Y-72928571D02*
X52084819Y-73214285D01*
X52084819Y-73214285D02*
X52037200Y-73309523D01*
X52037200Y-73309523D02*
X51989580Y-73357142D01*
X138190476Y-73304819D02*
X138190476Y-74019104D01*
X138190476Y-74019104D02*
X138142857Y-74161961D01*
X138142857Y-74161961D02*
X138047619Y-74257200D01*
X138047619Y-74257200D02*
X137904762Y-74304819D01*
X137904762Y-74304819D02*
X137809524Y-74304819D01*
X139190476Y-74304819D02*
X138619048Y-74304819D01*
X138904762Y-74304819D02*
X138904762Y-73304819D01*
X138904762Y-73304819D02*
X138809524Y-73447676D01*
X138809524Y-73447676D02*
X138714286Y-73542914D01*
X138714286Y-73542914D02*
X138619048Y-73590533D01*
X139523810Y-73304819D02*
X140190476Y-73304819D01*
X140190476Y-73304819D02*
X139761905Y-74304819D01*
X15833333Y-27859580D02*
X15785714Y-27907200D01*
X15785714Y-27907200D02*
X15642857Y-27954819D01*
X15642857Y-27954819D02*
X15547619Y-27954819D01*
X15547619Y-27954819D02*
X15404762Y-27907200D01*
X15404762Y-27907200D02*
X15309524Y-27811961D01*
X15309524Y-27811961D02*
X15261905Y-27716723D01*
X15261905Y-27716723D02*
X15214286Y-27526247D01*
X15214286Y-27526247D02*
X15214286Y-27383390D01*
X15214286Y-27383390D02*
X15261905Y-27192914D01*
X15261905Y-27192914D02*
X15309524Y-27097676D01*
X15309524Y-27097676D02*
X15404762Y-27002438D01*
X15404762Y-27002438D02*
X15547619Y-26954819D01*
X15547619Y-26954819D02*
X15642857Y-26954819D01*
X15642857Y-26954819D02*
X15785714Y-27002438D01*
X15785714Y-27002438D02*
X15833333Y-27050057D01*
X16690476Y-26954819D02*
X16500000Y-26954819D01*
X16500000Y-26954819D02*
X16404762Y-27002438D01*
X16404762Y-27002438D02*
X16357143Y-27050057D01*
X16357143Y-27050057D02*
X16261905Y-27192914D01*
X16261905Y-27192914D02*
X16214286Y-27383390D01*
X16214286Y-27383390D02*
X16214286Y-27764342D01*
X16214286Y-27764342D02*
X16261905Y-27859580D01*
X16261905Y-27859580D02*
X16309524Y-27907200D01*
X16309524Y-27907200D02*
X16404762Y-27954819D01*
X16404762Y-27954819D02*
X16595238Y-27954819D01*
X16595238Y-27954819D02*
X16690476Y-27907200D01*
X16690476Y-27907200D02*
X16738095Y-27859580D01*
X16738095Y-27859580D02*
X16785714Y-27764342D01*
X16785714Y-27764342D02*
X16785714Y-27526247D01*
X16785714Y-27526247D02*
X16738095Y-27431009D01*
X16738095Y-27431009D02*
X16690476Y-27383390D01*
X16690476Y-27383390D02*
X16595238Y-27335771D01*
X16595238Y-27335771D02*
X16404762Y-27335771D01*
X16404762Y-27335771D02*
X16309524Y-27383390D01*
X16309524Y-27383390D02*
X16261905Y-27431009D01*
X16261905Y-27431009D02*
X16214286Y-27526247D01*
X138190476Y-39304819D02*
X138190476Y-40019104D01*
X138190476Y-40019104D02*
X138142857Y-40161961D01*
X138142857Y-40161961D02*
X138047619Y-40257200D01*
X138047619Y-40257200D02*
X137904762Y-40304819D01*
X137904762Y-40304819D02*
X137809524Y-40304819D01*
X139190476Y-40304819D02*
X138619048Y-40304819D01*
X138904762Y-40304819D02*
X138904762Y-39304819D01*
X138904762Y-39304819D02*
X138809524Y-39447676D01*
X138809524Y-39447676D02*
X138714286Y-39542914D01*
X138714286Y-39542914D02*
X138619048Y-39590533D01*
X139523810Y-39304819D02*
X140142857Y-39304819D01*
X140142857Y-39304819D02*
X139809524Y-39685771D01*
X139809524Y-39685771D02*
X139952381Y-39685771D01*
X139952381Y-39685771D02*
X140047619Y-39733390D01*
X140047619Y-39733390D02*
X140095238Y-39781009D01*
X140095238Y-39781009D02*
X140142857Y-39876247D01*
X140142857Y-39876247D02*
X140142857Y-40114342D01*
X140142857Y-40114342D02*
X140095238Y-40209580D01*
X140095238Y-40209580D02*
X140047619Y-40257200D01*
X140047619Y-40257200D02*
X139952381Y-40304819D01*
X139952381Y-40304819D02*
X139666667Y-40304819D01*
X139666667Y-40304819D02*
X139571429Y-40257200D01*
X139571429Y-40257200D02*
X139523810Y-40209580D01*
X138190476Y-30804819D02*
X138190476Y-31519104D01*
X138190476Y-31519104D02*
X138142857Y-31661961D01*
X138142857Y-31661961D02*
X138047619Y-31757200D01*
X138047619Y-31757200D02*
X137904762Y-31804819D01*
X137904762Y-31804819D02*
X137809524Y-31804819D01*
X139190476Y-31804819D02*
X138619048Y-31804819D01*
X138904762Y-31804819D02*
X138904762Y-30804819D01*
X138904762Y-30804819D02*
X138809524Y-30947676D01*
X138809524Y-30947676D02*
X138714286Y-31042914D01*
X138714286Y-31042914D02*
X138619048Y-31090533D01*
X139571429Y-30900057D02*
X139619048Y-30852438D01*
X139619048Y-30852438D02*
X139714286Y-30804819D01*
X139714286Y-30804819D02*
X139952381Y-30804819D01*
X139952381Y-30804819D02*
X140047619Y-30852438D01*
X140047619Y-30852438D02*
X140095238Y-30900057D01*
X140095238Y-30900057D02*
X140142857Y-30995295D01*
X140142857Y-30995295D02*
X140142857Y-31090533D01*
X140142857Y-31090533D02*
X140095238Y-31233390D01*
X140095238Y-31233390D02*
X139523810Y-31804819D01*
X139523810Y-31804819D02*
X140142857Y-31804819D01*
X39084819Y-74642857D02*
X38608628Y-74976190D01*
X39084819Y-75214285D02*
X38084819Y-75214285D01*
X38084819Y-75214285D02*
X38084819Y-74833333D01*
X38084819Y-74833333D02*
X38132438Y-74738095D01*
X38132438Y-74738095D02*
X38180057Y-74690476D01*
X38180057Y-74690476D02*
X38275295Y-74642857D01*
X38275295Y-74642857D02*
X38418152Y-74642857D01*
X38418152Y-74642857D02*
X38513390Y-74690476D01*
X38513390Y-74690476D02*
X38561009Y-74738095D01*
X38561009Y-74738095D02*
X38608628Y-74833333D01*
X38608628Y-74833333D02*
X38608628Y-75214285D01*
X39084819Y-73690476D02*
X39084819Y-74261904D01*
X39084819Y-73976190D02*
X38084819Y-73976190D01*
X38084819Y-73976190D02*
X38227676Y-74071428D01*
X38227676Y-74071428D02*
X38322914Y-74166666D01*
X38322914Y-74166666D02*
X38370533Y-74261904D01*
X39084819Y-72738095D02*
X39084819Y-73309523D01*
X39084819Y-73023809D02*
X38084819Y-73023809D01*
X38084819Y-73023809D02*
X38227676Y-73119047D01*
X38227676Y-73119047D02*
X38322914Y-73214285D01*
X38322914Y-73214285D02*
X38370533Y-73309523D01*
X60166666Y-2804819D02*
X60166666Y-3519104D01*
X60166666Y-3519104D02*
X60119047Y-3661961D01*
X60119047Y-3661961D02*
X60023809Y-3757200D01*
X60023809Y-3757200D02*
X59880952Y-3804819D01*
X59880952Y-3804819D02*
X59785714Y-3804819D01*
X60547619Y-2804819D02*
X61214285Y-2804819D01*
X61214285Y-2804819D02*
X60785714Y-3804819D01*
X40666666Y-2804819D02*
X40666666Y-3519104D01*
X40666666Y-3519104D02*
X40619047Y-3661961D01*
X40619047Y-3661961D02*
X40523809Y-3757200D01*
X40523809Y-3757200D02*
X40380952Y-3804819D01*
X40380952Y-3804819D02*
X40285714Y-3804819D01*
X41571428Y-3138152D02*
X41571428Y-3804819D01*
X41333333Y-2757200D02*
X41095238Y-3471485D01*
X41095238Y-3471485D02*
X41714285Y-3471485D01*
X58584819Y-22166666D02*
X58108628Y-22499999D01*
X58584819Y-22738094D02*
X57584819Y-22738094D01*
X57584819Y-22738094D02*
X57584819Y-22357142D01*
X57584819Y-22357142D02*
X57632438Y-22261904D01*
X57632438Y-22261904D02*
X57680057Y-22214285D01*
X57680057Y-22214285D02*
X57775295Y-22166666D01*
X57775295Y-22166666D02*
X57918152Y-22166666D01*
X57918152Y-22166666D02*
X58013390Y-22214285D01*
X58013390Y-22214285D02*
X58061009Y-22261904D01*
X58061009Y-22261904D02*
X58108628Y-22357142D01*
X58108628Y-22357142D02*
X58108628Y-22738094D01*
X57584819Y-21309523D02*
X57584819Y-21499999D01*
X57584819Y-21499999D02*
X57632438Y-21595237D01*
X57632438Y-21595237D02*
X57680057Y-21642856D01*
X57680057Y-21642856D02*
X57822914Y-21738094D01*
X57822914Y-21738094D02*
X58013390Y-21785713D01*
X58013390Y-21785713D02*
X58394342Y-21785713D01*
X58394342Y-21785713D02*
X58489580Y-21738094D01*
X58489580Y-21738094D02*
X58537200Y-21690475D01*
X58537200Y-21690475D02*
X58584819Y-21595237D01*
X58584819Y-21595237D02*
X58584819Y-21404761D01*
X58584819Y-21404761D02*
X58537200Y-21309523D01*
X58537200Y-21309523D02*
X58489580Y-21261904D01*
X58489580Y-21261904D02*
X58394342Y-21214285D01*
X58394342Y-21214285D02*
X58156247Y-21214285D01*
X58156247Y-21214285D02*
X58061009Y-21261904D01*
X58061009Y-21261904D02*
X58013390Y-21309523D01*
X58013390Y-21309523D02*
X57965771Y-21404761D01*
X57965771Y-21404761D02*
X57965771Y-21595237D01*
X57965771Y-21595237D02*
X58013390Y-21690475D01*
X58013390Y-21690475D02*
X58061009Y-21738094D01*
X58061009Y-21738094D02*
X58156247Y-21785713D01*
X71584819Y-22166666D02*
X71108628Y-22499999D01*
X71584819Y-22738094D02*
X70584819Y-22738094D01*
X70584819Y-22738094D02*
X70584819Y-22357142D01*
X70584819Y-22357142D02*
X70632438Y-22261904D01*
X70632438Y-22261904D02*
X70680057Y-22214285D01*
X70680057Y-22214285D02*
X70775295Y-22166666D01*
X70775295Y-22166666D02*
X70918152Y-22166666D01*
X70918152Y-22166666D02*
X71013390Y-22214285D01*
X71013390Y-22214285D02*
X71061009Y-22261904D01*
X71061009Y-22261904D02*
X71108628Y-22357142D01*
X71108628Y-22357142D02*
X71108628Y-22738094D01*
X71013390Y-21595237D02*
X70965771Y-21690475D01*
X70965771Y-21690475D02*
X70918152Y-21738094D01*
X70918152Y-21738094D02*
X70822914Y-21785713D01*
X70822914Y-21785713D02*
X70775295Y-21785713D01*
X70775295Y-21785713D02*
X70680057Y-21738094D01*
X70680057Y-21738094D02*
X70632438Y-21690475D01*
X70632438Y-21690475D02*
X70584819Y-21595237D01*
X70584819Y-21595237D02*
X70584819Y-21404761D01*
X70584819Y-21404761D02*
X70632438Y-21309523D01*
X70632438Y-21309523D02*
X70680057Y-21261904D01*
X70680057Y-21261904D02*
X70775295Y-21214285D01*
X70775295Y-21214285D02*
X70822914Y-21214285D01*
X70822914Y-21214285D02*
X70918152Y-21261904D01*
X70918152Y-21261904D02*
X70965771Y-21309523D01*
X70965771Y-21309523D02*
X71013390Y-21404761D01*
X71013390Y-21404761D02*
X71013390Y-21595237D01*
X71013390Y-21595237D02*
X71061009Y-21690475D01*
X71061009Y-21690475D02*
X71108628Y-21738094D01*
X71108628Y-21738094D02*
X71203866Y-21785713D01*
X71203866Y-21785713D02*
X71394342Y-21785713D01*
X71394342Y-21785713D02*
X71489580Y-21738094D01*
X71489580Y-21738094D02*
X71537200Y-21690475D01*
X71537200Y-21690475D02*
X71584819Y-21595237D01*
X71584819Y-21595237D02*
X71584819Y-21404761D01*
X71584819Y-21404761D02*
X71537200Y-21309523D01*
X71537200Y-21309523D02*
X71489580Y-21261904D01*
X71489580Y-21261904D02*
X71394342Y-21214285D01*
X71394342Y-21214285D02*
X71203866Y-21214285D01*
X71203866Y-21214285D02*
X71108628Y-21261904D01*
X71108628Y-21261904D02*
X71061009Y-21309523D01*
X71061009Y-21309523D02*
X71013390Y-21404761D01*
X68833333Y-43609580D02*
X68785714Y-43657200D01*
X68785714Y-43657200D02*
X68642857Y-43704819D01*
X68642857Y-43704819D02*
X68547619Y-43704819D01*
X68547619Y-43704819D02*
X68404762Y-43657200D01*
X68404762Y-43657200D02*
X68309524Y-43561961D01*
X68309524Y-43561961D02*
X68261905Y-43466723D01*
X68261905Y-43466723D02*
X68214286Y-43276247D01*
X68214286Y-43276247D02*
X68214286Y-43133390D01*
X68214286Y-43133390D02*
X68261905Y-42942914D01*
X68261905Y-42942914D02*
X68309524Y-42847676D01*
X68309524Y-42847676D02*
X68404762Y-42752438D01*
X68404762Y-42752438D02*
X68547619Y-42704819D01*
X68547619Y-42704819D02*
X68642857Y-42704819D01*
X68642857Y-42704819D02*
X68785714Y-42752438D01*
X68785714Y-42752438D02*
X68833333Y-42800057D01*
X69214286Y-42800057D02*
X69261905Y-42752438D01*
X69261905Y-42752438D02*
X69357143Y-42704819D01*
X69357143Y-42704819D02*
X69595238Y-42704819D01*
X69595238Y-42704819D02*
X69690476Y-42752438D01*
X69690476Y-42752438D02*
X69738095Y-42800057D01*
X69738095Y-42800057D02*
X69785714Y-42895295D01*
X69785714Y-42895295D02*
X69785714Y-42990533D01*
X69785714Y-42990533D02*
X69738095Y-43133390D01*
X69738095Y-43133390D02*
X69166667Y-43704819D01*
X69166667Y-43704819D02*
X69785714Y-43704819D01*
X53666666Y-2804819D02*
X53666666Y-3519104D01*
X53666666Y-3519104D02*
X53619047Y-3661961D01*
X53619047Y-3661961D02*
X53523809Y-3757200D01*
X53523809Y-3757200D02*
X53380952Y-3804819D01*
X53380952Y-3804819D02*
X53285714Y-3804819D01*
X54571428Y-2804819D02*
X54380952Y-2804819D01*
X54380952Y-2804819D02*
X54285714Y-2852438D01*
X54285714Y-2852438D02*
X54238095Y-2900057D01*
X54238095Y-2900057D02*
X54142857Y-3042914D01*
X54142857Y-3042914D02*
X54095238Y-3233390D01*
X54095238Y-3233390D02*
X54095238Y-3614342D01*
X54095238Y-3614342D02*
X54142857Y-3709580D01*
X54142857Y-3709580D02*
X54190476Y-3757200D01*
X54190476Y-3757200D02*
X54285714Y-3804819D01*
X54285714Y-3804819D02*
X54476190Y-3804819D01*
X54476190Y-3804819D02*
X54571428Y-3757200D01*
X54571428Y-3757200D02*
X54619047Y-3709580D01*
X54619047Y-3709580D02*
X54666666Y-3614342D01*
X54666666Y-3614342D02*
X54666666Y-3376247D01*
X54666666Y-3376247D02*
X54619047Y-3281009D01*
X54619047Y-3281009D02*
X54571428Y-3233390D01*
X54571428Y-3233390D02*
X54476190Y-3185771D01*
X54476190Y-3185771D02*
X54285714Y-3185771D01*
X54285714Y-3185771D02*
X54190476Y-3233390D01*
X54190476Y-3233390D02*
X54142857Y-3281009D01*
X54142857Y-3281009D02*
X54095238Y-3376247D01*
X95833333Y-89859580D02*
X95785714Y-89907200D01*
X95785714Y-89907200D02*
X95642857Y-89954819D01*
X95642857Y-89954819D02*
X95547619Y-89954819D01*
X95547619Y-89954819D02*
X95404762Y-89907200D01*
X95404762Y-89907200D02*
X95309524Y-89811961D01*
X95309524Y-89811961D02*
X95261905Y-89716723D01*
X95261905Y-89716723D02*
X95214286Y-89526247D01*
X95214286Y-89526247D02*
X95214286Y-89383390D01*
X95214286Y-89383390D02*
X95261905Y-89192914D01*
X95261905Y-89192914D02*
X95309524Y-89097676D01*
X95309524Y-89097676D02*
X95404762Y-89002438D01*
X95404762Y-89002438D02*
X95547619Y-88954819D01*
X95547619Y-88954819D02*
X95642857Y-88954819D01*
X95642857Y-88954819D02*
X95785714Y-89002438D01*
X95785714Y-89002438D02*
X95833333Y-89050057D01*
X96738095Y-88954819D02*
X96261905Y-88954819D01*
X96261905Y-88954819D02*
X96214286Y-89431009D01*
X96214286Y-89431009D02*
X96261905Y-89383390D01*
X96261905Y-89383390D02*
X96357143Y-89335771D01*
X96357143Y-89335771D02*
X96595238Y-89335771D01*
X96595238Y-89335771D02*
X96690476Y-89383390D01*
X96690476Y-89383390D02*
X96738095Y-89431009D01*
X96738095Y-89431009D02*
X96785714Y-89526247D01*
X96785714Y-89526247D02*
X96785714Y-89764342D01*
X96785714Y-89764342D02*
X96738095Y-89859580D01*
X96738095Y-89859580D02*
X96690476Y-89907200D01*
X96690476Y-89907200D02*
X96595238Y-89954819D01*
X96595238Y-89954819D02*
X96357143Y-89954819D01*
X96357143Y-89954819D02*
X96261905Y-89907200D01*
X96261905Y-89907200D02*
X96214286Y-89859580D01*
X39084819Y-22166666D02*
X38608628Y-22499999D01*
X39084819Y-22738094D02*
X38084819Y-22738094D01*
X38084819Y-22738094D02*
X38084819Y-22357142D01*
X38084819Y-22357142D02*
X38132438Y-22261904D01*
X38132438Y-22261904D02*
X38180057Y-22214285D01*
X38180057Y-22214285D02*
X38275295Y-22166666D01*
X38275295Y-22166666D02*
X38418152Y-22166666D01*
X38418152Y-22166666D02*
X38513390Y-22214285D01*
X38513390Y-22214285D02*
X38561009Y-22261904D01*
X38561009Y-22261904D02*
X38608628Y-22357142D01*
X38608628Y-22357142D02*
X38608628Y-22738094D01*
X38084819Y-21833332D02*
X38084819Y-21214285D01*
X38084819Y-21214285D02*
X38465771Y-21547618D01*
X38465771Y-21547618D02*
X38465771Y-21404761D01*
X38465771Y-21404761D02*
X38513390Y-21309523D01*
X38513390Y-21309523D02*
X38561009Y-21261904D01*
X38561009Y-21261904D02*
X38656247Y-21214285D01*
X38656247Y-21214285D02*
X38894342Y-21214285D01*
X38894342Y-21214285D02*
X38989580Y-21261904D01*
X38989580Y-21261904D02*
X39037200Y-21309523D01*
X39037200Y-21309523D02*
X39084819Y-21404761D01*
X39084819Y-21404761D02*
X39084819Y-21690475D01*
X39084819Y-21690475D02*
X39037200Y-21785713D01*
X39037200Y-21785713D02*
X38989580Y-21833332D01*
X45584819Y-22166666D02*
X45108628Y-22499999D01*
X45584819Y-22738094D02*
X44584819Y-22738094D01*
X44584819Y-22738094D02*
X44584819Y-22357142D01*
X44584819Y-22357142D02*
X44632438Y-22261904D01*
X44632438Y-22261904D02*
X44680057Y-22214285D01*
X44680057Y-22214285D02*
X44775295Y-22166666D01*
X44775295Y-22166666D02*
X44918152Y-22166666D01*
X44918152Y-22166666D02*
X45013390Y-22214285D01*
X45013390Y-22214285D02*
X45061009Y-22261904D01*
X45061009Y-22261904D02*
X45108628Y-22357142D01*
X45108628Y-22357142D02*
X45108628Y-22738094D01*
X44918152Y-21309523D02*
X45584819Y-21309523D01*
X44537200Y-21547618D02*
X45251485Y-21785713D01*
X45251485Y-21785713D02*
X45251485Y-21166666D01*
X68833333Y-87859580D02*
X68785714Y-87907200D01*
X68785714Y-87907200D02*
X68642857Y-87954819D01*
X68642857Y-87954819D02*
X68547619Y-87954819D01*
X68547619Y-87954819D02*
X68404762Y-87907200D01*
X68404762Y-87907200D02*
X68309524Y-87811961D01*
X68309524Y-87811961D02*
X68261905Y-87716723D01*
X68261905Y-87716723D02*
X68214286Y-87526247D01*
X68214286Y-87526247D02*
X68214286Y-87383390D01*
X68214286Y-87383390D02*
X68261905Y-87192914D01*
X68261905Y-87192914D02*
X68309524Y-87097676D01*
X68309524Y-87097676D02*
X68404762Y-87002438D01*
X68404762Y-87002438D02*
X68547619Y-86954819D01*
X68547619Y-86954819D02*
X68642857Y-86954819D01*
X68642857Y-86954819D02*
X68785714Y-87002438D01*
X68785714Y-87002438D02*
X68833333Y-87050057D01*
X69690476Y-87288152D02*
X69690476Y-87954819D01*
X69452381Y-86907200D02*
X69214286Y-87621485D01*
X69214286Y-87621485D02*
X69833333Y-87621485D01*
X121440476Y-96574819D02*
X121440476Y-97289104D01*
X121440476Y-97289104D02*
X121392857Y-97431961D01*
X121392857Y-97431961D02*
X121297619Y-97527200D01*
X121297619Y-97527200D02*
X121154762Y-97574819D01*
X121154762Y-97574819D02*
X121059524Y-97574819D01*
X122440476Y-97574819D02*
X121869048Y-97574819D01*
X122154762Y-97574819D02*
X122154762Y-96574819D01*
X122154762Y-96574819D02*
X122059524Y-96717676D01*
X122059524Y-96717676D02*
X121964286Y-96812914D01*
X121964286Y-96812914D02*
X121869048Y-96860533D01*
X123011905Y-97003390D02*
X122916667Y-96955771D01*
X122916667Y-96955771D02*
X122869048Y-96908152D01*
X122869048Y-96908152D02*
X122821429Y-96812914D01*
X122821429Y-96812914D02*
X122821429Y-96765295D01*
X122821429Y-96765295D02*
X122869048Y-96670057D01*
X122869048Y-96670057D02*
X122916667Y-96622438D01*
X122916667Y-96622438D02*
X123011905Y-96574819D01*
X123011905Y-96574819D02*
X123202381Y-96574819D01*
X123202381Y-96574819D02*
X123297619Y-96622438D01*
X123297619Y-96622438D02*
X123345238Y-96670057D01*
X123345238Y-96670057D02*
X123392857Y-96765295D01*
X123392857Y-96765295D02*
X123392857Y-96812914D01*
X123392857Y-96812914D02*
X123345238Y-96908152D01*
X123345238Y-96908152D02*
X123297619Y-96955771D01*
X123297619Y-96955771D02*
X123202381Y-97003390D01*
X123202381Y-97003390D02*
X123011905Y-97003390D01*
X123011905Y-97003390D02*
X122916667Y-97051009D01*
X122916667Y-97051009D02*
X122869048Y-97098628D01*
X122869048Y-97098628D02*
X122821429Y-97193866D01*
X122821429Y-97193866D02*
X122821429Y-97384342D01*
X122821429Y-97384342D02*
X122869048Y-97479580D01*
X122869048Y-97479580D02*
X122916667Y-97527200D01*
X122916667Y-97527200D02*
X123011905Y-97574819D01*
X123011905Y-97574819D02*
X123202381Y-97574819D01*
X123202381Y-97574819D02*
X123297619Y-97527200D01*
X123297619Y-97527200D02*
X123345238Y-97479580D01*
X123345238Y-97479580D02*
X123392857Y-97384342D01*
X123392857Y-97384342D02*
X123392857Y-97193866D01*
X123392857Y-97193866D02*
X123345238Y-97098628D01*
X123345238Y-97098628D02*
X123297619Y-97051009D01*
X123297619Y-97051009D02*
X123202381Y-97003390D01*
X34166666Y-2804819D02*
X34166666Y-3519104D01*
X34166666Y-3519104D02*
X34119047Y-3661961D01*
X34119047Y-3661961D02*
X34023809Y-3757200D01*
X34023809Y-3757200D02*
X33880952Y-3804819D01*
X33880952Y-3804819D02*
X33785714Y-3804819D01*
X34547619Y-2804819D02*
X35166666Y-2804819D01*
X35166666Y-2804819D02*
X34833333Y-3185771D01*
X34833333Y-3185771D02*
X34976190Y-3185771D01*
X34976190Y-3185771D02*
X35071428Y-3233390D01*
X35071428Y-3233390D02*
X35119047Y-3281009D01*
X35119047Y-3281009D02*
X35166666Y-3376247D01*
X35166666Y-3376247D02*
X35166666Y-3614342D01*
X35166666Y-3614342D02*
X35119047Y-3709580D01*
X35119047Y-3709580D02*
X35071428Y-3757200D01*
X35071428Y-3757200D02*
X34976190Y-3804819D01*
X34976190Y-3804819D02*
X34690476Y-3804819D01*
X34690476Y-3804819D02*
X34595238Y-3757200D01*
X34595238Y-3757200D02*
X34547619Y-3709580D01*
X138190476Y-13804819D02*
X138190476Y-14519104D01*
X138190476Y-14519104D02*
X138142857Y-14661961D01*
X138142857Y-14661961D02*
X138047619Y-14757200D01*
X138047619Y-14757200D02*
X137904762Y-14804819D01*
X137904762Y-14804819D02*
X137809524Y-14804819D01*
X139190476Y-14804819D02*
X138619048Y-14804819D01*
X138904762Y-14804819D02*
X138904762Y-13804819D01*
X138904762Y-13804819D02*
X138809524Y-13947676D01*
X138809524Y-13947676D02*
X138714286Y-14042914D01*
X138714286Y-14042914D02*
X138619048Y-14090533D01*
X139809524Y-13804819D02*
X139904762Y-13804819D01*
X139904762Y-13804819D02*
X140000000Y-13852438D01*
X140000000Y-13852438D02*
X140047619Y-13900057D01*
X140047619Y-13900057D02*
X140095238Y-13995295D01*
X140095238Y-13995295D02*
X140142857Y-14185771D01*
X140142857Y-14185771D02*
X140142857Y-14423866D01*
X140142857Y-14423866D02*
X140095238Y-14614342D01*
X140095238Y-14614342D02*
X140047619Y-14709580D01*
X140047619Y-14709580D02*
X140000000Y-14757200D01*
X140000000Y-14757200D02*
X139904762Y-14804819D01*
X139904762Y-14804819D02*
X139809524Y-14804819D01*
X139809524Y-14804819D02*
X139714286Y-14757200D01*
X139714286Y-14757200D02*
X139666667Y-14709580D01*
X139666667Y-14709580D02*
X139619048Y-14614342D01*
X139619048Y-14614342D02*
X139571429Y-14423866D01*
X139571429Y-14423866D02*
X139571429Y-14185771D01*
X139571429Y-14185771D02*
X139619048Y-13995295D01*
X139619048Y-13995295D02*
X139666667Y-13900057D01*
X139666667Y-13900057D02*
X139714286Y-13852438D01*
X139714286Y-13852438D02*
X139809524Y-13804819D01*
X66666666Y-2804819D02*
X66666666Y-3519104D01*
X66666666Y-3519104D02*
X66619047Y-3661961D01*
X66619047Y-3661961D02*
X66523809Y-3757200D01*
X66523809Y-3757200D02*
X66380952Y-3804819D01*
X66380952Y-3804819D02*
X66285714Y-3804819D01*
X67285714Y-3233390D02*
X67190476Y-3185771D01*
X67190476Y-3185771D02*
X67142857Y-3138152D01*
X67142857Y-3138152D02*
X67095238Y-3042914D01*
X67095238Y-3042914D02*
X67095238Y-2995295D01*
X67095238Y-2995295D02*
X67142857Y-2900057D01*
X67142857Y-2900057D02*
X67190476Y-2852438D01*
X67190476Y-2852438D02*
X67285714Y-2804819D01*
X67285714Y-2804819D02*
X67476190Y-2804819D01*
X67476190Y-2804819D02*
X67571428Y-2852438D01*
X67571428Y-2852438D02*
X67619047Y-2900057D01*
X67619047Y-2900057D02*
X67666666Y-2995295D01*
X67666666Y-2995295D02*
X67666666Y-3042914D01*
X67666666Y-3042914D02*
X67619047Y-3138152D01*
X67619047Y-3138152D02*
X67571428Y-3185771D01*
X67571428Y-3185771D02*
X67476190Y-3233390D01*
X67476190Y-3233390D02*
X67285714Y-3233390D01*
X67285714Y-3233390D02*
X67190476Y-3281009D01*
X67190476Y-3281009D02*
X67142857Y-3328628D01*
X67142857Y-3328628D02*
X67095238Y-3423866D01*
X67095238Y-3423866D02*
X67095238Y-3614342D01*
X67095238Y-3614342D02*
X67142857Y-3709580D01*
X67142857Y-3709580D02*
X67190476Y-3757200D01*
X67190476Y-3757200D02*
X67285714Y-3804819D01*
X67285714Y-3804819D02*
X67476190Y-3804819D01*
X67476190Y-3804819D02*
X67571428Y-3757200D01*
X67571428Y-3757200D02*
X67619047Y-3709580D01*
X67619047Y-3709580D02*
X67666666Y-3614342D01*
X67666666Y-3614342D02*
X67666666Y-3423866D01*
X67666666Y-3423866D02*
X67619047Y-3328628D01*
X67619047Y-3328628D02*
X67571428Y-3281009D01*
X67571428Y-3281009D02*
X67476190Y-3233390D01*
X15833333Y-37609580D02*
X15785714Y-37657200D01*
X15785714Y-37657200D02*
X15642857Y-37704819D01*
X15642857Y-37704819D02*
X15547619Y-37704819D01*
X15547619Y-37704819D02*
X15404762Y-37657200D01*
X15404762Y-37657200D02*
X15309524Y-37561961D01*
X15309524Y-37561961D02*
X15261905Y-37466723D01*
X15261905Y-37466723D02*
X15214286Y-37276247D01*
X15214286Y-37276247D02*
X15214286Y-37133390D01*
X15214286Y-37133390D02*
X15261905Y-36942914D01*
X15261905Y-36942914D02*
X15309524Y-36847676D01*
X15309524Y-36847676D02*
X15404762Y-36752438D01*
X15404762Y-36752438D02*
X15547619Y-36704819D01*
X15547619Y-36704819D02*
X15642857Y-36704819D01*
X15642857Y-36704819D02*
X15785714Y-36752438D01*
X15785714Y-36752438D02*
X15833333Y-36800057D01*
X16166667Y-36704819D02*
X16833333Y-36704819D01*
X16833333Y-36704819D02*
X16404762Y-37704819D01*
X94234819Y-24761904D02*
X95044342Y-24761904D01*
X95044342Y-24761904D02*
X95139580Y-24714285D01*
X95139580Y-24714285D02*
X95187200Y-24666666D01*
X95187200Y-24666666D02*
X95234819Y-24571428D01*
X95234819Y-24571428D02*
X95234819Y-24380952D01*
X95234819Y-24380952D02*
X95187200Y-24285714D01*
X95187200Y-24285714D02*
X95139580Y-24238095D01*
X95139580Y-24238095D02*
X95044342Y-24190476D01*
X95044342Y-24190476D02*
X94234819Y-24190476D01*
X94330057Y-23761904D02*
X94282438Y-23714285D01*
X94282438Y-23714285D02*
X94234819Y-23619047D01*
X94234819Y-23619047D02*
X94234819Y-23380952D01*
X94234819Y-23380952D02*
X94282438Y-23285714D01*
X94282438Y-23285714D02*
X94330057Y-23238095D01*
X94330057Y-23238095D02*
X94425295Y-23190476D01*
X94425295Y-23190476D02*
X94520533Y-23190476D01*
X94520533Y-23190476D02*
X94663390Y-23238095D01*
X94663390Y-23238095D02*
X95234819Y-23809523D01*
X95234819Y-23809523D02*
X95234819Y-23190476D01*
X52084819Y-22166666D02*
X51608628Y-22499999D01*
X52084819Y-22738094D02*
X51084819Y-22738094D01*
X51084819Y-22738094D02*
X51084819Y-22357142D01*
X51084819Y-22357142D02*
X51132438Y-22261904D01*
X51132438Y-22261904D02*
X51180057Y-22214285D01*
X51180057Y-22214285D02*
X51275295Y-22166666D01*
X51275295Y-22166666D02*
X51418152Y-22166666D01*
X51418152Y-22166666D02*
X51513390Y-22214285D01*
X51513390Y-22214285D02*
X51561009Y-22261904D01*
X51561009Y-22261904D02*
X51608628Y-22357142D01*
X51608628Y-22357142D02*
X51608628Y-22738094D01*
X51084819Y-21261904D02*
X51084819Y-21738094D01*
X51084819Y-21738094D02*
X51561009Y-21785713D01*
X51561009Y-21785713D02*
X51513390Y-21738094D01*
X51513390Y-21738094D02*
X51465771Y-21642856D01*
X51465771Y-21642856D02*
X51465771Y-21404761D01*
X51465771Y-21404761D02*
X51513390Y-21309523D01*
X51513390Y-21309523D02*
X51561009Y-21261904D01*
X51561009Y-21261904D02*
X51656247Y-21214285D01*
X51656247Y-21214285D02*
X51894342Y-21214285D01*
X51894342Y-21214285D02*
X51989580Y-21261904D01*
X51989580Y-21261904D02*
X52037200Y-21309523D01*
X52037200Y-21309523D02*
X52084819Y-21404761D01*
X52084819Y-21404761D02*
X52084819Y-21642856D01*
X52084819Y-21642856D02*
X52037200Y-21738094D01*
X52037200Y-21738094D02*
X51989580Y-21785713D01*
X71584819Y-74642857D02*
X71108628Y-74976190D01*
X71584819Y-75214285D02*
X70584819Y-75214285D01*
X70584819Y-75214285D02*
X70584819Y-74833333D01*
X70584819Y-74833333D02*
X70632438Y-74738095D01*
X70632438Y-74738095D02*
X70680057Y-74690476D01*
X70680057Y-74690476D02*
X70775295Y-74642857D01*
X70775295Y-74642857D02*
X70918152Y-74642857D01*
X70918152Y-74642857D02*
X71013390Y-74690476D01*
X71013390Y-74690476D02*
X71061009Y-74738095D01*
X71061009Y-74738095D02*
X71108628Y-74833333D01*
X71108628Y-74833333D02*
X71108628Y-75214285D01*
X71584819Y-73690476D02*
X71584819Y-74261904D01*
X71584819Y-73976190D02*
X70584819Y-73976190D01*
X70584819Y-73976190D02*
X70727676Y-74071428D01*
X70727676Y-74071428D02*
X70822914Y-74166666D01*
X70822914Y-74166666D02*
X70870533Y-74261904D01*
X70584819Y-72833333D02*
X70584819Y-73023809D01*
X70584819Y-73023809D02*
X70632438Y-73119047D01*
X70632438Y-73119047D02*
X70680057Y-73166666D01*
X70680057Y-73166666D02*
X70822914Y-73261904D01*
X70822914Y-73261904D02*
X71013390Y-73309523D01*
X71013390Y-73309523D02*
X71394342Y-73309523D01*
X71394342Y-73309523D02*
X71489580Y-73261904D01*
X71489580Y-73261904D02*
X71537200Y-73214285D01*
X71537200Y-73214285D02*
X71584819Y-73119047D01*
X71584819Y-73119047D02*
X71584819Y-72928571D01*
X71584819Y-72928571D02*
X71537200Y-72833333D01*
X71537200Y-72833333D02*
X71489580Y-72785714D01*
X71489580Y-72785714D02*
X71394342Y-72738095D01*
X71394342Y-72738095D02*
X71156247Y-72738095D01*
X71156247Y-72738095D02*
X71061009Y-72785714D01*
X71061009Y-72785714D02*
X71013390Y-72833333D01*
X71013390Y-72833333D02*
X70965771Y-72928571D01*
X70965771Y-72928571D02*
X70965771Y-73119047D01*
X70965771Y-73119047D02*
X71013390Y-73214285D01*
X71013390Y-73214285D02*
X71061009Y-73261904D01*
X71061009Y-73261904D02*
X71156247Y-73309523D01*
X21644819Y-103809523D02*
X22359104Y-103809523D01*
X22359104Y-103809523D02*
X22501961Y-103857142D01*
X22501961Y-103857142D02*
X22597200Y-103952380D01*
X22597200Y-103952380D02*
X22644819Y-104095237D01*
X22644819Y-104095237D02*
X22644819Y-104190475D01*
X22644819Y-102809523D02*
X22644819Y-103380951D01*
X22644819Y-103095237D02*
X21644819Y-103095237D01*
X21644819Y-103095237D02*
X21787676Y-103190475D01*
X21787676Y-103190475D02*
X21882914Y-103285713D01*
X21882914Y-103285713D02*
X21930533Y-103380951D01*
X22644819Y-102333332D02*
X22644819Y-102142856D01*
X22644819Y-102142856D02*
X22597200Y-102047618D01*
X22597200Y-102047618D02*
X22549580Y-101999999D01*
X22549580Y-101999999D02*
X22406723Y-101904761D01*
X22406723Y-101904761D02*
X22216247Y-101857142D01*
X22216247Y-101857142D02*
X21835295Y-101857142D01*
X21835295Y-101857142D02*
X21740057Y-101904761D01*
X21740057Y-101904761D02*
X21692438Y-101952380D01*
X21692438Y-101952380D02*
X21644819Y-102047618D01*
X21644819Y-102047618D02*
X21644819Y-102238094D01*
X21644819Y-102238094D02*
X21692438Y-102333332D01*
X21692438Y-102333332D02*
X21740057Y-102380951D01*
X21740057Y-102380951D02*
X21835295Y-102428570D01*
X21835295Y-102428570D02*
X22073390Y-102428570D01*
X22073390Y-102428570D02*
X22168628Y-102380951D01*
X22168628Y-102380951D02*
X22216247Y-102333332D01*
X22216247Y-102333332D02*
X22263866Y-102238094D01*
X22263866Y-102238094D02*
X22263866Y-102047618D01*
X22263866Y-102047618D02*
X22216247Y-101952380D01*
X22216247Y-101952380D02*
X22168628Y-101904761D01*
X22168628Y-101904761D02*
X22073390Y-101857142D01*
X106833333Y-87109580D02*
X106785714Y-87157200D01*
X106785714Y-87157200D02*
X106642857Y-87204819D01*
X106642857Y-87204819D02*
X106547619Y-87204819D01*
X106547619Y-87204819D02*
X106404762Y-87157200D01*
X106404762Y-87157200D02*
X106309524Y-87061961D01*
X106309524Y-87061961D02*
X106261905Y-86966723D01*
X106261905Y-86966723D02*
X106214286Y-86776247D01*
X106214286Y-86776247D02*
X106214286Y-86633390D01*
X106214286Y-86633390D02*
X106261905Y-86442914D01*
X106261905Y-86442914D02*
X106309524Y-86347676D01*
X106309524Y-86347676D02*
X106404762Y-86252438D01*
X106404762Y-86252438D02*
X106547619Y-86204819D01*
X106547619Y-86204819D02*
X106642857Y-86204819D01*
X106642857Y-86204819D02*
X106785714Y-86252438D01*
X106785714Y-86252438D02*
X106833333Y-86300057D01*
X107404762Y-86633390D02*
X107309524Y-86585771D01*
X107309524Y-86585771D02*
X107261905Y-86538152D01*
X107261905Y-86538152D02*
X107214286Y-86442914D01*
X107214286Y-86442914D02*
X107214286Y-86395295D01*
X107214286Y-86395295D02*
X107261905Y-86300057D01*
X107261905Y-86300057D02*
X107309524Y-86252438D01*
X107309524Y-86252438D02*
X107404762Y-86204819D01*
X107404762Y-86204819D02*
X107595238Y-86204819D01*
X107595238Y-86204819D02*
X107690476Y-86252438D01*
X107690476Y-86252438D02*
X107738095Y-86300057D01*
X107738095Y-86300057D02*
X107785714Y-86395295D01*
X107785714Y-86395295D02*
X107785714Y-86442914D01*
X107785714Y-86442914D02*
X107738095Y-86538152D01*
X107738095Y-86538152D02*
X107690476Y-86585771D01*
X107690476Y-86585771D02*
X107595238Y-86633390D01*
X107595238Y-86633390D02*
X107404762Y-86633390D01*
X107404762Y-86633390D02*
X107309524Y-86681009D01*
X107309524Y-86681009D02*
X107261905Y-86728628D01*
X107261905Y-86728628D02*
X107214286Y-86823866D01*
X107214286Y-86823866D02*
X107214286Y-87014342D01*
X107214286Y-87014342D02*
X107261905Y-87109580D01*
X107261905Y-87109580D02*
X107309524Y-87157200D01*
X107309524Y-87157200D02*
X107404762Y-87204819D01*
X107404762Y-87204819D02*
X107595238Y-87204819D01*
X107595238Y-87204819D02*
X107690476Y-87157200D01*
X107690476Y-87157200D02*
X107738095Y-87109580D01*
X107738095Y-87109580D02*
X107785714Y-87014342D01*
X107785714Y-87014342D02*
X107785714Y-86823866D01*
X107785714Y-86823866D02*
X107738095Y-86728628D01*
X107738095Y-86728628D02*
X107690476Y-86681009D01*
X107690476Y-86681009D02*
X107595238Y-86633390D01*
X138190476Y-64804819D02*
X138190476Y-65519104D01*
X138190476Y-65519104D02*
X138142857Y-65661961D01*
X138142857Y-65661961D02*
X138047619Y-65757200D01*
X138047619Y-65757200D02*
X137904762Y-65804819D01*
X137904762Y-65804819D02*
X137809524Y-65804819D01*
X139190476Y-65804819D02*
X138619048Y-65804819D01*
X138904762Y-65804819D02*
X138904762Y-64804819D01*
X138904762Y-64804819D02*
X138809524Y-64947676D01*
X138809524Y-64947676D02*
X138714286Y-65042914D01*
X138714286Y-65042914D02*
X138619048Y-65090533D01*
X140047619Y-64804819D02*
X139857143Y-64804819D01*
X139857143Y-64804819D02*
X139761905Y-64852438D01*
X139761905Y-64852438D02*
X139714286Y-64900057D01*
X139714286Y-64900057D02*
X139619048Y-65042914D01*
X139619048Y-65042914D02*
X139571429Y-65233390D01*
X139571429Y-65233390D02*
X139571429Y-65614342D01*
X139571429Y-65614342D02*
X139619048Y-65709580D01*
X139619048Y-65709580D02*
X139666667Y-65757200D01*
X139666667Y-65757200D02*
X139761905Y-65804819D01*
X139761905Y-65804819D02*
X139952381Y-65804819D01*
X139952381Y-65804819D02*
X140047619Y-65757200D01*
X140047619Y-65757200D02*
X140095238Y-65709580D01*
X140095238Y-65709580D02*
X140142857Y-65614342D01*
X140142857Y-65614342D02*
X140142857Y-65376247D01*
X140142857Y-65376247D02*
X140095238Y-65281009D01*
X140095238Y-65281009D02*
X140047619Y-65233390D01*
X140047619Y-65233390D02*
X139952381Y-65185771D01*
X139952381Y-65185771D02*
X139761905Y-65185771D01*
X139761905Y-65185771D02*
X139666667Y-65233390D01*
X139666667Y-65233390D02*
X139619048Y-65281009D01*
X139619048Y-65281009D02*
X139571429Y-65376247D01*
X38234819Y-42761904D02*
X39044342Y-42761904D01*
X39044342Y-42761904D02*
X39139580Y-42714285D01*
X39139580Y-42714285D02*
X39187200Y-42666666D01*
X39187200Y-42666666D02*
X39234819Y-42571428D01*
X39234819Y-42571428D02*
X39234819Y-42380952D01*
X39234819Y-42380952D02*
X39187200Y-42285714D01*
X39187200Y-42285714D02*
X39139580Y-42238095D01*
X39139580Y-42238095D02*
X39044342Y-42190476D01*
X39044342Y-42190476D02*
X38234819Y-42190476D01*
X39234819Y-41190476D02*
X39234819Y-41761904D01*
X39234819Y-41476190D02*
X38234819Y-41476190D01*
X38234819Y-41476190D02*
X38377676Y-41571428D01*
X38377676Y-41571428D02*
X38472914Y-41666666D01*
X38472914Y-41666666D02*
X38520533Y-41761904D01*
X92964819Y-50761904D02*
X93774342Y-50761904D01*
X93774342Y-50761904D02*
X93869580Y-50714285D01*
X93869580Y-50714285D02*
X93917200Y-50666666D01*
X93917200Y-50666666D02*
X93964819Y-50571428D01*
X93964819Y-50571428D02*
X93964819Y-50380952D01*
X93964819Y-50380952D02*
X93917200Y-50285714D01*
X93917200Y-50285714D02*
X93869580Y-50238095D01*
X93869580Y-50238095D02*
X93774342Y-50190476D01*
X93774342Y-50190476D02*
X92964819Y-50190476D01*
X92964819Y-49809523D02*
X92964819Y-49190476D01*
X92964819Y-49190476D02*
X93345771Y-49523809D01*
X93345771Y-49523809D02*
X93345771Y-49380952D01*
X93345771Y-49380952D02*
X93393390Y-49285714D01*
X93393390Y-49285714D02*
X93441009Y-49238095D01*
X93441009Y-49238095D02*
X93536247Y-49190476D01*
X93536247Y-49190476D02*
X93774342Y-49190476D01*
X93774342Y-49190476D02*
X93869580Y-49238095D01*
X93869580Y-49238095D02*
X93917200Y-49285714D01*
X93917200Y-49285714D02*
X93964819Y-49380952D01*
X93964819Y-49380952D02*
X93964819Y-49666666D01*
X93964819Y-49666666D02*
X93917200Y-49761904D01*
X93917200Y-49761904D02*
X93869580Y-49809523D01*
X65084819Y-22166666D02*
X64608628Y-22499999D01*
X65084819Y-22738094D02*
X64084819Y-22738094D01*
X64084819Y-22738094D02*
X64084819Y-22357142D01*
X64084819Y-22357142D02*
X64132438Y-22261904D01*
X64132438Y-22261904D02*
X64180057Y-22214285D01*
X64180057Y-22214285D02*
X64275295Y-22166666D01*
X64275295Y-22166666D02*
X64418152Y-22166666D01*
X64418152Y-22166666D02*
X64513390Y-22214285D01*
X64513390Y-22214285D02*
X64561009Y-22261904D01*
X64561009Y-22261904D02*
X64608628Y-22357142D01*
X64608628Y-22357142D02*
X64608628Y-22738094D01*
X64084819Y-21833332D02*
X64084819Y-21166666D01*
X64084819Y-21166666D02*
X65084819Y-21595237D01*
X47166666Y-2804819D02*
X47166666Y-3519104D01*
X47166666Y-3519104D02*
X47119047Y-3661961D01*
X47119047Y-3661961D02*
X47023809Y-3757200D01*
X47023809Y-3757200D02*
X46880952Y-3804819D01*
X46880952Y-3804819D02*
X46785714Y-3804819D01*
X48119047Y-2804819D02*
X47642857Y-2804819D01*
X47642857Y-2804819D02*
X47595238Y-3281009D01*
X47595238Y-3281009D02*
X47642857Y-3233390D01*
X47642857Y-3233390D02*
X47738095Y-3185771D01*
X47738095Y-3185771D02*
X47976190Y-3185771D01*
X47976190Y-3185771D02*
X48071428Y-3233390D01*
X48071428Y-3233390D02*
X48119047Y-3281009D01*
X48119047Y-3281009D02*
X48166666Y-3376247D01*
X48166666Y-3376247D02*
X48166666Y-3614342D01*
X48166666Y-3614342D02*
X48119047Y-3709580D01*
X48119047Y-3709580D02*
X48071428Y-3757200D01*
X48071428Y-3757200D02*
X47976190Y-3804819D01*
X47976190Y-3804819D02*
X47738095Y-3804819D01*
X47738095Y-3804819D02*
X47642857Y-3757200D01*
X47642857Y-3757200D02*
X47595238Y-3709580D01*
X32584819Y-74642857D02*
X32108628Y-74976190D01*
X32584819Y-75214285D02*
X31584819Y-75214285D01*
X31584819Y-75214285D02*
X31584819Y-74833333D01*
X31584819Y-74833333D02*
X31632438Y-74738095D01*
X31632438Y-74738095D02*
X31680057Y-74690476D01*
X31680057Y-74690476D02*
X31775295Y-74642857D01*
X31775295Y-74642857D02*
X31918152Y-74642857D01*
X31918152Y-74642857D02*
X32013390Y-74690476D01*
X32013390Y-74690476D02*
X32061009Y-74738095D01*
X32061009Y-74738095D02*
X32108628Y-74833333D01*
X32108628Y-74833333D02*
X32108628Y-75214285D01*
X32584819Y-73690476D02*
X32584819Y-74261904D01*
X32584819Y-73976190D02*
X31584819Y-73976190D01*
X31584819Y-73976190D02*
X31727676Y-74071428D01*
X31727676Y-74071428D02*
X31822914Y-74166666D01*
X31822914Y-74166666D02*
X31870533Y-74261904D01*
X31584819Y-73071428D02*
X31584819Y-72976190D01*
X31584819Y-72976190D02*
X31632438Y-72880952D01*
X31632438Y-72880952D02*
X31680057Y-72833333D01*
X31680057Y-72833333D02*
X31775295Y-72785714D01*
X31775295Y-72785714D02*
X31965771Y-72738095D01*
X31965771Y-72738095D02*
X32203866Y-72738095D01*
X32203866Y-72738095D02*
X32394342Y-72785714D01*
X32394342Y-72785714D02*
X32489580Y-72833333D01*
X32489580Y-72833333D02*
X32537200Y-72880952D01*
X32537200Y-72880952D02*
X32584819Y-72976190D01*
X32584819Y-72976190D02*
X32584819Y-73071428D01*
X32584819Y-73071428D02*
X32537200Y-73166666D01*
X32537200Y-73166666D02*
X32489580Y-73214285D01*
X32489580Y-73214285D02*
X32394342Y-73261904D01*
X32394342Y-73261904D02*
X32203866Y-73309523D01*
X32203866Y-73309523D02*
X31965771Y-73309523D01*
X31965771Y-73309523D02*
X31775295Y-73261904D01*
X31775295Y-73261904D02*
X31680057Y-73214285D01*
X31680057Y-73214285D02*
X31632438Y-73166666D01*
X31632438Y-73166666D02*
X31584819Y-73071428D01*
X32584819Y-22166666D02*
X32108628Y-22499999D01*
X32584819Y-22738094D02*
X31584819Y-22738094D01*
X31584819Y-22738094D02*
X31584819Y-22357142D01*
X31584819Y-22357142D02*
X31632438Y-22261904D01*
X31632438Y-22261904D02*
X31680057Y-22214285D01*
X31680057Y-22214285D02*
X31775295Y-22166666D01*
X31775295Y-22166666D02*
X31918152Y-22166666D01*
X31918152Y-22166666D02*
X32013390Y-22214285D01*
X32013390Y-22214285D02*
X32061009Y-22261904D01*
X32061009Y-22261904D02*
X32108628Y-22357142D01*
X32108628Y-22357142D02*
X32108628Y-22738094D01*
X31680057Y-21785713D02*
X31632438Y-21738094D01*
X31632438Y-21738094D02*
X31584819Y-21642856D01*
X31584819Y-21642856D02*
X31584819Y-21404761D01*
X31584819Y-21404761D02*
X31632438Y-21309523D01*
X31632438Y-21309523D02*
X31680057Y-21261904D01*
X31680057Y-21261904D02*
X31775295Y-21214285D01*
X31775295Y-21214285D02*
X31870533Y-21214285D01*
X31870533Y-21214285D02*
X32013390Y-21261904D01*
X32013390Y-21261904D02*
X32584819Y-21833332D01*
X32584819Y-21833332D02*
X32584819Y-21214285D01*
X26084819Y-74166666D02*
X25608628Y-74499999D01*
X26084819Y-74738094D02*
X25084819Y-74738094D01*
X25084819Y-74738094D02*
X25084819Y-74357142D01*
X25084819Y-74357142D02*
X25132438Y-74261904D01*
X25132438Y-74261904D02*
X25180057Y-74214285D01*
X25180057Y-74214285D02*
X25275295Y-74166666D01*
X25275295Y-74166666D02*
X25418152Y-74166666D01*
X25418152Y-74166666D02*
X25513390Y-74214285D01*
X25513390Y-74214285D02*
X25561009Y-74261904D01*
X25561009Y-74261904D02*
X25608628Y-74357142D01*
X25608628Y-74357142D02*
X25608628Y-74738094D01*
X26084819Y-73690475D02*
X26084819Y-73499999D01*
X26084819Y-73499999D02*
X26037200Y-73404761D01*
X26037200Y-73404761D02*
X25989580Y-73357142D01*
X25989580Y-73357142D02*
X25846723Y-73261904D01*
X25846723Y-73261904D02*
X25656247Y-73214285D01*
X25656247Y-73214285D02*
X25275295Y-73214285D01*
X25275295Y-73214285D02*
X25180057Y-73261904D01*
X25180057Y-73261904D02*
X25132438Y-73309523D01*
X25132438Y-73309523D02*
X25084819Y-73404761D01*
X25084819Y-73404761D02*
X25084819Y-73595237D01*
X25084819Y-73595237D02*
X25132438Y-73690475D01*
X25132438Y-73690475D02*
X25180057Y-73738094D01*
X25180057Y-73738094D02*
X25275295Y-73785713D01*
X25275295Y-73785713D02*
X25513390Y-73785713D01*
X25513390Y-73785713D02*
X25608628Y-73738094D01*
X25608628Y-73738094D02*
X25656247Y-73690475D01*
X25656247Y-73690475D02*
X25703866Y-73595237D01*
X25703866Y-73595237D02*
X25703866Y-73404761D01*
X25703866Y-73404761D02*
X25656247Y-73309523D01*
X25656247Y-73309523D02*
X25608628Y-73261904D01*
X25608628Y-73261904D02*
X25513390Y-73214285D01*
X27666666Y-2804819D02*
X27666666Y-3519104D01*
X27666666Y-3519104D02*
X27619047Y-3661961D01*
X27619047Y-3661961D02*
X27523809Y-3757200D01*
X27523809Y-3757200D02*
X27380952Y-3804819D01*
X27380952Y-3804819D02*
X27285714Y-3804819D01*
X28095238Y-2900057D02*
X28142857Y-2852438D01*
X28142857Y-2852438D02*
X28238095Y-2804819D01*
X28238095Y-2804819D02*
X28476190Y-2804819D01*
X28476190Y-2804819D02*
X28571428Y-2852438D01*
X28571428Y-2852438D02*
X28619047Y-2900057D01*
X28619047Y-2900057D02*
X28666666Y-2995295D01*
X28666666Y-2995295D02*
X28666666Y-3090533D01*
X28666666Y-3090533D02*
X28619047Y-3233390D01*
X28619047Y-3233390D02*
X28047619Y-3804819D01*
X28047619Y-3804819D02*
X28666666Y-3804819D01*
X138190476Y-56304819D02*
X138190476Y-57019104D01*
X138190476Y-57019104D02*
X138142857Y-57161961D01*
X138142857Y-57161961D02*
X138047619Y-57257200D01*
X138047619Y-57257200D02*
X137904762Y-57304819D01*
X137904762Y-57304819D02*
X137809524Y-57304819D01*
X139190476Y-57304819D02*
X138619048Y-57304819D01*
X138904762Y-57304819D02*
X138904762Y-56304819D01*
X138904762Y-56304819D02*
X138809524Y-56447676D01*
X138809524Y-56447676D02*
X138714286Y-56542914D01*
X138714286Y-56542914D02*
X138619048Y-56590533D01*
X140095238Y-56304819D02*
X139619048Y-56304819D01*
X139619048Y-56304819D02*
X139571429Y-56781009D01*
X139571429Y-56781009D02*
X139619048Y-56733390D01*
X139619048Y-56733390D02*
X139714286Y-56685771D01*
X139714286Y-56685771D02*
X139952381Y-56685771D01*
X139952381Y-56685771D02*
X140047619Y-56733390D01*
X140047619Y-56733390D02*
X140095238Y-56781009D01*
X140095238Y-56781009D02*
X140142857Y-56876247D01*
X140142857Y-56876247D02*
X140142857Y-57114342D01*
X140142857Y-57114342D02*
X140095238Y-57209580D01*
X140095238Y-57209580D02*
X140047619Y-57257200D01*
X140047619Y-57257200D02*
X139952381Y-57304819D01*
X139952381Y-57304819D02*
X139714286Y-57304819D01*
X139714286Y-57304819D02*
X139619048Y-57257200D01*
X139619048Y-57257200D02*
X139571429Y-57209580D01*
X68833333Y-33859580D02*
X68785714Y-33907200D01*
X68785714Y-33907200D02*
X68642857Y-33954819D01*
X68642857Y-33954819D02*
X68547619Y-33954819D01*
X68547619Y-33954819D02*
X68404762Y-33907200D01*
X68404762Y-33907200D02*
X68309524Y-33811961D01*
X68309524Y-33811961D02*
X68261905Y-33716723D01*
X68261905Y-33716723D02*
X68214286Y-33526247D01*
X68214286Y-33526247D02*
X68214286Y-33383390D01*
X68214286Y-33383390D02*
X68261905Y-33192914D01*
X68261905Y-33192914D02*
X68309524Y-33097676D01*
X68309524Y-33097676D02*
X68404762Y-33002438D01*
X68404762Y-33002438D02*
X68547619Y-32954819D01*
X68547619Y-32954819D02*
X68642857Y-32954819D01*
X68642857Y-32954819D02*
X68785714Y-33002438D01*
X68785714Y-33002438D02*
X68833333Y-33050057D01*
X69785714Y-33954819D02*
X69214286Y-33954819D01*
X69500000Y-33954819D02*
X69500000Y-32954819D01*
X69500000Y-32954819D02*
X69404762Y-33097676D01*
X69404762Y-33097676D02*
X69309524Y-33192914D01*
X69309524Y-33192914D02*
X69214286Y-33240533D01*
X65084819Y-74642857D02*
X64608628Y-74976190D01*
X65084819Y-75214285D02*
X64084819Y-75214285D01*
X64084819Y-75214285D02*
X64084819Y-74833333D01*
X64084819Y-74833333D02*
X64132438Y-74738095D01*
X64132438Y-74738095D02*
X64180057Y-74690476D01*
X64180057Y-74690476D02*
X64275295Y-74642857D01*
X64275295Y-74642857D02*
X64418152Y-74642857D01*
X64418152Y-74642857D02*
X64513390Y-74690476D01*
X64513390Y-74690476D02*
X64561009Y-74738095D01*
X64561009Y-74738095D02*
X64608628Y-74833333D01*
X64608628Y-74833333D02*
X64608628Y-75214285D01*
X65084819Y-73690476D02*
X65084819Y-74261904D01*
X65084819Y-73976190D02*
X64084819Y-73976190D01*
X64084819Y-73976190D02*
X64227676Y-74071428D01*
X64227676Y-74071428D02*
X64322914Y-74166666D01*
X64322914Y-74166666D02*
X64370533Y-74261904D01*
X64084819Y-72785714D02*
X64084819Y-73261904D01*
X64084819Y-73261904D02*
X64561009Y-73309523D01*
X64561009Y-73309523D02*
X64513390Y-73261904D01*
X64513390Y-73261904D02*
X64465771Y-73166666D01*
X64465771Y-73166666D02*
X64465771Y-72928571D01*
X64465771Y-72928571D02*
X64513390Y-72833333D01*
X64513390Y-72833333D02*
X64561009Y-72785714D01*
X64561009Y-72785714D02*
X64656247Y-72738095D01*
X64656247Y-72738095D02*
X64894342Y-72738095D01*
X64894342Y-72738095D02*
X64989580Y-72785714D01*
X64989580Y-72785714D02*
X65037200Y-72833333D01*
X65037200Y-72833333D02*
X65084819Y-72928571D01*
X65084819Y-72928571D02*
X65084819Y-73166666D01*
X65084819Y-73166666D02*
X65037200Y-73261904D01*
X65037200Y-73261904D02*
X64989580Y-73309523D01*
X38234819Y-90761904D02*
X39044342Y-90761904D01*
X39044342Y-90761904D02*
X39139580Y-90714285D01*
X39139580Y-90714285D02*
X39187200Y-90666666D01*
X39187200Y-90666666D02*
X39234819Y-90571428D01*
X39234819Y-90571428D02*
X39234819Y-90380952D01*
X39234819Y-90380952D02*
X39187200Y-90285714D01*
X39187200Y-90285714D02*
X39139580Y-90238095D01*
X39139580Y-90238095D02*
X39044342Y-90190476D01*
X39044342Y-90190476D02*
X38234819Y-90190476D01*
X38568152Y-89285714D02*
X39234819Y-89285714D01*
X38187200Y-89523809D02*
X38901485Y-89761904D01*
X38901485Y-89761904D02*
X38901485Y-89142857D01*
X7666666Y-27944819D02*
X7666666Y-28659104D01*
X7666666Y-28659104D02*
X7619047Y-28801961D01*
X7619047Y-28801961D02*
X7523809Y-28897200D01*
X7523809Y-28897200D02*
X7380952Y-28944819D01*
X7380952Y-28944819D02*
X7285714Y-28944819D01*
X8666666Y-28944819D02*
X8095238Y-28944819D01*
X8380952Y-28944819D02*
X8380952Y-27944819D01*
X8380952Y-27944819D02*
X8285714Y-28087676D01*
X8285714Y-28087676D02*
X8190476Y-28182914D01*
X8190476Y-28182914D02*
X8095238Y-28230533D01*
X26084819Y-22166666D02*
X25608628Y-22499999D01*
X26084819Y-22738094D02*
X25084819Y-22738094D01*
X25084819Y-22738094D02*
X25084819Y-22357142D01*
X25084819Y-22357142D02*
X25132438Y-22261904D01*
X25132438Y-22261904D02*
X25180057Y-22214285D01*
X25180057Y-22214285D02*
X25275295Y-22166666D01*
X25275295Y-22166666D02*
X25418152Y-22166666D01*
X25418152Y-22166666D02*
X25513390Y-22214285D01*
X25513390Y-22214285D02*
X25561009Y-22261904D01*
X25561009Y-22261904D02*
X25608628Y-22357142D01*
X25608628Y-22357142D02*
X25608628Y-22738094D01*
X26084819Y-21214285D02*
X26084819Y-21785713D01*
X26084819Y-21499999D02*
X25084819Y-21499999D01*
X25084819Y-21499999D02*
X25227676Y-21595237D01*
X25227676Y-21595237D02*
X25322914Y-21690475D01*
X25322914Y-21690475D02*
X25370533Y-21785713D01*
X73166666Y-2804819D02*
X73166666Y-3519104D01*
X73166666Y-3519104D02*
X73119047Y-3661961D01*
X73119047Y-3661961D02*
X73023809Y-3757200D01*
X73023809Y-3757200D02*
X72880952Y-3804819D01*
X72880952Y-3804819D02*
X72785714Y-3804819D01*
X73690476Y-3804819D02*
X73880952Y-3804819D01*
X73880952Y-3804819D02*
X73976190Y-3757200D01*
X73976190Y-3757200D02*
X74023809Y-3709580D01*
X74023809Y-3709580D02*
X74119047Y-3566723D01*
X74119047Y-3566723D02*
X74166666Y-3376247D01*
X74166666Y-3376247D02*
X74166666Y-2995295D01*
X74166666Y-2995295D02*
X74119047Y-2900057D01*
X74119047Y-2900057D02*
X74071428Y-2852438D01*
X74071428Y-2852438D02*
X73976190Y-2804819D01*
X73976190Y-2804819D02*
X73785714Y-2804819D01*
X73785714Y-2804819D02*
X73690476Y-2852438D01*
X73690476Y-2852438D02*
X73642857Y-2900057D01*
X73642857Y-2900057D02*
X73595238Y-2995295D01*
X73595238Y-2995295D02*
X73595238Y-3233390D01*
X73595238Y-3233390D02*
X73642857Y-3328628D01*
X73642857Y-3328628D02*
X73690476Y-3376247D01*
X73690476Y-3376247D02*
X73785714Y-3423866D01*
X73785714Y-3423866D02*
X73976190Y-3423866D01*
X73976190Y-3423866D02*
X74071428Y-3376247D01*
X74071428Y-3376247D02*
X74119047Y-3328628D01*
X74119047Y-3328628D02*
X74166666Y-3233390D01*
X138190476Y-22304819D02*
X138190476Y-23019104D01*
X138190476Y-23019104D02*
X138142857Y-23161961D01*
X138142857Y-23161961D02*
X138047619Y-23257200D01*
X138047619Y-23257200D02*
X137904762Y-23304819D01*
X137904762Y-23304819D02*
X137809524Y-23304819D01*
X139190476Y-23304819D02*
X138619048Y-23304819D01*
X138904762Y-23304819D02*
X138904762Y-22304819D01*
X138904762Y-22304819D02*
X138809524Y-22447676D01*
X138809524Y-22447676D02*
X138714286Y-22542914D01*
X138714286Y-22542914D02*
X138619048Y-22590533D01*
X140142857Y-23304819D02*
X139571429Y-23304819D01*
X139857143Y-23304819D02*
X139857143Y-22304819D01*
X139857143Y-22304819D02*
X139761905Y-22447676D01*
X139761905Y-22447676D02*
X139666667Y-22542914D01*
X139666667Y-22542914D02*
X139571429Y-22590533D01*
X123833333Y-31859580D02*
X123785714Y-31907200D01*
X123785714Y-31907200D02*
X123642857Y-31954819D01*
X123642857Y-31954819D02*
X123547619Y-31954819D01*
X123547619Y-31954819D02*
X123404762Y-31907200D01*
X123404762Y-31907200D02*
X123309524Y-31811961D01*
X123309524Y-31811961D02*
X123261905Y-31716723D01*
X123261905Y-31716723D02*
X123214286Y-31526247D01*
X123214286Y-31526247D02*
X123214286Y-31383390D01*
X123214286Y-31383390D02*
X123261905Y-31192914D01*
X123261905Y-31192914D02*
X123309524Y-31097676D01*
X123309524Y-31097676D02*
X123404762Y-31002438D01*
X123404762Y-31002438D02*
X123547619Y-30954819D01*
X123547619Y-30954819D02*
X123642857Y-30954819D01*
X123642857Y-30954819D02*
X123785714Y-31002438D01*
X123785714Y-31002438D02*
X123833333Y-31050057D01*
X124166667Y-30954819D02*
X124785714Y-30954819D01*
X124785714Y-30954819D02*
X124452381Y-31335771D01*
X124452381Y-31335771D02*
X124595238Y-31335771D01*
X124595238Y-31335771D02*
X124690476Y-31383390D01*
X124690476Y-31383390D02*
X124738095Y-31431009D01*
X124738095Y-31431009D02*
X124785714Y-31526247D01*
X124785714Y-31526247D02*
X124785714Y-31764342D01*
X124785714Y-31764342D02*
X124738095Y-31859580D01*
X124738095Y-31859580D02*
X124690476Y-31907200D01*
X124690476Y-31907200D02*
X124595238Y-31954819D01*
X124595238Y-31954819D02*
X124309524Y-31954819D01*
X124309524Y-31954819D02*
X124214286Y-31907200D01*
X124214286Y-31907200D02*
X124166667Y-31859580D01*
X45584819Y-74642857D02*
X45108628Y-74976190D01*
X45584819Y-75214285D02*
X44584819Y-75214285D01*
X44584819Y-75214285D02*
X44584819Y-74833333D01*
X44584819Y-74833333D02*
X44632438Y-74738095D01*
X44632438Y-74738095D02*
X44680057Y-74690476D01*
X44680057Y-74690476D02*
X44775295Y-74642857D01*
X44775295Y-74642857D02*
X44918152Y-74642857D01*
X44918152Y-74642857D02*
X45013390Y-74690476D01*
X45013390Y-74690476D02*
X45061009Y-74738095D01*
X45061009Y-74738095D02*
X45108628Y-74833333D01*
X45108628Y-74833333D02*
X45108628Y-75214285D01*
X45584819Y-73690476D02*
X45584819Y-74261904D01*
X45584819Y-73976190D02*
X44584819Y-73976190D01*
X44584819Y-73976190D02*
X44727676Y-74071428D01*
X44727676Y-74071428D02*
X44822914Y-74166666D01*
X44822914Y-74166666D02*
X44870533Y-74261904D01*
X44680057Y-73309523D02*
X44632438Y-73261904D01*
X44632438Y-73261904D02*
X44584819Y-73166666D01*
X44584819Y-73166666D02*
X44584819Y-72928571D01*
X44584819Y-72928571D02*
X44632438Y-72833333D01*
X44632438Y-72833333D02*
X44680057Y-72785714D01*
X44680057Y-72785714D02*
X44775295Y-72738095D01*
X44775295Y-72738095D02*
X44870533Y-72738095D01*
X44870533Y-72738095D02*
X45013390Y-72785714D01*
X45013390Y-72785714D02*
X45584819Y-73357142D01*
X45584819Y-73357142D02*
X45584819Y-72738095D01*
X58584819Y-74642857D02*
X58108628Y-74976190D01*
X58584819Y-75214285D02*
X57584819Y-75214285D01*
X57584819Y-75214285D02*
X57584819Y-74833333D01*
X57584819Y-74833333D02*
X57632438Y-74738095D01*
X57632438Y-74738095D02*
X57680057Y-74690476D01*
X57680057Y-74690476D02*
X57775295Y-74642857D01*
X57775295Y-74642857D02*
X57918152Y-74642857D01*
X57918152Y-74642857D02*
X58013390Y-74690476D01*
X58013390Y-74690476D02*
X58061009Y-74738095D01*
X58061009Y-74738095D02*
X58108628Y-74833333D01*
X58108628Y-74833333D02*
X58108628Y-75214285D01*
X58584819Y-73690476D02*
X58584819Y-74261904D01*
X58584819Y-73976190D02*
X57584819Y-73976190D01*
X57584819Y-73976190D02*
X57727676Y-74071428D01*
X57727676Y-74071428D02*
X57822914Y-74166666D01*
X57822914Y-74166666D02*
X57870533Y-74261904D01*
X57918152Y-72833333D02*
X58584819Y-72833333D01*
X57537200Y-73071428D02*
X58251485Y-73309523D01*
X58251485Y-73309523D02*
X58251485Y-72690476D01*
%TO.C,J14*%
D11*
X137620000Y-49350000D02*
X139000000Y-49350000D01*
X137620000Y-50730000D02*
X137620000Y-49350000D01*
X137620000Y-52000000D02*
X137620000Y-54650000D01*
X137620000Y-52000000D02*
X140380000Y-52000000D01*
X137620000Y-54650000D02*
X140380000Y-54650000D01*
X140380000Y-52000000D02*
X140380000Y-54650000D01*
%TO.C,R13*%
X54000000Y-69960000D02*
X54000000Y-70730000D01*
X54000000Y-78040000D02*
X54000000Y-77270000D01*
X52630000Y-70730000D02*
X55370000Y-70730000D01*
X55370000Y-77270000D01*
X52630000Y-77270000D01*
X52630000Y-70730000D01*
%TO.C,J17*%
X137620000Y-74850000D02*
X139000000Y-74850000D01*
X137620000Y-76230000D02*
X137620000Y-74850000D01*
X137620000Y-77500000D02*
X137620000Y-80150000D01*
X137620000Y-77500000D02*
X140380000Y-77500000D01*
X137620000Y-80150000D02*
X140380000Y-80150000D01*
X140380000Y-77500000D02*
X140380000Y-80150000D01*
%TO.C,C6*%
X13380000Y-28630000D02*
X18620000Y-28630000D01*
X13380000Y-28967000D02*
X13380000Y-28630000D01*
X13380000Y-31370000D02*
X13380000Y-31033000D01*
X18620000Y-28630000D02*
X18620000Y-28967000D01*
X18620000Y-31033000D02*
X18620000Y-31370000D01*
X18620000Y-31370000D02*
X13380000Y-31370000D01*
%TO.C,J13*%
X137620000Y-40850000D02*
X139000000Y-40850000D01*
X137620000Y-42230000D02*
X137620000Y-40850000D01*
X137620000Y-43500000D02*
X137620000Y-46150000D01*
X137620000Y-43500000D02*
X140380000Y-43500000D01*
X137620000Y-46150000D02*
X140380000Y-46150000D01*
X140380000Y-43500000D02*
X140380000Y-46150000D01*
%TO.C,J12*%
X137620000Y-32350000D02*
X139000000Y-32350000D01*
X137620000Y-33730000D02*
X137620000Y-32350000D01*
X137620000Y-35000000D02*
X137620000Y-37650000D01*
X137620000Y-35000000D02*
X140380000Y-35000000D01*
X137620000Y-37650000D02*
X140380000Y-37650000D01*
X140380000Y-35000000D02*
X140380000Y-37650000D01*
%TO.C,R11*%
X41000000Y-69960000D02*
X41000000Y-70730000D01*
X41000000Y-78040000D02*
X41000000Y-77270000D01*
X39630000Y-70730000D02*
X42370000Y-70730000D01*
X42370000Y-77270000D01*
X39630000Y-77270000D01*
X39630000Y-70730000D01*
%TO.C,J7*%
X59120000Y-4350000D02*
X60500000Y-4350000D01*
X59120000Y-5730000D02*
X59120000Y-4350000D01*
X59120000Y-7000000D02*
X59120000Y-9650000D01*
X59120000Y-7000000D02*
X61880000Y-7000000D01*
X59120000Y-9650000D02*
X61880000Y-9650000D01*
X61880000Y-7000000D02*
X61880000Y-9650000D01*
%TO.C,J4*%
X39620000Y-4350000D02*
X41000000Y-4350000D01*
X39620000Y-5730000D02*
X39620000Y-4350000D01*
X39620000Y-7000000D02*
X39620000Y-9650000D01*
X39620000Y-7000000D02*
X42380000Y-7000000D01*
X39620000Y-9650000D02*
X42380000Y-9650000D01*
X42380000Y-7000000D02*
X42380000Y-9650000D01*
%TO.C,R6*%
X60500000Y-17960000D02*
X60500000Y-18730000D01*
X60500000Y-26040000D02*
X60500000Y-25270000D01*
X59130000Y-18730000D02*
X61870000Y-18730000D01*
X61870000Y-25270000D01*
X59130000Y-25270000D01*
X59130000Y-18730000D01*
%TO.C,R8*%
X73500000Y-17960000D02*
X73500000Y-18730000D01*
X73500000Y-26040000D02*
X73500000Y-25270000D01*
X72130000Y-18730000D02*
X74870000Y-18730000D01*
X74870000Y-25270000D01*
X72130000Y-25270000D01*
X72130000Y-18730000D01*
%TO.C,C2*%
X66195225Y-45525000D02*
X66695225Y-45525000D01*
X66445225Y-45275000D02*
X66445225Y-45775000D01*
X69000000Y-44420000D02*
X69000000Y-49580000D01*
X69040000Y-44420000D02*
X69040000Y-49580000D01*
X69080000Y-44421000D02*
X69080000Y-49579000D01*
X69120000Y-44423000D02*
X69120000Y-49577000D01*
X69160000Y-44425000D02*
X69160000Y-49575000D01*
X69200000Y-44428000D02*
X69200000Y-49572000D01*
X69240000Y-44431000D02*
X69240000Y-45960000D01*
X69240000Y-48040000D02*
X69240000Y-49569000D01*
X69280000Y-44435000D02*
X69280000Y-45960000D01*
X69280000Y-48040000D02*
X69280000Y-49565000D01*
X69320000Y-44440000D02*
X69320000Y-45960000D01*
X69320000Y-48040000D02*
X69320000Y-49560000D01*
X69360000Y-44445000D02*
X69360000Y-45960000D01*
X69360000Y-48040000D02*
X69360000Y-49555000D01*
X69400000Y-44451000D02*
X69400000Y-45960000D01*
X69400000Y-48040000D02*
X69400000Y-49549000D01*
X69440000Y-44457000D02*
X69440000Y-45960000D01*
X69440000Y-48040000D02*
X69440000Y-49543000D01*
X69480000Y-44464000D02*
X69480000Y-45960000D01*
X69480000Y-48040000D02*
X69480000Y-49536000D01*
X69520000Y-44472000D02*
X69520000Y-45960000D01*
X69520000Y-48040000D02*
X69520000Y-49528000D01*
X69560000Y-44481000D02*
X69560000Y-45960000D01*
X69560000Y-48040000D02*
X69560000Y-49519000D01*
X69600000Y-44490000D02*
X69600000Y-45960000D01*
X69600000Y-48040000D02*
X69600000Y-49510000D01*
X69640000Y-44499000D02*
X69640000Y-45960000D01*
X69640000Y-48040000D02*
X69640000Y-49501000D01*
X69680000Y-44510000D02*
X69680000Y-45960000D01*
X69680000Y-48040000D02*
X69680000Y-49490000D01*
X69720000Y-44521000D02*
X69720000Y-45960000D01*
X69720000Y-48040000D02*
X69720000Y-49479000D01*
X69760000Y-44533000D02*
X69760000Y-45960000D01*
X69760000Y-48040000D02*
X69760000Y-49467000D01*
X69800000Y-44545000D02*
X69800000Y-45960000D01*
X69800000Y-48040000D02*
X69800000Y-49455000D01*
X69840000Y-44558000D02*
X69840000Y-45960000D01*
X69840000Y-48040000D02*
X69840000Y-49442000D01*
X69880000Y-44572000D02*
X69880000Y-45960000D01*
X69880000Y-48040000D02*
X69880000Y-49428000D01*
X69920000Y-44587000D02*
X69920000Y-45960000D01*
X69920000Y-48040000D02*
X69920000Y-49413000D01*
X69960000Y-44602000D02*
X69960000Y-45960000D01*
X69960000Y-48040000D02*
X69960000Y-49398000D01*
X70000000Y-44618000D02*
X70000000Y-45960000D01*
X70000000Y-48040000D02*
X70000000Y-49382000D01*
X70040000Y-44635000D02*
X70040000Y-45960000D01*
X70040000Y-48040000D02*
X70040000Y-49365000D01*
X70080000Y-44653000D02*
X70080000Y-45960000D01*
X70080000Y-48040000D02*
X70080000Y-49347000D01*
X70120000Y-44671000D02*
X70120000Y-45960000D01*
X70120000Y-48040000D02*
X70120000Y-49329000D01*
X70160000Y-44691000D02*
X70160000Y-45960000D01*
X70160000Y-48040000D02*
X70160000Y-49309000D01*
X70200000Y-44711000D02*
X70200000Y-45960000D01*
X70200000Y-48040000D02*
X70200000Y-49289000D01*
X70240000Y-44732000D02*
X70240000Y-45960000D01*
X70240000Y-48040000D02*
X70240000Y-49268000D01*
X70280000Y-44754000D02*
X70280000Y-45960000D01*
X70280000Y-48040000D02*
X70280000Y-49246000D01*
X70320000Y-44777000D02*
X70320000Y-45960000D01*
X70320000Y-48040000D02*
X70320000Y-49223000D01*
X70360000Y-44801000D02*
X70360000Y-45960000D01*
X70360000Y-48040000D02*
X70360000Y-49199000D01*
X70400000Y-44825000D02*
X70400000Y-45960000D01*
X70400000Y-48040000D02*
X70400000Y-49175000D01*
X70440000Y-44851000D02*
X70440000Y-45960000D01*
X70440000Y-48040000D02*
X70440000Y-49149000D01*
X70480000Y-44878000D02*
X70480000Y-45960000D01*
X70480000Y-48040000D02*
X70480000Y-49122000D01*
X70520000Y-44906000D02*
X70520000Y-45960000D01*
X70520000Y-48040000D02*
X70520000Y-49094000D01*
X70560000Y-44935000D02*
X70560000Y-45960000D01*
X70560000Y-48040000D02*
X70560000Y-49065000D01*
X70600000Y-44965000D02*
X70600000Y-45960000D01*
X70600000Y-48040000D02*
X70600000Y-49035000D01*
X70640000Y-44997000D02*
X70640000Y-45960000D01*
X70640000Y-48040000D02*
X70640000Y-49003000D01*
X70680000Y-45030000D02*
X70680000Y-45960000D01*
X70680000Y-48040000D02*
X70680000Y-48970000D01*
X70720000Y-45064000D02*
X70720000Y-45960000D01*
X70720000Y-48040000D02*
X70720000Y-48936000D01*
X70760000Y-45099000D02*
X70760000Y-45960000D01*
X70760000Y-48040000D02*
X70760000Y-48901000D01*
X70800000Y-45136000D02*
X70800000Y-45960000D01*
X70800000Y-48040000D02*
X70800000Y-48864000D01*
X70840000Y-45175000D02*
X70840000Y-45960000D01*
X70840000Y-48040000D02*
X70840000Y-48825000D01*
X70880000Y-45215000D02*
X70880000Y-45960000D01*
X70880000Y-48040000D02*
X70880000Y-48785000D01*
X70920000Y-45257000D02*
X70920000Y-45960000D01*
X70920000Y-48040000D02*
X70920000Y-48743000D01*
X70960000Y-45301000D02*
X70960000Y-45960000D01*
X70960000Y-48040000D02*
X70960000Y-48699000D01*
X71000000Y-45348000D02*
X71000000Y-45960000D01*
X71000000Y-48040000D02*
X71000000Y-48652000D01*
X71040000Y-45396000D02*
X71040000Y-45960000D01*
X71040000Y-48040000D02*
X71040000Y-48604000D01*
X71080000Y-45447000D02*
X71080000Y-45960000D01*
X71080000Y-48040000D02*
X71080000Y-48553000D01*
X71120000Y-45501000D02*
X71120000Y-45960000D01*
X71120000Y-48040000D02*
X71120000Y-48499000D01*
X71160000Y-45557000D02*
X71160000Y-45960000D01*
X71160000Y-48040000D02*
X71160000Y-48443000D01*
X71200000Y-45617000D02*
X71200000Y-45960000D01*
X71200000Y-48040000D02*
X71200000Y-48383000D01*
X71240000Y-45681000D02*
X71240000Y-45960000D01*
X71240000Y-48040000D02*
X71240000Y-48319000D01*
X71280000Y-45749000D02*
X71280000Y-45960000D01*
X71280000Y-48040000D02*
X71280000Y-48251000D01*
X71320000Y-45823000D02*
X71320000Y-48177000D01*
X71360000Y-45902000D02*
X71360000Y-48098000D01*
X71400000Y-45989000D02*
X71400000Y-48011000D01*
X71440000Y-46086000D02*
X71440000Y-47914000D01*
X71480000Y-46195000D02*
X71480000Y-47805000D01*
X71520000Y-46323000D02*
X71520000Y-47677000D01*
X71560000Y-46483000D02*
X71560000Y-47517000D01*
X71600000Y-46717000D02*
X71600000Y-47283000D01*
X71620000Y-47000000D02*
G75*
G02*
X66380000Y-47000000I-2620000J0D01*
G01*
X66380000Y-47000000D02*
G75*
G02*
X71620000Y-47000000I2620000J0D01*
G01*
%TO.C,J6*%
X52620000Y-4350000D02*
X54000000Y-4350000D01*
X52620000Y-5730000D02*
X52620000Y-4350000D01*
X52620000Y-7000000D02*
X52620000Y-9650000D01*
X52620000Y-7000000D02*
X55380000Y-7000000D01*
X52620000Y-9650000D02*
X55380000Y-9650000D01*
X55380000Y-7000000D02*
X55380000Y-9650000D01*
%TO.C,C5*%
X93380000Y-90630000D02*
X98620000Y-90630000D01*
X93380000Y-90967000D02*
X93380000Y-90630000D01*
X93380000Y-93370000D02*
X93380000Y-93033000D01*
X98620000Y-90630000D02*
X98620000Y-90967000D01*
X98620000Y-93033000D02*
X98620000Y-93370000D01*
X98620000Y-93370000D02*
X93380000Y-93370000D01*
%TO.C,R3*%
X41000000Y-17960000D02*
X41000000Y-18730000D01*
X41000000Y-26040000D02*
X41000000Y-25270000D01*
X39630000Y-18730000D02*
X42370000Y-18730000D01*
X42370000Y-25270000D01*
X39630000Y-25270000D01*
X39630000Y-18730000D01*
%TO.C,R4*%
X47500000Y-17960000D02*
X47500000Y-18730000D01*
X47500000Y-26040000D02*
X47500000Y-25270000D01*
X46130000Y-18730000D02*
X48870000Y-18730000D01*
X48870000Y-25270000D01*
X46130000Y-25270000D01*
X46130000Y-18730000D01*
%TO.C,C4*%
X66380000Y-88630000D02*
X71620000Y-88630000D01*
X66380000Y-88967000D02*
X66380000Y-88630000D01*
X66380000Y-91370000D02*
X66380000Y-91033000D01*
X71620000Y-88630000D02*
X71620000Y-88967000D01*
X71620000Y-91033000D02*
X71620000Y-91370000D01*
X71620000Y-91370000D02*
X66380000Y-91370000D01*
%TO.C,J18*%
X116880000Y-88080000D02*
X124200000Y-88080000D01*
X116880000Y-96120000D02*
X116880000Y-88080000D01*
X117688000Y-91500000D02*
X116880000Y-91500000D01*
X117688000Y-92500000D02*
X116880000Y-92500000D01*
X118957000Y-90200000D02*
X116880000Y-90200000D01*
X122620000Y-90200000D02*
X120043000Y-90200000D01*
X122620000Y-91500000D02*
X121312000Y-91500000D01*
X122620000Y-92500000D02*
X121312000Y-92500000D01*
X124800000Y-88080000D02*
X127620000Y-88080000D01*
X127620000Y-88080000D02*
X127620000Y-96120000D01*
X127620000Y-90200000D02*
X126380000Y-90200000D01*
X127620000Y-91500000D02*
X126380000Y-91500000D01*
X127620000Y-92500000D02*
X126380000Y-92500000D01*
X127620000Y-96120000D02*
X116880000Y-96120000D01*
X124500000Y-88080000D02*
X124060000Y-87470000D01*
X124940000Y-87470000D01*
X124500000Y-88080000D01*
G36*
X124500000Y-88080000D02*
G01*
X124060000Y-87470000D01*
X124940000Y-87470000D01*
X124500000Y-88080000D01*
G37*
%TO.C,J3*%
X33120000Y-4350000D02*
X34500000Y-4350000D01*
X33120000Y-5730000D02*
X33120000Y-4350000D01*
X33120000Y-7000000D02*
X33120000Y-9650000D01*
X33120000Y-7000000D02*
X35880000Y-7000000D01*
X33120000Y-9650000D02*
X35880000Y-9650000D01*
X35880000Y-7000000D02*
X35880000Y-9650000D01*
%TO.C,J10*%
X137620000Y-15350000D02*
X139000000Y-15350000D01*
X137620000Y-16730000D02*
X137620000Y-15350000D01*
X137620000Y-18000000D02*
X137620000Y-20650000D01*
X137620000Y-18000000D02*
X140380000Y-18000000D01*
X137620000Y-20650000D02*
X140380000Y-20650000D01*
X140380000Y-18000000D02*
X140380000Y-20650000D01*
%TO.C,J8*%
X65620000Y-4350000D02*
X67000000Y-4350000D01*
X65620000Y-5730000D02*
X65620000Y-4350000D01*
X65620000Y-7000000D02*
X65620000Y-9650000D01*
X65620000Y-7000000D02*
X68380000Y-7000000D01*
X65620000Y-9650000D02*
X68380000Y-9650000D01*
X68380000Y-7000000D02*
X68380000Y-9650000D01*
%TO.C,C7*%
X13195225Y-39525000D02*
X13695225Y-39525000D01*
X13445225Y-39275000D02*
X13445225Y-39775000D01*
X16000000Y-38420000D02*
X16000000Y-43580000D01*
X16040000Y-38420000D02*
X16040000Y-43580000D01*
X16080000Y-38421000D02*
X16080000Y-43579000D01*
X16120000Y-38423000D02*
X16120000Y-43577000D01*
X16160000Y-38425000D02*
X16160000Y-43575000D01*
X16200000Y-38428000D02*
X16200000Y-43572000D01*
X16240000Y-38431000D02*
X16240000Y-39960000D01*
X16240000Y-42040000D02*
X16240000Y-43569000D01*
X16280000Y-38435000D02*
X16280000Y-39960000D01*
X16280000Y-42040000D02*
X16280000Y-43565000D01*
X16320000Y-38440000D02*
X16320000Y-39960000D01*
X16320000Y-42040000D02*
X16320000Y-43560000D01*
X16360000Y-38445000D02*
X16360000Y-39960000D01*
X16360000Y-42040000D02*
X16360000Y-43555000D01*
X16400000Y-38451000D02*
X16400000Y-39960000D01*
X16400000Y-42040000D02*
X16400000Y-43549000D01*
X16440000Y-38457000D02*
X16440000Y-39960000D01*
X16440000Y-42040000D02*
X16440000Y-43543000D01*
X16480000Y-38464000D02*
X16480000Y-39960000D01*
X16480000Y-42040000D02*
X16480000Y-43536000D01*
X16520000Y-38472000D02*
X16520000Y-39960000D01*
X16520000Y-42040000D02*
X16520000Y-43528000D01*
X16560000Y-38481000D02*
X16560000Y-39960000D01*
X16560000Y-42040000D02*
X16560000Y-43519000D01*
X16600000Y-38490000D02*
X16600000Y-39960000D01*
X16600000Y-42040000D02*
X16600000Y-43510000D01*
X16640000Y-38499000D02*
X16640000Y-39960000D01*
X16640000Y-42040000D02*
X16640000Y-43501000D01*
X16680000Y-38510000D02*
X16680000Y-39960000D01*
X16680000Y-42040000D02*
X16680000Y-43490000D01*
X16720000Y-38521000D02*
X16720000Y-39960000D01*
X16720000Y-42040000D02*
X16720000Y-43479000D01*
X16760000Y-38533000D02*
X16760000Y-39960000D01*
X16760000Y-42040000D02*
X16760000Y-43467000D01*
X16800000Y-38545000D02*
X16800000Y-39960000D01*
X16800000Y-42040000D02*
X16800000Y-43455000D01*
X16840000Y-38558000D02*
X16840000Y-39960000D01*
X16840000Y-42040000D02*
X16840000Y-43442000D01*
X16880000Y-38572000D02*
X16880000Y-39960000D01*
X16880000Y-42040000D02*
X16880000Y-43428000D01*
X16920000Y-38587000D02*
X16920000Y-39960000D01*
X16920000Y-42040000D02*
X16920000Y-43413000D01*
X16960000Y-38602000D02*
X16960000Y-39960000D01*
X16960000Y-42040000D02*
X16960000Y-43398000D01*
X17000000Y-38618000D02*
X17000000Y-39960000D01*
X17000000Y-42040000D02*
X17000000Y-43382000D01*
X17040000Y-38635000D02*
X17040000Y-39960000D01*
X17040000Y-42040000D02*
X17040000Y-43365000D01*
X17080000Y-38653000D02*
X17080000Y-39960000D01*
X17080000Y-42040000D02*
X17080000Y-43347000D01*
X17120000Y-38671000D02*
X17120000Y-39960000D01*
X17120000Y-42040000D02*
X17120000Y-43329000D01*
X17160000Y-38691000D02*
X17160000Y-39960000D01*
X17160000Y-42040000D02*
X17160000Y-43309000D01*
X17200000Y-38711000D02*
X17200000Y-39960000D01*
X17200000Y-42040000D02*
X17200000Y-43289000D01*
X17240000Y-38732000D02*
X17240000Y-39960000D01*
X17240000Y-42040000D02*
X17240000Y-43268000D01*
X17280000Y-38754000D02*
X17280000Y-39960000D01*
X17280000Y-42040000D02*
X17280000Y-43246000D01*
X17320000Y-38777000D02*
X17320000Y-39960000D01*
X17320000Y-42040000D02*
X17320000Y-43223000D01*
X17360000Y-38801000D02*
X17360000Y-39960000D01*
X17360000Y-42040000D02*
X17360000Y-43199000D01*
X17400000Y-38825000D02*
X17400000Y-39960000D01*
X17400000Y-42040000D02*
X17400000Y-43175000D01*
X17440000Y-38851000D02*
X17440000Y-39960000D01*
X17440000Y-42040000D02*
X17440000Y-43149000D01*
X17480000Y-38878000D02*
X17480000Y-39960000D01*
X17480000Y-42040000D02*
X17480000Y-43122000D01*
X17520000Y-38906000D02*
X17520000Y-39960000D01*
X17520000Y-42040000D02*
X17520000Y-43094000D01*
X17560000Y-38935000D02*
X17560000Y-39960000D01*
X17560000Y-42040000D02*
X17560000Y-43065000D01*
X17600000Y-38965000D02*
X17600000Y-39960000D01*
X17600000Y-42040000D02*
X17600000Y-43035000D01*
X17640000Y-38997000D02*
X17640000Y-39960000D01*
X17640000Y-42040000D02*
X17640000Y-43003000D01*
X17680000Y-39030000D02*
X17680000Y-39960000D01*
X17680000Y-42040000D02*
X17680000Y-42970000D01*
X17720000Y-39064000D02*
X17720000Y-39960000D01*
X17720000Y-42040000D02*
X17720000Y-42936000D01*
X17760000Y-39099000D02*
X17760000Y-39960000D01*
X17760000Y-42040000D02*
X17760000Y-42901000D01*
X17800000Y-39136000D02*
X17800000Y-39960000D01*
X17800000Y-42040000D02*
X17800000Y-42864000D01*
X17840000Y-39175000D02*
X17840000Y-39960000D01*
X17840000Y-42040000D02*
X17840000Y-42825000D01*
X17880000Y-39215000D02*
X17880000Y-39960000D01*
X17880000Y-42040000D02*
X17880000Y-42785000D01*
X17920000Y-39257000D02*
X17920000Y-39960000D01*
X17920000Y-42040000D02*
X17920000Y-42743000D01*
X17960000Y-39301000D02*
X17960000Y-39960000D01*
X17960000Y-42040000D02*
X17960000Y-42699000D01*
X18000000Y-39348000D02*
X18000000Y-39960000D01*
X18000000Y-42040000D02*
X18000000Y-42652000D01*
X18040000Y-39396000D02*
X18040000Y-39960000D01*
X18040000Y-42040000D02*
X18040000Y-42604000D01*
X18080000Y-39447000D02*
X18080000Y-39960000D01*
X18080000Y-42040000D02*
X18080000Y-42553000D01*
X18120000Y-39501000D02*
X18120000Y-39960000D01*
X18120000Y-42040000D02*
X18120000Y-42499000D01*
X18160000Y-39557000D02*
X18160000Y-39960000D01*
X18160000Y-42040000D02*
X18160000Y-42443000D01*
X18200000Y-39617000D02*
X18200000Y-39960000D01*
X18200000Y-42040000D02*
X18200000Y-42383000D01*
X18240000Y-39681000D02*
X18240000Y-39960000D01*
X18240000Y-42040000D02*
X18240000Y-42319000D01*
X18280000Y-39749000D02*
X18280000Y-39960000D01*
X18280000Y-42040000D02*
X18280000Y-42251000D01*
X18320000Y-39823000D02*
X18320000Y-42177000D01*
X18360000Y-39902000D02*
X18360000Y-42098000D01*
X18400000Y-39989000D02*
X18400000Y-42011000D01*
X18440000Y-40086000D02*
X18440000Y-41914000D01*
X18480000Y-40195000D02*
X18480000Y-41805000D01*
X18520000Y-40323000D02*
X18520000Y-41677000D01*
X18560000Y-40483000D02*
X18560000Y-41517000D01*
X18600000Y-40717000D02*
X18600000Y-41283000D01*
X18620000Y-41000000D02*
G75*
G02*
X13380000Y-41000000I-2620000J0D01*
G01*
X13380000Y-41000000D02*
G75*
G02*
X18620000Y-41000000I2620000J0D01*
G01*
%TO.C,U2*%
X95780000Y-21350000D02*
X95780000Y-23000000D01*
X95780000Y-25000000D02*
X95780000Y-26650000D01*
X95780000Y-26650000D02*
X116220000Y-26650000D01*
X116220000Y-21350000D02*
X95780000Y-21350000D01*
X116220000Y-26650000D02*
X116220000Y-21350000D01*
X95720000Y-18860000D02*
X116280000Y-18860000D01*
X116280000Y-29140000D01*
X95720000Y-29140000D01*
X95720000Y-18860000D01*
X95780000Y-23000000D02*
G75*
G02*
X95780000Y-25000000I0J-1000000D01*
G01*
%TO.C,R5*%
X54000000Y-17960000D02*
X54000000Y-18730000D01*
X54000000Y-26040000D02*
X54000000Y-25270000D01*
X52630000Y-18730000D02*
X55370000Y-18730000D01*
X55370000Y-25270000D01*
X52630000Y-25270000D01*
X52630000Y-18730000D01*
%TO.C,R16*%
X73500000Y-69960000D02*
X73500000Y-70730000D01*
X73500000Y-78040000D02*
X73500000Y-77270000D01*
X72130000Y-70730000D02*
X74870000Y-70730000D01*
X74870000Y-77270000D01*
X72130000Y-77270000D01*
X72130000Y-70730000D01*
%TO.C,J19*%
X23190000Y-104380000D02*
X23190000Y-103000000D01*
X24570000Y-104380000D02*
X23190000Y-104380000D01*
X25840000Y-101620000D02*
X48810000Y-101620000D01*
X25840000Y-104380000D02*
X25840000Y-101620000D01*
X25840000Y-104380000D02*
X48810000Y-104380000D01*
X48810000Y-104380000D02*
X48810000Y-101620000D01*
%TO.C,C8*%
X102590302Y-89685000D02*
X103390302Y-89685000D01*
X102990302Y-89285000D02*
X102990302Y-90085000D01*
X107000000Y-87920000D02*
X107000000Y-96080000D01*
X107040000Y-87920000D02*
X107040000Y-96080000D01*
X107080000Y-87921000D02*
X107080000Y-96079000D01*
X107120000Y-87922000D02*
X107120000Y-96078000D01*
X107160000Y-87923000D02*
X107160000Y-96077000D01*
X107200000Y-87925000D02*
X107200000Y-96075000D01*
X107240000Y-87927000D02*
X107240000Y-96073000D01*
X107280000Y-87930000D02*
X107280000Y-96070000D01*
X107320000Y-87932000D02*
X107320000Y-96068000D01*
X107360000Y-87936000D02*
X107360000Y-96064000D01*
X107400000Y-87939000D02*
X107400000Y-96061000D01*
X107440000Y-87944000D02*
X107440000Y-96056000D01*
X107480000Y-87948000D02*
X107480000Y-96052000D01*
X107520000Y-87953000D02*
X107520000Y-96047000D01*
X107560000Y-87958000D02*
X107560000Y-96042000D01*
X107600000Y-87964000D02*
X107600000Y-96036000D01*
X107640000Y-87970000D02*
X107640000Y-96030000D01*
X107680000Y-87977000D02*
X107680000Y-96023000D01*
X107720000Y-87983000D02*
X107720000Y-90960000D01*
X107720000Y-93040000D02*
X107720000Y-96017000D01*
X107760000Y-87991000D02*
X107760000Y-90960000D01*
X107760000Y-93040000D02*
X107760000Y-96009000D01*
X107800000Y-87998000D02*
X107800000Y-90960000D01*
X107800000Y-93040000D02*
X107800000Y-96002000D01*
X107840000Y-88007000D02*
X107840000Y-90960000D01*
X107840000Y-93040000D02*
X107840000Y-95993000D01*
X107880000Y-88015000D02*
X107880000Y-90960000D01*
X107880000Y-93040000D02*
X107880000Y-95985000D01*
X107920000Y-88024000D02*
X107920000Y-90960000D01*
X107920000Y-93040000D02*
X107920000Y-95976000D01*
X107960000Y-88033000D02*
X107960000Y-90960000D01*
X107960000Y-93040000D02*
X107960000Y-95967000D01*
X108000000Y-88043000D02*
X108000000Y-90960000D01*
X108000000Y-93040000D02*
X108000000Y-95957000D01*
X108040000Y-88053000D02*
X108040000Y-90960000D01*
X108040000Y-93040000D02*
X108040000Y-95947000D01*
X108080000Y-88064000D02*
X108080000Y-90960000D01*
X108080000Y-93040000D02*
X108080000Y-95936000D01*
X108120000Y-88075000D02*
X108120000Y-90960000D01*
X108120000Y-93040000D02*
X108120000Y-95925000D01*
X108160000Y-88087000D02*
X108160000Y-90960000D01*
X108160000Y-93040000D02*
X108160000Y-95913000D01*
X108200000Y-88099000D02*
X108200000Y-90960000D01*
X108200000Y-93040000D02*
X108200000Y-95901000D01*
X108240000Y-88111000D02*
X108240000Y-90960000D01*
X108240000Y-93040000D02*
X108240000Y-95889000D01*
X108280000Y-88124000D02*
X108280000Y-90960000D01*
X108280000Y-93040000D02*
X108280000Y-95876000D01*
X108320000Y-88137000D02*
X108320000Y-90960000D01*
X108320000Y-93040000D02*
X108320000Y-95863000D01*
X108360000Y-88151000D02*
X108360000Y-90960000D01*
X108360000Y-93040000D02*
X108360000Y-95849000D01*
X108400000Y-88165000D02*
X108400000Y-90960000D01*
X108400000Y-93040000D02*
X108400000Y-95835000D01*
X108440000Y-88180000D02*
X108440000Y-90960000D01*
X108440000Y-93040000D02*
X108440000Y-95820000D01*
X108480000Y-88195000D02*
X108480000Y-90960000D01*
X108480000Y-93040000D02*
X108480000Y-95805000D01*
X108520000Y-88211000D02*
X108520000Y-90960000D01*
X108520000Y-93040000D02*
X108520000Y-95789000D01*
X108560000Y-88227000D02*
X108560000Y-90960000D01*
X108560000Y-93040000D02*
X108560000Y-95773000D01*
X108600000Y-88243000D02*
X108600000Y-90960000D01*
X108600000Y-93040000D02*
X108600000Y-95757000D01*
X108640000Y-88260000D02*
X108640000Y-90960000D01*
X108640000Y-93040000D02*
X108640000Y-95740000D01*
X108680000Y-88278000D02*
X108680000Y-90960000D01*
X108680000Y-93040000D02*
X108680000Y-95722000D01*
X108720000Y-88296000D02*
X108720000Y-90960000D01*
X108720000Y-93040000D02*
X108720000Y-95704000D01*
X108760000Y-88315000D02*
X108760000Y-90960000D01*
X108760000Y-93040000D02*
X108760000Y-95685000D01*
X108800000Y-88334000D02*
X108800000Y-90960000D01*
X108800000Y-93040000D02*
X108800000Y-95666000D01*
X108840000Y-88354000D02*
X108840000Y-90960000D01*
X108840000Y-93040000D02*
X108840000Y-95646000D01*
X108880000Y-88374000D02*
X108880000Y-90960000D01*
X108880000Y-93040000D02*
X108880000Y-95626000D01*
X108920000Y-88395000D02*
X108920000Y-90960000D01*
X108920000Y-93040000D02*
X108920000Y-95605000D01*
X108960000Y-88416000D02*
X108960000Y-90960000D01*
X108960000Y-93040000D02*
X108960000Y-95584000D01*
X109000000Y-88438000D02*
X109000000Y-90960000D01*
X109000000Y-93040000D02*
X109000000Y-95562000D01*
X109040000Y-88461000D02*
X109040000Y-90960000D01*
X109040000Y-93040000D02*
X109040000Y-95539000D01*
X109080000Y-88484000D02*
X109080000Y-90960000D01*
X109080000Y-93040000D02*
X109080000Y-95516000D01*
X109120000Y-88507000D02*
X109120000Y-90960000D01*
X109120000Y-93040000D02*
X109120000Y-95493000D01*
X109160000Y-88532000D02*
X109160000Y-90960000D01*
X109160000Y-93040000D02*
X109160000Y-95468000D01*
X109200000Y-88557000D02*
X109200000Y-90960000D01*
X109200000Y-93040000D02*
X109200000Y-95443000D01*
X109240000Y-88582000D02*
X109240000Y-90960000D01*
X109240000Y-93040000D02*
X109240000Y-95418000D01*
X109280000Y-88608000D02*
X109280000Y-90960000D01*
X109280000Y-93040000D02*
X109280000Y-95392000D01*
X109320000Y-88635000D02*
X109320000Y-90960000D01*
X109320000Y-93040000D02*
X109320000Y-95365000D01*
X109360000Y-88663000D02*
X109360000Y-90960000D01*
X109360000Y-93040000D02*
X109360000Y-95337000D01*
X109400000Y-88691000D02*
X109400000Y-90960000D01*
X109400000Y-93040000D02*
X109400000Y-95309000D01*
X109440000Y-88720000D02*
X109440000Y-90960000D01*
X109440000Y-93040000D02*
X109440000Y-95280000D01*
X109480000Y-88750000D02*
X109480000Y-90960000D01*
X109480000Y-93040000D02*
X109480000Y-95250000D01*
X109520000Y-88781000D02*
X109520000Y-90960000D01*
X109520000Y-93040000D02*
X109520000Y-95219000D01*
X109560000Y-88812000D02*
X109560000Y-90960000D01*
X109560000Y-93040000D02*
X109560000Y-95188000D01*
X109600000Y-88844000D02*
X109600000Y-90960000D01*
X109600000Y-93040000D02*
X109600000Y-95156000D01*
X109640000Y-88877000D02*
X109640000Y-90960000D01*
X109640000Y-93040000D02*
X109640000Y-95123000D01*
X109680000Y-88911000D02*
X109680000Y-90960000D01*
X109680000Y-93040000D02*
X109680000Y-95089000D01*
X109720000Y-88945000D02*
X109720000Y-90960000D01*
X109720000Y-93040000D02*
X109720000Y-95055000D01*
X109760000Y-88981000D02*
X109760000Y-90960000D01*
X109760000Y-93040000D02*
X109760000Y-95019000D01*
X109800000Y-89018000D02*
X109800000Y-94982000D01*
X109840000Y-89055000D02*
X109840000Y-94945000D01*
X109880000Y-89094000D02*
X109880000Y-94906000D01*
X109920000Y-89133000D02*
X109920000Y-94867000D01*
X109960000Y-89174000D02*
X109960000Y-94826000D01*
X110000000Y-89216000D02*
X110000000Y-94784000D01*
X110040000Y-89259000D02*
X110040000Y-94741000D01*
X110080000Y-89304000D02*
X110080000Y-94696000D01*
X110120000Y-89349000D02*
X110120000Y-94651000D01*
X110160000Y-89396000D02*
X110160000Y-94604000D01*
X110200000Y-89445000D02*
X110200000Y-94555000D01*
X110240000Y-89495000D02*
X110240000Y-94505000D01*
X110280000Y-89547000D02*
X110280000Y-94453000D01*
X110320000Y-89600000D02*
X110320000Y-94400000D01*
X110360000Y-89656000D02*
X110360000Y-94344000D01*
X110400000Y-89713000D02*
X110400000Y-94287000D01*
X110440000Y-89773000D02*
X110440000Y-94227000D01*
X110480000Y-89835000D02*
X110480000Y-94165000D01*
X110520000Y-89899000D02*
X110520000Y-94101000D01*
X110560000Y-89966000D02*
X110560000Y-94034000D01*
X110600000Y-90036000D02*
X110600000Y-93964000D01*
X110640000Y-90110000D02*
X110640000Y-93890000D01*
X110680000Y-90187000D02*
X110680000Y-93813000D01*
X110720000Y-90269000D02*
X110720000Y-93731000D01*
X110760000Y-90356000D02*
X110760000Y-93644000D01*
X110800000Y-90448000D02*
X110800000Y-93552000D01*
X110840000Y-90547000D02*
X110840000Y-93453000D01*
X110880000Y-90654000D02*
X110880000Y-93346000D01*
X110920000Y-90772000D02*
X110920000Y-93228000D01*
X110960000Y-90903000D02*
X110960000Y-93097000D01*
X111000000Y-91053000D02*
X111000000Y-92947000D01*
X111040000Y-91232000D02*
X111040000Y-92768000D01*
X111080000Y-91467000D02*
X111080000Y-92533000D01*
X111120000Y-92000000D02*
G75*
G02*
X102880000Y-92000000I-4120000J0D01*
G01*
X102880000Y-92000000D02*
G75*
G02*
X111120000Y-92000000I4120000J0D01*
G01*
%TO.C,J16*%
X137620000Y-66350000D02*
X139000000Y-66350000D01*
X137620000Y-67730000D02*
X137620000Y-66350000D01*
X137620000Y-69000000D02*
X137620000Y-71650000D01*
X137620000Y-69000000D02*
X140380000Y-69000000D01*
X137620000Y-71650000D02*
X140380000Y-71650000D01*
X140380000Y-69000000D02*
X140380000Y-71650000D01*
%TO.C,U1*%
X39780000Y-39350000D02*
X39780000Y-41000000D01*
X39780000Y-43000000D02*
X39780000Y-44650000D01*
X39780000Y-44650000D02*
X60220000Y-44650000D01*
X60220000Y-39350000D02*
X39780000Y-39350000D01*
X60220000Y-44650000D02*
X60220000Y-39350000D01*
X39720000Y-36860000D02*
X60280000Y-36860000D01*
X60280000Y-47140000D01*
X39720000Y-47140000D01*
X39720000Y-36860000D01*
X39780000Y-41000000D02*
G75*
G02*
X39780000Y-43000000I0J-1000000D01*
G01*
%TO.C,U3*%
X94510000Y-47350000D02*
X94510000Y-49000000D01*
X94510000Y-51000000D02*
X94510000Y-52650000D01*
X94510000Y-52650000D02*
X117490000Y-52650000D01*
X117490000Y-47350000D02*
X94510000Y-47350000D01*
X117490000Y-52650000D02*
X117490000Y-47350000D01*
X94450000Y-44860000D02*
X117550000Y-44860000D01*
X117550000Y-55140000D01*
X94450000Y-55140000D01*
X94450000Y-44860000D01*
X94510000Y-49000000D02*
G75*
G02*
X94510000Y-51000000I0J-1000000D01*
G01*
%TO.C,R7*%
X67000000Y-17960000D02*
X67000000Y-18730000D01*
X67000000Y-26040000D02*
X67000000Y-25270000D01*
X65630000Y-18730000D02*
X68370000Y-18730000D01*
X68370000Y-25270000D01*
X65630000Y-25270000D01*
X65630000Y-18730000D01*
%TO.C,J5*%
X46120000Y-4350000D02*
X47500000Y-4350000D01*
X46120000Y-5730000D02*
X46120000Y-4350000D01*
X46120000Y-7000000D02*
X46120000Y-9650000D01*
X46120000Y-7000000D02*
X48880000Y-7000000D01*
X46120000Y-9650000D02*
X48880000Y-9650000D01*
X48880000Y-7000000D02*
X48880000Y-9650000D01*
%TO.C,R10*%
X34500000Y-69960000D02*
X34500000Y-70730000D01*
X34500000Y-78040000D02*
X34500000Y-77270000D01*
X33130000Y-70730000D02*
X35870000Y-70730000D01*
X35870000Y-77270000D01*
X33130000Y-77270000D01*
X33130000Y-70730000D01*
%TO.C,R2*%
X34500000Y-17960000D02*
X34500000Y-18730000D01*
X34500000Y-26040000D02*
X34500000Y-25270000D01*
X33130000Y-18730000D02*
X35870000Y-18730000D01*
X35870000Y-25270000D01*
X33130000Y-25270000D01*
X33130000Y-18730000D01*
%TO.C,R9*%
X28000000Y-69960000D02*
X28000000Y-70730000D01*
X28000000Y-78040000D02*
X28000000Y-77270000D01*
X26630000Y-70730000D02*
X29370000Y-70730000D01*
X29370000Y-77270000D01*
X26630000Y-77270000D01*
X26630000Y-70730000D01*
%TO.C,J2*%
X26620000Y-4350000D02*
X28000000Y-4350000D01*
X26620000Y-5730000D02*
X26620000Y-4350000D01*
X26620000Y-7000000D02*
X26620000Y-9650000D01*
X26620000Y-7000000D02*
X29380000Y-7000000D01*
X26620000Y-9650000D02*
X29380000Y-9650000D01*
X29380000Y-7000000D02*
X29380000Y-9650000D01*
%TO.C,J15*%
X137620000Y-57850000D02*
X139000000Y-57850000D01*
X137620000Y-59230000D02*
X137620000Y-57850000D01*
X137620000Y-60500000D02*
X137620000Y-63150000D01*
X137620000Y-60500000D02*
X140380000Y-60500000D01*
X137620000Y-63150000D02*
X140380000Y-63150000D01*
X140380000Y-60500000D02*
X140380000Y-63150000D01*
%TO.C,C1*%
X66380000Y-34630000D02*
X71620000Y-34630000D01*
X66380000Y-34967000D02*
X66380000Y-34630000D01*
X66380000Y-37370000D02*
X66380000Y-37033000D01*
X71620000Y-34630000D02*
X71620000Y-34967000D01*
X71620000Y-37033000D02*
X71620000Y-37370000D01*
X71620000Y-37370000D02*
X66380000Y-37370000D01*
%TO.C,R15*%
X67000000Y-69960000D02*
X67000000Y-70730000D01*
X67000000Y-78040000D02*
X67000000Y-77270000D01*
X65630000Y-70730000D02*
X68370000Y-70730000D01*
X68370000Y-77270000D01*
X65630000Y-77270000D01*
X65630000Y-70730000D01*
%TO.C,U4*%
X39780000Y-87350000D02*
X39780000Y-89000000D01*
X39780000Y-91000000D02*
X39780000Y-92650000D01*
X39780000Y-92650000D02*
X60220000Y-92650000D01*
X60220000Y-87350000D02*
X39780000Y-87350000D01*
X60220000Y-92650000D02*
X60220000Y-87350000D01*
X39720000Y-84860000D02*
X60280000Y-84860000D01*
X60280000Y-95140000D01*
X39720000Y-95140000D01*
X39720000Y-84860000D01*
X39780000Y-89000000D02*
G75*
G02*
X39780000Y-91000000I0J-1000000D01*
G01*
%TO.C,J1*%
X5350000Y-29490000D02*
X6730000Y-29490000D01*
X5350000Y-30870000D02*
X5350000Y-29490000D01*
X5350000Y-32140000D02*
X5350000Y-80510000D01*
X5350000Y-32140000D02*
X8000000Y-32140000D01*
X5350000Y-80510000D02*
X10650000Y-80510000D01*
X8000000Y-29490000D02*
X10650000Y-29490000D01*
X8000000Y-32140000D02*
X8000000Y-29490000D01*
X10650000Y-29490000D02*
X10650000Y-80510000D01*
%TO.C,R1*%
X28000000Y-17960000D02*
X28000000Y-18730000D01*
X28000000Y-26040000D02*
X28000000Y-25270000D01*
X26630000Y-18730000D02*
X29370000Y-18730000D01*
X29370000Y-25270000D01*
X26630000Y-25270000D01*
X26630000Y-18730000D01*
%TO.C,J9*%
X72120000Y-4350000D02*
X73500000Y-4350000D01*
X72120000Y-5730000D02*
X72120000Y-4350000D01*
X72120000Y-7000000D02*
X72120000Y-9650000D01*
X72120000Y-7000000D02*
X74880000Y-7000000D01*
X72120000Y-9650000D02*
X74880000Y-9650000D01*
X74880000Y-7000000D02*
X74880000Y-9650000D01*
%TO.C,J11*%
X137620000Y-23850000D02*
X139000000Y-23850000D01*
X137620000Y-25230000D02*
X137620000Y-23850000D01*
X137620000Y-26500000D02*
X137620000Y-29150000D01*
X137620000Y-26500000D02*
X140380000Y-26500000D01*
X137620000Y-29150000D02*
X140380000Y-29150000D01*
X140380000Y-26500000D02*
X140380000Y-29150000D01*
%TO.C,C3*%
X121380000Y-32630000D02*
X126620000Y-32630000D01*
X121380000Y-32967000D02*
X121380000Y-32630000D01*
X121380000Y-35370000D02*
X121380000Y-35033000D01*
X126620000Y-32630000D02*
X126620000Y-32967000D01*
X126620000Y-35033000D02*
X126620000Y-35370000D01*
X126620000Y-35370000D02*
X121380000Y-35370000D01*
%TO.C,R12*%
X47500000Y-69960000D02*
X47500000Y-70730000D01*
X47500000Y-78040000D02*
X47500000Y-77270000D01*
X46130000Y-70730000D02*
X48870000Y-70730000D01*
X48870000Y-77270000D01*
X46130000Y-77270000D01*
X46130000Y-70730000D01*
%TO.C,R14*%
X60500000Y-69960000D02*
X60500000Y-70730000D01*
X60500000Y-78040000D02*
X60500000Y-77270000D01*
X59130000Y-70730000D02*
X61870000Y-70730000D01*
X61870000Y-77270000D01*
X59130000Y-77270000D01*
X59130000Y-70730000D01*
%TD*%
M02*
