%TF.GenerationSoftware,KiCad,Pcbnew,10.0.6*%
%TF.CreationDate,2026-09-19T17:15:47-07:00*%
%TF.ProjectId,jaladarangam-control-board,6a616c61-6461-4726-916e-67616d2d636f,rev?*%
%TF.SameCoordinates,Original*%
%TF.FileFunction,Drillmap*%
%TF.FilePolarity,Positive*%
%FSLAX45Y45*%
G04 Gerber Fmt 4.5, Leading zero omitted, Abs format (unit mm)*
G04 Created by KiCad (PCBNEW 10.0.6) date 2026-09-19 17:15:47*
%MOMM*%
%LPD*%
G01*
G04 APERTURE LIST*
%ADD10C,0.150000*%
%ADD11C,0.200000*%
%ADD12C,0.100000*%
%ADD13C,0.130000*%
G04 APERTURE END LIST*
D10*
X0Y0D02*
X14500000Y0D01*
X0Y-11000000D02*
X0Y0D01*
X14500000Y0D02*
X14500000Y-11000000D01*
X14500000Y-11000000D02*
X0Y-11000000D01*
D11*
D12*
X125920Y-2813170D02*
X165920Y-2853170D01*
X165920Y-2813170D02*
X125920Y-2853170D01*
X328030Y-1842540D02*
X368030Y-1882540D01*
X368030Y-1842540D02*
X328030Y-1882540D01*
X416390Y-1778670D02*
X456390Y-1818670D01*
X456390Y-1778670D02*
X416390Y-1818670D01*
X522830Y-1868460D02*
X562830Y-1908460D01*
X562830Y-1868460D02*
X522830Y-1908460D01*
X1166910Y-5520770D02*
X1206910Y-5560770D01*
X1206910Y-5520770D02*
X1166910Y-5560770D01*
X1166910Y-7005560D02*
X1206910Y-7045560D01*
X1206910Y-7005560D02*
X1166910Y-7045560D01*
X1192150Y-5266650D02*
X1232150Y-5306650D01*
X1232150Y-5266650D02*
X1192150Y-5306650D01*
X1281110Y-4772360D02*
X1321110Y-4812360D01*
X1321110Y-4772360D02*
X1281110Y-4812360D01*
X1382420Y-4889510D02*
X1422420Y-4929510D01*
X1422420Y-4889510D02*
X1382420Y-4929510D01*
X1632110Y-6568270D02*
X1672110Y-6608270D01*
X1672110Y-6568270D02*
X1632110Y-6608270D01*
X4649300Y-4028010D02*
X4689300Y-4068010D01*
X4689300Y-4028010D02*
X4649300Y-4068010D01*
X5107000Y-4251300D02*
X5147000Y-4291300D01*
X5147000Y-4251300D02*
X5107000Y-4291300D01*
X5361000Y-2836290D02*
X5401000Y-2876290D01*
X5401000Y-2836290D02*
X5361000Y-2876290D01*
X6346540Y-4083460D02*
X6386540Y-4123460D01*
X6386540Y-4083460D02*
X6346540Y-4123460D01*
X267340Y-2941770D02*
G75*
G02*
X217340Y-2941770I-25000J0D01*
G01*
X217340Y-2941770D02*
G75*
G02*
X267340Y-2941770I25000J0D01*
G01*
X11466650Y-5001350D02*
G75*
G02*
X11416650Y-5001350I-25000J0D01*
G01*
X11416650Y-5001350D02*
G75*
G02*
X11466650Y-5001350I25000J0D01*
G01*
X14184470Y-7877000D02*
G75*
G02*
X14134470Y-7877000I-25000J0D01*
G01*
X14134470Y-7877000D02*
G75*
G02*
X14184470Y-7877000I25000J0D01*
G01*
X1350000Y-2960000D02*
X1350000Y-3040000D01*
X1310000Y-3000000D02*
X1390000Y-3000000D01*
X1475000Y-4060000D02*
X1475000Y-4140000D01*
X1435000Y-4100000D02*
X1515000Y-4100000D01*
X1725000Y-4060000D02*
X1725000Y-4140000D01*
X1685000Y-4100000D02*
X1765000Y-4100000D01*
X1850000Y-2960000D02*
X1850000Y-3040000D01*
X1810000Y-3000000D02*
X1890000Y-3000000D01*
X2800000Y-1652000D02*
X2800000Y-1732000D01*
X2760000Y-1692000D02*
X2840000Y-1692000D01*
X2800000Y-2668000D02*
X2800000Y-2748000D01*
X2760000Y-2708000D02*
X2840000Y-2708000D01*
X2800000Y-6852000D02*
X2800000Y-6932000D01*
X2760000Y-6892000D02*
X2840000Y-6892000D01*
X2800000Y-7868000D02*
X2800000Y-7948000D01*
X2760000Y-7908000D02*
X2840000Y-7908000D01*
X3450000Y-1652000D02*
X3450000Y-1732000D01*
X3410000Y-1692000D02*
X3490000Y-1692000D01*
X3450000Y-2668000D02*
X3450000Y-2748000D01*
X3410000Y-2708000D02*
X3490000Y-2708000D01*
X3450000Y-6852000D02*
X3450000Y-6932000D01*
X3410000Y-6892000D02*
X3490000Y-6892000D01*
X3450000Y-7868000D02*
X3450000Y-7948000D01*
X3410000Y-7908000D02*
X3490000Y-7908000D01*
X4100000Y-1652000D02*
X4100000Y-1732000D01*
X4060000Y-1692000D02*
X4140000Y-1692000D01*
X4100000Y-2668000D02*
X4100000Y-2748000D01*
X4060000Y-2708000D02*
X4140000Y-2708000D01*
X4100000Y-6852000D02*
X4100000Y-6932000D01*
X4060000Y-6892000D02*
X4140000Y-6892000D01*
X4100000Y-7868000D02*
X4100000Y-7948000D01*
X4060000Y-7908000D02*
X4140000Y-7908000D01*
X4111000Y-3779000D02*
X4111000Y-3859000D01*
X4071000Y-3819000D02*
X4151000Y-3819000D01*
X4111000Y-4541000D02*
X4111000Y-4621000D01*
X4071000Y-4581000D02*
X4151000Y-4581000D01*
X4111000Y-8579000D02*
X4111000Y-8659000D01*
X4071000Y-8619000D02*
X4151000Y-8619000D01*
X4111000Y-9341000D02*
X4111000Y-9421000D01*
X4071000Y-9381000D02*
X4151000Y-9381000D01*
X4365000Y-3779000D02*
X4365000Y-3859000D01*
X4325000Y-3819000D02*
X4405000Y-3819000D01*
X4365000Y-4541000D02*
X4365000Y-4621000D01*
X4325000Y-4581000D02*
X4405000Y-4581000D01*
X4365000Y-8579000D02*
X4365000Y-8659000D01*
X4325000Y-8619000D02*
X4405000Y-8619000D01*
X4365000Y-9341000D02*
X4365000Y-9421000D01*
X4325000Y-9381000D02*
X4405000Y-9381000D01*
X4619000Y-3779000D02*
X4619000Y-3859000D01*
X4579000Y-3819000D02*
X4659000Y-3819000D01*
X4619000Y-4541000D02*
X4619000Y-4621000D01*
X4579000Y-4581000D02*
X4659000Y-4581000D01*
X4619000Y-8579000D02*
X4619000Y-8659000D01*
X4579000Y-8619000D02*
X4659000Y-8619000D01*
X4619000Y-9341000D02*
X4619000Y-9421000D01*
X4579000Y-9381000D02*
X4659000Y-9381000D01*
X4750000Y-1652000D02*
X4750000Y-1732000D01*
X4710000Y-1692000D02*
X4790000Y-1692000D01*
X4750000Y-2668000D02*
X4750000Y-2748000D01*
X4710000Y-2708000D02*
X4790000Y-2708000D01*
X4750000Y-6852000D02*
X4750000Y-6932000D01*
X4710000Y-6892000D02*
X4790000Y-6892000D01*
X4750000Y-7868000D02*
X4750000Y-7948000D01*
X4710000Y-7908000D02*
X4790000Y-7908000D01*
X4873000Y-3779000D02*
X4873000Y-3859000D01*
X4833000Y-3819000D02*
X4913000Y-3819000D01*
X4873000Y-4541000D02*
X4873000Y-4621000D01*
X4833000Y-4581000D02*
X4913000Y-4581000D01*
X4873000Y-8579000D02*
X4873000Y-8659000D01*
X4833000Y-8619000D02*
X4913000Y-8619000D01*
X4873000Y-9341000D02*
X4873000Y-9421000D01*
X4833000Y-9381000D02*
X4913000Y-9381000D01*
X5127000Y-3779000D02*
X5127000Y-3859000D01*
X5087000Y-3819000D02*
X5167000Y-3819000D01*
X5127000Y-4541000D02*
X5127000Y-4621000D01*
X5087000Y-4581000D02*
X5167000Y-4581000D01*
X5127000Y-8579000D02*
X5127000Y-8659000D01*
X5087000Y-8619000D02*
X5167000Y-8619000D01*
X5127000Y-9341000D02*
X5127000Y-9421000D01*
X5087000Y-9381000D02*
X5167000Y-9381000D01*
X5381000Y-3779000D02*
X5381000Y-3859000D01*
X5341000Y-3819000D02*
X5421000Y-3819000D01*
X5381000Y-4541000D02*
X5381000Y-4621000D01*
X5341000Y-4581000D02*
X5421000Y-4581000D01*
X5381000Y-8579000D02*
X5381000Y-8659000D01*
X5341000Y-8619000D02*
X5421000Y-8619000D01*
X5381000Y-9341000D02*
X5381000Y-9421000D01*
X5341000Y-9381000D02*
X5421000Y-9381000D01*
X5400000Y-1652000D02*
X5400000Y-1732000D01*
X5360000Y-1692000D02*
X5440000Y-1692000D01*
X5400000Y-2668000D02*
X5400000Y-2748000D01*
X5360000Y-2708000D02*
X5440000Y-2708000D01*
X5400000Y-6852000D02*
X5400000Y-6932000D01*
X5360000Y-6892000D02*
X5440000Y-6892000D01*
X5400000Y-7868000D02*
X5400000Y-7948000D01*
X5360000Y-7908000D02*
X5440000Y-7908000D01*
X5635000Y-3779000D02*
X5635000Y-3859000D01*
X5595000Y-3819000D02*
X5675000Y-3819000D01*
X5635000Y-4541000D02*
X5635000Y-4621000D01*
X5595000Y-4581000D02*
X5675000Y-4581000D01*
X5635000Y-8579000D02*
X5635000Y-8659000D01*
X5595000Y-8619000D02*
X5675000Y-8619000D01*
X5635000Y-9341000D02*
X5635000Y-9421000D01*
X5595000Y-9381000D02*
X5675000Y-9381000D01*
X5889000Y-3779000D02*
X5889000Y-3859000D01*
X5849000Y-3819000D02*
X5929000Y-3819000D01*
X5889000Y-4541000D02*
X5889000Y-4621000D01*
X5849000Y-4581000D02*
X5929000Y-4581000D01*
X5889000Y-8579000D02*
X5889000Y-8659000D01*
X5849000Y-8619000D02*
X5929000Y-8619000D01*
X5889000Y-9341000D02*
X5889000Y-9421000D01*
X5849000Y-9381000D02*
X5929000Y-9381000D01*
X6050000Y-1652000D02*
X6050000Y-1732000D01*
X6010000Y-1692000D02*
X6090000Y-1692000D01*
X6050000Y-2668000D02*
X6050000Y-2748000D01*
X6010000Y-2708000D02*
X6090000Y-2708000D01*
X6050000Y-6852000D02*
X6050000Y-6932000D01*
X6010000Y-6892000D02*
X6090000Y-6892000D01*
X6050000Y-7868000D02*
X6050000Y-7948000D01*
X6010000Y-7908000D02*
X6090000Y-7908000D01*
X6650000Y-3560000D02*
X6650000Y-3640000D01*
X6610000Y-3600000D02*
X6690000Y-3600000D01*
X6650000Y-8960000D02*
X6650000Y-9040000D01*
X6610000Y-9000000D02*
X6690000Y-9000000D01*
X6700000Y-1652000D02*
X6700000Y-1732000D01*
X6660000Y-1692000D02*
X6740000Y-1692000D01*
X6700000Y-2668000D02*
X6700000Y-2748000D01*
X6660000Y-2708000D02*
X6740000Y-2708000D01*
X6700000Y-6852000D02*
X6700000Y-6932000D01*
X6660000Y-6892000D02*
X6740000Y-6892000D01*
X6700000Y-7868000D02*
X6700000Y-7948000D01*
X6660000Y-7908000D02*
X6740000Y-7908000D01*
X6775000Y-4660000D02*
X6775000Y-4740000D01*
X6735000Y-4700000D02*
X6815000Y-4700000D01*
X7025000Y-4660000D02*
X7025000Y-4740000D01*
X6985000Y-4700000D02*
X7065000Y-4700000D01*
X7150000Y-3560000D02*
X7150000Y-3640000D01*
X7110000Y-3600000D02*
X7190000Y-3600000D01*
X7150000Y-8960000D02*
X7150000Y-9040000D01*
X7110000Y-9000000D02*
X7190000Y-9000000D01*
X7350000Y-1652000D02*
X7350000Y-1732000D01*
X7310000Y-1692000D02*
X7390000Y-1692000D01*
X7350000Y-2668000D02*
X7350000Y-2748000D01*
X7310000Y-2708000D02*
X7390000Y-2708000D01*
X7350000Y-6852000D02*
X7350000Y-6932000D01*
X7310000Y-6892000D02*
X7390000Y-6892000D01*
X7350000Y-7868000D02*
X7350000Y-7948000D01*
X7310000Y-7908000D02*
X7390000Y-7908000D01*
X9350000Y-9160000D02*
X9350000Y-9240000D01*
X9310000Y-9200000D02*
X9390000Y-9200000D01*
X9584000Y-4579000D02*
X9584000Y-4659000D01*
X9544000Y-4619000D02*
X9624000Y-4619000D01*
X9584000Y-5341000D02*
X9584000Y-5421000D01*
X9544000Y-5381000D02*
X9624000Y-5381000D01*
X9711000Y-1979000D02*
X9711000Y-2059000D01*
X9671000Y-2019000D02*
X9751000Y-2019000D01*
X9711000Y-2741000D02*
X9711000Y-2821000D01*
X9671000Y-2781000D02*
X9751000Y-2781000D01*
X9838000Y-4579000D02*
X9838000Y-4659000D01*
X9798000Y-4619000D02*
X9878000Y-4619000D01*
X9838000Y-5341000D02*
X9838000Y-5421000D01*
X9798000Y-5381000D02*
X9878000Y-5381000D01*
X9850000Y-9160000D02*
X9850000Y-9240000D01*
X9810000Y-9200000D02*
X9890000Y-9200000D01*
X9965000Y-1979000D02*
X9965000Y-2059000D01*
X9925000Y-2019000D02*
X10005000Y-2019000D01*
X9965000Y-2741000D02*
X9965000Y-2821000D01*
X9925000Y-2781000D02*
X10005000Y-2781000D01*
X10092000Y-4579000D02*
X10092000Y-4659000D01*
X10052000Y-4619000D02*
X10132000Y-4619000D01*
X10092000Y-5341000D02*
X10092000Y-5421000D01*
X10052000Y-5381000D02*
X10132000Y-5381000D01*
X10219000Y-1979000D02*
X10219000Y-2059000D01*
X10179000Y-2019000D02*
X10259000Y-2019000D01*
X10219000Y-2741000D02*
X10219000Y-2821000D01*
X10179000Y-2781000D02*
X10259000Y-2781000D01*
X10346000Y-4579000D02*
X10346000Y-4659000D01*
X10306000Y-4619000D02*
X10386000Y-4619000D01*
X10346000Y-5341000D02*
X10346000Y-5421000D01*
X10306000Y-5381000D02*
X10386000Y-5381000D01*
X10473000Y-1979000D02*
X10473000Y-2059000D01*
X10433000Y-2019000D02*
X10513000Y-2019000D01*
X10473000Y-2741000D02*
X10473000Y-2821000D01*
X10433000Y-2781000D02*
X10513000Y-2781000D01*
X10525000Y-9160000D02*
X10525000Y-9240000D01*
X10485000Y-9200000D02*
X10565000Y-9200000D01*
X10600000Y-4579000D02*
X10600000Y-4659000D01*
X10560000Y-4619000D02*
X10640000Y-4619000D01*
X10600000Y-5341000D02*
X10600000Y-5421000D01*
X10560000Y-5381000D02*
X10640000Y-5381000D01*
X10727000Y-1979000D02*
X10727000Y-2059000D01*
X10687000Y-2019000D02*
X10767000Y-2019000D01*
X10727000Y-2741000D02*
X10727000Y-2821000D01*
X10687000Y-2781000D02*
X10767000Y-2781000D01*
X10854000Y-4579000D02*
X10854000Y-4659000D01*
X10814000Y-4619000D02*
X10894000Y-4619000D01*
X10854000Y-5341000D02*
X10854000Y-5421000D01*
X10814000Y-5381000D02*
X10894000Y-5381000D01*
X10875000Y-9160000D02*
X10875000Y-9240000D01*
X10835000Y-9200000D02*
X10915000Y-9200000D01*
X10981000Y-1979000D02*
X10981000Y-2059000D01*
X10941000Y-2019000D02*
X11021000Y-2019000D01*
X10981000Y-2741000D02*
X10981000Y-2821000D01*
X10941000Y-2781000D02*
X11021000Y-2781000D01*
X11108000Y-4579000D02*
X11108000Y-4659000D01*
X11068000Y-4619000D02*
X11148000Y-4619000D01*
X11108000Y-5341000D02*
X11108000Y-5421000D01*
X11068000Y-5381000D02*
X11148000Y-5381000D01*
X11235000Y-1979000D02*
X11235000Y-2059000D01*
X11195000Y-2019000D02*
X11275000Y-2019000D01*
X11235000Y-2741000D02*
X11235000Y-2821000D01*
X11195000Y-2781000D02*
X11275000Y-2781000D01*
X11362000Y-4579000D02*
X11362000Y-4659000D01*
X11322000Y-4619000D02*
X11402000Y-4619000D01*
X11362000Y-5341000D02*
X11362000Y-5421000D01*
X11322000Y-5381000D02*
X11402000Y-5381000D01*
X11489000Y-1979000D02*
X11489000Y-2059000D01*
X11449000Y-2019000D02*
X11529000Y-2019000D01*
X11489000Y-2741000D02*
X11489000Y-2821000D01*
X11449000Y-2781000D02*
X11529000Y-2781000D01*
X11616000Y-4579000D02*
X11616000Y-4659000D01*
X11576000Y-4619000D02*
X11656000Y-4619000D01*
X11616000Y-5341000D02*
X11616000Y-5421000D01*
X11576000Y-5381000D02*
X11656000Y-5381000D01*
X12150000Y-3360000D02*
X12150000Y-3440000D01*
X12110000Y-3400000D02*
X12190000Y-3400000D01*
X12650000Y-3360000D02*
X12650000Y-3440000D01*
X12610000Y-3400000D02*
X12690000Y-3400000D01*
X708356Y-3122356D02*
X708356Y-3051644D01*
X637644Y-3051644D01*
X637644Y-3122356D01*
X708356Y-3122356D01*
X708356Y-3376356D02*
X708356Y-3305644D01*
X637644Y-3305644D01*
X637644Y-3376356D01*
X708356Y-3376356D01*
X708356Y-3630356D02*
X708356Y-3559644D01*
X637644Y-3559644D01*
X637644Y-3630356D01*
X708356Y-3630356D01*
X708356Y-3884356D02*
X708356Y-3813644D01*
X637644Y-3813644D01*
X637644Y-3884356D01*
X708356Y-3884356D01*
X708356Y-4138356D02*
X708356Y-4067644D01*
X637644Y-4067644D01*
X637644Y-4138356D01*
X708356Y-4138356D01*
X708356Y-4392356D02*
X708356Y-4321644D01*
X637644Y-4321644D01*
X637644Y-4392356D01*
X708356Y-4392356D01*
X708356Y-4646356D02*
X708356Y-4575644D01*
X637644Y-4575644D01*
X637644Y-4646356D01*
X708356Y-4646356D01*
X708356Y-4900356D02*
X708356Y-4829644D01*
X637644Y-4829644D01*
X637644Y-4900356D01*
X708356Y-4900356D01*
X708356Y-5154356D02*
X708356Y-5083644D01*
X637644Y-5083644D01*
X637644Y-5154356D01*
X708356Y-5154356D01*
X708356Y-5408356D02*
X708356Y-5337644D01*
X637644Y-5337644D01*
X637644Y-5408356D01*
X708356Y-5408356D01*
X708356Y-5662356D02*
X708356Y-5591644D01*
X637644Y-5591644D01*
X637644Y-5662356D01*
X708356Y-5662356D01*
X708356Y-5916356D02*
X708356Y-5845644D01*
X637644Y-5845644D01*
X637644Y-5916356D01*
X708356Y-5916356D01*
X708356Y-6170356D02*
X708356Y-6099644D01*
X637644Y-6099644D01*
X637644Y-6170356D01*
X708356Y-6170356D01*
X708356Y-6424356D02*
X708356Y-6353644D01*
X637644Y-6353644D01*
X637644Y-6424356D01*
X708356Y-6424356D01*
X708356Y-6678356D02*
X708356Y-6607644D01*
X637644Y-6607644D01*
X637644Y-6678356D01*
X708356Y-6678356D01*
X708356Y-6932356D02*
X708356Y-6861644D01*
X637644Y-6861644D01*
X637644Y-6932356D01*
X708356Y-6932356D01*
X708356Y-7186356D02*
X708356Y-7115644D01*
X637644Y-7115644D01*
X637644Y-7186356D01*
X708356Y-7186356D01*
X708356Y-7440356D02*
X708356Y-7369644D01*
X637644Y-7369644D01*
X637644Y-7440356D01*
X708356Y-7440356D01*
X708356Y-7694356D02*
X708356Y-7623644D01*
X637644Y-7623644D01*
X637644Y-7694356D01*
X708356Y-7694356D01*
X708356Y-7948356D02*
X708356Y-7877644D01*
X637644Y-7877644D01*
X637644Y-7948356D01*
X708356Y-7948356D01*
X962356Y-3122356D02*
X962356Y-3051644D01*
X891644Y-3051644D01*
X891644Y-3122356D01*
X962356Y-3122356D01*
X962356Y-3376356D02*
X962356Y-3305644D01*
X891644Y-3305644D01*
X891644Y-3376356D01*
X962356Y-3376356D01*
X962356Y-3630356D02*
X962356Y-3559644D01*
X891644Y-3559644D01*
X891644Y-3630356D01*
X962356Y-3630356D01*
X962356Y-3884356D02*
X962356Y-3813644D01*
X891644Y-3813644D01*
X891644Y-3884356D01*
X962356Y-3884356D01*
X962356Y-4138356D02*
X962356Y-4067644D01*
X891644Y-4067644D01*
X891644Y-4138356D01*
X962356Y-4138356D01*
X962356Y-4392356D02*
X962356Y-4321644D01*
X891644Y-4321644D01*
X891644Y-4392356D01*
X962356Y-4392356D01*
X962356Y-4646356D02*
X962356Y-4575644D01*
X891644Y-4575644D01*
X891644Y-4646356D01*
X962356Y-4646356D01*
X962356Y-4900356D02*
X962356Y-4829644D01*
X891644Y-4829644D01*
X891644Y-4900356D01*
X962356Y-4900356D01*
X962356Y-5154356D02*
X962356Y-5083644D01*
X891644Y-5083644D01*
X891644Y-5154356D01*
X962356Y-5154356D01*
X962356Y-5408356D02*
X962356Y-5337644D01*
X891644Y-5337644D01*
X891644Y-5408356D01*
X962356Y-5408356D01*
X962356Y-5662356D02*
X962356Y-5591644D01*
X891644Y-5591644D01*
X891644Y-5662356D01*
X962356Y-5662356D01*
X962356Y-5916356D02*
X962356Y-5845644D01*
X891644Y-5845644D01*
X891644Y-5916356D01*
X962356Y-5916356D01*
X962356Y-6170356D02*
X962356Y-6099644D01*
X891644Y-6099644D01*
X891644Y-6170356D01*
X962356Y-6170356D01*
X962356Y-6424356D02*
X962356Y-6353644D01*
X891644Y-6353644D01*
X891644Y-6424356D01*
X962356Y-6424356D01*
X962356Y-6678356D02*
X962356Y-6607644D01*
X891644Y-6607644D01*
X891644Y-6678356D01*
X962356Y-6678356D01*
X962356Y-6932356D02*
X962356Y-6861644D01*
X891644Y-6861644D01*
X891644Y-6932356D01*
X962356Y-6932356D01*
X962356Y-7186356D02*
X962356Y-7115644D01*
X891644Y-7115644D01*
X891644Y-7186356D01*
X962356Y-7186356D01*
X962356Y-7440356D02*
X962356Y-7369644D01*
X891644Y-7369644D01*
X891644Y-7440356D01*
X962356Y-7440356D01*
X962356Y-7694356D02*
X962356Y-7623644D01*
X891644Y-7623644D01*
X891644Y-7694356D01*
X962356Y-7694356D01*
X962356Y-7948356D02*
X962356Y-7877644D01*
X891644Y-7877644D01*
X891644Y-7948356D01*
X962356Y-7948356D01*
X2492356Y-10335356D02*
X2492356Y-10264644D01*
X2421644Y-10264644D01*
X2421644Y-10335356D01*
X2492356Y-10335356D01*
X2746356Y-10335356D02*
X2746356Y-10264644D01*
X2675644Y-10264644D01*
X2675644Y-10335356D01*
X2746356Y-10335356D01*
X2835356Y-608356D02*
X2835356Y-537644D01*
X2764644Y-537644D01*
X2764644Y-608356D01*
X2835356Y-608356D01*
X2835356Y-862356D02*
X2835356Y-791644D01*
X2764644Y-791644D01*
X2764644Y-862356D01*
X2835356Y-862356D01*
X3000356Y-10335356D02*
X3000356Y-10264644D01*
X2929644Y-10264644D01*
X2929644Y-10335356D01*
X3000356Y-10335356D01*
X3254356Y-10335356D02*
X3254356Y-10264644D01*
X3183644Y-10264644D01*
X3183644Y-10335356D01*
X3254356Y-10335356D01*
X3485356Y-608356D02*
X3485356Y-537644D01*
X3414644Y-537644D01*
X3414644Y-608356D01*
X3485356Y-608356D01*
X3485356Y-862356D02*
X3485356Y-791644D01*
X3414644Y-791644D01*
X3414644Y-862356D01*
X3485356Y-862356D01*
X3508356Y-10335356D02*
X3508356Y-10264644D01*
X3437644Y-10264644D01*
X3437644Y-10335356D01*
X3508356Y-10335356D01*
X3762356Y-10335356D02*
X3762356Y-10264644D01*
X3691644Y-10264644D01*
X3691644Y-10335356D01*
X3762356Y-10335356D01*
X4016356Y-10335356D02*
X4016356Y-10264644D01*
X3945644Y-10264644D01*
X3945644Y-10335356D01*
X4016356Y-10335356D01*
X4135356Y-608356D02*
X4135356Y-537644D01*
X4064644Y-537644D01*
X4064644Y-608356D01*
X4135356Y-608356D01*
X4135356Y-862356D02*
X4135356Y-791644D01*
X4064644Y-791644D01*
X4064644Y-862356D01*
X4135356Y-862356D01*
X4270356Y-10335356D02*
X4270356Y-10264644D01*
X4199644Y-10264644D01*
X4199644Y-10335356D01*
X4270356Y-10335356D01*
X4524356Y-10335356D02*
X4524356Y-10264644D01*
X4453644Y-10264644D01*
X4453644Y-10335356D01*
X4524356Y-10335356D01*
X4778356Y-10335356D02*
X4778356Y-10264644D01*
X4707644Y-10264644D01*
X4707644Y-10335356D01*
X4778356Y-10335356D01*
X4785356Y-608356D02*
X4785356Y-537644D01*
X4714644Y-537644D01*
X4714644Y-608356D01*
X4785356Y-608356D01*
X4785356Y-862356D02*
X4785356Y-791644D01*
X4714644Y-791644D01*
X4714644Y-862356D01*
X4785356Y-862356D01*
X5435356Y-608356D02*
X5435356Y-537644D01*
X5364644Y-537644D01*
X5364644Y-608356D01*
X5435356Y-608356D01*
X5435356Y-862356D02*
X5435356Y-791644D01*
X5364644Y-791644D01*
X5364644Y-862356D01*
X5435356Y-862356D01*
X6085356Y-608356D02*
X6085356Y-537644D01*
X6014644Y-537644D01*
X6014644Y-608356D01*
X6085356Y-608356D01*
X6085356Y-862356D02*
X6085356Y-791644D01*
X6014644Y-791644D01*
X6014644Y-862356D01*
X6085356Y-862356D01*
X6735356Y-608356D02*
X6735356Y-537644D01*
X6664644Y-537644D01*
X6664644Y-608356D01*
X6735356Y-608356D01*
X6735356Y-862356D02*
X6735356Y-791644D01*
X6664644Y-791644D01*
X6664644Y-862356D01*
X6735356Y-862356D01*
X7385356Y-608356D02*
X7385356Y-537644D01*
X7314644Y-537644D01*
X7314644Y-608356D01*
X7385356Y-608356D01*
X7385356Y-862356D02*
X7385356Y-791644D01*
X7314644Y-791644D01*
X7314644Y-862356D01*
X7385356Y-862356D01*
X13935356Y-1708356D02*
X13935356Y-1637644D01*
X13864644Y-1637644D01*
X13864644Y-1708356D01*
X13935356Y-1708356D01*
X13935356Y-1962356D02*
X13935356Y-1891644D01*
X13864644Y-1891644D01*
X13864644Y-1962356D01*
X13935356Y-1962356D01*
X13935356Y-2558356D02*
X13935356Y-2487644D01*
X13864644Y-2487644D01*
X13864644Y-2558356D01*
X13935356Y-2558356D01*
X13935356Y-2812356D02*
X13935356Y-2741644D01*
X13864644Y-2741644D01*
X13864644Y-2812356D01*
X13935356Y-2812356D01*
X13935356Y-3408356D02*
X13935356Y-3337644D01*
X13864644Y-3337644D01*
X13864644Y-3408356D01*
X13935356Y-3408356D01*
X13935356Y-3662356D02*
X13935356Y-3591644D01*
X13864644Y-3591644D01*
X13864644Y-3662356D01*
X13935356Y-3662356D01*
X13935356Y-4258356D02*
X13935356Y-4187644D01*
X13864644Y-4187644D01*
X13864644Y-4258356D01*
X13935356Y-4258356D01*
X13935356Y-4512356D02*
X13935356Y-4441644D01*
X13864644Y-4441644D01*
X13864644Y-4512356D01*
X13935356Y-4512356D01*
X13935356Y-5108356D02*
X13935356Y-5037644D01*
X13864644Y-5037644D01*
X13864644Y-5108356D01*
X13935356Y-5108356D01*
X13935356Y-5362356D02*
X13935356Y-5291644D01*
X13864644Y-5291644D01*
X13864644Y-5362356D01*
X13935356Y-5362356D01*
X13935356Y-5958356D02*
X13935356Y-5887644D01*
X13864644Y-5887644D01*
X13864644Y-5958356D01*
X13935356Y-5958356D01*
X13935356Y-6212356D02*
X13935356Y-6141644D01*
X13864644Y-6141644D01*
X13864644Y-6212356D01*
X13935356Y-6212356D01*
X13935356Y-6808356D02*
X13935356Y-6737644D01*
X13864644Y-6737644D01*
X13864644Y-6808356D01*
X13935356Y-6808356D01*
X13935356Y-7062356D02*
X13935356Y-6991644D01*
X13864644Y-6991644D01*
X13864644Y-7062356D01*
X13935356Y-7062356D01*
X13935356Y-7658356D02*
X13935356Y-7587644D01*
X13864644Y-7587644D01*
X13864644Y-7658356D01*
X13935356Y-7658356D01*
X13935356Y-7912356D02*
X13935356Y-7841644D01*
X13864644Y-7841644D01*
X13864644Y-7912356D01*
X13935356Y-7912356D01*
D13*
X11950000Y-9265000D02*
X12015000Y-9200000D01*
X11950000Y-9135000D01*
X11885000Y-9200000D01*
X11950000Y-9265000D01*
X12450000Y-9265000D02*
X12515000Y-9200000D01*
X12450000Y-9135000D01*
X12385000Y-9200000D01*
X12450000Y-9265000D01*
D11*
X253277Y-11318984D02*
X253277Y-11118984D01*
X253277Y-11118984D02*
X300896Y-11118984D01*
X300896Y-11118984D02*
X329467Y-11128508D01*
X329467Y-11128508D02*
X348515Y-11147555D01*
X348515Y-11147555D02*
X358039Y-11166603D01*
X358039Y-11166603D02*
X367562Y-11204698D01*
X367562Y-11204698D02*
X367562Y-11233269D01*
X367562Y-11233269D02*
X358039Y-11271365D01*
X358039Y-11271365D02*
X348515Y-11290412D01*
X348515Y-11290412D02*
X329467Y-11309460D01*
X329467Y-11309460D02*
X300896Y-11318984D01*
X300896Y-11318984D02*
X253277Y-11318984D01*
X453277Y-11318984D02*
X453277Y-11185650D01*
X453277Y-11223746D02*
X462801Y-11204698D01*
X462801Y-11204698D02*
X472324Y-11195174D01*
X472324Y-11195174D02*
X491372Y-11185650D01*
X491372Y-11185650D02*
X510420Y-11185650D01*
X577086Y-11318984D02*
X577086Y-11185650D01*
X577086Y-11118984D02*
X567563Y-11128508D01*
X567563Y-11128508D02*
X577086Y-11138031D01*
X577086Y-11138031D02*
X586610Y-11128508D01*
X586610Y-11128508D02*
X577086Y-11118984D01*
X577086Y-11118984D02*
X577086Y-11138031D01*
X700896Y-11318984D02*
X681848Y-11309460D01*
X681848Y-11309460D02*
X672324Y-11290412D01*
X672324Y-11290412D02*
X672324Y-11118984D01*
X805658Y-11318984D02*
X786610Y-11309460D01*
X786610Y-11309460D02*
X777086Y-11290412D01*
X777086Y-11290412D02*
X777086Y-11118984D01*
X1034229Y-11318984D02*
X1034229Y-11118984D01*
X1034229Y-11118984D02*
X1100896Y-11261841D01*
X1100896Y-11261841D02*
X1167563Y-11118984D01*
X1167563Y-11118984D02*
X1167563Y-11318984D01*
X1348515Y-11318984D02*
X1348515Y-11214222D01*
X1348515Y-11214222D02*
X1338991Y-11195174D01*
X1338991Y-11195174D02*
X1319944Y-11185650D01*
X1319944Y-11185650D02*
X1281848Y-11185650D01*
X1281848Y-11185650D02*
X1262801Y-11195174D01*
X1348515Y-11309460D02*
X1329467Y-11318984D01*
X1329467Y-11318984D02*
X1281848Y-11318984D01*
X1281848Y-11318984D02*
X1262801Y-11309460D01*
X1262801Y-11309460D02*
X1253277Y-11290412D01*
X1253277Y-11290412D02*
X1253277Y-11271365D01*
X1253277Y-11271365D02*
X1262801Y-11252317D01*
X1262801Y-11252317D02*
X1281848Y-11242793D01*
X1281848Y-11242793D02*
X1329467Y-11242793D01*
X1329467Y-11242793D02*
X1348515Y-11233269D01*
X1443753Y-11185650D02*
X1443753Y-11385650D01*
X1443753Y-11195174D02*
X1462801Y-11185650D01*
X1462801Y-11185650D02*
X1500896Y-11185650D01*
X1500896Y-11185650D02*
X1519943Y-11195174D01*
X1519943Y-11195174D02*
X1529467Y-11204698D01*
X1529467Y-11204698D02*
X1538991Y-11223746D01*
X1538991Y-11223746D02*
X1538991Y-11280888D01*
X1538991Y-11280888D02*
X1529467Y-11299936D01*
X1529467Y-11299936D02*
X1519943Y-11309460D01*
X1519943Y-11309460D02*
X1500896Y-11318984D01*
X1500896Y-11318984D02*
X1462801Y-11318984D01*
X1462801Y-11318984D02*
X1443753Y-11309460D01*
X1624705Y-11299936D02*
X1634229Y-11309460D01*
X1634229Y-11309460D02*
X1624705Y-11318984D01*
X1624705Y-11318984D02*
X1615182Y-11309460D01*
X1615182Y-11309460D02*
X1624705Y-11299936D01*
X1624705Y-11299936D02*
X1624705Y-11318984D01*
X1624705Y-11195174D02*
X1634229Y-11204698D01*
X1634229Y-11204698D02*
X1624705Y-11214222D01*
X1624705Y-11214222D02*
X1615182Y-11204698D01*
X1615182Y-11204698D02*
X1624705Y-11195174D01*
X1624705Y-11195174D02*
X1624705Y-11214222D01*
D12*
X-47500Y-11627500D02*
X-7500Y-11667500D01*
X-7500Y-11627500D02*
X-47500Y-11667500D01*
D11*
X291372Y-11538984D02*
X310420Y-11538984D01*
X310420Y-11538984D02*
X329467Y-11548508D01*
X329467Y-11548508D02*
X338991Y-11558031D01*
X338991Y-11558031D02*
X348515Y-11577079D01*
X348515Y-11577079D02*
X358039Y-11615174D01*
X358039Y-11615174D02*
X358039Y-11662793D01*
X358039Y-11662793D02*
X348515Y-11700888D01*
X348515Y-11700888D02*
X338991Y-11719936D01*
X338991Y-11719936D02*
X329467Y-11729460D01*
X329467Y-11729460D02*
X310420Y-11738984D01*
X310420Y-11738984D02*
X291372Y-11738984D01*
X291372Y-11738984D02*
X272324Y-11729460D01*
X272324Y-11729460D02*
X262801Y-11719936D01*
X262801Y-11719936D02*
X253277Y-11700888D01*
X253277Y-11700888D02*
X243753Y-11662793D01*
X243753Y-11662793D02*
X243753Y-11615174D01*
X243753Y-11615174D02*
X253277Y-11577079D01*
X253277Y-11577079D02*
X262801Y-11558031D01*
X262801Y-11558031D02*
X272324Y-11548508D01*
X272324Y-11548508D02*
X291372Y-11538984D01*
X443753Y-11719936D02*
X453277Y-11729460D01*
X453277Y-11729460D02*
X443753Y-11738984D01*
X443753Y-11738984D02*
X434229Y-11729460D01*
X434229Y-11729460D02*
X443753Y-11719936D01*
X443753Y-11719936D02*
X443753Y-11738984D01*
X624705Y-11605650D02*
X624705Y-11738984D01*
X577086Y-11529460D02*
X529467Y-11672317D01*
X529467Y-11672317D02*
X653277Y-11672317D01*
X767562Y-11538984D02*
X786610Y-11538984D01*
X786610Y-11538984D02*
X805658Y-11548508D01*
X805658Y-11548508D02*
X815182Y-11558031D01*
X815182Y-11558031D02*
X824705Y-11577079D01*
X824705Y-11577079D02*
X834229Y-11615174D01*
X834229Y-11615174D02*
X834229Y-11662793D01*
X834229Y-11662793D02*
X824705Y-11700888D01*
X824705Y-11700888D02*
X815182Y-11719936D01*
X815182Y-11719936D02*
X805658Y-11729460D01*
X805658Y-11729460D02*
X786610Y-11738984D01*
X786610Y-11738984D02*
X767562Y-11738984D01*
X767562Y-11738984D02*
X748515Y-11729460D01*
X748515Y-11729460D02*
X738991Y-11719936D01*
X738991Y-11719936D02*
X729467Y-11700888D01*
X729467Y-11700888D02*
X719943Y-11662793D01*
X719943Y-11662793D02*
X719943Y-11615174D01*
X719943Y-11615174D02*
X729467Y-11577079D01*
X729467Y-11577079D02*
X738991Y-11558031D01*
X738991Y-11558031D02*
X748515Y-11548508D01*
X748515Y-11548508D02*
X767562Y-11538984D01*
X958039Y-11538984D02*
X977086Y-11538984D01*
X977086Y-11538984D02*
X996134Y-11548508D01*
X996134Y-11548508D02*
X1005658Y-11558031D01*
X1005658Y-11558031D02*
X1015182Y-11577079D01*
X1015182Y-11577079D02*
X1024705Y-11615174D01*
X1024705Y-11615174D02*
X1024705Y-11662793D01*
X1024705Y-11662793D02*
X1015182Y-11700888D01*
X1015182Y-11700888D02*
X1005658Y-11719936D01*
X1005658Y-11719936D02*
X996134Y-11729460D01*
X996134Y-11729460D02*
X977086Y-11738984D01*
X977086Y-11738984D02*
X958039Y-11738984D01*
X958039Y-11738984D02*
X938991Y-11729460D01*
X938991Y-11729460D02*
X929467Y-11719936D01*
X929467Y-11719936D02*
X919943Y-11700888D01*
X919943Y-11700888D02*
X910420Y-11662793D01*
X910420Y-11662793D02*
X910420Y-11615174D01*
X910420Y-11615174D02*
X919943Y-11577079D01*
X919943Y-11577079D02*
X929467Y-11558031D01*
X929467Y-11558031D02*
X938991Y-11548508D01*
X938991Y-11548508D02*
X958039Y-11538984D01*
X1110420Y-11738984D02*
X1110420Y-11605650D01*
X1110420Y-11624698D02*
X1119944Y-11615174D01*
X1119944Y-11615174D02*
X1138991Y-11605650D01*
X1138991Y-11605650D02*
X1167563Y-11605650D01*
X1167563Y-11605650D02*
X1186610Y-11615174D01*
X1186610Y-11615174D02*
X1196134Y-11634222D01*
X1196134Y-11634222D02*
X1196134Y-11738984D01*
X1196134Y-11634222D02*
X1205658Y-11615174D01*
X1205658Y-11615174D02*
X1224705Y-11605650D01*
X1224705Y-11605650D02*
X1253277Y-11605650D01*
X1253277Y-11605650D02*
X1272325Y-11615174D01*
X1272325Y-11615174D02*
X1281848Y-11634222D01*
X1281848Y-11634222D02*
X1281848Y-11738984D01*
X1377086Y-11738984D02*
X1377086Y-11605650D01*
X1377086Y-11624698D02*
X1386610Y-11615174D01*
X1386610Y-11615174D02*
X1405658Y-11605650D01*
X1405658Y-11605650D02*
X1434229Y-11605650D01*
X1434229Y-11605650D02*
X1453277Y-11615174D01*
X1453277Y-11615174D02*
X1462801Y-11634222D01*
X1462801Y-11634222D02*
X1462801Y-11738984D01*
X1462801Y-11634222D02*
X1472324Y-11615174D01*
X1472324Y-11615174D02*
X1491372Y-11605650D01*
X1491372Y-11605650D02*
X1519943Y-11605650D01*
X1519943Y-11605650D02*
X1538991Y-11615174D01*
X1538991Y-11615174D02*
X1548515Y-11634222D01*
X1548515Y-11634222D02*
X1548515Y-11738984D01*
X1938991Y-11529460D02*
X1767563Y-11786603D01*
X2196134Y-11538984D02*
X2215182Y-11538984D01*
X2215182Y-11538984D02*
X2234229Y-11548508D01*
X2234229Y-11548508D02*
X2243753Y-11558031D01*
X2243753Y-11558031D02*
X2253277Y-11577079D01*
X2253277Y-11577079D02*
X2262801Y-11615174D01*
X2262801Y-11615174D02*
X2262801Y-11662793D01*
X2262801Y-11662793D02*
X2253277Y-11700888D01*
X2253277Y-11700888D02*
X2243753Y-11719936D01*
X2243753Y-11719936D02*
X2234229Y-11729460D01*
X2234229Y-11729460D02*
X2215182Y-11738984D01*
X2215182Y-11738984D02*
X2196134Y-11738984D01*
X2196134Y-11738984D02*
X2177087Y-11729460D01*
X2177087Y-11729460D02*
X2167563Y-11719936D01*
X2167563Y-11719936D02*
X2158039Y-11700888D01*
X2158039Y-11700888D02*
X2148515Y-11662793D01*
X2148515Y-11662793D02*
X2148515Y-11615174D01*
X2148515Y-11615174D02*
X2158039Y-11577079D01*
X2158039Y-11577079D02*
X2167563Y-11558031D01*
X2167563Y-11558031D02*
X2177087Y-11548508D01*
X2177087Y-11548508D02*
X2196134Y-11538984D01*
X2348515Y-11719936D02*
X2358039Y-11729460D01*
X2358039Y-11729460D02*
X2348515Y-11738984D01*
X2348515Y-11738984D02*
X2338991Y-11729460D01*
X2338991Y-11729460D02*
X2348515Y-11719936D01*
X2348515Y-11719936D02*
X2348515Y-11738984D01*
X2481848Y-11538984D02*
X2500896Y-11538984D01*
X2500896Y-11538984D02*
X2519944Y-11548508D01*
X2519944Y-11548508D02*
X2529468Y-11558031D01*
X2529468Y-11558031D02*
X2538991Y-11577079D01*
X2538991Y-11577079D02*
X2548515Y-11615174D01*
X2548515Y-11615174D02*
X2548515Y-11662793D01*
X2548515Y-11662793D02*
X2538991Y-11700888D01*
X2538991Y-11700888D02*
X2529468Y-11719936D01*
X2529468Y-11719936D02*
X2519944Y-11729460D01*
X2519944Y-11729460D02*
X2500896Y-11738984D01*
X2500896Y-11738984D02*
X2481848Y-11738984D01*
X2481848Y-11738984D02*
X2462801Y-11729460D01*
X2462801Y-11729460D02*
X2453277Y-11719936D01*
X2453277Y-11719936D02*
X2443753Y-11700888D01*
X2443753Y-11700888D02*
X2434229Y-11662793D01*
X2434229Y-11662793D02*
X2434229Y-11615174D01*
X2434229Y-11615174D02*
X2443753Y-11577079D01*
X2443753Y-11577079D02*
X2453277Y-11558031D01*
X2453277Y-11558031D02*
X2462801Y-11548508D01*
X2462801Y-11548508D02*
X2481848Y-11538984D01*
X2738991Y-11738984D02*
X2624706Y-11738984D01*
X2681848Y-11738984D02*
X2681848Y-11538984D01*
X2681848Y-11538984D02*
X2662801Y-11567555D01*
X2662801Y-11567555D02*
X2643753Y-11586603D01*
X2643753Y-11586603D02*
X2624706Y-11596127D01*
X2919944Y-11538984D02*
X2824706Y-11538984D01*
X2824706Y-11538984D02*
X2815182Y-11634222D01*
X2815182Y-11634222D02*
X2824706Y-11624698D01*
X2824706Y-11624698D02*
X2843753Y-11615174D01*
X2843753Y-11615174D02*
X2891372Y-11615174D01*
X2891372Y-11615174D02*
X2910420Y-11624698D01*
X2910420Y-11624698D02*
X2919944Y-11634222D01*
X2919944Y-11634222D02*
X2929467Y-11653269D01*
X2929467Y-11653269D02*
X2929467Y-11700888D01*
X2929467Y-11700888D02*
X2919944Y-11719936D01*
X2919944Y-11719936D02*
X2910420Y-11729460D01*
X2910420Y-11729460D02*
X2891372Y-11738984D01*
X2891372Y-11738984D02*
X2843753Y-11738984D01*
X2843753Y-11738984D02*
X2824706Y-11729460D01*
X2824706Y-11729460D02*
X2815182Y-11719936D01*
X2996134Y-11538984D02*
X3129467Y-11538984D01*
X3129467Y-11538984D02*
X3043753Y-11738984D01*
X3196134Y-11538984D02*
X3196134Y-11577079D01*
X3272325Y-11538984D02*
X3272325Y-11577079D01*
X3567563Y-11815174D02*
X3558039Y-11805650D01*
X3558039Y-11805650D02*
X3538991Y-11777079D01*
X3538991Y-11777079D02*
X3529468Y-11758031D01*
X3529468Y-11758031D02*
X3519944Y-11729460D01*
X3519944Y-11729460D02*
X3510420Y-11681841D01*
X3510420Y-11681841D02*
X3510420Y-11643746D01*
X3510420Y-11643746D02*
X3519944Y-11596127D01*
X3519944Y-11596127D02*
X3529468Y-11567555D01*
X3529468Y-11567555D02*
X3538991Y-11548508D01*
X3538991Y-11548508D02*
X3558039Y-11519936D01*
X3558039Y-11519936D02*
X3567563Y-11510412D01*
X3748515Y-11738984D02*
X3634229Y-11738984D01*
X3691372Y-11738984D02*
X3691372Y-11538984D01*
X3691372Y-11538984D02*
X3672325Y-11567555D01*
X3672325Y-11567555D02*
X3653277Y-11586603D01*
X3653277Y-11586603D02*
X3634229Y-11596127D01*
X3919944Y-11605650D02*
X3919944Y-11738984D01*
X3872325Y-11529460D02*
X3824706Y-11672317D01*
X3824706Y-11672317D02*
X3948515Y-11672317D01*
X4177087Y-11738984D02*
X4177087Y-11538984D01*
X4262801Y-11738984D02*
X4262801Y-11634222D01*
X4262801Y-11634222D02*
X4253277Y-11615174D01*
X4253277Y-11615174D02*
X4234230Y-11605650D01*
X4234230Y-11605650D02*
X4205658Y-11605650D01*
X4205658Y-11605650D02*
X4186610Y-11615174D01*
X4186610Y-11615174D02*
X4177087Y-11624698D01*
X4386611Y-11738984D02*
X4367563Y-11729460D01*
X4367563Y-11729460D02*
X4358039Y-11719936D01*
X4358039Y-11719936D02*
X4348515Y-11700888D01*
X4348515Y-11700888D02*
X4348515Y-11643746D01*
X4348515Y-11643746D02*
X4358039Y-11624698D01*
X4358039Y-11624698D02*
X4367563Y-11615174D01*
X4367563Y-11615174D02*
X4386611Y-11605650D01*
X4386611Y-11605650D02*
X4415182Y-11605650D01*
X4415182Y-11605650D02*
X4434230Y-11615174D01*
X4434230Y-11615174D02*
X4443753Y-11624698D01*
X4443753Y-11624698D02*
X4453277Y-11643746D01*
X4453277Y-11643746D02*
X4453277Y-11700888D01*
X4453277Y-11700888D02*
X4443753Y-11719936D01*
X4443753Y-11719936D02*
X4434230Y-11729460D01*
X4434230Y-11729460D02*
X4415182Y-11738984D01*
X4415182Y-11738984D02*
X4386611Y-11738984D01*
X4567563Y-11738984D02*
X4548515Y-11729460D01*
X4548515Y-11729460D02*
X4538992Y-11710412D01*
X4538992Y-11710412D02*
X4538992Y-11538984D01*
X4719944Y-11729460D02*
X4700896Y-11738984D01*
X4700896Y-11738984D02*
X4662801Y-11738984D01*
X4662801Y-11738984D02*
X4643753Y-11729460D01*
X4643753Y-11729460D02*
X4634230Y-11710412D01*
X4634230Y-11710412D02*
X4634230Y-11634222D01*
X4634230Y-11634222D02*
X4643753Y-11615174D01*
X4643753Y-11615174D02*
X4662801Y-11605650D01*
X4662801Y-11605650D02*
X4700896Y-11605650D01*
X4700896Y-11605650D02*
X4719944Y-11615174D01*
X4719944Y-11615174D02*
X4729468Y-11634222D01*
X4729468Y-11634222D02*
X4729468Y-11653269D01*
X4729468Y-11653269D02*
X4634230Y-11672317D01*
X4805658Y-11729460D02*
X4824706Y-11738984D01*
X4824706Y-11738984D02*
X4862801Y-11738984D01*
X4862801Y-11738984D02*
X4881849Y-11729460D01*
X4881849Y-11729460D02*
X4891373Y-11710412D01*
X4891373Y-11710412D02*
X4891373Y-11700888D01*
X4891373Y-11700888D02*
X4881849Y-11681841D01*
X4881849Y-11681841D02*
X4862801Y-11672317D01*
X4862801Y-11672317D02*
X4834230Y-11672317D01*
X4834230Y-11672317D02*
X4815182Y-11662793D01*
X4815182Y-11662793D02*
X4805658Y-11643746D01*
X4805658Y-11643746D02*
X4805658Y-11634222D01*
X4805658Y-11634222D02*
X4815182Y-11615174D01*
X4815182Y-11615174D02*
X4834230Y-11605650D01*
X4834230Y-11605650D02*
X4862801Y-11605650D01*
X4862801Y-11605650D02*
X4881849Y-11615174D01*
X4958039Y-11815174D02*
X4967563Y-11805650D01*
X4967563Y-11805650D02*
X4986611Y-11777079D01*
X4986611Y-11777079D02*
X4996134Y-11758031D01*
X4996134Y-11758031D02*
X5005658Y-11729460D01*
X5005658Y-11729460D02*
X5015182Y-11681841D01*
X5015182Y-11681841D02*
X5015182Y-11643746D01*
X5015182Y-11643746D02*
X5005658Y-11596127D01*
X5005658Y-11596127D02*
X4996134Y-11567555D01*
X4996134Y-11567555D02*
X4986611Y-11548508D01*
X4986611Y-11548508D02*
X4967563Y-11519936D01*
X4967563Y-11519936D02*
X4958039Y-11510412D01*
D12*
X-7500Y-11911500D02*
G75*
G02*
X-57500Y-11911500I-25000J0D01*
G01*
X-57500Y-11911500D02*
G75*
G02*
X-7500Y-11911500I25000J0D01*
G01*
D11*
X291372Y-11802984D02*
X310420Y-11802984D01*
X310420Y-11802984D02*
X329467Y-11812508D01*
X329467Y-11812508D02*
X338991Y-11822031D01*
X338991Y-11822031D02*
X348515Y-11841079D01*
X348515Y-11841079D02*
X358039Y-11879174D01*
X358039Y-11879174D02*
X358039Y-11926793D01*
X358039Y-11926793D02*
X348515Y-11964888D01*
X348515Y-11964888D02*
X338991Y-11983936D01*
X338991Y-11983936D02*
X329467Y-11993460D01*
X329467Y-11993460D02*
X310420Y-12002984D01*
X310420Y-12002984D02*
X291372Y-12002984D01*
X291372Y-12002984D02*
X272324Y-11993460D01*
X272324Y-11993460D02*
X262801Y-11983936D01*
X262801Y-11983936D02*
X253277Y-11964888D01*
X253277Y-11964888D02*
X243753Y-11926793D01*
X243753Y-11926793D02*
X243753Y-11879174D01*
X243753Y-11879174D02*
X253277Y-11841079D01*
X253277Y-11841079D02*
X262801Y-11822031D01*
X262801Y-11822031D02*
X272324Y-11812508D01*
X272324Y-11812508D02*
X291372Y-11802984D01*
X443753Y-11983936D02*
X453277Y-11993460D01*
X453277Y-11993460D02*
X443753Y-12002984D01*
X443753Y-12002984D02*
X434229Y-11993460D01*
X434229Y-11993460D02*
X443753Y-11983936D01*
X443753Y-11983936D02*
X443753Y-12002984D01*
X634229Y-11802984D02*
X538991Y-11802984D01*
X538991Y-11802984D02*
X529467Y-11898222D01*
X529467Y-11898222D02*
X538991Y-11888698D01*
X538991Y-11888698D02*
X558039Y-11879174D01*
X558039Y-11879174D02*
X605658Y-11879174D01*
X605658Y-11879174D02*
X624705Y-11888698D01*
X624705Y-11888698D02*
X634229Y-11898222D01*
X634229Y-11898222D02*
X643753Y-11917269D01*
X643753Y-11917269D02*
X643753Y-11964888D01*
X643753Y-11964888D02*
X634229Y-11983936D01*
X634229Y-11983936D02*
X624705Y-11993460D01*
X624705Y-11993460D02*
X605658Y-12002984D01*
X605658Y-12002984D02*
X558039Y-12002984D01*
X558039Y-12002984D02*
X538991Y-11993460D01*
X538991Y-11993460D02*
X529467Y-11983936D01*
X767562Y-11802984D02*
X786610Y-11802984D01*
X786610Y-11802984D02*
X805658Y-11812508D01*
X805658Y-11812508D02*
X815182Y-11822031D01*
X815182Y-11822031D02*
X824705Y-11841079D01*
X824705Y-11841079D02*
X834229Y-11879174D01*
X834229Y-11879174D02*
X834229Y-11926793D01*
X834229Y-11926793D02*
X824705Y-11964888D01*
X824705Y-11964888D02*
X815182Y-11983936D01*
X815182Y-11983936D02*
X805658Y-11993460D01*
X805658Y-11993460D02*
X786610Y-12002984D01*
X786610Y-12002984D02*
X767562Y-12002984D01*
X767562Y-12002984D02*
X748515Y-11993460D01*
X748515Y-11993460D02*
X738991Y-11983936D01*
X738991Y-11983936D02*
X729467Y-11964888D01*
X729467Y-11964888D02*
X719943Y-11926793D01*
X719943Y-11926793D02*
X719943Y-11879174D01*
X719943Y-11879174D02*
X729467Y-11841079D01*
X729467Y-11841079D02*
X738991Y-11822031D01*
X738991Y-11822031D02*
X748515Y-11812508D01*
X748515Y-11812508D02*
X767562Y-11802984D01*
X958039Y-11802984D02*
X977086Y-11802984D01*
X977086Y-11802984D02*
X996134Y-11812508D01*
X996134Y-11812508D02*
X1005658Y-11822031D01*
X1005658Y-11822031D02*
X1015182Y-11841079D01*
X1015182Y-11841079D02*
X1024705Y-11879174D01*
X1024705Y-11879174D02*
X1024705Y-11926793D01*
X1024705Y-11926793D02*
X1015182Y-11964888D01*
X1015182Y-11964888D02*
X1005658Y-11983936D01*
X1005658Y-11983936D02*
X996134Y-11993460D01*
X996134Y-11993460D02*
X977086Y-12002984D01*
X977086Y-12002984D02*
X958039Y-12002984D01*
X958039Y-12002984D02*
X938991Y-11993460D01*
X938991Y-11993460D02*
X929467Y-11983936D01*
X929467Y-11983936D02*
X919943Y-11964888D01*
X919943Y-11964888D02*
X910420Y-11926793D01*
X910420Y-11926793D02*
X910420Y-11879174D01*
X910420Y-11879174D02*
X919943Y-11841079D01*
X919943Y-11841079D02*
X929467Y-11822031D01*
X929467Y-11822031D02*
X938991Y-11812508D01*
X938991Y-11812508D02*
X958039Y-11802984D01*
X1110420Y-12002984D02*
X1110420Y-11869650D01*
X1110420Y-11888698D02*
X1119944Y-11879174D01*
X1119944Y-11879174D02*
X1138991Y-11869650D01*
X1138991Y-11869650D02*
X1167563Y-11869650D01*
X1167563Y-11869650D02*
X1186610Y-11879174D01*
X1186610Y-11879174D02*
X1196134Y-11898222D01*
X1196134Y-11898222D02*
X1196134Y-12002984D01*
X1196134Y-11898222D02*
X1205658Y-11879174D01*
X1205658Y-11879174D02*
X1224705Y-11869650D01*
X1224705Y-11869650D02*
X1253277Y-11869650D01*
X1253277Y-11869650D02*
X1272325Y-11879174D01*
X1272325Y-11879174D02*
X1281848Y-11898222D01*
X1281848Y-11898222D02*
X1281848Y-12002984D01*
X1377086Y-12002984D02*
X1377086Y-11869650D01*
X1377086Y-11888698D02*
X1386610Y-11879174D01*
X1386610Y-11879174D02*
X1405658Y-11869650D01*
X1405658Y-11869650D02*
X1434229Y-11869650D01*
X1434229Y-11869650D02*
X1453277Y-11879174D01*
X1453277Y-11879174D02*
X1462801Y-11898222D01*
X1462801Y-11898222D02*
X1462801Y-12002984D01*
X1462801Y-11898222D02*
X1472324Y-11879174D01*
X1472324Y-11879174D02*
X1491372Y-11869650D01*
X1491372Y-11869650D02*
X1519943Y-11869650D01*
X1519943Y-11869650D02*
X1538991Y-11879174D01*
X1538991Y-11879174D02*
X1548515Y-11898222D01*
X1548515Y-11898222D02*
X1548515Y-12002984D01*
X1938991Y-11793460D02*
X1767563Y-12050603D01*
X2196134Y-11802984D02*
X2215182Y-11802984D01*
X2215182Y-11802984D02*
X2234229Y-11812508D01*
X2234229Y-11812508D02*
X2243753Y-11822031D01*
X2243753Y-11822031D02*
X2253277Y-11841079D01*
X2253277Y-11841079D02*
X2262801Y-11879174D01*
X2262801Y-11879174D02*
X2262801Y-11926793D01*
X2262801Y-11926793D02*
X2253277Y-11964888D01*
X2253277Y-11964888D02*
X2243753Y-11983936D01*
X2243753Y-11983936D02*
X2234229Y-11993460D01*
X2234229Y-11993460D02*
X2215182Y-12002984D01*
X2215182Y-12002984D02*
X2196134Y-12002984D01*
X2196134Y-12002984D02*
X2177087Y-11993460D01*
X2177087Y-11993460D02*
X2167563Y-11983936D01*
X2167563Y-11983936D02*
X2158039Y-11964888D01*
X2158039Y-11964888D02*
X2148515Y-11926793D01*
X2148515Y-11926793D02*
X2148515Y-11879174D01*
X2148515Y-11879174D02*
X2158039Y-11841079D01*
X2158039Y-11841079D02*
X2167563Y-11822031D01*
X2167563Y-11822031D02*
X2177087Y-11812508D01*
X2177087Y-11812508D02*
X2196134Y-11802984D01*
X2348515Y-11983936D02*
X2358039Y-11993460D01*
X2358039Y-11993460D02*
X2348515Y-12002984D01*
X2348515Y-12002984D02*
X2338991Y-11993460D01*
X2338991Y-11993460D02*
X2348515Y-11983936D01*
X2348515Y-11983936D02*
X2348515Y-12002984D01*
X2481848Y-11802984D02*
X2500896Y-11802984D01*
X2500896Y-11802984D02*
X2519944Y-11812508D01*
X2519944Y-11812508D02*
X2529468Y-11822031D01*
X2529468Y-11822031D02*
X2538991Y-11841079D01*
X2538991Y-11841079D02*
X2548515Y-11879174D01*
X2548515Y-11879174D02*
X2548515Y-11926793D01*
X2548515Y-11926793D02*
X2538991Y-11964888D01*
X2538991Y-11964888D02*
X2529468Y-11983936D01*
X2529468Y-11983936D02*
X2519944Y-11993460D01*
X2519944Y-11993460D02*
X2500896Y-12002984D01*
X2500896Y-12002984D02*
X2481848Y-12002984D01*
X2481848Y-12002984D02*
X2462801Y-11993460D01*
X2462801Y-11993460D02*
X2453277Y-11983936D01*
X2453277Y-11983936D02*
X2443753Y-11964888D01*
X2443753Y-11964888D02*
X2434229Y-11926793D01*
X2434229Y-11926793D02*
X2434229Y-11879174D01*
X2434229Y-11879174D02*
X2443753Y-11841079D01*
X2443753Y-11841079D02*
X2453277Y-11822031D01*
X2453277Y-11822031D02*
X2462801Y-11812508D01*
X2462801Y-11812508D02*
X2481848Y-11802984D01*
X2738991Y-12002984D02*
X2624706Y-12002984D01*
X2681848Y-12002984D02*
X2681848Y-11802984D01*
X2681848Y-11802984D02*
X2662801Y-11831555D01*
X2662801Y-11831555D02*
X2643753Y-11850603D01*
X2643753Y-11850603D02*
X2624706Y-11860127D01*
X2834229Y-12002984D02*
X2872325Y-12002984D01*
X2872325Y-12002984D02*
X2891372Y-11993460D01*
X2891372Y-11993460D02*
X2900896Y-11983936D01*
X2900896Y-11983936D02*
X2919944Y-11955365D01*
X2919944Y-11955365D02*
X2929467Y-11917269D01*
X2929467Y-11917269D02*
X2929467Y-11841079D01*
X2929467Y-11841079D02*
X2919944Y-11822031D01*
X2919944Y-11822031D02*
X2910420Y-11812508D01*
X2910420Y-11812508D02*
X2891372Y-11802984D01*
X2891372Y-11802984D02*
X2853277Y-11802984D01*
X2853277Y-11802984D02*
X2834229Y-11812508D01*
X2834229Y-11812508D02*
X2824706Y-11822031D01*
X2824706Y-11822031D02*
X2815182Y-11841079D01*
X2815182Y-11841079D02*
X2815182Y-11888698D01*
X2815182Y-11888698D02*
X2824706Y-11907746D01*
X2824706Y-11907746D02*
X2834229Y-11917269D01*
X2834229Y-11917269D02*
X2853277Y-11926793D01*
X2853277Y-11926793D02*
X2891372Y-11926793D01*
X2891372Y-11926793D02*
X2910420Y-11917269D01*
X2910420Y-11917269D02*
X2919944Y-11907746D01*
X2919944Y-11907746D02*
X2929467Y-11888698D01*
X2996134Y-11802984D02*
X3129467Y-11802984D01*
X3129467Y-11802984D02*
X3043753Y-12002984D01*
X3196134Y-11802984D02*
X3196134Y-11841079D01*
X3272325Y-11802984D02*
X3272325Y-11841079D01*
X3567563Y-12079174D02*
X3558039Y-12069650D01*
X3558039Y-12069650D02*
X3538991Y-12041079D01*
X3538991Y-12041079D02*
X3529468Y-12022031D01*
X3529468Y-12022031D02*
X3519944Y-11993460D01*
X3519944Y-11993460D02*
X3510420Y-11945841D01*
X3510420Y-11945841D02*
X3510420Y-11907746D01*
X3510420Y-11907746D02*
X3519944Y-11860127D01*
X3519944Y-11860127D02*
X3529468Y-11831555D01*
X3529468Y-11831555D02*
X3538991Y-11812508D01*
X3538991Y-11812508D02*
X3558039Y-11783936D01*
X3558039Y-11783936D02*
X3567563Y-11774412D01*
X3624706Y-11802984D02*
X3748515Y-11802984D01*
X3748515Y-11802984D02*
X3681848Y-11879174D01*
X3681848Y-11879174D02*
X3710420Y-11879174D01*
X3710420Y-11879174D02*
X3729468Y-11888698D01*
X3729468Y-11888698D02*
X3738991Y-11898222D01*
X3738991Y-11898222D02*
X3748515Y-11917269D01*
X3748515Y-11917269D02*
X3748515Y-11964888D01*
X3748515Y-11964888D02*
X3738991Y-11983936D01*
X3738991Y-11983936D02*
X3729468Y-11993460D01*
X3729468Y-11993460D02*
X3710420Y-12002984D01*
X3710420Y-12002984D02*
X3653277Y-12002984D01*
X3653277Y-12002984D02*
X3634229Y-11993460D01*
X3634229Y-11993460D02*
X3624706Y-11983936D01*
X3986610Y-12002984D02*
X3986610Y-11802984D01*
X4072325Y-12002984D02*
X4072325Y-11898222D01*
X4072325Y-11898222D02*
X4062801Y-11879174D01*
X4062801Y-11879174D02*
X4043753Y-11869650D01*
X4043753Y-11869650D02*
X4015182Y-11869650D01*
X4015182Y-11869650D02*
X3996134Y-11879174D01*
X3996134Y-11879174D02*
X3986610Y-11888698D01*
X4196134Y-12002984D02*
X4177087Y-11993460D01*
X4177087Y-11993460D02*
X4167563Y-11983936D01*
X4167563Y-11983936D02*
X4158039Y-11964888D01*
X4158039Y-11964888D02*
X4158039Y-11907746D01*
X4158039Y-11907746D02*
X4167563Y-11888698D01*
X4167563Y-11888698D02*
X4177087Y-11879174D01*
X4177087Y-11879174D02*
X4196134Y-11869650D01*
X4196134Y-11869650D02*
X4224706Y-11869650D01*
X4224706Y-11869650D02*
X4243753Y-11879174D01*
X4243753Y-11879174D02*
X4253277Y-11888698D01*
X4253277Y-11888698D02*
X4262801Y-11907746D01*
X4262801Y-11907746D02*
X4262801Y-11964888D01*
X4262801Y-11964888D02*
X4253277Y-11983936D01*
X4253277Y-11983936D02*
X4243753Y-11993460D01*
X4243753Y-11993460D02*
X4224706Y-12002984D01*
X4224706Y-12002984D02*
X4196134Y-12002984D01*
X4377087Y-12002984D02*
X4358039Y-11993460D01*
X4358039Y-11993460D02*
X4348515Y-11974412D01*
X4348515Y-11974412D02*
X4348515Y-11802984D01*
X4529468Y-11993460D02*
X4510420Y-12002984D01*
X4510420Y-12002984D02*
X4472325Y-12002984D01*
X4472325Y-12002984D02*
X4453277Y-11993460D01*
X4453277Y-11993460D02*
X4443753Y-11974412D01*
X4443753Y-11974412D02*
X4443753Y-11898222D01*
X4443753Y-11898222D02*
X4453277Y-11879174D01*
X4453277Y-11879174D02*
X4472325Y-11869650D01*
X4472325Y-11869650D02*
X4510420Y-11869650D01*
X4510420Y-11869650D02*
X4529468Y-11879174D01*
X4529468Y-11879174D02*
X4538992Y-11898222D01*
X4538992Y-11898222D02*
X4538992Y-11917269D01*
X4538992Y-11917269D02*
X4443753Y-11936317D01*
X4615182Y-11993460D02*
X4634230Y-12002984D01*
X4634230Y-12002984D02*
X4672325Y-12002984D01*
X4672325Y-12002984D02*
X4691373Y-11993460D01*
X4691373Y-11993460D02*
X4700896Y-11974412D01*
X4700896Y-11974412D02*
X4700896Y-11964888D01*
X4700896Y-11964888D02*
X4691373Y-11945841D01*
X4691373Y-11945841D02*
X4672325Y-11936317D01*
X4672325Y-11936317D02*
X4643753Y-11936317D01*
X4643753Y-11936317D02*
X4624706Y-11926793D01*
X4624706Y-11926793D02*
X4615182Y-11907746D01*
X4615182Y-11907746D02*
X4615182Y-11898222D01*
X4615182Y-11898222D02*
X4624706Y-11879174D01*
X4624706Y-11879174D02*
X4643753Y-11869650D01*
X4643753Y-11869650D02*
X4672325Y-11869650D01*
X4672325Y-11869650D02*
X4691373Y-11879174D01*
X4767563Y-12079174D02*
X4777087Y-12069650D01*
X4777087Y-12069650D02*
X4796134Y-12041079D01*
X4796134Y-12041079D02*
X4805658Y-12022031D01*
X4805658Y-12022031D02*
X4815182Y-11993460D01*
X4815182Y-11993460D02*
X4824706Y-11945841D01*
X4824706Y-11945841D02*
X4824706Y-11907746D01*
X4824706Y-11907746D02*
X4815182Y-11860127D01*
X4815182Y-11860127D02*
X4805658Y-11831555D01*
X4805658Y-11831555D02*
X4796134Y-11812508D01*
X4796134Y-11812508D02*
X4777087Y-11783936D01*
X4777087Y-11783936D02*
X4767563Y-11774412D01*
D12*
X-47500Y-12135500D02*
X-47500Y-12215500D01*
X-87500Y-12175500D02*
X-7500Y-12175500D01*
D11*
X291372Y-12066984D02*
X310420Y-12066984D01*
X310420Y-12066984D02*
X329467Y-12076508D01*
X329467Y-12076508D02*
X338991Y-12086031D01*
X338991Y-12086031D02*
X348515Y-12105079D01*
X348515Y-12105079D02*
X358039Y-12143174D01*
X358039Y-12143174D02*
X358039Y-12190793D01*
X358039Y-12190793D02*
X348515Y-12228888D01*
X348515Y-12228888D02*
X338991Y-12247936D01*
X338991Y-12247936D02*
X329467Y-12257460D01*
X329467Y-12257460D02*
X310420Y-12266984D01*
X310420Y-12266984D02*
X291372Y-12266984D01*
X291372Y-12266984D02*
X272324Y-12257460D01*
X272324Y-12257460D02*
X262801Y-12247936D01*
X262801Y-12247936D02*
X253277Y-12228888D01*
X253277Y-12228888D02*
X243753Y-12190793D01*
X243753Y-12190793D02*
X243753Y-12143174D01*
X243753Y-12143174D02*
X253277Y-12105079D01*
X253277Y-12105079D02*
X262801Y-12086031D01*
X262801Y-12086031D02*
X272324Y-12076508D01*
X272324Y-12076508D02*
X291372Y-12066984D01*
X443753Y-12247936D02*
X453277Y-12257460D01*
X453277Y-12257460D02*
X443753Y-12266984D01*
X443753Y-12266984D02*
X434229Y-12257460D01*
X434229Y-12257460D02*
X443753Y-12247936D01*
X443753Y-12247936D02*
X443753Y-12266984D01*
X567563Y-12152698D02*
X548515Y-12143174D01*
X548515Y-12143174D02*
X538991Y-12133650D01*
X538991Y-12133650D02*
X529467Y-12114603D01*
X529467Y-12114603D02*
X529467Y-12105079D01*
X529467Y-12105079D02*
X538991Y-12086031D01*
X538991Y-12086031D02*
X548515Y-12076508D01*
X548515Y-12076508D02*
X567563Y-12066984D01*
X567563Y-12066984D02*
X605658Y-12066984D01*
X605658Y-12066984D02*
X624705Y-12076508D01*
X624705Y-12076508D02*
X634229Y-12086031D01*
X634229Y-12086031D02*
X643753Y-12105079D01*
X643753Y-12105079D02*
X643753Y-12114603D01*
X643753Y-12114603D02*
X634229Y-12133650D01*
X634229Y-12133650D02*
X624705Y-12143174D01*
X624705Y-12143174D02*
X605658Y-12152698D01*
X605658Y-12152698D02*
X567563Y-12152698D01*
X567563Y-12152698D02*
X548515Y-12162222D01*
X548515Y-12162222D02*
X538991Y-12171746D01*
X538991Y-12171746D02*
X529467Y-12190793D01*
X529467Y-12190793D02*
X529467Y-12228888D01*
X529467Y-12228888D02*
X538991Y-12247936D01*
X538991Y-12247936D02*
X548515Y-12257460D01*
X548515Y-12257460D02*
X567563Y-12266984D01*
X567563Y-12266984D02*
X605658Y-12266984D01*
X605658Y-12266984D02*
X624705Y-12257460D01*
X624705Y-12257460D02*
X634229Y-12247936D01*
X634229Y-12247936D02*
X643753Y-12228888D01*
X643753Y-12228888D02*
X643753Y-12190793D01*
X643753Y-12190793D02*
X634229Y-12171746D01*
X634229Y-12171746D02*
X624705Y-12162222D01*
X624705Y-12162222D02*
X605658Y-12152698D01*
X767562Y-12066984D02*
X786610Y-12066984D01*
X786610Y-12066984D02*
X805658Y-12076508D01*
X805658Y-12076508D02*
X815182Y-12086031D01*
X815182Y-12086031D02*
X824705Y-12105079D01*
X824705Y-12105079D02*
X834229Y-12143174D01*
X834229Y-12143174D02*
X834229Y-12190793D01*
X834229Y-12190793D02*
X824705Y-12228888D01*
X824705Y-12228888D02*
X815182Y-12247936D01*
X815182Y-12247936D02*
X805658Y-12257460D01*
X805658Y-12257460D02*
X786610Y-12266984D01*
X786610Y-12266984D02*
X767562Y-12266984D01*
X767562Y-12266984D02*
X748515Y-12257460D01*
X748515Y-12257460D02*
X738991Y-12247936D01*
X738991Y-12247936D02*
X729467Y-12228888D01*
X729467Y-12228888D02*
X719943Y-12190793D01*
X719943Y-12190793D02*
X719943Y-12143174D01*
X719943Y-12143174D02*
X729467Y-12105079D01*
X729467Y-12105079D02*
X738991Y-12086031D01*
X738991Y-12086031D02*
X748515Y-12076508D01*
X748515Y-12076508D02*
X767562Y-12066984D01*
X958039Y-12066984D02*
X977086Y-12066984D01*
X977086Y-12066984D02*
X996134Y-12076508D01*
X996134Y-12076508D02*
X1005658Y-12086031D01*
X1005658Y-12086031D02*
X1015182Y-12105079D01*
X1015182Y-12105079D02*
X1024705Y-12143174D01*
X1024705Y-12143174D02*
X1024705Y-12190793D01*
X1024705Y-12190793D02*
X1015182Y-12228888D01*
X1015182Y-12228888D02*
X1005658Y-12247936D01*
X1005658Y-12247936D02*
X996134Y-12257460D01*
X996134Y-12257460D02*
X977086Y-12266984D01*
X977086Y-12266984D02*
X958039Y-12266984D01*
X958039Y-12266984D02*
X938991Y-12257460D01*
X938991Y-12257460D02*
X929467Y-12247936D01*
X929467Y-12247936D02*
X919943Y-12228888D01*
X919943Y-12228888D02*
X910420Y-12190793D01*
X910420Y-12190793D02*
X910420Y-12143174D01*
X910420Y-12143174D02*
X919943Y-12105079D01*
X919943Y-12105079D02*
X929467Y-12086031D01*
X929467Y-12086031D02*
X938991Y-12076508D01*
X938991Y-12076508D02*
X958039Y-12066984D01*
X1110420Y-12266984D02*
X1110420Y-12133650D01*
X1110420Y-12152698D02*
X1119944Y-12143174D01*
X1119944Y-12143174D02*
X1138991Y-12133650D01*
X1138991Y-12133650D02*
X1167563Y-12133650D01*
X1167563Y-12133650D02*
X1186610Y-12143174D01*
X1186610Y-12143174D02*
X1196134Y-12162222D01*
X1196134Y-12162222D02*
X1196134Y-12266984D01*
X1196134Y-12162222D02*
X1205658Y-12143174D01*
X1205658Y-12143174D02*
X1224705Y-12133650D01*
X1224705Y-12133650D02*
X1253277Y-12133650D01*
X1253277Y-12133650D02*
X1272325Y-12143174D01*
X1272325Y-12143174D02*
X1281848Y-12162222D01*
X1281848Y-12162222D02*
X1281848Y-12266984D01*
X1377086Y-12266984D02*
X1377086Y-12133650D01*
X1377086Y-12152698D02*
X1386610Y-12143174D01*
X1386610Y-12143174D02*
X1405658Y-12133650D01*
X1405658Y-12133650D02*
X1434229Y-12133650D01*
X1434229Y-12133650D02*
X1453277Y-12143174D01*
X1453277Y-12143174D02*
X1462801Y-12162222D01*
X1462801Y-12162222D02*
X1462801Y-12266984D01*
X1462801Y-12162222D02*
X1472324Y-12143174D01*
X1472324Y-12143174D02*
X1491372Y-12133650D01*
X1491372Y-12133650D02*
X1519943Y-12133650D01*
X1519943Y-12133650D02*
X1538991Y-12143174D01*
X1538991Y-12143174D02*
X1548515Y-12162222D01*
X1548515Y-12162222D02*
X1548515Y-12266984D01*
X1938991Y-12057460D02*
X1767563Y-12314603D01*
X2196134Y-12066984D02*
X2215182Y-12066984D01*
X2215182Y-12066984D02*
X2234229Y-12076508D01*
X2234229Y-12076508D02*
X2243753Y-12086031D01*
X2243753Y-12086031D02*
X2253277Y-12105079D01*
X2253277Y-12105079D02*
X2262801Y-12143174D01*
X2262801Y-12143174D02*
X2262801Y-12190793D01*
X2262801Y-12190793D02*
X2253277Y-12228888D01*
X2253277Y-12228888D02*
X2243753Y-12247936D01*
X2243753Y-12247936D02*
X2234229Y-12257460D01*
X2234229Y-12257460D02*
X2215182Y-12266984D01*
X2215182Y-12266984D02*
X2196134Y-12266984D01*
X2196134Y-12266984D02*
X2177087Y-12257460D01*
X2177087Y-12257460D02*
X2167563Y-12247936D01*
X2167563Y-12247936D02*
X2158039Y-12228888D01*
X2158039Y-12228888D02*
X2148515Y-12190793D01*
X2148515Y-12190793D02*
X2148515Y-12143174D01*
X2148515Y-12143174D02*
X2158039Y-12105079D01*
X2158039Y-12105079D02*
X2167563Y-12086031D01*
X2167563Y-12086031D02*
X2177087Y-12076508D01*
X2177087Y-12076508D02*
X2196134Y-12066984D01*
X2348515Y-12247936D02*
X2358039Y-12257460D01*
X2358039Y-12257460D02*
X2348515Y-12266984D01*
X2348515Y-12266984D02*
X2338991Y-12257460D01*
X2338991Y-12257460D02*
X2348515Y-12247936D01*
X2348515Y-12247936D02*
X2348515Y-12266984D01*
X2481848Y-12066984D02*
X2500896Y-12066984D01*
X2500896Y-12066984D02*
X2519944Y-12076508D01*
X2519944Y-12076508D02*
X2529468Y-12086031D01*
X2529468Y-12086031D02*
X2538991Y-12105079D01*
X2538991Y-12105079D02*
X2548515Y-12143174D01*
X2548515Y-12143174D02*
X2548515Y-12190793D01*
X2548515Y-12190793D02*
X2538991Y-12228888D01*
X2538991Y-12228888D02*
X2529468Y-12247936D01*
X2529468Y-12247936D02*
X2519944Y-12257460D01*
X2519944Y-12257460D02*
X2500896Y-12266984D01*
X2500896Y-12266984D02*
X2481848Y-12266984D01*
X2481848Y-12266984D02*
X2462801Y-12257460D01*
X2462801Y-12257460D02*
X2453277Y-12247936D01*
X2453277Y-12247936D02*
X2443753Y-12228888D01*
X2443753Y-12228888D02*
X2434229Y-12190793D01*
X2434229Y-12190793D02*
X2434229Y-12143174D01*
X2434229Y-12143174D02*
X2443753Y-12105079D01*
X2443753Y-12105079D02*
X2453277Y-12086031D01*
X2453277Y-12086031D02*
X2462801Y-12076508D01*
X2462801Y-12076508D02*
X2481848Y-12066984D01*
X2615182Y-12066984D02*
X2738991Y-12066984D01*
X2738991Y-12066984D02*
X2672325Y-12143174D01*
X2672325Y-12143174D02*
X2700896Y-12143174D01*
X2700896Y-12143174D02*
X2719944Y-12152698D01*
X2719944Y-12152698D02*
X2729468Y-12162222D01*
X2729468Y-12162222D02*
X2738991Y-12181269D01*
X2738991Y-12181269D02*
X2738991Y-12228888D01*
X2738991Y-12228888D02*
X2729468Y-12247936D01*
X2729468Y-12247936D02*
X2719944Y-12257460D01*
X2719944Y-12257460D02*
X2700896Y-12266984D01*
X2700896Y-12266984D02*
X2643753Y-12266984D01*
X2643753Y-12266984D02*
X2624706Y-12257460D01*
X2624706Y-12257460D02*
X2615182Y-12247936D01*
X2929467Y-12266984D02*
X2815182Y-12266984D01*
X2872325Y-12266984D02*
X2872325Y-12066984D01*
X2872325Y-12066984D02*
X2853277Y-12095555D01*
X2853277Y-12095555D02*
X2834229Y-12114603D01*
X2834229Y-12114603D02*
X2815182Y-12124127D01*
X3110420Y-12066984D02*
X3015182Y-12066984D01*
X3015182Y-12066984D02*
X3005658Y-12162222D01*
X3005658Y-12162222D02*
X3015182Y-12152698D01*
X3015182Y-12152698D02*
X3034229Y-12143174D01*
X3034229Y-12143174D02*
X3081848Y-12143174D01*
X3081848Y-12143174D02*
X3100896Y-12152698D01*
X3100896Y-12152698D02*
X3110420Y-12162222D01*
X3110420Y-12162222D02*
X3119944Y-12181269D01*
X3119944Y-12181269D02*
X3119944Y-12228888D01*
X3119944Y-12228888D02*
X3110420Y-12247936D01*
X3110420Y-12247936D02*
X3100896Y-12257460D01*
X3100896Y-12257460D02*
X3081848Y-12266984D01*
X3081848Y-12266984D02*
X3034229Y-12266984D01*
X3034229Y-12266984D02*
X3015182Y-12257460D01*
X3015182Y-12257460D02*
X3005658Y-12247936D01*
X3196134Y-12066984D02*
X3196134Y-12105079D01*
X3272325Y-12066984D02*
X3272325Y-12105079D01*
X3567563Y-12343174D02*
X3558039Y-12333650D01*
X3558039Y-12333650D02*
X3538991Y-12305079D01*
X3538991Y-12305079D02*
X3529468Y-12286031D01*
X3529468Y-12286031D02*
X3519944Y-12257460D01*
X3519944Y-12257460D02*
X3510420Y-12209841D01*
X3510420Y-12209841D02*
X3510420Y-12171746D01*
X3510420Y-12171746D02*
X3519944Y-12124127D01*
X3519944Y-12124127D02*
X3529468Y-12095555D01*
X3529468Y-12095555D02*
X3538991Y-12076508D01*
X3538991Y-12076508D02*
X3558039Y-12047936D01*
X3558039Y-12047936D02*
X3567563Y-12038412D01*
X3748515Y-12266984D02*
X3634229Y-12266984D01*
X3691372Y-12266984D02*
X3691372Y-12066984D01*
X3691372Y-12066984D02*
X3672325Y-12095555D01*
X3672325Y-12095555D02*
X3653277Y-12114603D01*
X3653277Y-12114603D02*
X3634229Y-12124127D01*
X3938991Y-12266984D02*
X3824706Y-12266984D01*
X3881848Y-12266984D02*
X3881848Y-12066984D01*
X3881848Y-12066984D02*
X3862801Y-12095555D01*
X3862801Y-12095555D02*
X3843753Y-12114603D01*
X3843753Y-12114603D02*
X3824706Y-12124127D01*
X4110420Y-12133650D02*
X4110420Y-12266984D01*
X4062801Y-12057460D02*
X4015182Y-12200317D01*
X4015182Y-12200317D02*
X4138991Y-12200317D01*
X4367563Y-12266984D02*
X4367563Y-12066984D01*
X4453277Y-12266984D02*
X4453277Y-12162222D01*
X4453277Y-12162222D02*
X4443753Y-12143174D01*
X4443753Y-12143174D02*
X4424706Y-12133650D01*
X4424706Y-12133650D02*
X4396134Y-12133650D01*
X4396134Y-12133650D02*
X4377087Y-12143174D01*
X4377087Y-12143174D02*
X4367563Y-12152698D01*
X4577087Y-12266984D02*
X4558039Y-12257460D01*
X4558039Y-12257460D02*
X4548515Y-12247936D01*
X4548515Y-12247936D02*
X4538992Y-12228888D01*
X4538992Y-12228888D02*
X4538992Y-12171746D01*
X4538992Y-12171746D02*
X4548515Y-12152698D01*
X4548515Y-12152698D02*
X4558039Y-12143174D01*
X4558039Y-12143174D02*
X4577087Y-12133650D01*
X4577087Y-12133650D02*
X4605658Y-12133650D01*
X4605658Y-12133650D02*
X4624706Y-12143174D01*
X4624706Y-12143174D02*
X4634230Y-12152698D01*
X4634230Y-12152698D02*
X4643753Y-12171746D01*
X4643753Y-12171746D02*
X4643753Y-12228888D01*
X4643753Y-12228888D02*
X4634230Y-12247936D01*
X4634230Y-12247936D02*
X4624706Y-12257460D01*
X4624706Y-12257460D02*
X4605658Y-12266984D01*
X4605658Y-12266984D02*
X4577087Y-12266984D01*
X4758039Y-12266984D02*
X4738992Y-12257460D01*
X4738992Y-12257460D02*
X4729468Y-12238412D01*
X4729468Y-12238412D02*
X4729468Y-12066984D01*
X4910420Y-12257460D02*
X4891373Y-12266984D01*
X4891373Y-12266984D02*
X4853277Y-12266984D01*
X4853277Y-12266984D02*
X4834230Y-12257460D01*
X4834230Y-12257460D02*
X4824706Y-12238412D01*
X4824706Y-12238412D02*
X4824706Y-12162222D01*
X4824706Y-12162222D02*
X4834230Y-12143174D01*
X4834230Y-12143174D02*
X4853277Y-12133650D01*
X4853277Y-12133650D02*
X4891373Y-12133650D01*
X4891373Y-12133650D02*
X4910420Y-12143174D01*
X4910420Y-12143174D02*
X4919944Y-12162222D01*
X4919944Y-12162222D02*
X4919944Y-12181269D01*
X4919944Y-12181269D02*
X4824706Y-12200317D01*
X4996134Y-12257460D02*
X5015182Y-12266984D01*
X5015182Y-12266984D02*
X5053277Y-12266984D01*
X5053277Y-12266984D02*
X5072325Y-12257460D01*
X5072325Y-12257460D02*
X5081849Y-12238412D01*
X5081849Y-12238412D02*
X5081849Y-12228888D01*
X5081849Y-12228888D02*
X5072325Y-12209841D01*
X5072325Y-12209841D02*
X5053277Y-12200317D01*
X5053277Y-12200317D02*
X5024706Y-12200317D01*
X5024706Y-12200317D02*
X5005658Y-12190793D01*
X5005658Y-12190793D02*
X4996134Y-12171746D01*
X4996134Y-12171746D02*
X4996134Y-12162222D01*
X4996134Y-12162222D02*
X5005658Y-12143174D01*
X5005658Y-12143174D02*
X5024706Y-12133650D01*
X5024706Y-12133650D02*
X5053277Y-12133650D01*
X5053277Y-12133650D02*
X5072325Y-12143174D01*
X5148515Y-12343174D02*
X5158039Y-12333650D01*
X5158039Y-12333650D02*
X5177087Y-12305079D01*
X5177087Y-12305079D02*
X5186611Y-12286031D01*
X5186611Y-12286031D02*
X5196134Y-12257460D01*
X5196134Y-12257460D02*
X5205658Y-12209841D01*
X5205658Y-12209841D02*
X5205658Y-12171746D01*
X5205658Y-12171746D02*
X5196134Y-12124127D01*
X5196134Y-12124127D02*
X5186611Y-12095555D01*
X5186611Y-12095555D02*
X5177087Y-12076508D01*
X5177087Y-12076508D02*
X5158039Y-12047936D01*
X5158039Y-12047936D02*
X5148515Y-12038412D01*
D12*
X-22144Y-12474856D02*
X-22144Y-12404144D01*
X-92856Y-12404144D01*
X-92856Y-12474856D01*
X-22144Y-12474856D01*
D11*
X358039Y-12530984D02*
X243753Y-12530984D01*
X300896Y-12530984D02*
X300896Y-12330984D01*
X300896Y-12330984D02*
X281848Y-12359555D01*
X281848Y-12359555D02*
X262801Y-12378603D01*
X262801Y-12378603D02*
X243753Y-12388127D01*
X443753Y-12511936D02*
X453277Y-12521460D01*
X453277Y-12521460D02*
X443753Y-12530984D01*
X443753Y-12530984D02*
X434229Y-12521460D01*
X434229Y-12521460D02*
X443753Y-12511936D01*
X443753Y-12511936D02*
X443753Y-12530984D01*
X577086Y-12330984D02*
X596134Y-12330984D01*
X596134Y-12330984D02*
X615182Y-12340508D01*
X615182Y-12340508D02*
X624705Y-12350031D01*
X624705Y-12350031D02*
X634229Y-12369079D01*
X634229Y-12369079D02*
X643753Y-12407174D01*
X643753Y-12407174D02*
X643753Y-12454793D01*
X643753Y-12454793D02*
X634229Y-12492888D01*
X634229Y-12492888D02*
X624705Y-12511936D01*
X624705Y-12511936D02*
X615182Y-12521460D01*
X615182Y-12521460D02*
X596134Y-12530984D01*
X596134Y-12530984D02*
X577086Y-12530984D01*
X577086Y-12530984D02*
X558039Y-12521460D01*
X558039Y-12521460D02*
X548515Y-12511936D01*
X548515Y-12511936D02*
X538991Y-12492888D01*
X538991Y-12492888D02*
X529467Y-12454793D01*
X529467Y-12454793D02*
X529467Y-12407174D01*
X529467Y-12407174D02*
X538991Y-12369079D01*
X538991Y-12369079D02*
X548515Y-12350031D01*
X548515Y-12350031D02*
X558039Y-12340508D01*
X558039Y-12340508D02*
X577086Y-12330984D01*
X767562Y-12330984D02*
X786610Y-12330984D01*
X786610Y-12330984D02*
X805658Y-12340508D01*
X805658Y-12340508D02*
X815182Y-12350031D01*
X815182Y-12350031D02*
X824705Y-12369079D01*
X824705Y-12369079D02*
X834229Y-12407174D01*
X834229Y-12407174D02*
X834229Y-12454793D01*
X834229Y-12454793D02*
X824705Y-12492888D01*
X824705Y-12492888D02*
X815182Y-12511936D01*
X815182Y-12511936D02*
X805658Y-12521460D01*
X805658Y-12521460D02*
X786610Y-12530984D01*
X786610Y-12530984D02*
X767562Y-12530984D01*
X767562Y-12530984D02*
X748515Y-12521460D01*
X748515Y-12521460D02*
X738991Y-12511936D01*
X738991Y-12511936D02*
X729467Y-12492888D01*
X729467Y-12492888D02*
X719943Y-12454793D01*
X719943Y-12454793D02*
X719943Y-12407174D01*
X719943Y-12407174D02*
X729467Y-12369079D01*
X729467Y-12369079D02*
X738991Y-12350031D01*
X738991Y-12350031D02*
X748515Y-12340508D01*
X748515Y-12340508D02*
X767562Y-12330984D01*
X958039Y-12330984D02*
X977086Y-12330984D01*
X977086Y-12330984D02*
X996134Y-12340508D01*
X996134Y-12340508D02*
X1005658Y-12350031D01*
X1005658Y-12350031D02*
X1015182Y-12369079D01*
X1015182Y-12369079D02*
X1024705Y-12407174D01*
X1024705Y-12407174D02*
X1024705Y-12454793D01*
X1024705Y-12454793D02*
X1015182Y-12492888D01*
X1015182Y-12492888D02*
X1005658Y-12511936D01*
X1005658Y-12511936D02*
X996134Y-12521460D01*
X996134Y-12521460D02*
X977086Y-12530984D01*
X977086Y-12530984D02*
X958039Y-12530984D01*
X958039Y-12530984D02*
X938991Y-12521460D01*
X938991Y-12521460D02*
X929467Y-12511936D01*
X929467Y-12511936D02*
X919943Y-12492888D01*
X919943Y-12492888D02*
X910420Y-12454793D01*
X910420Y-12454793D02*
X910420Y-12407174D01*
X910420Y-12407174D02*
X919943Y-12369079D01*
X919943Y-12369079D02*
X929467Y-12350031D01*
X929467Y-12350031D02*
X938991Y-12340508D01*
X938991Y-12340508D02*
X958039Y-12330984D01*
X1110420Y-12530984D02*
X1110420Y-12397650D01*
X1110420Y-12416698D02*
X1119944Y-12407174D01*
X1119944Y-12407174D02*
X1138991Y-12397650D01*
X1138991Y-12397650D02*
X1167563Y-12397650D01*
X1167563Y-12397650D02*
X1186610Y-12407174D01*
X1186610Y-12407174D02*
X1196134Y-12426222D01*
X1196134Y-12426222D02*
X1196134Y-12530984D01*
X1196134Y-12426222D02*
X1205658Y-12407174D01*
X1205658Y-12407174D02*
X1224705Y-12397650D01*
X1224705Y-12397650D02*
X1253277Y-12397650D01*
X1253277Y-12397650D02*
X1272325Y-12407174D01*
X1272325Y-12407174D02*
X1281848Y-12426222D01*
X1281848Y-12426222D02*
X1281848Y-12530984D01*
X1377086Y-12530984D02*
X1377086Y-12397650D01*
X1377086Y-12416698D02*
X1386610Y-12407174D01*
X1386610Y-12407174D02*
X1405658Y-12397650D01*
X1405658Y-12397650D02*
X1434229Y-12397650D01*
X1434229Y-12397650D02*
X1453277Y-12407174D01*
X1453277Y-12407174D02*
X1462801Y-12426222D01*
X1462801Y-12426222D02*
X1462801Y-12530984D01*
X1462801Y-12426222D02*
X1472324Y-12407174D01*
X1472324Y-12407174D02*
X1491372Y-12397650D01*
X1491372Y-12397650D02*
X1519943Y-12397650D01*
X1519943Y-12397650D02*
X1538991Y-12407174D01*
X1538991Y-12407174D02*
X1548515Y-12426222D01*
X1548515Y-12426222D02*
X1548515Y-12530984D01*
X1938991Y-12321460D02*
X1767563Y-12578603D01*
X2196134Y-12330984D02*
X2215182Y-12330984D01*
X2215182Y-12330984D02*
X2234229Y-12340508D01*
X2234229Y-12340508D02*
X2243753Y-12350031D01*
X2243753Y-12350031D02*
X2253277Y-12369079D01*
X2253277Y-12369079D02*
X2262801Y-12407174D01*
X2262801Y-12407174D02*
X2262801Y-12454793D01*
X2262801Y-12454793D02*
X2253277Y-12492888D01*
X2253277Y-12492888D02*
X2243753Y-12511936D01*
X2243753Y-12511936D02*
X2234229Y-12521460D01*
X2234229Y-12521460D02*
X2215182Y-12530984D01*
X2215182Y-12530984D02*
X2196134Y-12530984D01*
X2196134Y-12530984D02*
X2177087Y-12521460D01*
X2177087Y-12521460D02*
X2167563Y-12511936D01*
X2167563Y-12511936D02*
X2158039Y-12492888D01*
X2158039Y-12492888D02*
X2148515Y-12454793D01*
X2148515Y-12454793D02*
X2148515Y-12407174D01*
X2148515Y-12407174D02*
X2158039Y-12369079D01*
X2158039Y-12369079D02*
X2167563Y-12350031D01*
X2167563Y-12350031D02*
X2177087Y-12340508D01*
X2177087Y-12340508D02*
X2196134Y-12330984D01*
X2348515Y-12511936D02*
X2358039Y-12521460D01*
X2358039Y-12521460D02*
X2348515Y-12530984D01*
X2348515Y-12530984D02*
X2338991Y-12521460D01*
X2338991Y-12521460D02*
X2348515Y-12511936D01*
X2348515Y-12511936D02*
X2348515Y-12530984D01*
X2481848Y-12330984D02*
X2500896Y-12330984D01*
X2500896Y-12330984D02*
X2519944Y-12340508D01*
X2519944Y-12340508D02*
X2529468Y-12350031D01*
X2529468Y-12350031D02*
X2538991Y-12369079D01*
X2538991Y-12369079D02*
X2548515Y-12407174D01*
X2548515Y-12407174D02*
X2548515Y-12454793D01*
X2548515Y-12454793D02*
X2538991Y-12492888D01*
X2538991Y-12492888D02*
X2529468Y-12511936D01*
X2529468Y-12511936D02*
X2519944Y-12521460D01*
X2519944Y-12521460D02*
X2500896Y-12530984D01*
X2500896Y-12530984D02*
X2481848Y-12530984D01*
X2481848Y-12530984D02*
X2462801Y-12521460D01*
X2462801Y-12521460D02*
X2453277Y-12511936D01*
X2453277Y-12511936D02*
X2443753Y-12492888D01*
X2443753Y-12492888D02*
X2434229Y-12454793D01*
X2434229Y-12454793D02*
X2434229Y-12407174D01*
X2434229Y-12407174D02*
X2443753Y-12369079D01*
X2443753Y-12369079D02*
X2453277Y-12350031D01*
X2453277Y-12350031D02*
X2462801Y-12340508D01*
X2462801Y-12340508D02*
X2481848Y-12330984D01*
X2615182Y-12330984D02*
X2738991Y-12330984D01*
X2738991Y-12330984D02*
X2672325Y-12407174D01*
X2672325Y-12407174D02*
X2700896Y-12407174D01*
X2700896Y-12407174D02*
X2719944Y-12416698D01*
X2719944Y-12416698D02*
X2729468Y-12426222D01*
X2729468Y-12426222D02*
X2738991Y-12445269D01*
X2738991Y-12445269D02*
X2738991Y-12492888D01*
X2738991Y-12492888D02*
X2729468Y-12511936D01*
X2729468Y-12511936D02*
X2719944Y-12521460D01*
X2719944Y-12521460D02*
X2700896Y-12530984D01*
X2700896Y-12530984D02*
X2643753Y-12530984D01*
X2643753Y-12530984D02*
X2624706Y-12521460D01*
X2624706Y-12521460D02*
X2615182Y-12511936D01*
X2834229Y-12530984D02*
X2872325Y-12530984D01*
X2872325Y-12530984D02*
X2891372Y-12521460D01*
X2891372Y-12521460D02*
X2900896Y-12511936D01*
X2900896Y-12511936D02*
X2919944Y-12483365D01*
X2919944Y-12483365D02*
X2929467Y-12445269D01*
X2929467Y-12445269D02*
X2929467Y-12369079D01*
X2929467Y-12369079D02*
X2919944Y-12350031D01*
X2919944Y-12350031D02*
X2910420Y-12340508D01*
X2910420Y-12340508D02*
X2891372Y-12330984D01*
X2891372Y-12330984D02*
X2853277Y-12330984D01*
X2853277Y-12330984D02*
X2834229Y-12340508D01*
X2834229Y-12340508D02*
X2824706Y-12350031D01*
X2824706Y-12350031D02*
X2815182Y-12369079D01*
X2815182Y-12369079D02*
X2815182Y-12416698D01*
X2815182Y-12416698D02*
X2824706Y-12435746D01*
X2824706Y-12435746D02*
X2834229Y-12445269D01*
X2834229Y-12445269D02*
X2853277Y-12454793D01*
X2853277Y-12454793D02*
X2891372Y-12454793D01*
X2891372Y-12454793D02*
X2910420Y-12445269D01*
X2910420Y-12445269D02*
X2919944Y-12435746D01*
X2919944Y-12435746D02*
X2929467Y-12416698D01*
X3100896Y-12397650D02*
X3100896Y-12530984D01*
X3053277Y-12321460D02*
X3005658Y-12464317D01*
X3005658Y-12464317D02*
X3129467Y-12464317D01*
X3196134Y-12330984D02*
X3196134Y-12369079D01*
X3272325Y-12330984D02*
X3272325Y-12369079D01*
X3567563Y-12607174D02*
X3558039Y-12597650D01*
X3558039Y-12597650D02*
X3538991Y-12569079D01*
X3538991Y-12569079D02*
X3529468Y-12550031D01*
X3529468Y-12550031D02*
X3519944Y-12521460D01*
X3519944Y-12521460D02*
X3510420Y-12473841D01*
X3510420Y-12473841D02*
X3510420Y-12435746D01*
X3510420Y-12435746D02*
X3519944Y-12388127D01*
X3519944Y-12388127D02*
X3529468Y-12359555D01*
X3529468Y-12359555D02*
X3538991Y-12340508D01*
X3538991Y-12340508D02*
X3558039Y-12311936D01*
X3558039Y-12311936D02*
X3567563Y-12302412D01*
X3672325Y-12416698D02*
X3653277Y-12407174D01*
X3653277Y-12407174D02*
X3643753Y-12397650D01*
X3643753Y-12397650D02*
X3634229Y-12378603D01*
X3634229Y-12378603D02*
X3634229Y-12369079D01*
X3634229Y-12369079D02*
X3643753Y-12350031D01*
X3643753Y-12350031D02*
X3653277Y-12340508D01*
X3653277Y-12340508D02*
X3672325Y-12330984D01*
X3672325Y-12330984D02*
X3710420Y-12330984D01*
X3710420Y-12330984D02*
X3729468Y-12340508D01*
X3729468Y-12340508D02*
X3738991Y-12350031D01*
X3738991Y-12350031D02*
X3748515Y-12369079D01*
X3748515Y-12369079D02*
X3748515Y-12378603D01*
X3748515Y-12378603D02*
X3738991Y-12397650D01*
X3738991Y-12397650D02*
X3729468Y-12407174D01*
X3729468Y-12407174D02*
X3710420Y-12416698D01*
X3710420Y-12416698D02*
X3672325Y-12416698D01*
X3672325Y-12416698D02*
X3653277Y-12426222D01*
X3653277Y-12426222D02*
X3643753Y-12435746D01*
X3643753Y-12435746D02*
X3634229Y-12454793D01*
X3634229Y-12454793D02*
X3634229Y-12492888D01*
X3634229Y-12492888D02*
X3643753Y-12511936D01*
X3643753Y-12511936D02*
X3653277Y-12521460D01*
X3653277Y-12521460D02*
X3672325Y-12530984D01*
X3672325Y-12530984D02*
X3710420Y-12530984D01*
X3710420Y-12530984D02*
X3729468Y-12521460D01*
X3729468Y-12521460D02*
X3738991Y-12511936D01*
X3738991Y-12511936D02*
X3748515Y-12492888D01*
X3748515Y-12492888D02*
X3748515Y-12454793D01*
X3748515Y-12454793D02*
X3738991Y-12435746D01*
X3738991Y-12435746D02*
X3729468Y-12426222D01*
X3729468Y-12426222D02*
X3710420Y-12416698D01*
X3824706Y-12350031D02*
X3834229Y-12340508D01*
X3834229Y-12340508D02*
X3853277Y-12330984D01*
X3853277Y-12330984D02*
X3900896Y-12330984D01*
X3900896Y-12330984D02*
X3919944Y-12340508D01*
X3919944Y-12340508D02*
X3929468Y-12350031D01*
X3929468Y-12350031D02*
X3938991Y-12369079D01*
X3938991Y-12369079D02*
X3938991Y-12388127D01*
X3938991Y-12388127D02*
X3929468Y-12416698D01*
X3929468Y-12416698D02*
X3815182Y-12530984D01*
X3815182Y-12530984D02*
X3938991Y-12530984D01*
X4177087Y-12530984D02*
X4177087Y-12330984D01*
X4262801Y-12530984D02*
X4262801Y-12426222D01*
X4262801Y-12426222D02*
X4253277Y-12407174D01*
X4253277Y-12407174D02*
X4234230Y-12397650D01*
X4234230Y-12397650D02*
X4205658Y-12397650D01*
X4205658Y-12397650D02*
X4186610Y-12407174D01*
X4186610Y-12407174D02*
X4177087Y-12416698D01*
X4386611Y-12530984D02*
X4367563Y-12521460D01*
X4367563Y-12521460D02*
X4358039Y-12511936D01*
X4358039Y-12511936D02*
X4348515Y-12492888D01*
X4348515Y-12492888D02*
X4348515Y-12435746D01*
X4348515Y-12435746D02*
X4358039Y-12416698D01*
X4358039Y-12416698D02*
X4367563Y-12407174D01*
X4367563Y-12407174D02*
X4386611Y-12397650D01*
X4386611Y-12397650D02*
X4415182Y-12397650D01*
X4415182Y-12397650D02*
X4434230Y-12407174D01*
X4434230Y-12407174D02*
X4443753Y-12416698D01*
X4443753Y-12416698D02*
X4453277Y-12435746D01*
X4453277Y-12435746D02*
X4453277Y-12492888D01*
X4453277Y-12492888D02*
X4443753Y-12511936D01*
X4443753Y-12511936D02*
X4434230Y-12521460D01*
X4434230Y-12521460D02*
X4415182Y-12530984D01*
X4415182Y-12530984D02*
X4386611Y-12530984D01*
X4567563Y-12530984D02*
X4548515Y-12521460D01*
X4548515Y-12521460D02*
X4538992Y-12502412D01*
X4538992Y-12502412D02*
X4538992Y-12330984D01*
X4719944Y-12521460D02*
X4700896Y-12530984D01*
X4700896Y-12530984D02*
X4662801Y-12530984D01*
X4662801Y-12530984D02*
X4643753Y-12521460D01*
X4643753Y-12521460D02*
X4634230Y-12502412D01*
X4634230Y-12502412D02*
X4634230Y-12426222D01*
X4634230Y-12426222D02*
X4643753Y-12407174D01*
X4643753Y-12407174D02*
X4662801Y-12397650D01*
X4662801Y-12397650D02*
X4700896Y-12397650D01*
X4700896Y-12397650D02*
X4719944Y-12407174D01*
X4719944Y-12407174D02*
X4729468Y-12426222D01*
X4729468Y-12426222D02*
X4729468Y-12445269D01*
X4729468Y-12445269D02*
X4634230Y-12464317D01*
X4805658Y-12521460D02*
X4824706Y-12530984D01*
X4824706Y-12530984D02*
X4862801Y-12530984D01*
X4862801Y-12530984D02*
X4881849Y-12521460D01*
X4881849Y-12521460D02*
X4891373Y-12502412D01*
X4891373Y-12502412D02*
X4891373Y-12492888D01*
X4891373Y-12492888D02*
X4881849Y-12473841D01*
X4881849Y-12473841D02*
X4862801Y-12464317D01*
X4862801Y-12464317D02*
X4834230Y-12464317D01*
X4834230Y-12464317D02*
X4815182Y-12454793D01*
X4815182Y-12454793D02*
X4805658Y-12435746D01*
X4805658Y-12435746D02*
X4805658Y-12426222D01*
X4805658Y-12426222D02*
X4815182Y-12407174D01*
X4815182Y-12407174D02*
X4834230Y-12397650D01*
X4834230Y-12397650D02*
X4862801Y-12397650D01*
X4862801Y-12397650D02*
X4881849Y-12407174D01*
X4958039Y-12607174D02*
X4967563Y-12597650D01*
X4967563Y-12597650D02*
X4986611Y-12569079D01*
X4986611Y-12569079D02*
X4996134Y-12550031D01*
X4996134Y-12550031D02*
X5005658Y-12521460D01*
X5005658Y-12521460D02*
X5015182Y-12473841D01*
X5015182Y-12473841D02*
X5015182Y-12435746D01*
X5015182Y-12435746D02*
X5005658Y-12388127D01*
X5005658Y-12388127D02*
X4996134Y-12359555D01*
X4996134Y-12359555D02*
X4986611Y-12340508D01*
X4986611Y-12340508D02*
X4967563Y-12311936D01*
X4967563Y-12311936D02*
X4958039Y-12302412D01*
D13*
X-72500Y-12768500D02*
X-7500Y-12703500D01*
X-72500Y-12638500D01*
X-137500Y-12703500D01*
X-72500Y-12768500D01*
D11*
X358039Y-12794984D02*
X243753Y-12794984D01*
X300896Y-12794984D02*
X300896Y-12594984D01*
X300896Y-12594984D02*
X281848Y-12623555D01*
X281848Y-12623555D02*
X262801Y-12642603D01*
X262801Y-12642603D02*
X243753Y-12652127D01*
X443753Y-12775936D02*
X453277Y-12785460D01*
X453277Y-12785460D02*
X443753Y-12794984D01*
X443753Y-12794984D02*
X434229Y-12785460D01*
X434229Y-12785460D02*
X443753Y-12775936D01*
X443753Y-12775936D02*
X443753Y-12794984D01*
X519943Y-12594984D02*
X643753Y-12594984D01*
X643753Y-12594984D02*
X577086Y-12671174D01*
X577086Y-12671174D02*
X605658Y-12671174D01*
X605658Y-12671174D02*
X624705Y-12680698D01*
X624705Y-12680698D02*
X634229Y-12690222D01*
X634229Y-12690222D02*
X643753Y-12709269D01*
X643753Y-12709269D02*
X643753Y-12756888D01*
X643753Y-12756888D02*
X634229Y-12775936D01*
X634229Y-12775936D02*
X624705Y-12785460D01*
X624705Y-12785460D02*
X605658Y-12794984D01*
X605658Y-12794984D02*
X548515Y-12794984D01*
X548515Y-12794984D02*
X529467Y-12785460D01*
X529467Y-12785460D02*
X519943Y-12775936D01*
X767562Y-12594984D02*
X786610Y-12594984D01*
X786610Y-12594984D02*
X805658Y-12604508D01*
X805658Y-12604508D02*
X815182Y-12614031D01*
X815182Y-12614031D02*
X824705Y-12633079D01*
X824705Y-12633079D02*
X834229Y-12671174D01*
X834229Y-12671174D02*
X834229Y-12718793D01*
X834229Y-12718793D02*
X824705Y-12756888D01*
X824705Y-12756888D02*
X815182Y-12775936D01*
X815182Y-12775936D02*
X805658Y-12785460D01*
X805658Y-12785460D02*
X786610Y-12794984D01*
X786610Y-12794984D02*
X767562Y-12794984D01*
X767562Y-12794984D02*
X748515Y-12785460D01*
X748515Y-12785460D02*
X738991Y-12775936D01*
X738991Y-12775936D02*
X729467Y-12756888D01*
X729467Y-12756888D02*
X719943Y-12718793D01*
X719943Y-12718793D02*
X719943Y-12671174D01*
X719943Y-12671174D02*
X729467Y-12633079D01*
X729467Y-12633079D02*
X738991Y-12614031D01*
X738991Y-12614031D02*
X748515Y-12604508D01*
X748515Y-12604508D02*
X767562Y-12594984D01*
X958039Y-12594984D02*
X977086Y-12594984D01*
X977086Y-12594984D02*
X996134Y-12604508D01*
X996134Y-12604508D02*
X1005658Y-12614031D01*
X1005658Y-12614031D02*
X1015182Y-12633079D01*
X1015182Y-12633079D02*
X1024705Y-12671174D01*
X1024705Y-12671174D02*
X1024705Y-12718793D01*
X1024705Y-12718793D02*
X1015182Y-12756888D01*
X1015182Y-12756888D02*
X1005658Y-12775936D01*
X1005658Y-12775936D02*
X996134Y-12785460D01*
X996134Y-12785460D02*
X977086Y-12794984D01*
X977086Y-12794984D02*
X958039Y-12794984D01*
X958039Y-12794984D02*
X938991Y-12785460D01*
X938991Y-12785460D02*
X929467Y-12775936D01*
X929467Y-12775936D02*
X919943Y-12756888D01*
X919943Y-12756888D02*
X910420Y-12718793D01*
X910420Y-12718793D02*
X910420Y-12671174D01*
X910420Y-12671174D02*
X919943Y-12633079D01*
X919943Y-12633079D02*
X929467Y-12614031D01*
X929467Y-12614031D02*
X938991Y-12604508D01*
X938991Y-12604508D02*
X958039Y-12594984D01*
X1110420Y-12794984D02*
X1110420Y-12661650D01*
X1110420Y-12680698D02*
X1119944Y-12671174D01*
X1119944Y-12671174D02*
X1138991Y-12661650D01*
X1138991Y-12661650D02*
X1167563Y-12661650D01*
X1167563Y-12661650D02*
X1186610Y-12671174D01*
X1186610Y-12671174D02*
X1196134Y-12690222D01*
X1196134Y-12690222D02*
X1196134Y-12794984D01*
X1196134Y-12690222D02*
X1205658Y-12671174D01*
X1205658Y-12671174D02*
X1224705Y-12661650D01*
X1224705Y-12661650D02*
X1253277Y-12661650D01*
X1253277Y-12661650D02*
X1272325Y-12671174D01*
X1272325Y-12671174D02*
X1281848Y-12690222D01*
X1281848Y-12690222D02*
X1281848Y-12794984D01*
X1377086Y-12794984D02*
X1377086Y-12661650D01*
X1377086Y-12680698D02*
X1386610Y-12671174D01*
X1386610Y-12671174D02*
X1405658Y-12661650D01*
X1405658Y-12661650D02*
X1434229Y-12661650D01*
X1434229Y-12661650D02*
X1453277Y-12671174D01*
X1453277Y-12671174D02*
X1462801Y-12690222D01*
X1462801Y-12690222D02*
X1462801Y-12794984D01*
X1462801Y-12690222D02*
X1472324Y-12671174D01*
X1472324Y-12671174D02*
X1491372Y-12661650D01*
X1491372Y-12661650D02*
X1519943Y-12661650D01*
X1519943Y-12661650D02*
X1538991Y-12671174D01*
X1538991Y-12671174D02*
X1548515Y-12690222D01*
X1548515Y-12690222D02*
X1548515Y-12794984D01*
X1938991Y-12585460D02*
X1767563Y-12842603D01*
X2196134Y-12594984D02*
X2215182Y-12594984D01*
X2215182Y-12594984D02*
X2234229Y-12604508D01*
X2234229Y-12604508D02*
X2243753Y-12614031D01*
X2243753Y-12614031D02*
X2253277Y-12633079D01*
X2253277Y-12633079D02*
X2262801Y-12671174D01*
X2262801Y-12671174D02*
X2262801Y-12718793D01*
X2262801Y-12718793D02*
X2253277Y-12756888D01*
X2253277Y-12756888D02*
X2243753Y-12775936D01*
X2243753Y-12775936D02*
X2234229Y-12785460D01*
X2234229Y-12785460D02*
X2215182Y-12794984D01*
X2215182Y-12794984D02*
X2196134Y-12794984D01*
X2196134Y-12794984D02*
X2177087Y-12785460D01*
X2177087Y-12785460D02*
X2167563Y-12775936D01*
X2167563Y-12775936D02*
X2158039Y-12756888D01*
X2158039Y-12756888D02*
X2148515Y-12718793D01*
X2148515Y-12718793D02*
X2148515Y-12671174D01*
X2148515Y-12671174D02*
X2158039Y-12633079D01*
X2158039Y-12633079D02*
X2167563Y-12614031D01*
X2167563Y-12614031D02*
X2177087Y-12604508D01*
X2177087Y-12604508D02*
X2196134Y-12594984D01*
X2348515Y-12775936D02*
X2358039Y-12785460D01*
X2358039Y-12785460D02*
X2348515Y-12794984D01*
X2348515Y-12794984D02*
X2338991Y-12785460D01*
X2338991Y-12785460D02*
X2348515Y-12775936D01*
X2348515Y-12775936D02*
X2348515Y-12794984D01*
X2481848Y-12594984D02*
X2500896Y-12594984D01*
X2500896Y-12594984D02*
X2519944Y-12604508D01*
X2519944Y-12604508D02*
X2529468Y-12614031D01*
X2529468Y-12614031D02*
X2538991Y-12633079D01*
X2538991Y-12633079D02*
X2548515Y-12671174D01*
X2548515Y-12671174D02*
X2548515Y-12718793D01*
X2548515Y-12718793D02*
X2538991Y-12756888D01*
X2538991Y-12756888D02*
X2529468Y-12775936D01*
X2529468Y-12775936D02*
X2519944Y-12785460D01*
X2519944Y-12785460D02*
X2500896Y-12794984D01*
X2500896Y-12794984D02*
X2481848Y-12794984D01*
X2481848Y-12794984D02*
X2462801Y-12785460D01*
X2462801Y-12785460D02*
X2453277Y-12775936D01*
X2453277Y-12775936D02*
X2443753Y-12756888D01*
X2443753Y-12756888D02*
X2434229Y-12718793D01*
X2434229Y-12718793D02*
X2434229Y-12671174D01*
X2434229Y-12671174D02*
X2443753Y-12633079D01*
X2443753Y-12633079D02*
X2453277Y-12614031D01*
X2453277Y-12614031D02*
X2462801Y-12604508D01*
X2462801Y-12604508D02*
X2481848Y-12594984D01*
X2729468Y-12594984D02*
X2634229Y-12594984D01*
X2634229Y-12594984D02*
X2624706Y-12690222D01*
X2624706Y-12690222D02*
X2634229Y-12680698D01*
X2634229Y-12680698D02*
X2653277Y-12671174D01*
X2653277Y-12671174D02*
X2700896Y-12671174D01*
X2700896Y-12671174D02*
X2719944Y-12680698D01*
X2719944Y-12680698D02*
X2729468Y-12690222D01*
X2729468Y-12690222D02*
X2738991Y-12709269D01*
X2738991Y-12709269D02*
X2738991Y-12756888D01*
X2738991Y-12756888D02*
X2729468Y-12775936D01*
X2729468Y-12775936D02*
X2719944Y-12785460D01*
X2719944Y-12785460D02*
X2700896Y-12794984D01*
X2700896Y-12794984D02*
X2653277Y-12794984D01*
X2653277Y-12794984D02*
X2634229Y-12785460D01*
X2634229Y-12785460D02*
X2624706Y-12775936D01*
X2929467Y-12794984D02*
X2815182Y-12794984D01*
X2872325Y-12794984D02*
X2872325Y-12594984D01*
X2872325Y-12594984D02*
X2853277Y-12623555D01*
X2853277Y-12623555D02*
X2834229Y-12642603D01*
X2834229Y-12642603D02*
X2815182Y-12652127D01*
X3005658Y-12614031D02*
X3015182Y-12604508D01*
X3015182Y-12604508D02*
X3034229Y-12594984D01*
X3034229Y-12594984D02*
X3081848Y-12594984D01*
X3081848Y-12594984D02*
X3100896Y-12604508D01*
X3100896Y-12604508D02*
X3110420Y-12614031D01*
X3110420Y-12614031D02*
X3119944Y-12633079D01*
X3119944Y-12633079D02*
X3119944Y-12652127D01*
X3119944Y-12652127D02*
X3110420Y-12680698D01*
X3110420Y-12680698D02*
X2996134Y-12794984D01*
X2996134Y-12794984D02*
X3119944Y-12794984D01*
X3196134Y-12594984D02*
X3196134Y-12633079D01*
X3272325Y-12594984D02*
X3272325Y-12633079D01*
X3567563Y-12871174D02*
X3558039Y-12861650D01*
X3558039Y-12861650D02*
X3538991Y-12833079D01*
X3538991Y-12833079D02*
X3529468Y-12814031D01*
X3529468Y-12814031D02*
X3519944Y-12785460D01*
X3519944Y-12785460D02*
X3510420Y-12737841D01*
X3510420Y-12737841D02*
X3510420Y-12699746D01*
X3510420Y-12699746D02*
X3519944Y-12652127D01*
X3519944Y-12652127D02*
X3529468Y-12623555D01*
X3529468Y-12623555D02*
X3538991Y-12604508D01*
X3538991Y-12604508D02*
X3558039Y-12575936D01*
X3558039Y-12575936D02*
X3567563Y-12566412D01*
X3634229Y-12614031D02*
X3643753Y-12604508D01*
X3643753Y-12604508D02*
X3662801Y-12594984D01*
X3662801Y-12594984D02*
X3710420Y-12594984D01*
X3710420Y-12594984D02*
X3729468Y-12604508D01*
X3729468Y-12604508D02*
X3738991Y-12614031D01*
X3738991Y-12614031D02*
X3748515Y-12633079D01*
X3748515Y-12633079D02*
X3748515Y-12652127D01*
X3748515Y-12652127D02*
X3738991Y-12680698D01*
X3738991Y-12680698D02*
X3624706Y-12794984D01*
X3624706Y-12794984D02*
X3748515Y-12794984D01*
X3986610Y-12794984D02*
X3986610Y-12594984D01*
X4072325Y-12794984D02*
X4072325Y-12690222D01*
X4072325Y-12690222D02*
X4062801Y-12671174D01*
X4062801Y-12671174D02*
X4043753Y-12661650D01*
X4043753Y-12661650D02*
X4015182Y-12661650D01*
X4015182Y-12661650D02*
X3996134Y-12671174D01*
X3996134Y-12671174D02*
X3986610Y-12680698D01*
X4196134Y-12794984D02*
X4177087Y-12785460D01*
X4177087Y-12785460D02*
X4167563Y-12775936D01*
X4167563Y-12775936D02*
X4158039Y-12756888D01*
X4158039Y-12756888D02*
X4158039Y-12699746D01*
X4158039Y-12699746D02*
X4167563Y-12680698D01*
X4167563Y-12680698D02*
X4177087Y-12671174D01*
X4177087Y-12671174D02*
X4196134Y-12661650D01*
X4196134Y-12661650D02*
X4224706Y-12661650D01*
X4224706Y-12661650D02*
X4243753Y-12671174D01*
X4243753Y-12671174D02*
X4253277Y-12680698D01*
X4253277Y-12680698D02*
X4262801Y-12699746D01*
X4262801Y-12699746D02*
X4262801Y-12756888D01*
X4262801Y-12756888D02*
X4253277Y-12775936D01*
X4253277Y-12775936D02*
X4243753Y-12785460D01*
X4243753Y-12785460D02*
X4224706Y-12794984D01*
X4224706Y-12794984D02*
X4196134Y-12794984D01*
X4377087Y-12794984D02*
X4358039Y-12785460D01*
X4358039Y-12785460D02*
X4348515Y-12766412D01*
X4348515Y-12766412D02*
X4348515Y-12594984D01*
X4529468Y-12785460D02*
X4510420Y-12794984D01*
X4510420Y-12794984D02*
X4472325Y-12794984D01*
X4472325Y-12794984D02*
X4453277Y-12785460D01*
X4453277Y-12785460D02*
X4443753Y-12766412D01*
X4443753Y-12766412D02*
X4443753Y-12690222D01*
X4443753Y-12690222D02*
X4453277Y-12671174D01*
X4453277Y-12671174D02*
X4472325Y-12661650D01*
X4472325Y-12661650D02*
X4510420Y-12661650D01*
X4510420Y-12661650D02*
X4529468Y-12671174D01*
X4529468Y-12671174D02*
X4538992Y-12690222D01*
X4538992Y-12690222D02*
X4538992Y-12709269D01*
X4538992Y-12709269D02*
X4443753Y-12728317D01*
X4615182Y-12785460D02*
X4634230Y-12794984D01*
X4634230Y-12794984D02*
X4672325Y-12794984D01*
X4672325Y-12794984D02*
X4691373Y-12785460D01*
X4691373Y-12785460D02*
X4700896Y-12766412D01*
X4700896Y-12766412D02*
X4700896Y-12756888D01*
X4700896Y-12756888D02*
X4691373Y-12737841D01*
X4691373Y-12737841D02*
X4672325Y-12728317D01*
X4672325Y-12728317D02*
X4643753Y-12728317D01*
X4643753Y-12728317D02*
X4624706Y-12718793D01*
X4624706Y-12718793D02*
X4615182Y-12699746D01*
X4615182Y-12699746D02*
X4615182Y-12690222D01*
X4615182Y-12690222D02*
X4624706Y-12671174D01*
X4624706Y-12671174D02*
X4643753Y-12661650D01*
X4643753Y-12661650D02*
X4672325Y-12661650D01*
X4672325Y-12661650D02*
X4691373Y-12671174D01*
X4767563Y-12871174D02*
X4777087Y-12861650D01*
X4777087Y-12861650D02*
X4796134Y-12833079D01*
X4796134Y-12833079D02*
X4805658Y-12814031D01*
X4805658Y-12814031D02*
X4815182Y-12785460D01*
X4815182Y-12785460D02*
X4824706Y-12737841D01*
X4824706Y-12737841D02*
X4824706Y-12699746D01*
X4824706Y-12699746D02*
X4815182Y-12652127D01*
X4815182Y-12652127D02*
X4805658Y-12623555D01*
X4805658Y-12623555D02*
X4796134Y-12604508D01*
X4796134Y-12604508D02*
X4777087Y-12575936D01*
X4777087Y-12575936D02*
X4767563Y-12566412D01*
M02*
