%TF.GenerationSoftware,KiCad,Pcbnew,10.0.6*%
%TF.CreationDate,2026-09-19T16:40:09-07:00*%
%TF.ProjectId,jaladarangam-control-board,6a616c61-6461-4726-916e-67616d2d636f,rev?*%
%TF.SameCoordinates,Original*%
%TF.FileFunction,Soldermask,Bot*%
%TF.FilePolarity,Negative*%
%FSLAX46Y46*%
G04 Gerber Fmt 4.6, Leading zero omitted, Abs format (unit mm)*
G04 Created by KiCad (PCBNEW 10.0.6) date 2026-09-19 16:40:09*
%MOMM*%
%LPD*%
G01*
G04 APERTURE LIST*
G04 Aperture macros list*
%AMRoundRect*
0 Rectangle with rounded corners*
0 $1 Rounding radius*
0 $2 $3 $4 $5 $6 $7 $8 $9 X,Y pos of 4 corners*
0 Add a 4 corners polygon primitive as box body*
4,1,4,$2,$3,$4,$5,$6,$7,$8,$9,$2,$3,0*
0 Add four circle primitives for the rounded corners*
1,1,$1+$1,$2,$3*
1,1,$1+$1,$4,$5*
1,1,$1+$1,$6,$7*
1,1,$1+$1,$8,$9*
0 Add four rect primitives between the rounded corners*
20,1,$1+$1,$2,$3,$4,$5,0*
20,1,$1+$1,$4,$5,$6,$7,0*
20,1,$1+$1,$6,$7,$8,$9,0*
20,1,$1+$1,$8,$9,$2,$3,0*%
G04 Aperture macros list end*
%ADD10C,1.600000*%
%ADD11R,1.700000X1.700000*%
%ADD12C,1.700000*%
%ADD13RoundRect,0.250000X0.550000X-0.550000X0.550000X0.550000X-0.550000X0.550000X-0.550000X-0.550000X0*%
%ADD14RoundRect,0.250000X-0.550000X-0.550000X0.550000X-0.550000X0.550000X0.550000X-0.550000X0.550000X0*%
%ADD15RoundRect,0.250001X1.149999X1.149999X-1.149999X1.149999X-1.149999X-1.149999X1.149999X-1.149999X0*%
%ADD16C,2.800000*%
G04 APERTURE END LIST*
D10*
%TO.C,R11*%
X41000000Y-79080000D03*
X41000000Y-68920000D03*
%TD*%
D11*
%TO.C,J5*%
X47500000Y-5730000D03*
D12*
X47500000Y-8270000D03*
%TD*%
D13*
%TO.C,U1*%
X41110000Y-45810000D03*
D10*
X43650000Y-45810000D03*
X46190000Y-45810000D03*
X48730000Y-45810000D03*
X51270000Y-45810000D03*
X53810000Y-45810000D03*
X56350000Y-45810000D03*
X58890000Y-45810000D03*
X58890000Y-38190000D03*
X56350000Y-38190000D03*
X53810000Y-38190000D03*
X51270000Y-38190000D03*
X48730000Y-38190000D03*
X46190000Y-38190000D03*
X43650000Y-38190000D03*
X41110000Y-38190000D03*
%TD*%
%TO.C,R8*%
X73500000Y-27080000D03*
X73500000Y-16920000D03*
%TD*%
D11*
%TO.C,J14*%
X139000000Y-50730000D03*
D12*
X139000000Y-53270000D03*
%TD*%
D11*
%TO.C,J2*%
X28000000Y-5730000D03*
D12*
X28000000Y-8270000D03*
%TD*%
D11*
%TO.C,J13*%
X139000000Y-42230000D03*
D12*
X139000000Y-44770000D03*
%TD*%
D11*
%TO.C,J15*%
X139000000Y-59230000D03*
D12*
X139000000Y-61770000D03*
%TD*%
D10*
%TO.C,R7*%
X67000000Y-27080000D03*
X67000000Y-16920000D03*
%TD*%
D11*
%TO.C,J6*%
X54000000Y-5730000D03*
D12*
X54000000Y-8270000D03*
%TD*%
D11*
%TO.C,J3*%
X34500000Y-5730000D03*
D12*
X34500000Y-8270000D03*
%TD*%
D11*
%TO.C,J10*%
X139000000Y-16730000D03*
D12*
X139000000Y-19270000D03*
%TD*%
D10*
%TO.C,R3*%
X41000000Y-27080000D03*
X41000000Y-16920000D03*
%TD*%
%TO.C,C3*%
X121500000Y-34000000D03*
X126500000Y-34000000D03*
%TD*%
D11*
%TO.C,J1*%
X6730000Y-30870000D03*
D12*
X9270000Y-30870000D03*
X6730000Y-33410000D03*
X9270000Y-33410000D03*
X6730000Y-35950000D03*
X9270000Y-35950000D03*
X6730000Y-38490000D03*
X9270000Y-38490000D03*
X6730000Y-41030000D03*
X9270000Y-41030000D03*
X6730000Y-43570000D03*
X9270000Y-43570000D03*
X6730000Y-46110000D03*
X9270000Y-46110000D03*
X6730000Y-48650000D03*
X9270000Y-48650000D03*
X6730000Y-51190000D03*
X9270000Y-51190000D03*
X6730000Y-53730000D03*
X9270000Y-53730000D03*
X6730000Y-56270000D03*
X9270000Y-56270000D03*
X6730000Y-58810000D03*
X9270000Y-58810000D03*
X6730000Y-61350000D03*
X9270000Y-61350000D03*
X6730000Y-63890000D03*
X9270000Y-63890000D03*
X6730000Y-66430000D03*
X9270000Y-66430000D03*
X6730000Y-68970000D03*
X9270000Y-68970000D03*
X6730000Y-71510000D03*
X9270000Y-71510000D03*
X6730000Y-74050000D03*
X9270000Y-74050000D03*
X6730000Y-76590000D03*
X9270000Y-76590000D03*
X6730000Y-79130000D03*
X9270000Y-79130000D03*
%TD*%
D10*
%TO.C,R1*%
X28000000Y-27080000D03*
X28000000Y-16920000D03*
%TD*%
D14*
%TO.C,C7*%
X14750000Y-41000000D03*
D10*
X17250000Y-41000000D03*
%TD*%
D11*
%TO.C,J4*%
X41000000Y-5730000D03*
D12*
X41000000Y-8270000D03*
%TD*%
D10*
%TO.C,C5*%
X93500000Y-92000000D03*
X98500000Y-92000000D03*
%TD*%
D11*
%TO.C,J8*%
X67000000Y-5730000D03*
D12*
X67000000Y-8270000D03*
%TD*%
D11*
%TO.C,J11*%
X139000000Y-25230000D03*
D12*
X139000000Y-27770000D03*
%TD*%
D10*
%TO.C,R16*%
X73500000Y-79080000D03*
X73500000Y-68920000D03*
%TD*%
%TO.C,R2*%
X34500000Y-27080000D03*
X34500000Y-16920000D03*
%TD*%
D11*
%TO.C,J7*%
X60500000Y-5730000D03*
D12*
X60500000Y-8270000D03*
%TD*%
D10*
%TO.C,R4*%
X47500000Y-27080000D03*
X47500000Y-16920000D03*
%TD*%
D14*
%TO.C,C2*%
X67750000Y-47000000D03*
D10*
X70250000Y-47000000D03*
%TD*%
%TO.C,R9*%
X28000000Y-79080000D03*
X28000000Y-68920000D03*
%TD*%
%TO.C,C4*%
X66500000Y-90000000D03*
X71500000Y-90000000D03*
%TD*%
%TO.C,R14*%
X60500000Y-79080000D03*
X60500000Y-68920000D03*
%TD*%
D14*
%TO.C,C8*%
X105250000Y-92000000D03*
D10*
X108750000Y-92000000D03*
%TD*%
D11*
%TO.C,J19*%
X24570000Y-103000000D03*
D12*
X27110000Y-103000000D03*
X29650000Y-103000000D03*
X32190000Y-103000000D03*
X34730000Y-103000000D03*
X37270000Y-103000000D03*
X39810000Y-103000000D03*
X42350000Y-103000000D03*
X44890000Y-103000000D03*
X47430000Y-103000000D03*
%TD*%
D15*
%TO.C,J18*%
X124500000Y-92000000D03*
D16*
X119500000Y-92000000D03*
%TD*%
D10*
%TO.C,R6*%
X60500000Y-27080000D03*
X60500000Y-16920000D03*
%TD*%
D13*
%TO.C,U2*%
X97110000Y-27810000D03*
D10*
X99650000Y-27810000D03*
X102190000Y-27810000D03*
X104730000Y-27810000D03*
X107270000Y-27810000D03*
X109810000Y-27810000D03*
X112350000Y-27810000D03*
X114890000Y-27810000D03*
X114890000Y-20190000D03*
X112350000Y-20190000D03*
X109810000Y-20190000D03*
X107270000Y-20190000D03*
X104730000Y-20190000D03*
X102190000Y-20190000D03*
X99650000Y-20190000D03*
X97110000Y-20190000D03*
%TD*%
D11*
%TO.C,J16*%
X139000000Y-67730000D03*
D12*
X139000000Y-70270000D03*
%TD*%
D10*
%TO.C,R13*%
X54000000Y-79080000D03*
X54000000Y-68920000D03*
%TD*%
%TO.C,R12*%
X47500000Y-79080000D03*
X47500000Y-68920000D03*
%TD*%
%TO.C,R5*%
X54000000Y-27080000D03*
X54000000Y-16920000D03*
%TD*%
%TO.C,R10*%
X34500000Y-79080000D03*
X34500000Y-68920000D03*
%TD*%
D11*
%TO.C,J9*%
X73500000Y-5730000D03*
D12*
X73500000Y-8270000D03*
%TD*%
D10*
%TO.C,C1*%
X66500000Y-36000000D03*
X71500000Y-36000000D03*
%TD*%
%TO.C,R15*%
X67000000Y-79080000D03*
X67000000Y-68920000D03*
%TD*%
D11*
%TO.C,J12*%
X139000000Y-33730000D03*
D12*
X139000000Y-36270000D03*
%TD*%
D13*
%TO.C,U3*%
X95840000Y-53810000D03*
D10*
X98380000Y-53810000D03*
X100920000Y-53810000D03*
X103460000Y-53810000D03*
X106000000Y-53810000D03*
X108540000Y-53810000D03*
X111080000Y-53810000D03*
X113620000Y-53810000D03*
X116160000Y-53810000D03*
X116160000Y-46190000D03*
X113620000Y-46190000D03*
X111080000Y-46190000D03*
X108540000Y-46190000D03*
X106000000Y-46190000D03*
X103460000Y-46190000D03*
X100920000Y-46190000D03*
X98380000Y-46190000D03*
X95840000Y-46190000D03*
%TD*%
D13*
%TO.C,U4*%
X41110000Y-93810000D03*
D10*
X43650000Y-93810000D03*
X46190000Y-93810000D03*
X48730000Y-93810000D03*
X51270000Y-93810000D03*
X53810000Y-93810000D03*
X56350000Y-93810000D03*
X58890000Y-93810000D03*
X58890000Y-86190000D03*
X56350000Y-86190000D03*
X53810000Y-86190000D03*
X51270000Y-86190000D03*
X48730000Y-86190000D03*
X46190000Y-86190000D03*
X43650000Y-86190000D03*
X41110000Y-86190000D03*
%TD*%
%TO.C,C6*%
X13500000Y-30000000D03*
X18500000Y-30000000D03*
%TD*%
D11*
%TO.C,J17*%
X139000000Y-76230000D03*
D12*
X139000000Y-78770000D03*
%TD*%
M02*
